<svg width="1280" height="690" viewBox="0 0 1280 690" fill="none" xmlns="http://www.w3.org/2000/svg">
<path d="M292.803 242.922H286.377L287.448 242.502C287.133 241.914 286.44 240.948 285.873 240.276L284.382 240.78C284.907 241.431 285.495 242.313 285.831 242.922H279.594V244.182H292.803V242.922ZM281.253 249.579H291.018V248.382H281.253V249.579ZM291.018 245.61H281.253V246.807H291.018V245.61ZM282.513 252.309H289.59V254.913H282.513V252.309ZM281.022 256.11H291.123V251.112H281.022V256.11ZM278.187 243.804C277.788 242.943 277.053 241.557 276.486 240.465L275.163 240.969C275.688 242.061 276.423 243.531 276.822 244.434L278.187 243.804ZM278.502 250.167L278.271 250.23H276.822C277.473 248.781 278.25 247.017 278.838 245.505H274.05V246.912H276.759C276.108 248.571 275.331 250.356 274.701 251.595H277.725C277.284 253.212 276.507 254.955 275.52 256.11L275.562 256.131C274.974 256.572 274.344 257.349 273.714 258.231L274.764 259.659C275.373 258.357 276.129 257.076 276.591 257.076C277.074 257.076 277.83 257.748 278.67 258.252C280.224 259.155 282.072 259.386 284.823 259.386C287.301 259.386 291.291 259.26 292.845 259.155C292.866 258.693 293.118 257.916 293.307 257.496C290.976 257.748 287.532 257.937 284.886 257.937C282.408 257.937 280.497 257.79 279.006 256.929C278.25 256.488 277.767 256.11 277.368 255.9C278.313 254.409 279.048 252.456 279.447 250.587L278.502 250.167ZM299.754 252.834H309.267V254.304H299.754V252.834ZM309.267 245.946V247.353H299.754V245.946H309.267ZM309.267 250.566V251.826H299.754V250.566H309.267ZM309.267 249.558H299.754V248.361H309.267V249.558ZM313.761 254.304H310.821V244.875H304.773C304.857 244.476 304.941 244.035 305.025 243.552H313.236V242.208H305.256L305.529 240.591L303.87 240.402C303.828 240.927 303.765 241.578 303.681 242.208H295.848V243.552H303.492C303.45 244.035 303.366 244.476 303.282 244.875H298.242V254.304H295.26V255.627H313.761V254.304ZM301.308 256.047C299.985 256.929 297.36 257.958 295.26 258.525C295.596 258.819 296.079 259.302 296.331 259.617C298.41 259.029 301.014 257.979 302.673 256.929L301.308 256.047ZM306.453 256.992C308.784 257.769 311.157 258.777 312.585 259.575L313.845 258.483C312.312 257.727 309.75 256.719 307.419 255.984L306.453 256.992ZM322.728 249.579H318.318V245.19H322.728V249.579ZM318.318 256.005V250.965H322.728V256.005H318.318ZM320.082 240.381C319.935 241.368 319.557 242.775 319.242 243.783H316.89V259.071H318.318V257.412H324.156V243.783H320.67C321.027 242.88 321.405 241.725 321.762 240.696L320.082 240.381ZM334.425 243.72H328.146C328.503 242.733 328.797 241.725 329.049 240.696L327.558 240.339C326.886 243.216 325.752 246.114 324.345 247.962C324.681 248.172 325.353 248.592 325.626 248.844C326.361 247.857 327.012 246.576 327.6 245.169H332.934C332.661 253.527 332.346 256.719 331.653 257.454C331.443 257.727 331.212 257.769 330.792 257.769C330.309 257.769 329.049 257.769 327.684 257.643C327.978 258.084 328.167 258.714 328.209 259.176C329.385 259.239 330.582 259.281 331.317 259.197C332.031 259.134 332.514 258.945 332.976 258.357C333.816 257.328 334.089 254.094 334.425 244.518V243.72ZM331.107 253.17C330.435 251.931 328.986 249.915 327.81 248.424L326.592 249.138C327.747 250.65 329.154 252.729 329.784 253.989L331.107 253.17ZM351.876 244.182H341.019V242.481H351.876V244.182ZM351.876 247.017H341.019V245.316H351.876V247.017ZM353.43 241.284H339.486V248.214H353.43V241.284ZM347.445 254.745H354.375V253.359H347.445V251.028H355.74V249.621H337.302V251.028H345.912V257.349C344.106 256.866 342.762 255.9 341.943 254.01C342.153 253.338 342.342 252.645 342.489 251.91L340.914 251.7C340.347 254.766 339.024 257.118 336.84 258.525C337.176 258.777 337.785 259.365 337.995 259.638C339.36 258.63 340.452 257.328 341.271 255.69C342.972 258.525 345.639 259.197 349.86 259.197H355.572C355.656 258.735 355.908 258.063 356.118 257.706C355.047 257.727 350.7 257.727 349.923 257.727C349.041 257.727 348.201 257.685 347.445 257.601V254.745ZM364.014 246.408C363.972 248.445 363.699 250.881 362.544 253.275C361.746 252.582 360.906 251.931 360.108 251.322C360.465 249.957 360.864 248.277 361.2 246.576L364.014 246.408ZM366.702 246.24L366.723 244.812L365.505 244.875V243.426H364.035V244.959L361.473 245.106C361.746 243.552 361.998 241.977 362.166 240.57L360.633 240.486C360.486 241.914 360.255 243.573 359.961 245.169C359.184 245.19 358.47 245.232 357.861 245.253L358.029 246.744L359.688 246.66C359.268 248.613 358.827 250.482 358.407 251.847C359.478 252.666 360.675 253.632 361.788 254.619C360.906 256.005 359.667 257.37 357.945 258.588C358.26 258.819 358.806 259.323 359.037 259.659C360.738 258.42 362.019 257.055 362.943 255.648C363.909 256.551 364.77 257.412 365.358 258.126L366.366 256.824C365.736 256.089 364.791 255.207 363.741 254.283C365.127 251.511 365.442 248.676 365.505 246.324L366.702 246.24ZM377.076 249.285H372.456V247.269C373.926 245.988 375.417 244.224 376.446 242.67L375.375 241.893L375.018 241.977H366.954V243.426H373.947C373.086 244.644 371.952 246.009 370.881 246.891V249.285H366.03V250.776H370.881V257.748C370.881 258.042 370.755 258.147 370.419 258.147C370.104 258.168 368.949 258.168 367.71 258.126C367.941 258.567 368.193 259.176 368.277 259.617C369.915 259.638 370.923 259.596 371.574 259.365C372.225 259.113 372.456 258.672 372.456 257.748V250.776H377.076V249.285ZM382.788 250.041H387.66V252.078H382.788V250.041ZM382.788 246.891H387.66V248.886H382.788V246.891ZM394.401 246.891V248.886H389.235V246.891H394.401ZM394.401 252.078H389.235V250.041H394.401V252.078ZM395.976 253.296V245.652H389.235V243.888H397.656V242.418H389.235V240.444H387.66V242.418H379.449V243.888H387.66V245.652H381.276V253.296H386.358C384.489 255.249 381.57 257.055 378.924 257.979C379.302 258.294 379.764 258.882 380.016 259.281C382.683 258.189 385.665 256.194 387.66 253.947V259.596H389.235V253.884C391.251 256.152 394.317 258.231 397.047 259.323C397.278 258.882 397.761 258.294 398.139 257.979C395.451 257.076 392.469 255.27 390.558 253.296H395.976ZM410.928 246.324H407.925V243.321H410.928V246.324ZM416.157 247.773V251.679C416.073 251.7 415.947 251.7 415.737 251.7H413.217C412.503 251.7 412.419 251.616 412.419 251.07V247.773H416.157ZM402.969 256.782V252.876C403.263 253.107 403.704 253.653 403.872 253.968C407.022 252.414 407.799 249.978 407.904 247.773H410.928V251.07C410.928 252.75 411.327 253.191 413.049 253.191H415.884H416.157V256.782H402.969ZM406.476 247.773C406.371 249.579 405.762 251.469 402.969 252.855V247.773H406.476ZM418.635 243.321V241.809H400.323V243.321H406.497V246.324H401.436V259.533H402.969V258.231H416.157V259.449H417.711V246.324H412.419V243.321H418.635ZM429.807 252.918H431.193L431.718 244.77L431.76 242.292H429.24L429.303 244.77L429.807 252.918ZM430.5 258.105C431.424 258.105 432.18 257.475 432.18 256.446C432.18 255.459 431.424 254.808 430.5 254.808C429.576 254.808 428.82 255.459 428.82 256.446C428.82 257.475 429.576 258.105 430.5 258.105ZM150.255 290.888H154.749C154.287 292.736 153.006 293.555 148.974 293.975C149.247 294.248 149.583 294.836 149.709 295.172C154.266 294.605 155.757 293.387 156.282 290.888H158.487V292.673C158.487 293.996 158.823 294.605 160.335 294.605H163.8C164.409 294.605 165.144 294.584 165.459 294.479C165.396 294.101 165.354 293.681 165.312 293.261C164.976 293.345 164.157 293.366 163.716 293.366H160.608C160.104 293.366 160.02 293.198 160.02 292.673V290.888H164.766V292.862H166.341V289.544H158.76C158.571 288.893 158.235 287.99 157.941 287.318L156.366 287.696C156.618 288.242 156.87 288.956 157.017 289.544H148.722V292.883H150.255V290.888ZM160.167 296.789V299.519H152.376C152.628 298.658 152.88 297.671 153.09 296.789H160.167ZM166.425 299.519H161.7V296.789H165.774V295.529H149.814V296.789H151.515C151.221 298.154 150.822 299.792 150.486 300.884H158.025C155.463 302.522 151.578 303.824 148.113 304.454C148.428 304.748 148.848 305.336 149.058 305.735C152.943 304.916 157.416 303.131 160.041 300.884H160.167V304.748C160.167 305.042 160.083 305.105 159.726 305.126C159.411 305.168 158.256 305.168 156.996 305.126C157.227 305.546 157.458 306.134 157.542 306.554C159.159 306.575 160.209 306.554 160.86 306.302C161.49 306.071 161.7 305.672 161.7 304.769V300.884H166.425V299.519ZM185.43 289.817V294.626H180.642V289.817H185.43ZM185.661 303.194C187.509 303.194 187.95 302.312 188.181 299.456C187.74 299.372 187.131 299.12 186.774 298.847C186.648 301.241 186.501 301.766 185.598 301.766H181.881C180.831 301.766 180.642 301.577 180.642 300.674V296.012H186.942V288.431H179.13V300.674C179.13 302.669 179.76 303.194 181.755 303.194H185.661ZM174.846 299.729H177.849V298.343H174.846V295.235H178.038V293.828H174.51V291.182H177.534V289.796H174.51V287.465H173.019V289.796H169.617V291.182H173.019V293.828H169.092V295.235H173.397V303.11C172.557 302.396 171.948 301.367 171.486 299.897C171.549 298.973 171.591 297.986 171.612 296.978L170.142 296.873C170.079 300.611 169.848 303.929 168.63 306.029C168.987 306.197 169.659 306.596 169.932 306.785C170.562 305.609 170.94 304.181 171.192 302.501C172.725 305.357 175.224 306.071 179.655 306.071H187.656C187.761 305.609 188.055 304.895 188.307 304.517C187.026 304.58 180.642 304.58 179.634 304.559C177.639 304.559 176.085 304.412 174.846 303.95V299.729ZM204.12 292.358C203.658 294.689 202.65 296.726 201.138 298.028C201.516 298.196 202.146 298.637 202.44 298.868C203.154 298.196 203.763 297.356 204.288 296.39C205.527 297.419 206.85 298.595 207.564 299.393L208.677 298.322C207.837 297.461 206.22 296.117 204.897 295.088C205.191 294.311 205.443 293.492 205.611 292.61L204.12 292.358ZM194.229 292.358C193.62 295.067 192.318 297.314 190.407 298.742C190.764 298.973 191.373 299.477 191.646 299.75C192.675 298.889 193.578 297.776 194.292 296.453C195.048 297.188 195.825 297.965 196.245 298.49L197.316 297.419C196.791 296.81 195.825 295.886 194.943 295.109C195.258 294.332 195.552 293.513 195.762 292.631L194.229 292.358ZM200.235 291.875H208.572V290.342H200.235V287.444H198.639V290.342H190.596V291.875H198.639V296.999C196.707 300.044 193.242 302.942 189.861 304.328C190.218 304.643 190.722 305.252 190.953 305.63C193.746 304.328 196.56 302.06 198.639 299.393V306.596H200.235V299.33C202.272 302.06 205.128 304.412 208.026 305.693C208.278 305.273 208.782 304.643 209.181 304.307C205.611 302.963 202.104 300.002 200.235 296.852V291.875ZM229.467 290.468V288.914H211.533V290.468H220.815C218.736 294.059 215.145 297.545 211.008 299.624C211.323 299.981 211.827 300.59 212.058 300.989C214.977 299.456 217.539 297.293 219.66 294.878V306.554H221.319V292.778C221.844 292.001 222.348 291.245 222.81 290.468H229.467ZM221.739 294.983C224.217 296.621 227.325 299.099 228.816 300.695L230.055 299.498C228.522 297.902 225.33 295.55 222.894 293.975L221.739 294.983ZM236.607 287.507C235.41 290.699 233.478 293.828 231.42 295.844C231.714 296.18 232.134 296.999 232.302 297.356C233.037 296.6 233.751 295.739 234.423 294.773V306.554H235.893V292.484C236.733 291.035 237.468 289.502 238.056 287.948L236.607 287.507ZM240.219 297.23V295.277H243.6V297.23H240.219ZM248.577 295.277V297.23H245.112V295.277H248.577ZM242.109 290.573H246.645V292.022H242.109V290.573ZM245.112 305.021V303.404H249.942V302.249H245.112V300.8H250.383V299.603H245.112V298.364H250.11V294.143H245.112V293.135H248.178V290.573H251.034V289.355H248.178V287.423H246.645V289.355H242.109V287.423H240.66V289.355H237.846V290.573H240.66V293.135H243.6V294.143H238.812V298.364H243.6V299.603H238.434V300.8H243.6V302.249H238.875V303.404H243.6V305.021H237.573V306.239H251.097V305.021H245.112ZM256.767 299.393H268.233V300.716H256.767V299.393ZM256.767 297.02H268.233V298.343H256.767V297.02ZM260.694 289.439H264.138V291.413H260.694V289.439ZM259.245 291.413H255.927V289.439H259.245V291.413ZM265.566 289.439H269.094V291.413H265.566V289.439ZM271.761 303.089H263.235V301.85H269.787V295.907H263.025V294.794H270.858V293.66H263.025V292.61H270.648V288.263H254.415V292.61H261.471V295.907H255.255V301.85H261.681V303.089H253.218V304.349H261.681V306.596H263.235V304.349H271.761V303.089ZM281.631 297.083C281.169 296.495 279.258 294.164 278.607 293.45V292.946H281.169V291.476H278.607V287.444H277.095V291.476H274.05V292.946H276.906C276.276 295.823 274.953 299.183 273.63 301.073C273.903 301.451 274.323 302.039 274.512 302.501C275.478 301.115 276.381 298.994 277.095 296.768V306.617H278.607V295.34C279.342 296.39 280.203 297.671 280.581 298.364L281.631 297.083ZM292.551 290.279V288.788H281.274V290.279H286.734C285.369 293.996 283.206 297.314 280.56 299.414C280.917 299.687 281.526 300.317 281.757 300.632C283.227 299.33 284.613 297.65 285.789 295.739V306.554H287.322V292.904C287.721 292.043 288.078 291.182 288.393 290.279H292.551ZM287.343 294.626C288.876 296.39 290.766 298.784 291.606 300.275L292.887 299.309C291.984 297.839 290.073 295.508 288.519 293.828L287.343 294.626ZM297.234 289.691H301.266V293.345H297.234V289.691ZM302.883 302.165C301.98 302.396 301.098 302.627 300.237 302.837V298.994H302.799V297.608H300.237V294.71H302.694V288.326H295.869V294.71H298.83V303.215L297.192 303.614V296.684H295.89V303.929L294.798 304.181L295.176 305.651C297.339 305.063 300.258 304.265 303.051 303.53L302.883 302.165ZM305.193 293.555H311.346V296.159H305.193V293.555ZM311.346 289.754V292.253H305.193V289.754H311.346ZM312.963 298.196C312.123 298.973 310.821 299.939 309.687 300.653C309.183 299.708 308.805 298.658 308.511 297.545H312.774V288.368H303.702V303.866C303.702 304.727 303.261 305.168 302.925 305.336C303.177 305.651 303.513 306.281 303.639 306.617C304.038 306.344 304.689 306.134 308.994 304.958C308.931 304.622 308.91 303.992 308.91 303.53L305.193 304.433V297.545H307.209C308.217 301.682 310.086 304.895 313.236 306.449C313.446 306.029 313.908 305.42 314.265 305.126C312.627 304.433 311.325 303.257 310.338 301.766C311.493 301.094 312.9 300.149 313.95 299.288L312.963 298.196ZM318.486 293.03C319.179 293.786 320.019 294.836 320.418 295.487L321.195 294.92V297.314C320.145 297.986 319.137 298.595 318.381 299.015C318.465 297.797 318.486 296.621 318.486 295.613V293.03ZM321.195 289.628V294.542C320.733 293.912 319.998 293.03 319.326 292.379L318.486 292.925V289.628H321.195ZM334.425 290.153H326.193C326.487 289.376 326.781 288.578 327.012 287.738L325.479 287.423C324.87 289.67 323.862 291.854 322.497 293.366V288.2H317.163V295.613C317.163 298.637 317.058 302.774 315.735 305.735C316.029 305.861 316.596 306.365 316.806 306.659C317.814 304.517 318.213 301.682 318.381 299.12L318.969 300.317C319.683 299.771 320.439 299.204 321.195 298.616V304.727C321.195 305.021 321.09 305.126 320.817 305.126C320.586 305.126 319.746 305.147 318.822 305.105C318.99 305.483 319.179 306.092 319.221 306.47C320.565 306.47 321.342 306.449 321.846 306.197C322.329 305.966 322.497 305.546 322.497 304.748V294.122C322.833 294.353 323.148 294.647 323.337 294.836C323.442 294.731 323.526 294.626 323.631 294.5V303.467H331.548V294.374H330.33V302.207H324.849V294.5H323.631C324.303 293.681 324.975 292.694 325.521 291.581H332.997C332.997 300.947 332.913 304.265 332.472 304.874C332.283 305.147 332.115 305.231 331.737 305.21C331.317 305.21 330.183 305.21 328.965 305.126C329.238 305.525 329.406 306.134 329.427 306.554C330.477 306.596 331.632 306.638 332.325 306.554C332.997 306.491 333.417 306.302 333.795 305.714C334.425 304.769 334.425 301.514 334.425 290.951V290.153ZM330.015 300.821C329.616 299.813 328.965 298.532 328.209 297.167C328.776 295.97 329.259 294.71 329.679 293.492L328.566 293.177C328.272 294.101 327.936 295.046 327.537 295.97C327.012 295.067 326.445 294.143 325.941 293.324L324.996 293.786C325.647 294.836 326.34 296.033 326.991 297.209C326.34 298.553 325.647 299.813 324.912 300.8C325.206 300.947 325.689 301.283 325.899 301.472C326.466 300.611 327.075 299.561 327.642 298.427C328.188 299.519 328.692 300.527 329.007 301.346L330.015 300.821ZM347.592 289.901H343.728C343.476 289.187 343.056 288.158 342.615 287.339L341.25 287.738C341.544 288.389 341.88 289.208 342.111 289.901H337.764V291.329H347.592V289.901ZM341.775 295.067C341.565 294.08 340.998 292.61 340.389 291.518L339.045 291.854C339.612 292.988 340.158 294.479 340.347 295.445L341.775 295.067ZM345.555 300.275V304.076H339.843V300.275H345.555ZM338.352 306.47H339.843V305.462H345.555V306.302H347.088V298.868H338.352V306.47ZM345.114 291.455C344.778 292.631 344.148 294.353 343.581 295.529H337.155V296.957H348.075V295.529H345.093C345.618 294.437 346.206 293.009 346.668 291.791L345.114 291.455ZM354.774 288.473L354.522 288.557H349.146V306.575H350.553V289.985H353.892C353.325 291.602 352.506 293.828 351.729 295.592C353.598 297.503 354.123 299.015 354.123 300.338C354.144 301.052 353.997 301.703 353.577 301.976C353.346 302.102 353.052 302.165 352.737 302.186C352.317 302.207 351.729 302.207 351.12 302.144C351.372 302.585 351.519 303.215 351.54 303.635C352.128 303.656 352.8 303.656 353.325 303.593C353.808 303.551 354.27 303.404 354.627 303.152C355.299 302.711 355.572 301.682 355.572 300.485C355.572 299.015 355.11 297.398 353.241 295.424C354.123 293.492 355.089 291.098 355.845 289.187L354.774 288.473ZM362.355 287.507C361.452 288.998 359.604 290.72 357.966 291.791C358.239 292.085 358.617 292.715 358.806 293.051C360.633 291.833 362.628 289.88 363.846 288.053L362.355 287.507ZM362.733 292.085C361.536 294.248 359.541 296.411 357.672 297.797C357.945 298.154 358.365 298.973 358.512 299.309C359.31 298.679 360.108 297.923 360.864 297.062V306.617H362.376V295.277C363.027 294.416 363.636 293.534 364.119 292.652L362.733 292.085ZM366.933 293.555H373.716V296.159H366.933V293.555ZM373.716 289.733V292.253H366.933V289.733H373.716ZM375.291 298.196C374.43 299.015 372.981 300.065 371.847 300.8C371.238 299.813 370.734 298.721 370.356 297.524H375.228V288.347H365.421V303.866C365.421 304.727 364.959 305.168 364.644 305.336C364.896 305.63 365.232 306.26 365.358 306.617C365.757 306.344 366.387 306.134 370.713 304.958C370.65 304.622 370.629 303.992 370.629 303.53L366.933 304.433V297.524H368.991C370.209 301.787 372.414 304.979 376.11 306.47C376.341 306.05 376.803 305.441 377.16 305.126C375.27 304.454 373.758 303.341 372.582 301.871C373.758 301.157 375.228 300.191 376.341 299.288L375.291 298.196ZM381.717 298.07C381.738 297.23 381.759 296.411 381.759 295.697V294.542H384.93V298.07H381.717ZM384.93 289.649V293.093H381.759V289.649H384.93ZM386.379 288.2H380.331V295.697C380.331 298.784 380.226 302.942 378.777 305.882C379.155 306.029 379.785 306.386 380.058 306.638C381.024 304.664 381.444 302.039 381.633 299.561H384.93V304.727C384.93 305.021 384.825 305.105 384.531 305.126C384.279 305.147 383.397 305.147 382.431 305.126C382.641 305.525 382.851 306.218 382.893 306.617C384.3 306.617 385.14 306.596 385.665 306.323C386.211 306.05 386.379 305.588 386.379 304.748V288.2ZM395.976 296.789C395.493 298.574 394.779 300.149 393.876 301.493C392.91 300.107 392.154 298.511 391.587 296.789H395.976ZM396.774 295.298L396.501 295.34H389.697V289.712H395.577V292.274C395.577 292.526 395.493 292.61 395.157 292.61C394.842 292.631 393.75 292.631 392.469 292.61C392.679 292.988 392.91 293.513 392.973 293.933C394.548 293.933 395.598 293.933 396.27 293.723C396.9 293.492 397.089 293.093 397.089 292.295V288.263H388.227V306.617H389.697V296.789H390.222C390.915 298.952 391.839 300.968 393.015 302.669C392.049 303.803 390.957 304.706 389.802 305.336C390.117 305.609 390.516 306.134 390.726 306.491C391.881 305.819 392.952 304.916 393.897 303.803C394.905 304.979 396.039 305.924 397.299 306.638C397.53 306.26 397.95 305.735 398.307 305.441C396.984 304.79 395.808 303.845 394.8 302.69C396.123 300.821 397.131 298.469 397.677 295.613L396.774 295.298ZM406.182 292.19H402.297V289.544H406.182V292.19ZM406.182 296.096H402.297V293.429H406.182V296.096ZM406.182 300.065H402.297V297.335H406.182V300.065ZM407.673 288.242H400.869V301.325H407.673V288.242ZM402.15 301.787C401.688 303.278 400.785 304.727 399.777 305.714C400.134 305.924 400.743 306.365 401.016 306.617C402.045 305.504 403.032 303.824 403.641 302.144L402.15 301.787ZM404.985 302.312C405.783 303.362 406.623 304.79 406.98 305.714L408.303 305.042C407.925 304.139 407.043 302.774 406.224 301.745L404.985 302.312ZM416.577 304.202H410.55V298.847H416.577V304.202ZM419.097 293.429V292.001H414.036V287.444H412.503V297.461H409.08V306.596H410.55V305.609H416.577V306.512H418.089V297.461H414.036V293.429H419.097ZM428.778 301.052C430.983 300.275 432.411 298.553 432.411 296.285C432.411 294.815 431.781 293.87 430.626 293.87C429.765 293.87 429.03 294.395 429.03 295.382C429.03 296.369 429.744 296.873 430.605 296.873C430.731 296.873 430.836 296.873 430.962 296.852C430.857 298.28 429.933 299.267 428.316 299.939L428.778 301.052ZM304.626 351.055V342.739H312.438V341.185H304.626V334.759H302.988V351.055H295.155V352.609H313.866V351.055H304.626ZM318.486 340.03C319.179 340.786 320.019 341.836 320.418 342.487L321.195 341.92V344.314C320.145 344.986 319.137 345.595 318.381 346.015C318.465 344.797 318.486 343.621 318.486 342.613V340.03ZM321.195 336.628V341.542C320.733 340.912 319.998 340.03 319.326 339.379L318.486 339.925V336.628H321.195ZM334.425 337.153H326.193C326.487 336.376 326.781 335.578 327.012 334.738L325.479 334.423C324.87 336.67 323.862 338.854 322.497 340.366V335.2H317.163V342.613C317.163 345.637 317.058 349.774 315.735 352.735C316.029 352.861 316.596 353.365 316.806 353.659C317.814 351.517 318.213 348.682 318.381 346.12L318.969 347.317C319.683 346.771 320.439 346.204 321.195 345.616V351.727C321.195 352.021 321.09 352.126 320.817 352.126C320.586 352.126 319.746 352.147 318.822 352.105C318.99 352.483 319.179 353.092 319.221 353.47C320.565 353.47 321.342 353.449 321.846 353.197C322.329 352.966 322.497 352.546 322.497 351.748V341.122C322.833 341.353 323.148 341.647 323.337 341.836C323.442 341.731 323.526 341.626 323.631 341.5V350.467H331.548V341.374H330.33V349.207H324.849V341.5H323.631C324.303 340.681 324.975 339.694 325.521 338.581H332.997C332.997 347.947 332.913 351.265 332.472 351.874C332.283 352.147 332.115 352.231 331.737 352.21C331.317 352.21 330.183 352.21 328.965 352.126C329.238 352.525 329.406 353.134 329.427 353.554C330.477 353.596 331.632 353.638 332.325 353.554C332.997 353.491 333.417 353.302 333.795 352.714C334.425 351.769 334.425 348.514 334.425 337.951V337.153ZM330.015 347.821C329.616 346.813 328.965 345.532 328.209 344.167C328.776 342.97 329.259 341.71 329.679 340.492L328.566 340.177C328.272 341.101 327.936 342.046 327.537 342.97C327.012 342.067 326.445 341.143 325.941 340.324L324.996 340.786C325.647 341.836 326.34 343.033 326.991 344.209C326.34 345.553 325.647 346.813 324.912 347.8C325.206 347.947 325.689 348.283 325.899 348.472C326.466 347.611 327.075 346.561 327.642 345.427C328.188 346.519 328.692 347.527 329.007 348.346L330.015 347.821ZM344.526 351.811C342.489 351.811 342.069 351.454 342.069 349.963V342.886L346.395 341.521V349.144H347.928V341.038L352.8 339.526C352.695 342.13 352.527 345.154 352.233 347.044L353.535 347.38C353.955 345.049 354.228 341.227 354.354 338.329L354.417 338.056L353.241 337.699L352.8 338.035L347.928 339.547V334.465H346.395V340.009L342.069 341.353V335.872H340.557V341.815L336.714 343.012L337.134 344.398L340.557 343.327V349.921C340.557 352.588 341.481 353.239 344.589 353.239H351.918C354.963 353.239 355.593 352.147 355.908 348.745C355.488 348.64 354.837 348.367 354.459 348.115C354.186 351.118 353.85 351.811 351.897 351.811H344.526ZM362.355 334.507C361.452 335.998 359.604 337.72 357.966 338.791C358.239 339.085 358.617 339.715 358.806 340.051C360.633 338.833 362.628 336.88 363.846 335.053L362.355 334.507ZM362.733 339.085C361.536 341.248 359.541 343.411 357.672 344.797C357.945 345.154 358.365 345.973 358.512 346.309C359.31 345.679 360.108 344.923 360.864 344.062V353.617H362.376V342.277C363.027 341.416 363.636 340.534 364.119 339.652L362.733 339.085ZM366.933 340.555H373.716V343.159H366.933V340.555ZM373.716 336.733V339.253H366.933V336.733H373.716ZM375.291 345.196C374.43 346.015 372.981 347.065 371.847 347.8C371.238 346.813 370.734 345.721 370.356 344.524H375.228V335.347H365.421V350.866C365.421 351.727 364.959 352.168 364.644 352.336C364.896 352.63 365.232 353.26 365.358 353.617C365.757 353.344 366.387 353.134 370.713 351.958C370.65 351.622 370.629 350.992 370.629 350.53L366.933 351.433V344.524H368.991C370.209 348.787 372.414 351.979 376.11 353.47C376.341 353.05 376.803 352.441 377.16 352.126C375.27 351.454 373.758 350.341 372.582 348.871C373.758 348.157 375.228 347.191 376.341 346.288L375.291 345.196ZM381.696 338.434C382.368 337.825 383.04 337.132 383.628 336.439C384.405 337.027 385.245 337.783 385.959 338.434H381.696ZM381.486 339.505H385.98V338.455C386.295 338.791 386.589 339.064 386.82 339.337L387.723 338.224C387.03 337.426 385.602 336.271 384.405 335.389C384.531 335.179 384.657 334.99 384.783 334.801L383.523 334.318C382.431 336.103 380.499 337.762 378.651 338.791C378.882 339.106 379.239 339.883 379.344 340.177C380.058 339.736 380.793 339.19 381.486 338.602V339.505ZM385.518 341.668V343.285H381.801V341.668H385.518ZM381.801 346.267V344.461H385.518V346.267H381.801ZM384.216 348.409C384.468 348.85 384.741 349.312 384.993 349.816L381.801 351.034V347.464H386.925V340.471H380.352V350.446C380.352 351.307 379.743 351.79 379.344 352C379.617 352.315 379.911 352.966 380.037 353.344C380.394 353.029 381.003 352.735 385.497 350.866C385.833 351.559 386.127 352.21 386.295 352.714L387.513 352.084C387.114 351.034 386.19 349.249 385.35 347.905L384.216 348.409ZM393.246 341.605V345.385H390.117V341.605H393.246ZM391.482 351.748C390.306 351.748 390.117 351.58 390.117 350.74V346.645H394.569V340.345H389.34C389.718 339.694 390.075 338.959 390.432 338.203H396.186C396.165 344.314 396.102 346.456 395.808 346.897C395.661 347.149 395.493 347.191 395.22 347.191C394.884 347.191 394.065 347.17 393.204 347.107C393.456 347.485 393.624 348.094 393.645 348.514C394.506 348.556 395.346 348.556 395.85 348.493C396.438 348.43 396.816 348.262 397.131 347.8C397.593 347.107 397.614 344.755 397.656 337.552V336.838H390.957C391.209 336.187 391.419 335.473 391.608 334.801L390.222 334.465C389.571 336.964 388.479 339.379 387.114 341.017C387.408 341.227 387.954 341.794 388.164 342.067C388.353 341.815 388.542 341.563 388.731 341.269V350.74C388.731 352.609 389.34 353.071 391.419 353.071H395.724C397.53 353.071 397.971 352.336 398.16 349.795C397.761 349.711 397.215 349.48 396.879 349.228C396.753 351.328 396.585 351.748 395.64 351.748H391.482ZM404.187 342.172C403.452 341.521 401.961 340.723 400.743 340.24L399.861 341.374C401.1 341.92 402.591 342.802 403.305 343.453L404.187 342.172ZM401.709 353.344C402.612 351.412 403.662 348.85 404.439 346.666L403.2 345.847C402.339 348.199 401.142 350.887 400.302 352.504L401.709 353.344ZM400.764 335.767C401.94 336.355 403.389 337.321 404.061 338.014L404.985 336.775C404.271 336.082 402.843 335.2 401.667 334.654L400.764 335.767ZM409.605 337.804H414.12V339.568H409.605V337.804ZM415.653 340.912V337.804H419.013V336.418H415.653V334.423H414.12V336.418H409.605V334.423H408.114V336.418H404.985V337.804H408.114V340.912H411.096V342.403H405.468V353.554H406.833V343.747H411.096V349.963C410.214 349.039 409.71 347.212 409.626 344.944H407.631V346.015H408.828C408.849 346.288 408.87 346.561 408.912 346.813H408.555C408.408 348.094 407.904 349.501 406.896 350.299C407.106 350.425 407.442 350.74 407.589 350.95C408.387 350.278 408.891 349.333 409.206 348.283C409.479 349.354 409.92 350.215 410.487 350.803C410.613 350.593 410.886 350.341 411.096 350.173V353.365H412.503V343.747H416.976V349.963C415.968 349.081 415.359 347.275 415.254 344.944H413.259V346.015H414.456C414.477 346.288 414.519 346.54 414.54 346.792H414.204C414.057 348.031 413.553 349.375 412.524 350.131C412.755 350.278 413.091 350.593 413.217 350.803C414.015 350.152 414.54 349.228 414.855 348.22C415.17 349.312 415.653 350.152 416.262 350.74C416.409 350.509 416.745 350.236 416.976 350.068V352.063C416.976 352.315 416.892 352.357 416.64 352.357C416.388 352.378 415.569 352.378 414.687 352.357C414.855 352.714 415.023 353.197 415.086 353.554C416.367 353.554 417.207 353.533 417.711 353.344C418.215 353.134 418.362 352.777 418.362 352.063V342.403H412.503V340.912H415.653ZM429.807 346.918H431.193L431.718 338.77L431.76 336.292H429.24L429.303 338.77L429.807 346.918ZM430.5 352.105C431.424 352.105 432.18 351.475 432.18 350.446C432.18 349.459 431.424 348.808 430.5 348.808C429.576 348.808 428.82 349.459 428.82 350.446C428.82 351.475 429.576 352.105 430.5 352.105ZM189.071 393.393H200.537V394.716H189.071V393.393ZM189.071 391.02H200.537V392.343H189.071V391.02ZM192.998 383.439H196.442V385.413H192.998V383.439ZM191.549 385.413H188.231V383.439H191.549V385.413ZM197.87 383.439H201.398V385.413H197.87V383.439ZM204.065 397.089H195.539V395.85H202.091V389.907H195.329V388.794H203.162V387.66H195.329V386.61H202.952V382.263H186.719V386.61H193.775V389.907H187.559V395.85H193.985V397.089H185.522V398.349H193.985V400.596H195.539V398.349H204.065V397.089ZM213.935 391.083C213.473 390.495 211.562 388.164 210.911 387.45V386.946H213.473V385.476H210.911V381.444H209.399V385.476H206.354V386.946H209.21C208.58 389.823 207.257 393.183 205.934 395.073C206.207 395.451 206.627 396.039 206.816 396.501C207.782 395.115 208.685 392.994 209.399 390.768V400.617H210.911V389.34C211.646 390.39 212.507 391.671 212.885 392.364L213.935 391.083ZM224.855 384.279V382.788H213.578V384.279H219.038C217.673 387.996 215.51 391.314 212.864 393.414C213.221 393.687 213.83 394.317 214.061 394.632C215.531 393.33 216.917 391.65 218.093 389.739V400.554H219.626V386.904C220.025 386.043 220.382 385.182 220.697 384.279H224.855ZM219.647 388.626C221.18 390.39 223.07 392.784 223.91 394.275L225.191 393.309C224.288 391.839 222.377 389.508 220.823 387.828L219.647 388.626ZM241.235 394.8V396.228H232.541V394.8H241.235ZM232.541 398.769V397.341H241.235V398.769H232.541ZM231.008 400.575H232.541V399.882H241.235V400.512H242.81V393.687H231.008V400.575ZM239.807 391.545C240.248 390.915 240.773 389.97 241.235 389.067L239.912 388.647C239.681 389.361 239.135 390.474 238.757 391.167L239.807 391.545ZM232.394 389.088C232.919 389.865 233.402 390.873 233.57 391.545L234.767 391.104C234.578 390.432 234.053 389.466 233.507 388.731L232.394 389.088ZM231.134 388.5H236.09V391.629H231.134V388.5ZM242.411 391.629H237.413V388.5H242.411V391.629ZM229.79 392.7H243.818V387.408H229.79V392.7ZM234.179 385.245C235.166 384.636 236.09 383.922 236.888 383.145C237.686 383.901 238.652 384.615 239.66 385.245H234.179ZM236.678 381.36C234.704 383.901 230.987 385.749 227.186 386.757C227.459 387.051 227.9 387.681 228.068 387.954C229.811 387.408 231.596 386.694 233.213 385.812V386.379H240.479V385.728C242.117 386.631 243.923 387.345 245.624 387.828C245.855 387.45 246.296 386.904 246.611 386.631C243.335 385.854 239.702 384.174 237.749 382.263C237.833 382.137 237.938 381.99 238.043 381.864L236.678 381.36ZM259.757 390.033H261.248V387.156C262.634 388.794 264.692 390.243 266.624 391.02C266.834 390.642 267.233 390.117 267.548 389.865C265.595 389.235 263.474 387.975 262.151 386.526H267.191V385.287H261.248V383.544C263.096 383.376 264.818 383.124 266.183 382.83L265.196 381.78C262.718 382.326 258.182 382.704 254.423 382.851C254.57 383.145 254.738 383.649 254.78 383.964C256.355 383.922 258.077 383.817 259.757 383.67V385.287H253.898V386.526H258.77C257.384 387.996 255.221 389.319 253.289 389.97C253.604 390.222 254.024 390.747 254.213 391.104C256.166 390.327 258.287 388.836 259.757 387.198V390.033ZM263.138 392.469C263.285 391.839 263.453 391.167 263.579 390.537H255.557V391.755H257.993C257.594 394.023 256.67 395.661 253.835 396.564C254.108 396.837 254.507 397.362 254.675 397.719C257.93 396.606 259.001 394.569 259.421 391.755H261.962C261.794 392.448 261.626 393.099 261.437 393.645H264.965C264.797 395.199 264.587 395.892 264.335 396.144C264.188 396.291 263.999 396.312 263.621 396.312C263.306 396.312 262.319 396.291 261.311 396.207C261.521 396.543 261.668 397.047 261.71 397.425C262.718 397.488 263.705 397.488 264.23 397.446C264.776 397.425 265.175 397.32 265.49 396.984C265.973 396.564 266.204 395.514 266.456 393.057C266.477 392.868 266.498 392.469 266.498 392.469H263.138ZM252.491 384.804C252.092 383.943 251.357 382.557 250.811 381.465L249.467 381.969C249.992 383.061 250.748 384.51 251.126 385.413L252.491 384.804ZM252.827 391.167L252.575 391.23H251.126C251.798 389.781 252.554 388.017 253.142 386.505H248.354V387.912H251.063C250.412 389.571 249.635 391.356 249.005 392.595H252.05C251.588 394.212 250.811 395.955 249.845 397.11L249.887 397.131C249.278 397.593 248.648 398.349 248.018 399.231L249.068 400.659C249.698 399.357 250.433 398.076 250.916 398.076C251.378 398.076 252.134 398.748 252.995 399.252C254.528 400.155 256.376 400.386 259.127 400.386C261.626 400.386 265.595 400.26 267.128 400.155C267.149 399.693 267.401 398.916 267.611 398.517C265.28 398.748 261.836 398.937 259.19 398.937C256.712 398.937 254.801 398.79 253.31 397.929C252.554 397.488 252.071 397.11 251.672 396.9C252.617 395.409 253.352 393.456 253.751 391.587L252.827 391.167ZM287.603 384.594V383.355H274.709C274.982 382.851 275.213 382.368 275.444 381.843L273.932 381.423C272.924 383.817 271.181 386.064 269.249 387.492C269.585 387.786 270.131 388.395 270.383 388.71C271.664 387.66 272.945 386.232 273.974 384.594H287.603ZM286.007 387.135V385.938H273.533V387.135H286.007ZM273.911 395.745C273.008 397.173 271.265 398.664 269.732 399.378C270.047 399.672 270.488 400.155 270.719 400.512C272.294 399.63 274.1 397.866 275.066 396.228L273.911 395.745ZM282.647 395.115V393.855H277.145V390.201H275.654V393.855H270.026V395.115H275.654V400.596H277.145V395.115H282.647ZM271.454 390.915C272.147 391.734 272.819 392.847 273.071 393.582L274.31 393.057C274.058 392.301 273.323 391.209 272.63 390.411L271.454 390.915ZM280.19 390.432C279.749 391.272 278.909 392.511 278.279 393.309L279.287 393.75C279.959 393.036 280.82 391.944 281.576 390.957L280.19 390.432ZM278.006 396.606C279.371 397.635 281.072 399.147 281.87 400.113L282.857 399.168C281.996 398.202 280.295 396.774 278.909 395.787L278.006 396.606ZM271.391 388.5V389.739H283.382C283.424 396.522 283.739 400.596 286.658 400.596C287.939 400.596 288.275 399.693 288.401 396.942C288.065 396.732 287.645 396.375 287.33 396.018C287.288 397.824 287.183 399.063 286.742 399.063C285.062 399.063 284.894 394.989 284.915 388.5H271.391ZM299.867 385.917C299.006 384.951 297.326 383.544 295.793 382.473C295.94 382.263 296.066 382.032 296.192 381.822L294.869 381.339C293.798 383.229 291.929 385.035 290.081 386.148C290.333 386.484 290.732 387.24 290.858 387.555C292.328 386.568 293.84 385.161 295.037 383.586C296.507 384.657 298.145 386.127 298.964 387.135L299.867 385.917ZM297.452 397.95H292.937V394.842H297.452V397.95ZM295.94 387.975H298.019V386.652H292.244V387.975H294.47V390.033H290.942V391.356H294.47V393.519H291.488V400.302H292.937V399.273H297.452V399.903H298.943V393.519H295.94V391.356H299.384V390.033H295.94V387.975ZM308.309 388.92L308.057 388.983H305.768L306.44 388.437C306.083 387.975 305.558 387.492 304.991 387.009C306.335 385.938 307.7 384.384 308.624 382.977L307.658 382.284L307.364 382.368H300.371V383.775H306.272C305.6 384.636 304.781 385.539 303.983 386.211C303.269 385.728 302.555 385.224 301.862 384.846L300.812 385.707C302.324 386.589 304.004 387.912 304.991 388.983H299.699V390.411H303.521V398.874C303.521 399.126 303.437 399.189 303.164 399.21C302.912 399.21 302.03 399.231 301.064 399.189C301.253 399.609 301.442 400.218 301.505 400.638C302.87 400.638 303.731 400.617 304.277 400.365C304.865 400.134 305.012 399.714 305.012 398.874V390.411H307.448C307.091 391.419 306.671 392.427 306.335 393.141L307.595 393.456C308.183 392.385 308.792 390.705 309.338 389.214L308.309 388.92ZM321.056 386.61L321.749 386.4C321.644 385.875 321.287 385.056 320.909 384.447H325.802C325.55 385.098 325.13 386.001 324.773 386.61H321.056ZM325.067 394.422H321.749V392.826H325.067V394.422ZM319.523 384.636C319.901 385.245 320.216 386.043 320.363 386.61H317.486V397.173H318.914V387.849H322.778V389.277H319.649V390.348H322.778V391.839H320.594V396.207H321.749V395.409H326.222V391.839H323.975V390.348H327.104V389.277H323.975V387.849H327.965V395.64C327.965 395.85 327.902 395.934 327.65 395.955C327.377 395.976 326.579 395.976 325.634 395.934C325.802 396.312 326.033 396.879 326.096 397.278C327.335 397.278 328.196 397.257 328.742 397.026C329.288 396.774 329.414 396.396 329.414 395.64V386.61H326.243C326.621 386.022 326.999 385.308 327.356 384.594L326.81 384.447H330.17V383.187H324.311C323.996 382.578 323.513 381.843 323.051 381.297L321.812 381.78C322.127 382.2 322.421 382.704 322.694 383.187H316.73V384.447H320.237L319.523 384.636ZM315.239 384.867C314.903 383.964 314.273 382.599 313.811 381.507L312.446 381.948C312.887 383.04 313.559 384.489 313.874 385.413L315.239 384.867ZM315.68 391.167L315.428 391.23H314C314.609 389.802 315.302 388.017 315.869 386.505H311.354V387.912H313.853C313.244 389.571 312.53 391.356 311.921 392.595H314.714C314.399 394.044 313.895 395.661 313.328 396.837C312.635 397.215 311.837 398.139 311.018 399.294L312.089 400.701C312.719 399.378 313.412 398.055 313.895 398.055C314.357 398.055 315.134 398.769 315.974 399.273C317.528 400.197 319.355 400.428 322.127 400.428C324.605 400.428 328.595 400.302 330.149 400.197C330.191 399.735 330.422 399 330.632 398.58C328.28 398.811 324.878 399.021 322.19 399.021C319.691 399.021 317.801 398.874 316.31 397.971C315.575 397.53 315.092 397.152 314.693 396.9C315.407 395.367 315.995 393.288 316.394 391.44L315.68 391.167ZM335.546 384.972H351.149V383.523H343.862C343.61 382.851 343.19 381.99 342.791 381.318L341.258 381.696C341.552 382.242 341.846 382.935 342.098 383.523H334.013V389.172C334.013 392.301 333.845 396.753 332.144 399.903C332.522 400.029 333.236 400.365 333.53 400.617C335.294 397.32 335.546 392.511 335.546 389.172V384.972ZM346.004 388.626V390.831H340.922V388.626H346.004ZM347.537 392.091V388.626H350.918V387.324H347.537V385.518H346.004V387.324H340.922V385.518H339.431V387.324H336.071V388.626H339.431V392.091H347.537ZM347.138 394.716C346.235 395.808 344.933 396.669 343.442 397.32C341.951 396.627 340.733 395.766 339.893 394.716H347.138ZM348.503 393.351L348.209 393.435H336.344V394.716H339.095L338.36 395.01C339.221 396.207 340.355 397.173 341.741 397.971C339.788 398.601 337.583 398.979 335.357 399.189C335.609 399.525 335.903 400.134 336.029 400.491C338.612 400.197 341.153 399.672 343.379 398.811C345.458 399.714 347.915 400.323 350.54 400.617C350.729 400.218 351.107 399.588 351.422 399.273C349.112 399.063 346.97 398.643 345.122 398.013C346.97 397.005 348.503 395.682 349.469 393.897L348.503 393.351ZM368.306 384.468C367.172 388.269 365.282 391.251 362.867 393.561C360.494 391.125 358.772 388.038 357.617 384.468H368.306ZM369.209 382.851L368.957 382.935H354.425V384.468H356.021C357.323 388.5 359.129 391.944 361.67 394.653C359.192 396.648 356.294 398.055 353.165 398.979C353.522 399.294 353.984 400.008 354.152 400.407C357.302 399.378 360.242 397.887 362.783 395.745C365.114 397.866 367.97 399.42 371.519 400.386C371.75 399.966 372.191 399.315 372.548 398.979C369.125 398.139 366.29 396.627 363.98 394.632C366.857 391.86 369.041 388.143 370.259 383.334L369.209 382.851ZM378.134 392.49V390.369H383.132V391.209C383.132 391.629 383.132 392.07 383.09 392.49H378.134ZM378.134 387.03H383.132V389.13H378.134V387.03ZM390.02 387.03V389.13H384.728V387.03H390.02ZM390.02 392.49H384.686C384.707 392.091 384.728 391.65 384.728 391.23V390.369H390.02V392.49ZM391.553 393.792V385.728H384.728V383.964H392.876V382.557H374.732V383.964H383.132V385.728H376.643V393.792H382.88C382.628 394.8 382.145 395.745 381.179 396.564C380.192 395.913 379.352 395.052 378.638 393.96L377.336 394.485C378.05 395.703 378.911 396.669 379.919 397.446C378.638 398.181 376.853 398.769 374.354 399.252C374.69 399.609 375.11 400.26 375.278 400.617C378.008 400.05 379.961 399.273 381.368 398.349C384.224 399.861 388.046 400.323 392.897 400.533C392.981 400.029 393.275 399.378 393.548 399C388.886 398.874 385.274 398.559 382.628 397.362C383.678 396.291 384.245 395.094 384.497 393.792H391.553ZM401.318 387.408C401.276 389.445 401.003 391.881 399.848 394.275C399.05 393.582 398.21 392.931 397.412 392.322C397.769 390.957 398.168 389.277 398.504 387.576L401.318 387.408ZM404.006 387.24L404.027 385.812L402.809 385.875V384.426H401.339V385.959L398.777 386.106C399.05 384.552 399.302 382.977 399.47 381.57L397.937 381.486C397.79 382.914 397.559 384.573 397.265 386.169C396.488 386.19 395.774 386.232 395.165 386.253L395.333 387.744L396.992 387.66C396.572 389.613 396.131 391.482 395.711 392.847C396.782 393.666 397.979 394.632 399.092 395.619C398.21 397.005 396.971 398.37 395.249 399.588C395.564 399.819 396.11 400.323 396.341 400.659C398.042 399.42 399.323 398.055 400.247 396.648C401.213 397.551 402.074 398.412 402.662 399.126L403.67 397.824C403.04 397.089 402.095 396.207 401.045 395.283C402.431 392.511 402.746 389.676 402.809 387.324L404.006 387.24ZM414.38 390.285H409.76V388.269C411.23 386.988 412.721 385.224 413.75 383.67L412.679 382.893L412.322 382.977H404.258V384.426H411.251C410.39 385.644 409.256 387.009 408.185 387.891V390.285H403.334V391.776H408.185V398.748C408.185 399.042 408.059 399.147 407.723 399.147C407.408 399.168 406.253 399.168 405.014 399.126C405.245 399.567 405.497 400.176 405.581 400.617C407.219 400.638 408.227 400.596 408.878 400.365C409.529 400.113 409.76 399.672 409.76 398.748V391.776H414.38V390.285ZM425.111 393.918H426.497L427.022 385.77L427.064 383.292H424.544L424.607 385.77L425.111 393.918ZM425.804 399.105C426.728 399.105 427.484 398.475 427.484 397.446C427.484 396.459 426.728 395.808 425.804 395.808C424.88 395.808 424.124 396.459 424.124 397.446C424.124 398.475 424.88 399.105 425.804 399.105ZM337.704 487.771H354.546V486.427H337.704V487.771ZM371.434 490.501H375.823V489.22H371.434V487.456H369.88V489.22H365.596V490.501H369.88V492.706H362.845V494.029H378.679V492.706H371.434V490.501ZM366.919 483.97H374.542V485.461H366.919V483.97ZM374.542 478.762V480.169H366.919V478.762H374.542ZM366.919 481.345H374.542V482.794H366.919V481.345ZM380.17 486.784V485.461H376.117V478.762H379.267V477.46H376.117V475.444H374.542V477.46H366.919V475.444H365.386V477.46H362.194V478.762H365.386V485.461H361.228V486.784H365.764C364.567 488.275 362.761 489.598 361.018 490.291C361.375 490.585 361.795 491.11 362.026 491.488C364.063 490.543 366.184 488.737 367.507 486.784H374.08C375.34 488.632 377.377 490.375 379.414 491.215C379.645 490.858 380.086 490.312 380.443 490.018C378.679 489.388 376.894 488.17 375.718 486.784H380.17ZM387.919 476.263L387.688 476.326H382.963V494.596H384.349V477.754H387.1C386.659 479.203 386.029 481.114 385.42 482.626C386.932 484.285 387.31 485.713 387.31 486.847C387.31 487.498 387.205 488.065 386.869 488.296C386.701 488.401 386.47 488.464 386.218 488.485C385.861 488.506 385.483 488.485 384.979 488.443C385.231 488.863 385.378 489.451 385.399 489.829C385.84 489.871 386.386 489.85 386.806 489.808C387.205 489.745 387.604 489.64 387.898 489.409C388.465 489.01 388.717 488.107 388.717 486.994C388.717 485.713 388.36 484.201 386.806 482.479C387.52 480.778 388.297 478.615 388.927 476.893L387.919 476.263ZM395.689 491.089H399.847V489.913H395.689V488.443H400.12V487.246H395.689V485.251H398.965V484.075H391.111V485.251H394.198V487.246H391.615C391.804 486.763 391.972 486.301 392.119 485.818L390.838 485.545C390.376 487.036 389.641 488.569 388.696 489.577C389.032 489.766 389.578 490.123 389.83 490.333C390.25 489.787 390.67 489.157 391.048 488.443H394.198V489.913H390.418V491.089H394.198V492.79H388.276V494.071H401.254V492.79H395.689V491.089ZM397.726 478.258C397.033 479.161 396.13 479.98 395.038 480.673C394.051 479.959 393.211 479.161 392.623 478.258H397.726ZM398.881 476.977L398.629 477.061H393.337C393.673 476.536 393.946 476.053 394.198 475.528L392.707 475.297C391.951 476.893 390.502 478.783 388.381 480.19C388.717 480.4 389.2 480.862 389.431 481.198C390.292 480.589 391.048 479.896 391.741 479.182C392.308 479.98 393.022 480.736 393.841 481.408C392.119 482.332 390.166 483.025 388.276 483.424C388.549 483.718 388.906 484.285 389.053 484.642C391.069 484.117 393.169 483.34 395.017 482.227C396.676 483.277 398.629 484.033 400.75 484.474C400.939 484.117 401.338 483.55 401.632 483.256C399.658 482.92 397.831 482.29 396.256 481.429C397.747 480.379 399.007 479.056 399.826 477.523L398.881 476.977ZM408.996 493H417.669V491.341H410.949V477.607H408.996V493ZM420.209 493H422.12V481.597H420.209V493ZM421.175 479.245C421.931 479.245 422.498 478.72 422.498 478.006C422.498 477.229 421.931 476.767 421.175 476.767C420.419 476.767 419.852 477.229 419.852 478.006C419.852 478.72 420.419 479.245 421.175 479.245ZM428.009 493.273C428.513 493.273 428.849 493.21 429.122 493.105L428.849 491.635C428.639 491.677 428.555 491.677 428.45 491.677C428.156 491.677 427.904 491.446 427.904 490.858V476.284H425.993V490.732C425.993 492.349 426.581 493.273 428.009 493.273ZM432.17 497.914C434.438 497.914 435.614 496.192 436.412 493.945L440.717 481.597H438.848L436.811 487.939C436.496 488.947 436.16 490.102 435.845 491.131H435.74C435.383 490.102 434.984 488.926 434.648 487.939L432.317 481.597H430.322L434.9 493.021L434.648 493.882C434.186 495.289 433.367 496.339 432.065 496.339C431.771 496.339 431.435 496.234 431.204 496.15L430.826 497.683C431.183 497.83 431.624 497.914 432.17 497.914Z" fill="#3E3E3E"/>
<path d="M120.907 211.909C118.411 214.266 117.128 217.698 117.059 222.205L121.635 222.829V231.877H112.067V227.613C112.067 224.215 112.205 221.407 112.483 219.189C112.829 216.623 113.835 214.197 115.499 211.909C116.4 210.73 117.44 209.725 118.619 208.893L120.907 211.909ZM135.155 211.909C132.589 214.058 131.272 217.49 131.203 222.205L136.195 222.829V231.877H126.523V227.613C126.523 225.533 126.592 223.869 126.731 222.621C126.731 221.858 126.765 221.13 126.835 220.437C126.904 219.466 127.008 218.703 127.147 218.149C127.147 218.01 127.216 217.733 127.355 217.317C127.493 216.831 127.597 216.415 127.667 216.069C127.736 215.306 127.979 214.613 128.395 213.989C128.811 213.295 129.157 212.706 129.435 212.221C130.059 211.181 131.168 210.071 132.763 208.893L135.155 211.909Z" fill="#3E3E3E"/>
<path d="M490.783 518.243C493.279 515.886 494.562 512.454 494.631 507.947L490.055 507.323V498.275H499.623V502.539C499.623 505.936 499.485 508.744 499.207 510.963C498.861 513.528 497.855 515.955 496.191 518.243C495.29 519.422 494.25 520.427 493.071 521.259L490.783 518.243ZM476.535 518.243C479.101 516.094 480.418 512.662 480.487 507.947L475.495 507.323V498.275H485.167V502.539C485.167 504.619 485.098 506.283 484.959 507.531C484.959 508.294 484.925 509.022 484.855 509.715C484.786 510.686 484.682 511.448 484.543 512.003C484.543 512.142 484.474 512.419 484.335 512.835C484.197 513.32 484.093 513.736 484.023 514.083C483.954 514.846 483.711 515.539 483.295 516.163C482.879 516.856 482.533 517.446 482.255 517.931C481.631 518.971 480.522 520.08 478.927 521.259L476.535 518.243Z" fill="#3E3E3E"/>
</svg>
