<svg width="414" height="250" viewBox="0 0 414 250" fill="none" xmlns="http://www.w3.org/2000/svg">
<path d="M47.316 71.384H43.644L44.256 71.144C44.076 70.808 43.68 70.256 43.356 69.872L42.504 70.16C42.804 70.532 43.14 71.036 43.332 71.384H39.768V72.104H47.316V71.384ZM40.716 75.188H46.296V74.504H40.716V75.188ZM46.296 72.92H40.716V73.604H46.296V72.92ZM41.436 76.748H45.48V78.236H41.436V76.748ZM40.584 78.92H46.356V76.064H40.584V78.92ZM38.964 71.888C38.736 71.396 38.316 70.604 37.992 69.98L37.236 70.268C37.536 70.892 37.956 71.732 38.184 72.248L38.964 71.888ZM39.144 75.524L39.012 75.56H38.184C38.556 74.732 39 73.724 39.336 72.86H36.6V73.664H38.148C37.776 74.612 37.332 75.632 36.972 76.34H38.7C38.448 77.264 38.004 78.26 37.44 78.92L37.464 78.932C37.128 79.184 36.768 79.628 36.408 80.132L37.008 80.948C37.356 80.204 37.788 79.472 38.052 79.472C38.328 79.472 38.76 79.856 39.24 80.144C40.128 80.66 41.184 80.792 42.756 80.792C44.172 80.792 46.452 80.72 47.34 80.66C47.352 80.396 47.496 79.952 47.604 79.712C46.272 79.856 44.304 79.964 42.792 79.964C41.376 79.964 40.284 79.88 39.432 79.388C39 79.136 38.724 78.92 38.496 78.8C39.036 77.948 39.456 76.832 39.684 75.764L39.144 75.524ZM51.288 77.048H56.724V77.888H51.288V77.048ZM56.724 73.112V73.916H51.288V73.112H56.724ZM56.724 75.752V76.472H51.288V75.752H56.724ZM56.724 75.176H51.288V74.492H56.724V75.176ZM59.292 77.888H57.612V72.5H54.156C54.204 72.272 54.252 72.02 54.3 71.744H58.992V70.976H54.432L54.588 70.052L53.64 69.944C53.616 70.244 53.58 70.616 53.532 70.976H49.056V71.744H53.424C53.4 72.02 53.352 72.272 53.304 72.5H50.424V77.888H48.72V78.644H59.292V77.888ZM52.176 78.884C51.42 79.388 49.92 79.976 48.72 80.3C48.912 80.468 49.188 80.744 49.332 80.924C50.52 80.588 52.008 79.988 52.956 79.388L52.176 78.884ZM55.116 79.424C56.448 79.868 57.804 80.444 58.62 80.9L59.34 80.276C58.464 79.844 57 79.268 55.668 78.848L55.116 79.424ZM64.416 75.188H61.896V72.68H64.416V75.188ZM61.896 78.86V75.98H64.416V78.86H61.896ZM62.904 69.932C62.82 70.496 62.604 71.3 62.424 71.876H61.08V80.612H61.896V79.664H65.232V71.876H63.24C63.444 71.36 63.66 70.7 63.864 70.112L62.904 69.932ZM71.1 71.84H67.512C67.716 71.276 67.884 70.7 68.028 70.112L67.176 69.908C66.792 71.552 66.144 73.208 65.34 74.264C65.532 74.384 65.916 74.624 66.072 74.768C66.492 74.204 66.864 73.472 67.2 72.668H70.248C70.092 77.444 69.912 79.268 69.516 79.688C69.396 79.844 69.264 79.868 69.024 79.868C68.748 79.868 68.028 79.868 67.248 79.796C67.416 80.048 67.524 80.408 67.548 80.672C68.22 80.708 68.904 80.732 69.324 80.684C69.732 80.648 70.008 80.54 70.272 80.204C70.752 79.616 70.908 77.768 71.1 72.296V71.84ZM69.204 77.24C68.82 76.532 67.992 75.38 67.32 74.528L66.624 74.936C67.284 75.8 68.088 76.988 68.448 77.708L69.204 77.24ZM81.072 72.104H74.868V71.132H81.072V72.104ZM81.072 73.724H74.868V72.752H81.072V73.724ZM81.96 70.448H73.992V74.408H81.96V70.448ZM78.54 78.14H82.5V77.348H78.54V76.016H83.28V75.212H72.744V76.016H77.664V79.628C76.632 79.352 75.864 78.8 75.396 77.72C75.516 77.336 75.624 76.94 75.708 76.52L74.808 76.4C74.484 78.152 73.728 79.496 72.48 80.3C72.672 80.444 73.02 80.78 73.14 80.936C73.92 80.36 74.544 79.616 75.012 78.68C75.984 80.3 77.508 80.684 79.92 80.684H83.184C83.232 80.42 83.376 80.036 83.496 79.832C82.884 79.844 80.4 79.844 79.956 79.844C79.452 79.844 78.972 79.82 78.54 79.772V78.14ZM88.008 73.376C87.984 74.54 87.828 75.932 87.168 77.3C86.712 76.904 86.232 76.532 85.776 76.184C85.98 75.404 86.208 74.444 86.4 73.472L88.008 73.376ZM89.544 73.28L89.556 72.464L88.86 72.5V71.672H88.02V72.548L86.556 72.632C86.712 71.744 86.856 70.844 86.952 70.04L86.076 69.992C85.992 70.808 85.86 71.756 85.692 72.668C85.248 72.68 84.84 72.704 84.492 72.716L84.588 73.568L85.536 73.52C85.296 74.636 85.044 75.704 84.804 76.484C85.416 76.952 86.1 77.504 86.736 78.068C86.232 78.86 85.524 79.64 84.54 80.336C84.72 80.468 85.032 80.756 85.164 80.948C86.136 80.24 86.868 79.46 87.396 78.656C87.948 79.172 88.44 79.664 88.776 80.072L89.352 79.328C88.992 78.908 88.452 78.404 87.852 77.876C88.644 76.292 88.824 74.672 88.86 73.328L89.544 73.28ZM95.472 75.02H92.832V73.868C93.672 73.136 94.524 72.128 95.112 71.24L94.5 70.796L94.296 70.844H89.688V71.672H93.684C93.192 72.368 92.544 73.148 91.932 73.652V75.02H89.16V75.872H91.932V79.856C91.932 80.024 91.86 80.084 91.668 80.084C91.488 80.096 90.828 80.096 90.12 80.072C90.252 80.324 90.396 80.672 90.444 80.924C91.38 80.936 91.956 80.912 92.328 80.78C92.7 80.636 92.832 80.384 92.832 79.856V75.872H95.472V75.02ZM98.736 75.452H101.52V76.616H98.736V75.452ZM98.736 73.652H101.52V74.792H98.736V73.652ZM105.372 73.652V74.792H102.42V73.652H105.372ZM105.372 76.616H102.42V75.452H105.372V76.616ZM106.272 77.312V72.944H102.42V71.936H107.232V71.096H102.42V69.968H101.52V71.096H96.828V71.936H101.52V72.944H97.872V77.312H100.776C99.708 78.428 98.04 79.46 96.528 79.988C96.744 80.168 97.008 80.504 97.152 80.732C98.676 80.108 100.38 78.968 101.52 77.684V80.912H102.42V77.648C103.572 78.944 105.324 80.132 106.884 80.756C107.016 80.504 107.292 80.168 107.508 79.988C105.972 79.472 104.268 78.44 103.176 77.312H106.272ZM114.816 73.328H113.1V71.612H114.816V73.328ZM117.804 74.156V76.388C117.756 76.4 117.684 76.4 117.564 76.4H116.124C115.716 76.4 115.668 76.352 115.668 76.04V74.156H117.804ZM110.268 79.304V77.072C110.436 77.204 110.688 77.516 110.784 77.696C112.584 76.808 113.028 75.416 113.088 74.156H114.816V76.04C114.816 77 115.044 77.252 116.028 77.252H117.648H117.804V79.304H110.268ZM112.272 74.156C112.212 75.188 111.864 76.268 110.268 77.06V74.156H112.272ZM119.22 71.612V70.748H108.756V71.612H112.284V73.328H109.392V80.876H110.268V80.132H117.804V80.828H118.692V73.328H115.668V71.612H119.22ZM125.604 77.096H126.396L126.696 72.44L126.72 71.024H125.28L125.316 72.44L125.604 77.096ZM126 80.06C126.528 80.06 126.96 79.7 126.96 79.112C126.96 78.548 126.528 78.176 126 78.176C125.472 78.176 125.04 78.548 125.04 79.112C125.04 79.7 125.472 80.06 126 80.06ZM133.86 71.936H136.428C136.164 72.992 135.432 73.46 133.128 73.7C133.284 73.856 133.476 74.192 133.548 74.384C136.152 74.06 137.004 73.364 137.304 71.936H138.564V72.956C138.564 73.712 138.756 74.06 139.62 74.06H141.6C141.948 74.06 142.368 74.048 142.548 73.988C142.512 73.772 142.488 73.532 142.464 73.292C142.272 73.34 141.804 73.352 141.552 73.352H139.776C139.488 73.352 139.44 73.256 139.44 72.956V71.936H142.152V73.064H143.052V71.168H138.72C138.612 70.796 138.42 70.28 138.252 69.896L137.352 70.112C137.496 70.424 137.64 70.832 137.724 71.168H132.984V73.076H133.86V71.936ZM139.524 75.308V76.868H135.072C135.216 76.376 135.36 75.812 135.48 75.308H139.524ZM143.1 76.868H140.4V75.308H142.728V74.588H133.608V75.308H134.58C134.412 76.088 134.184 77.024 133.992 77.648H138.3C136.836 78.584 134.616 79.328 132.636 79.688C132.816 79.856 133.056 80.192 133.176 80.42C135.396 79.952 137.952 78.932 139.452 77.648H139.524V79.856C139.524 80.024 139.476 80.06 139.272 80.072C139.092 80.096 138.432 80.096 137.712 80.072C137.844 80.312 137.976 80.648 138.024 80.888C138.948 80.9 139.548 80.888 139.92 80.744C140.28 80.612 140.4 80.384 140.4 79.868V77.648H143.1V76.868ZM153.96 71.324V74.072H151.224V71.324H153.96ZM154.092 78.968C155.148 78.968 155.4 78.464 155.532 76.832C155.28 76.784 154.932 76.64 154.728 76.484C154.656 77.852 154.572 78.152 154.056 78.152H151.932C151.332 78.152 151.224 78.044 151.224 77.528V74.864H154.824V70.532H150.36V77.528C150.36 78.668 150.72 78.968 151.86 78.968H154.092ZM147.912 76.988H149.628V76.196H147.912V74.42H149.736V73.616H147.72V72.104H149.448V71.312H147.72V69.98H146.868V71.312H144.924V72.104H146.868V73.616H144.624V74.42H147.084V78.92C146.604 78.512 146.256 77.924 145.992 77.084C146.028 76.556 146.052 75.992 146.064 75.416L145.224 75.356C145.188 77.492 145.056 79.388 144.36 80.588C144.564 80.684 144.948 80.912 145.104 81.02C145.464 80.348 145.68 79.532 145.824 78.572C146.7 80.204 148.128 80.612 150.66 80.612H155.232C155.292 80.348 155.46 79.94 155.604 79.724C154.872 79.76 151.224 79.76 150.648 79.748C149.508 79.748 148.62 79.664 147.912 79.4V76.988ZM164.64 72.776C164.376 74.108 163.8 75.272 162.936 76.016C163.152 76.112 163.512 76.364 163.68 76.496C164.088 76.112 164.436 75.632 164.736 75.08C165.444 75.668 166.2 76.34 166.608 76.796L167.244 76.184C166.764 75.692 165.84 74.924 165.084 74.336C165.252 73.892 165.396 73.424 165.492 72.92L164.64 72.776ZM158.988 72.776C158.64 74.324 157.896 75.608 156.804 76.424C157.008 76.556 157.356 76.844 157.512 77C158.1 76.508 158.616 75.872 159.024 75.116C159.456 75.536 159.9 75.98 160.14 76.28L160.752 75.668C160.452 75.32 159.9 74.792 159.396 74.348C159.576 73.904 159.744 73.436 159.864 72.932L158.988 72.776ZM162.42 72.5H167.184V71.624H162.42V69.968H161.508V71.624H156.912V72.5H161.508V75.428C160.404 77.168 158.424 78.824 156.492 79.616C156.696 79.796 156.984 80.144 157.116 80.36C158.712 79.616 160.32 78.32 161.508 76.796V80.912H162.42V76.76C163.584 78.32 165.216 79.664 166.872 80.396C167.016 80.156 167.304 79.796 167.532 79.604C165.492 78.836 163.488 77.144 162.42 75.344V72.5ZM179.124 71.696V70.808H168.876V71.696H174.18C172.992 73.748 170.94 75.74 168.576 76.928C168.756 77.132 169.044 77.48 169.176 77.708C170.844 76.832 172.308 75.596 173.52 74.216V80.888H174.468V73.016C174.768 72.572 175.056 72.14 175.32 71.696H179.124ZM174.708 74.276C176.124 75.212 177.9 76.628 178.752 77.54L179.46 76.856C178.584 75.944 176.76 74.6 175.368 73.7L174.708 74.276ZM39.204 95.004C38.52 96.828 37.416 98.616 36.24 99.768C36.408 99.96 36.648 100.428 36.744 100.632C37.164 100.2 37.572 99.708 37.956 99.156V105.888H38.796V97.848C39.276 97.02 39.696 96.144 40.032 95.256L39.204 95.004ZM41.268 100.56V99.444H43.2V100.56H41.268ZM46.044 99.444V100.56H44.064V99.444H46.044ZM42.348 96.756H44.94V97.584H42.348V96.756ZM44.064 105.012V104.088H46.824V103.428H44.064V102.6H47.076V101.916H44.064V101.208H46.92V98.796H44.064V98.22H45.816V96.756H47.448V96.06H45.816V94.956H44.94V96.06H42.348V94.956H41.52V96.06H39.912V96.756H41.52V98.22H43.2V98.796H40.464V101.208H43.2V101.916H40.248V102.6H43.2V103.428H40.5V104.088H43.2V105.012H39.756V105.708H47.484V105.012H44.064ZM50.724 101.796H57.276V102.552H50.724V101.796ZM50.724 100.44H57.276V101.196H50.724V100.44ZM52.968 96.108H54.936V97.236H52.968V96.108ZM52.14 97.236H50.244V96.108H52.14V97.236ZM55.752 96.108H57.768V97.236H55.752V96.108ZM59.292 103.908H54.42V103.2H58.164V99.804H54.3V99.168H58.776V98.52H54.3V97.92H58.656V95.436H49.38V97.92H53.412V99.804H49.86V103.2H53.532V103.908H48.696V104.628H53.532V105.912H54.42V104.628H59.292V103.908ZM64.932 100.476C64.668 100.14 63.576 98.808 63.204 98.4V98.112H64.668V97.272H63.204V94.968H62.34V97.272H60.6V98.112H62.232C61.872 99.756 61.116 101.676 60.36 102.756C60.516 102.972 60.756 103.308 60.864 103.572C61.416 102.78 61.932 101.568 62.34 100.296V105.924H63.204V99.48C63.624 100.08 64.116 100.812 64.332 101.208L64.932 100.476ZM71.172 96.588V95.736H64.728V96.588H67.848C67.068 98.712 65.832 100.608 64.32 101.808C64.524 101.964 64.872 102.324 65.004 102.504C65.844 101.76 66.636 100.8 67.308 99.708V105.888H68.184V98.088C68.412 97.596 68.616 97.104 68.796 96.588H71.172ZM68.196 99.072C69.072 100.08 70.152 101.448 70.632 102.3L71.364 101.748C70.848 100.908 69.756 99.576 68.868 98.616L68.196 99.072ZM73.848 96.252H76.152V98.34H73.848V96.252ZM77.076 103.38C76.56 103.512 76.056 103.644 75.564 103.764V101.568H77.028V100.776H75.564V99.12H76.968V95.472H73.068V99.12H74.76V103.98L73.824 104.208V100.248H73.08V104.388L72.456 104.532L72.672 105.372C73.908 105.036 75.576 104.58 77.172 104.16L77.076 103.38ZM78.396 98.46H81.912V99.948H78.396V98.46ZM81.912 96.288V97.716H78.396V96.288H81.912ZM82.836 101.112C82.356 101.556 81.612 102.108 80.964 102.516C80.676 101.976 80.46 101.376 80.292 100.74H82.728V95.496H77.544V104.352C77.544 104.844 77.292 105.096 77.1 105.192C77.244 105.372 77.436 105.732 77.508 105.924C77.736 105.768 78.108 105.648 80.568 104.976C80.532 104.784 80.52 104.424 80.52 104.16L78.396 104.676V100.74H79.548C80.124 103.104 81.192 104.94 82.992 105.828C83.112 105.588 83.376 105.24 83.58 105.072C82.644 104.676 81.9 104.004 81.336 103.152C81.996 102.768 82.8 102.228 83.4 101.736L82.836 101.112ZM85.992 98.16C86.388 98.592 86.868 99.192 87.096 99.564L87.54 99.24V100.608C86.94 100.992 86.364 101.34 85.932 101.58C85.98 100.884 85.992 100.212 85.992 99.636V98.16ZM87.54 96.216V99.024C87.276 98.664 86.856 98.16 86.472 97.788L85.992 98.1V96.216H87.54ZM95.1 96.516H90.396C90.564 96.072 90.732 95.616 90.864 95.136L89.988 94.956C89.64 96.24 89.064 97.488 88.284 98.352V95.4H85.236V99.636C85.236 101.364 85.176 103.728 84.42 105.42C84.588 105.492 84.912 105.78 85.032 105.948C85.608 104.724 85.836 103.104 85.932 101.64L86.268 102.324C86.676 102.012 87.108 101.688 87.54 101.352V104.844C87.54 105.012 87.48 105.072 87.324 105.072C87.192 105.072 86.712 105.084 86.184 105.06C86.28 105.276 86.388 105.624 86.412 105.84C87.18 105.84 87.624 105.828 87.912 105.684C88.188 105.552 88.284 105.312 88.284 104.856V98.784C88.476 98.916 88.656 99.084 88.764 99.192C88.824 99.132 88.872 99.072 88.932 99V104.124H93.456V98.928H92.76V103.404H89.628V99H88.932C89.316 98.532 89.7 97.968 90.012 97.332H94.284C94.284 102.684 94.236 104.58 93.984 104.928C93.876 105.084 93.78 105.132 93.564 105.12C93.324 105.12 92.676 105.12 91.98 105.072C92.136 105.3 92.232 105.648 92.244 105.888C92.844 105.912 93.504 105.936 93.9 105.888C94.284 105.852 94.524 105.744 94.74 105.408C95.1 104.868 95.1 103.008 95.1 96.972V96.516ZM92.58 102.612C92.352 102.036 91.98 101.304 91.548 100.524C91.872 99.84 92.148 99.12 92.388 98.424L91.752 98.244C91.584 98.772 91.392 99.312 91.164 99.84C90.864 99.324 90.54 98.796 90.252 98.328L89.712 98.592C90.084 99.192 90.48 99.876 90.852 100.548C90.48 101.316 90.084 102.036 89.664 102.6C89.832 102.684 90.108 102.876 90.228 102.984C90.552 102.492 90.9 101.892 91.224 101.244C91.536 101.868 91.824 102.444 92.004 102.912L92.58 102.612ZM102.624 96.372H100.416C100.272 95.964 100.032 95.376 99.78 94.908L99 95.136C99.168 95.508 99.36 95.976 99.492 96.372H97.008V97.188H102.624V96.372ZM99.3 99.324C99.18 98.76 98.856 97.92 98.508 97.296L97.74 97.488C98.064 98.136 98.376 98.988 98.484 99.54L99.3 99.324ZM101.46 102.3V104.472H98.196V102.3H101.46ZM97.344 105.84H98.196V105.264H101.46V105.744H102.336V101.496H97.344V105.84ZM101.208 97.26C101.016 97.932 100.656 98.916 100.332 99.588H96.66V100.404H102.9V99.588H101.196C101.496 98.964 101.832 98.148 102.096 97.452L101.208 97.26ZM106.728 95.556L106.584 95.604H103.512V105.9H104.316V96.42H106.224C105.9 97.344 105.432 98.616 104.988 99.624C106.056 100.716 106.356 101.58 106.356 102.336C106.368 102.744 106.284 103.116 106.044 103.272C105.912 103.344 105.744 103.38 105.564 103.392C105.324 103.404 104.988 103.404 104.64 103.368C104.784 103.62 104.868 103.98 104.88 104.22C105.216 104.232 105.6 104.232 105.9 104.196C106.176 104.172 106.44 104.088 106.644 103.944C107.028 103.692 107.184 103.104 107.184 102.42C107.184 101.58 106.92 100.656 105.852 99.528C106.356 98.424 106.908 97.056 107.34 95.964L106.728 95.556ZM111.06 95.004C110.544 95.856 109.488 96.84 108.552 97.452C108.708 97.62 108.924 97.98 109.032 98.172C110.076 97.476 111.216 96.36 111.912 95.316L111.06 95.004ZM111.276 97.62C110.592 98.856 109.452 100.092 108.384 100.884C108.54 101.088 108.78 101.556 108.864 101.748C109.32 101.388 109.776 100.956 110.208 100.464V105.924H111.072V99.444C111.444 98.952 111.792 98.448 112.068 97.944L111.276 97.62ZM113.676 98.46H117.552V99.948H113.676V98.46ZM117.552 96.276V97.716H113.676V96.276H117.552ZM118.452 101.112C117.96 101.58 117.132 102.18 116.484 102.6C116.136 102.036 115.848 101.412 115.632 100.728H118.416V95.484H112.812V104.352C112.812 104.844 112.548 105.096 112.368 105.192C112.512 105.36 112.704 105.72 112.776 105.924C113.004 105.768 113.364 105.648 115.836 104.976C115.8 104.784 115.788 104.424 115.788 104.16L113.676 104.676V100.728H114.852C115.548 103.164 116.808 104.988 118.92 105.84C119.052 105.6 119.316 105.252 119.52 105.072C118.44 104.688 117.576 104.052 116.904 103.212C117.576 102.804 118.416 102.252 119.052 101.736L118.452 101.112ZM122.124 101.04C122.136 100.56 122.148 100.092 122.148 99.684V99.024H123.96V101.04H122.124ZM123.96 96.228V98.196H122.148V96.228H123.96ZM124.788 95.4H121.332V99.684C121.332 101.448 121.272 103.824 120.444 105.504C120.66 105.588 121.02 105.792 121.176 105.936C121.728 104.808 121.968 103.308 122.076 101.892H123.96V104.844C123.96 105.012 123.9 105.06 123.732 105.072C123.588 105.084 123.084 105.084 122.532 105.072C122.652 105.3 122.772 105.696 122.796 105.924C123.6 105.924 124.08 105.912 124.38 105.756C124.692 105.6 124.788 105.336 124.788 104.856V95.4ZM130.272 100.308C129.996 101.328 129.588 102.228 129.072 102.996C128.52 102.204 128.088 101.292 127.764 100.308H130.272ZM130.728 99.456L130.572 99.48H126.684V96.264H130.044V97.728C130.044 97.872 129.996 97.92 129.804 97.92C129.624 97.932 129 97.932 128.268 97.92C128.388 98.136 128.52 98.436 128.556 98.676C129.456 98.676 130.056 98.676 130.44 98.556C130.8 98.424 130.908 98.196 130.908 97.74V95.436H125.844V105.924H126.684V100.308H126.984C127.38 101.544 127.908 102.696 128.58 103.668C128.028 104.316 127.404 104.832 126.744 105.192C126.924 105.348 127.152 105.648 127.272 105.852C127.932 105.468 128.544 104.952 129.084 104.316C129.66 104.988 130.308 105.528 131.028 105.936C131.16 105.72 131.4 105.42 131.604 105.252C130.848 104.88 130.176 104.34 129.6 103.68C130.356 102.612 130.932 101.268 131.244 99.636L130.728 99.456ZM136.104 97.68H133.884V96.168H136.104V97.68ZM136.104 99.912H133.884V98.388H136.104V99.912ZM136.104 102.18H133.884V100.62H136.104V102.18ZM136.956 95.424H133.068V102.9H136.956V95.424ZM133.8 103.164C133.536 104.016 133.02 104.844 132.444 105.408C132.648 105.528 132.996 105.78 133.152 105.924C133.74 105.288 134.304 104.328 134.652 103.368L133.8 103.164ZM135.42 103.464C135.876 104.064 136.356 104.88 136.56 105.408L137.316 105.024C137.1 104.508 136.596 103.728 136.128 103.14L135.42 103.464ZM142.044 104.544H138.6V101.484H142.044V104.544ZM143.484 98.388V97.572H140.592V94.968H139.716V100.692H137.76V105.912H138.6V105.348H142.044V105.864H142.908V100.692H140.592V98.388H143.484ZM149.016 102.744C150.276 102.3 151.092 101.316 151.092 100.02C151.092 99.18 150.732 98.64 150.072 98.64C149.58 98.64 149.16 98.94 149.16 99.504C149.16 100.068 149.568 100.356 150.06 100.356C150.132 100.356 150.192 100.356 150.264 100.344C150.204 101.16 149.676 101.724 148.752 102.108L149.016 102.744ZM162.072 104.46V99.708H166.536V98.82H162.072V95.148H161.136V104.46H156.66V105.348H167.352V104.46H162.072ZM169.992 98.16C170.388 98.592 170.868 99.192 171.096 99.564L171.54 99.24V100.608C170.94 100.992 170.364 101.34 169.932 101.58C169.98 100.884 169.992 100.212 169.992 99.636V98.16ZM171.54 96.216V99.024C171.276 98.664 170.856 98.16 170.472 97.788L169.992 98.1V96.216H171.54ZM179.1 96.516H174.396C174.564 96.072 174.732 95.616 174.864 95.136L173.988 94.956C173.64 96.24 173.064 97.488 172.284 98.352V95.4H169.236V99.636C169.236 101.364 169.176 103.728 168.42 105.42C168.588 105.492 168.912 105.78 169.032 105.948C169.608 104.724 169.836 103.104 169.932 101.64L170.268 102.324C170.676 102.012 171.108 101.688 171.54 101.352V104.844C171.54 105.012 171.48 105.072 171.324 105.072C171.192 105.072 170.712 105.084 170.184 105.06C170.28 105.276 170.388 105.624 170.412 105.84C171.18 105.84 171.624 105.828 171.912 105.684C172.188 105.552 172.284 105.312 172.284 104.856V98.784C172.476 98.916 172.656 99.084 172.764 99.192C172.824 99.132 172.872 99.072 172.932 99V104.124H177.456V98.928H176.76V103.404H173.628V99H172.932C173.316 98.532 173.7 97.968 174.012 97.332H178.284C178.284 102.684 178.236 104.58 177.984 104.928C177.876 105.084 177.78 105.132 177.564 105.12C177.324 105.12 176.676 105.12 175.98 105.072C176.136 105.3 176.232 105.648 176.244 105.888C176.844 105.912 177.504 105.936 177.9 105.888C178.284 105.852 178.524 105.744 178.74 105.408C179.1 104.868 179.1 103.008 179.1 96.972V96.516ZM176.58 102.612C176.352 102.036 175.98 101.304 175.548 100.524C175.872 99.84 176.148 99.12 176.388 98.424L175.752 98.244C175.584 98.772 175.392 99.312 175.164 99.84C174.864 99.324 174.54 98.796 174.252 98.328L173.712 98.592C174.084 99.192 174.48 99.876 174.852 100.548C174.48 101.316 174.084 102.036 173.664 102.6C173.832 102.684 174.108 102.876 174.228 102.984C174.552 102.492 174.9 101.892 175.224 101.244C175.536 101.868 175.824 102.444 176.004 102.912L176.58 102.612ZM40.872 129.892C39.708 129.892 39.468 129.688 39.468 128.836V124.792L41.94 124.012V128.368H42.816V123.736L45.6 122.872C45.54 124.36 45.444 126.088 45.276 127.168L46.02 127.36C46.26 126.028 46.416 123.844 46.488 122.188L46.524 122.032L45.852 121.828L45.6 122.02L42.816 122.884V119.98H41.94V123.148L39.468 123.916V120.784H38.604V124.18L36.408 124.864L36.648 125.656L38.604 125.044V128.812C38.604 130.336 39.132 130.708 40.908 130.708H45.096C46.836 130.708 47.196 130.084 47.376 128.14C47.136 128.08 46.764 127.924 46.548 127.78C46.392 129.496 46.2 129.892 45.084 129.892H40.872ZM51.06 120.004C50.544 120.856 49.488 121.84 48.552 122.452C48.708 122.62 48.924 122.98 49.032 123.172C50.076 122.476 51.216 121.36 51.912 120.316L51.06 120.004ZM51.276 122.62C50.592 123.856 49.452 125.092 48.384 125.884C48.54 126.088 48.78 126.556 48.864 126.748C49.32 126.388 49.776 125.956 50.208 125.464V130.924H51.072V124.444C51.444 123.952 51.792 123.448 52.068 122.944L51.276 122.62ZM53.676 123.46H57.552V124.948H53.676V123.46ZM57.552 121.276V122.716H53.676V121.276H57.552ZM58.452 126.112C57.96 126.58 57.132 127.18 56.484 127.6C56.136 127.036 55.848 126.412 55.632 125.728H58.416V120.484H52.812V129.352C52.812 129.844 52.548 130.096 52.368 130.192C52.512 130.36 52.704 130.72 52.776 130.924C53.004 130.768 53.364 130.648 55.836 129.976C55.8 129.784 55.788 129.424 55.788 129.16L53.676 129.676V125.728H54.852C55.548 128.164 56.808 129.988 58.92 130.84C59.052 130.6 59.316 130.252 59.52 130.072C58.44 129.688 57.576 129.052 56.904 128.212C57.576 127.804 58.416 127.252 59.052 126.736L58.452 126.112ZM62.112 122.248C62.496 121.9 62.88 121.504 63.216 121.108C63.66 121.444 64.14 121.876 64.548 122.248H62.112ZM61.992 122.86H64.56V122.26C64.74 122.452 64.908 122.608 65.04 122.764L65.556 122.128C65.16 121.672 64.344 121.012 63.66 120.508C63.732 120.388 63.804 120.28 63.876 120.172L63.156 119.896C62.532 120.916 61.428 121.864 60.372 122.452C60.504 122.632 60.708 123.076 60.768 123.244C61.176 122.992 61.596 122.68 61.992 122.344V122.86ZM64.296 124.096V125.02H62.172V124.096H64.296ZM62.172 126.724V125.692H64.296V126.724H62.172ZM63.552 127.948C63.696 128.2 63.852 128.464 63.996 128.752L62.172 129.448V127.408H65.1V123.412H61.344V129.112C61.344 129.604 60.996 129.88 60.768 130C60.924 130.18 61.092 130.552 61.164 130.768C61.368 130.588 61.716 130.42 64.284 129.352C64.476 129.748 64.644 130.12 64.74 130.408L65.436 130.048C65.208 129.448 64.68 128.428 64.2 127.66L63.552 127.948ZM68.712 124.06V126.22H66.924V124.06H68.712ZM67.704 129.856C67.032 129.856 66.924 129.76 66.924 129.28V126.94H69.468V123.34H66.48C66.696 122.968 66.9 122.548 67.104 122.116H70.392C70.38 125.608 70.344 126.832 70.176 127.084C70.092 127.228 69.996 127.252 69.84 127.252C69.648 127.252 69.18 127.24 68.688 127.204C68.832 127.42 68.928 127.768 68.94 128.008C69.432 128.032 69.912 128.032 70.2 127.996C70.536 127.96 70.752 127.864 70.932 127.6C71.196 127.204 71.208 125.86 71.232 121.744V121.336H67.404C67.548 120.964 67.668 120.556 67.776 120.172L66.984 119.98C66.612 121.408 65.988 122.788 65.208 123.724C65.376 123.844 65.688 124.168 65.808 124.324C65.916 124.18 66.024 124.036 66.132 123.868V129.28C66.132 130.348 66.48 130.612 67.668 130.612H70.128C71.16 130.612 71.412 130.192 71.52 128.74C71.292 128.692 70.98 128.56 70.788 128.416C70.716 129.616 70.62 129.856 70.08 129.856H67.704ZM74.964 124.384C74.544 124.012 73.692 123.556 72.996 123.28L72.492 123.928C73.2 124.24 74.052 124.744 74.46 125.116L74.964 124.384ZM73.548 130.768C74.064 129.664 74.664 128.2 75.108 126.952L74.4 126.484C73.908 127.828 73.224 129.364 72.744 130.288L73.548 130.768ZM73.008 120.724C73.68 121.06 74.508 121.612 74.892 122.008L75.42 121.3C75.012 120.904 74.196 120.4 73.524 120.088L73.008 120.724ZM78.06 121.888H80.64V122.896H78.06V121.888ZM81.516 123.664V121.888H83.436V121.096H81.516V119.956H80.64V121.096H78.06V119.956H77.208V121.096H75.42V121.888H77.208V123.664H78.912V124.516H75.696V130.888H76.476V125.284H78.912V128.836C78.408 128.308 78.12 127.264 78.072 125.968H76.932V126.58H77.616C77.628 126.736 77.64 126.892 77.664 127.036H77.46C77.376 127.768 77.088 128.572 76.512 129.028C76.632 129.1 76.824 129.28 76.908 129.4C77.364 129.016 77.652 128.476 77.832 127.876C77.988 128.488 78.24 128.98 78.564 129.316C78.636 129.196 78.792 129.052 78.912 128.956V130.78H79.716V125.284H82.272V128.836C81.696 128.332 81.348 127.3 81.288 125.968H80.148V126.58H80.832C80.844 126.736 80.868 126.88 80.88 127.024H80.688C80.604 127.732 80.316 128.5 79.728 128.932C79.86 129.016 80.052 129.196 80.124 129.316C80.58 128.944 80.88 128.416 81.06 127.84C81.24 128.464 81.516 128.944 81.864 129.28C81.948 129.148 82.14 128.992 82.272 128.896V130.036C82.272 130.18 82.224 130.204 82.08 130.204C81.936 130.216 81.468 130.216 80.964 130.204C81.06 130.408 81.156 130.684 81.192 130.888C81.924 130.888 82.404 130.876 82.692 130.768C82.98 130.648 83.064 130.444 83.064 130.036V124.516H79.716V123.664H81.516ZM89.604 127.096H90.396L90.696 122.44L90.72 121.024H89.28L89.316 122.44L89.604 127.096ZM90 130.06C90.528 130.06 90.96 129.7 90.96 129.112C90.96 128.548 90.528 128.176 90 128.176C89.472 128.176 89.04 128.548 89.04 129.112C89.04 129.7 89.472 130.06 90 130.06ZM98.724 126.796H105.276V127.552H98.724V126.796ZM98.724 125.44H105.276V126.196H98.724V125.44ZM100.968 121.108H102.936V122.236H100.968V121.108ZM100.14 122.236H98.244V121.108H100.14V122.236ZM103.752 121.108H105.768V122.236H103.752V121.108ZM107.292 128.908H102.42V128.2H106.164V124.804H102.3V124.168H106.776V123.52H102.3V122.92H106.656V120.436H97.38V122.92H101.412V124.804H97.86V128.2H101.532V128.908H96.696V129.628H101.532V130.912H102.42V129.628H107.292V128.908ZM112.932 125.476C112.668 125.14 111.576 123.808 111.204 123.4V123.112H112.668V122.272H111.204V119.968H110.34V122.272H108.6V123.112H110.232C109.872 124.756 109.116 126.676 108.36 127.756C108.516 127.972 108.756 128.308 108.864 128.572C109.416 127.78 109.932 126.568 110.34 125.296V130.924H111.204V124.48C111.624 125.08 112.116 125.812 112.332 126.208L112.932 125.476ZM119.172 121.588V120.736H112.728V121.588H115.848C115.068 123.712 113.832 125.608 112.32 126.808C112.524 126.964 112.872 127.324 113.004 127.504C113.844 126.76 114.636 125.8 115.308 124.708V130.888H116.184V123.088C116.412 122.596 116.616 122.104 116.796 121.588H119.172ZM116.196 124.072C117.072 125.08 118.152 126.448 118.632 127.3L119.364 126.748C118.848 125.908 117.756 124.576 116.868 123.616L116.196 124.072ZM128.532 127.6V128.416H123.564V127.6H128.532ZM123.564 129.868V129.052H128.532V129.868H123.564ZM122.688 130.9H123.564V130.504H128.532V130.864H129.432V126.964H122.688V130.9ZM127.716 125.74C127.968 125.38 128.268 124.84 128.532 124.324L127.776 124.084C127.644 124.492 127.332 125.128 127.116 125.524L127.716 125.74ZM123.48 124.336C123.78 124.78 124.056 125.356 124.152 125.74L124.836 125.488C124.728 125.104 124.428 124.552 124.116 124.132L123.48 124.336ZM122.76 124H125.592V125.788H122.76V124ZM129.204 125.788H126.348V124H129.204V125.788ZM121.992 126.4H130.008V123.376H121.992V126.4ZM124.5 122.14C125.064 121.792 125.592 121.384 126.048 120.94C126.504 121.372 127.056 121.78 127.632 122.14H124.5ZM125.928 119.92C124.8 121.372 122.676 122.428 120.504 123.004C120.66 123.172 120.912 123.532 121.008 123.688C122.004 123.376 123.024 122.968 123.948 122.464V122.788H128.1V122.416C129.036 122.932 130.068 123.34 131.04 123.616C131.172 123.4 131.424 123.088 131.604 122.932C129.732 122.488 127.656 121.528 126.54 120.436C126.588 120.364 126.648 120.28 126.708 120.208L125.928 119.92ZM139.116 124.876H139.968V123.232C140.76 124.168 141.936 124.996 143.04 125.44C143.16 125.224 143.388 124.924 143.568 124.78C142.452 124.42 141.24 123.7 140.484 122.872H143.364V122.164H139.968V121.168C141.024 121.072 142.008 120.928 142.788 120.76L142.224 120.16C140.808 120.472 138.216 120.688 136.068 120.772C136.152 120.94 136.248 121.228 136.272 121.408C137.172 121.384 138.156 121.324 139.116 121.24V122.164H135.768V122.872H138.552C137.76 123.712 136.524 124.468 135.42 124.84C135.6 124.984 135.84 125.284 135.948 125.488C137.064 125.044 138.276 124.192 139.116 123.256V124.876ZM141.048 126.268C141.132 125.908 141.228 125.524 141.3 125.164H136.716V125.86H138.108C137.88 127.156 137.352 128.092 135.732 128.608C135.888 128.764 136.116 129.064 136.212 129.268C138.072 128.632 138.684 127.468 138.924 125.86H140.376C140.28 126.256 140.184 126.628 140.076 126.94H142.092C141.996 127.828 141.876 128.224 141.732 128.368C141.648 128.452 141.54 128.464 141.324 128.464C141.144 128.464 140.58 128.452 140.004 128.404C140.124 128.596 140.208 128.884 140.232 129.1C140.808 129.136 141.372 129.136 141.672 129.112C141.984 129.1 142.212 129.04 142.392 128.848C142.668 128.608 142.8 128.008 142.944 126.604C142.956 126.496 142.968 126.268 142.968 126.268H141.048ZM134.964 121.888C134.736 121.396 134.316 120.604 134.004 119.98L133.236 120.268C133.536 120.892 133.968 121.72 134.184 122.236L134.964 121.888ZM135.156 125.524L135.012 125.56H134.184C134.568 124.732 135 123.724 135.336 122.86H132.6V123.664H134.148C133.776 124.612 133.332 125.632 132.972 126.34H134.712C134.448 127.264 134.004 128.26 133.452 128.92L133.476 128.932C133.128 129.196 132.768 129.628 132.408 130.132L133.008 130.948C133.368 130.204 133.788 129.472 134.064 129.472C134.328 129.472 134.76 129.856 135.252 130.144C136.128 130.66 137.184 130.792 138.756 130.792C140.184 130.792 142.452 130.72 143.328 130.66C143.34 130.396 143.484 129.952 143.604 129.724C142.272 129.856 140.304 129.964 138.792 129.964C137.376 129.964 136.284 129.88 135.432 129.388C135 129.136 134.724 128.92 134.496 128.8C135.036 127.948 135.456 126.832 135.684 125.764L135.156 125.524ZM155.028 121.768V121.06H147.66C147.816 120.772 147.948 120.496 148.08 120.196L147.216 119.956C146.64 121.324 145.644 122.608 144.54 123.424C144.732 123.592 145.044 123.94 145.188 124.12C145.92 123.52 146.652 122.704 147.24 121.768H155.028ZM154.116 123.22V122.536H146.988V123.22H154.116ZM147.204 128.14C146.688 128.956 145.692 129.808 144.816 130.216C144.996 130.384 145.248 130.66 145.38 130.864C146.28 130.36 147.312 129.352 147.864 128.416L147.204 128.14ZM152.196 127.78V127.06H149.052V124.972H148.2V127.06H144.984V127.78H148.2V130.912H149.052V127.78H152.196ZM145.8 125.38C146.196 125.848 146.58 126.484 146.724 126.904L147.432 126.604C147.288 126.172 146.868 125.548 146.472 125.092L145.8 125.38ZM150.792 125.104C150.54 125.584 150.06 126.292 149.7 126.748L150.276 127C150.66 126.592 151.152 125.968 151.584 125.404L150.792 125.104ZM149.544 128.632C150.324 129.22 151.296 130.084 151.752 130.636L152.316 130.096C151.824 129.544 150.852 128.728 150.06 128.164L149.544 128.632ZM145.764 124V124.708H152.616C152.64 128.584 152.82 130.912 154.488 130.912C155.22 130.912 155.412 130.396 155.484 128.824C155.292 128.704 155.052 128.5 154.872 128.296C154.848 129.328 154.788 130.036 154.536 130.036C153.576 130.036 153.48 127.708 153.492 124H145.764ZM162.036 122.524C161.544 121.972 160.584 121.168 159.708 120.556C159.792 120.436 159.864 120.304 159.936 120.184L159.18 119.908C158.568 120.988 157.5 122.02 156.444 122.656C156.588 122.848 156.816 123.28 156.888 123.46C157.728 122.896 158.592 122.092 159.276 121.192C160.116 121.804 161.052 122.644 161.52 123.22L162.036 122.524ZM160.656 129.4H158.076V127.624H160.656V129.4ZM159.792 123.7H160.98V122.944H157.68V123.7H158.952V124.876H156.936V125.632H158.952V126.868H157.248V130.744H158.076V130.156H160.656V130.516H161.508V126.868H159.792V125.632H161.76V124.876H159.792V123.7ZM166.86 124.24L166.716 124.276H165.408L165.792 123.964C165.588 123.7 165.288 123.424 164.964 123.148C165.732 122.536 166.512 121.648 167.04 120.844L166.488 120.448L166.32 120.496H162.324V121.3H165.696C165.312 121.792 164.844 122.308 164.388 122.692C163.98 122.416 163.572 122.128 163.176 121.912L162.576 122.404C163.44 122.908 164.4 123.664 164.964 124.276H161.94V125.092H164.124V129.928C164.124 130.072 164.076 130.108 163.92 130.12C163.776 130.12 163.272 130.132 162.72 130.108C162.828 130.348 162.936 130.696 162.972 130.936C163.752 130.936 164.244 130.924 164.556 130.78C164.892 130.648 164.976 130.408 164.976 129.928V125.092H166.368C166.164 125.668 165.924 126.244 165.732 126.652L166.452 126.832C166.788 126.22 167.136 125.26 167.448 124.408L166.86 124.24ZM174.144 122.92L174.54 122.8C174.48 122.5 174.276 122.032 174.06 121.684H176.856C176.712 122.056 176.472 122.572 176.268 122.92H174.144ZM176.436 127.384H174.54V126.472H176.436V127.384ZM173.268 121.792C173.484 122.14 173.664 122.596 173.748 122.92H172.104V128.956H172.92V123.628H175.128V124.444H173.34V125.056H175.128V125.908H173.88V128.404H174.54V127.948H177.096V125.908H175.812V125.056H177.6V124.444H175.812V123.628H178.092V128.08C178.092 128.2 178.056 128.248 177.912 128.26C177.756 128.272 177.3 128.272 176.76 128.248C176.856 128.464 176.988 128.788 177.024 129.016C177.732 129.016 178.224 129.004 178.536 128.872C178.848 128.728 178.92 128.512 178.92 128.08V122.92H177.108C177.324 122.584 177.54 122.176 177.744 121.768L177.432 121.684H179.352V120.964H176.004C175.824 120.616 175.548 120.196 175.284 119.884L174.576 120.16C174.756 120.4 174.924 120.688 175.08 120.964H171.672V121.684H173.676L173.268 121.792ZM170.82 121.924C170.628 121.408 170.268 120.628 170.004 120.004L169.224 120.256C169.476 120.88 169.86 121.708 170.04 122.236L170.82 121.924ZM171.072 125.524L170.928 125.56H170.112C170.46 124.744 170.856 123.724 171.18 122.86H168.6V123.664H170.028C169.68 124.612 169.272 125.632 168.924 126.34H170.52C170.34 127.168 170.052 128.092 169.728 128.764C169.332 128.98 168.876 129.508 168.408 130.168L169.02 130.972C169.38 130.216 169.776 129.46 170.052 129.46C170.316 129.46 170.76 129.868 171.24 130.156C172.128 130.684 173.172 130.816 174.756 130.816C176.172 130.816 178.452 130.744 179.34 130.684C179.364 130.42 179.496 130 179.616 129.76C178.272 129.892 176.328 130.012 174.792 130.012C173.364 130.012 172.284 129.928 171.432 129.412C171.012 129.16 170.736 128.944 170.508 128.8C170.916 127.924 171.252 126.736 171.48 125.68L171.072 125.524ZM119.74 146.984H128.656V146.156H124.492C124.348 145.772 124.108 145.28 123.88 144.896L123.004 145.112C123.172 145.424 123.34 145.82 123.484 146.156H118.864V149.384C118.864 151.172 118.768 153.716 117.796 155.516C118.012 155.588 118.42 155.78 118.588 155.924C119.596 154.04 119.74 151.292 119.74 149.384V146.984ZM125.716 149.072V150.332H122.812V149.072H125.716ZM126.592 151.052V149.072H128.524V148.328H126.592V147.296H125.716V148.328H122.812V147.296H121.96V148.328H120.04V149.072H121.96V151.052H126.592ZM126.364 152.552C125.848 153.176 125.104 153.668 124.252 154.04C123.4 153.644 122.704 153.152 122.224 152.552H126.364ZM127.144 151.772L126.976 151.82H120.196V152.552H121.768L121.348 152.72C121.84 153.404 122.488 153.956 123.28 154.412C122.164 154.772 120.904 154.988 119.632 155.108C119.776 155.3 119.944 155.648 120.016 155.852C121.492 155.684 122.944 155.384 124.216 154.892C125.404 155.408 126.808 155.756 128.308 155.924C128.416 155.696 128.632 155.336 128.812 155.156C127.492 155.036 126.268 154.796 125.212 154.436C126.268 153.86 127.144 153.104 127.696 152.084L127.144 151.772ZM138.46 146.696C137.812 148.868 136.732 150.572 135.352 151.892C133.996 150.5 133.012 148.736 132.352 146.696H138.46ZM138.976 145.772L138.832 145.82H130.528V146.696H131.44C132.184 149 133.216 150.968 134.668 152.516C133.252 153.656 131.596 154.46 129.808 154.988C130.012 155.168 130.276 155.576 130.372 155.804C132.172 155.216 133.852 154.364 135.304 153.14C136.636 154.352 138.268 155.24 140.296 155.792C140.428 155.552 140.68 155.18 140.884 154.988C138.928 154.508 137.308 153.644 135.988 152.504C137.632 150.92 138.88 148.796 139.576 146.048L138.976 145.772ZM144.076 151.28V150.068H146.932V150.548C146.932 150.788 146.932 151.04 146.908 151.28H144.076ZM144.076 148.16H146.932V149.36H144.076V148.16ZM150.868 148.16V149.36H147.844V148.16H150.868ZM150.868 151.28H147.82C147.832 151.052 147.844 150.8 147.844 150.56V150.068H150.868V151.28ZM151.744 152.024V147.416H147.844V146.408H152.5V145.604H142.132V146.408H146.932V147.416H143.224V152.024H146.788C146.644 152.6 146.368 153.14 145.816 153.608C145.252 153.236 144.772 152.744 144.364 152.12L143.62 152.42C144.028 153.116 144.52 153.668 145.096 154.112C144.364 154.532 143.344 154.868 141.916 155.144C142.108 155.348 142.348 155.72 142.444 155.924C144.004 155.6 145.12 155.156 145.924 154.628C147.556 155.492 149.74 155.756 152.512 155.876C152.56 155.588 152.728 155.216 152.884 155C150.22 154.928 148.156 154.748 146.644 154.064C147.244 153.452 147.568 152.768 147.712 152.024H151.744ZM157.324 148.376C157.3 149.54 157.144 150.932 156.484 152.3C156.028 151.904 155.548 151.532 155.092 151.184C155.296 150.404 155.524 149.444 155.716 148.472L157.324 148.376ZM158.86 148.28L158.872 147.464L158.176 147.5V146.672H157.336V147.548L155.872 147.632C156.028 146.744 156.172 145.844 156.268 145.04L155.392 144.992C155.308 145.808 155.176 146.756 155.008 147.668C154.564 147.68 154.156 147.704 153.808 147.716L153.904 148.568L154.852 148.52C154.612 149.636 154.36 150.704 154.12 151.484C154.732 151.952 155.416 152.504 156.052 153.068C155.548 153.86 154.84 154.64 153.856 155.336C154.036 155.468 154.348 155.756 154.48 155.948C155.452 155.24 156.184 154.46 156.712 153.656C157.264 154.172 157.756 154.664 158.092 155.072L158.668 154.328C158.308 153.908 157.768 153.404 157.168 152.876C157.96 151.292 158.14 149.672 158.176 148.328L158.86 148.28ZM164.788 150.02H162.148V148.868C162.988 148.136 163.84 147.128 164.428 146.24L163.816 145.796L163.612 145.844H159.004V146.672H163C162.508 147.368 161.86 148.148 161.248 148.652V150.02H158.476V150.872H161.248V154.856C161.248 155.024 161.176 155.084 160.984 155.084C160.804 155.096 160.144 155.096 159.436 155.072C159.568 155.324 159.712 155.672 159.76 155.924C160.696 155.936 161.272 155.912 161.644 155.78C162.016 155.636 162.148 155.384 162.148 154.856V150.872H164.788V150.02ZM170.92 152.096H171.712L172.012 147.44L172.036 146.024H170.596L170.632 147.44L170.92 152.096ZM171.316 155.06C171.844 155.06 172.276 154.7 172.276 154.112C172.276 153.548 171.844 153.176 171.316 153.176C170.788 153.176 170.356 153.548 170.356 154.112C170.356 154.7 170.788 155.06 171.316 155.06ZM120.974 202.012H130.598V201.244H120.974V202.012ZM140.248 203.572H142.756V202.84H140.248V201.832H139.36V202.84H136.912V203.572H139.36V204.832H135.34V205.588H144.388V204.832H140.248V203.572ZM137.668 199.84H142.024V200.692H137.668V199.84ZM142.024 196.864V197.668H137.668V196.864H142.024ZM137.668 198.34H142.024V199.168H137.668V198.34ZM145.24 201.448V200.692H142.924V196.864H144.724V196.12H142.924V194.968H142.024V196.12H137.668V194.968H136.792V196.12H134.968V196.864H136.792V200.692H134.416V201.448H137.008C136.324 202.3 135.292 203.056 134.296 203.452C134.5 203.62 134.74 203.92 134.872 204.136C136.036 203.596 137.248 202.564 138.004 201.448H141.76C142.48 202.504 143.644 203.5 144.808 203.98C144.94 203.776 145.192 203.464 145.396 203.296C144.388 202.936 143.368 202.24 142.696 201.448H145.24ZM149.668 195.436L149.536 195.472H146.836V205.912H147.628V196.288H149.2C148.948 197.116 148.588 198.208 148.24 199.072C149.104 200.02 149.32 200.836 149.32 201.484C149.32 201.856 149.26 202.18 149.068 202.312C148.972 202.372 148.84 202.408 148.696 202.42C148.492 202.432 148.276 202.42 147.988 202.396C148.132 202.636 148.216 202.972 148.228 203.188C148.48 203.212 148.792 203.2 149.032 203.176C149.26 203.14 149.488 203.08 149.656 202.948C149.98 202.72 150.124 202.204 150.124 201.568C150.124 200.836 149.92 199.972 149.032 198.988C149.44 198.016 149.884 196.78 150.244 195.796L149.668 195.436ZM154.108 203.908H156.484V203.236H154.108V202.396H156.64V201.712H154.108V200.572H155.98V199.9H151.492V200.572H153.256V201.712H151.78C151.888 201.436 151.984 201.172 152.068 200.896L151.336 200.74C151.072 201.592 150.652 202.468 150.112 203.044C150.304 203.152 150.616 203.356 150.76 203.476C151 203.164 151.24 202.804 151.456 202.396H153.256V203.236H151.096V203.908H153.256V204.88H149.872V205.612H157.288V204.88H154.108V203.908ZM155.272 196.576C154.876 197.092 154.36 197.56 153.736 197.956C153.172 197.548 152.692 197.092 152.356 196.576H155.272ZM155.932 195.844L155.788 195.892H152.764C152.956 195.592 153.112 195.316 153.256 195.016L152.404 194.884C151.972 195.796 151.144 196.876 149.932 197.68C150.124 197.8 150.4 198.064 150.532 198.256C151.024 197.908 151.456 197.512 151.852 197.104C152.176 197.56 152.584 197.992 153.052 198.376C152.068 198.904 150.952 199.3 149.872 199.528C150.028 199.696 150.232 200.02 150.316 200.224C151.468 199.924 152.668 199.48 153.724 198.844C154.672 199.444 155.788 199.876 157 200.128C157.108 199.924 157.336 199.6 157.504 199.432C156.376 199.24 155.332 198.88 154.432 198.388C155.284 197.788 156.004 197.032 156.472 196.156L155.932 195.844ZM161.712 205H166.668V204.052H162.828V196.204H161.712V205ZM168.12 205H169.212V198.484H168.12V205ZM168.672 197.14C169.104 197.14 169.428 196.84 169.428 196.432C169.428 195.988 169.104 195.724 168.672 195.724C168.24 195.724 167.916 195.988 167.916 196.432C167.916 196.84 168.24 197.14 168.672 197.14ZM172.576 205.156C172.864 205.156 173.056 205.12 173.212 205.06L173.056 204.22C172.936 204.244 172.888 204.244 172.828 204.244C172.66 204.244 172.516 204.112 172.516 203.776V195.448H171.424V203.704C171.424 204.628 171.76 205.156 172.576 205.156ZM174.954 207.808C176.25 207.808 176.922 206.824 177.378 205.54L179.838 198.484H178.77L177.606 202.108C177.426 202.684 177.234 203.344 177.054 203.932H176.994C176.79 203.344 176.562 202.672 176.37 202.108L175.038 198.484H173.898L176.514 205.012L176.37 205.504C176.106 206.308 175.638 206.908 174.894 206.908C174.726 206.908 174.534 206.848 174.402 206.8L174.186 207.676C174.39 207.76 174.642 207.808 174.954 207.808Z" fill="#3E3E3E"/>
<path d="M24.4358 40.684C23.1398 41.908 22.4738 43.69 22.4378 46.03L24.8138 46.354V51.052H19.8458V48.838C19.8458 47.074 19.9178 45.616 20.0618 44.464C20.2418 43.132 20.7638 41.872 21.6278 40.684C22.0958 40.072 22.6358 39.55 23.2478 39.118L24.4358 40.684ZM31.8338 40.684C30.5018 41.8 29.8178 43.582 29.7818 46.03L32.3738 46.354V51.052H27.3518V48.838C27.3518 47.758 27.3878 46.894 27.4598 46.246C27.4598 45.85 27.4778 45.472 27.5138 45.112C27.5498 44.608 27.6038 44.212 27.6758 43.924C27.6758 43.852 27.7118 43.708 27.7838 43.492C27.8558 43.24 27.9098 43.024 27.9458 42.844C27.9818 42.448 28.1078 42.088 28.3238 41.764C28.5398 41.404 28.7198 41.098 28.8638 40.846C29.1878 40.306 29.7638 39.73 30.5918 39.118L31.8338 40.684Z" fill="#3E3E3E"/>
<path d="M198.564 216.316C199.86 215.092 200.526 213.31 200.562 210.97L198.186 210.646V205.948H203.154V208.162C203.154 209.926 203.082 211.384 202.938 212.536C202.758 213.868 202.236 215.128 201.372 216.316C200.904 216.928 200.364 217.45 199.752 217.882L198.564 216.316ZM191.166 216.316C192.498 215.2 193.182 213.418 193.218 210.97L190.626 210.646V205.948H195.648V208.162C195.648 209.242 195.612 210.106 195.54 210.754C195.54 211.15 195.522 211.528 195.486 211.888C195.45 212.392 195.396 212.788 195.324 213.076C195.324 213.148 195.288 213.292 195.216 213.508C195.144 213.76 195.09 213.976 195.054 214.156C195.018 214.552 194.892 214.912 194.676 215.236C194.46 215.596 194.28 215.902 194.136 216.154C193.812 216.694 193.236 217.27 192.408 217.882L191.166 216.316Z" fill="#3E3E3E"/>
</svg>
