<svg width="1280" height="690" viewBox="0 0 1280 690" fill="none" xmlns="http://www.w3.org/2000/svg">
<path d="M791.614 281.391V279.837H783.298V275.448H781.681V279.837H773.428V281.391H779.77C778.237 284.94 775.654 288.342 772.882 290.043C773.239 290.337 773.743 290.904 773.995 291.282C777.019 289.224 779.728 285.486 781.345 281.391H781.681V289.14H776.809V290.694H781.681V294.6H783.298V290.694H788.17V289.14H783.298V281.391H783.592C785.167 285.486 787.876 289.266 790.984 291.219C791.236 290.799 791.782 290.232 792.181 289.896C789.283 288.258 786.637 284.94 785.125 281.391H791.614ZM808.12 280.362C807.658 282.693 806.65 284.73 805.138 286.032C805.516 286.2 806.146 286.641 806.44 286.872C807.154 286.2 807.763 285.36 808.288 284.394C809.527 285.423 810.85 286.599 811.564 287.397L812.677 286.326C811.837 285.465 810.22 284.121 808.897 283.092C809.191 282.315 809.443 281.496 809.611 280.614L808.12 280.362ZM798.229 280.362C797.62 283.071 796.318 285.318 794.407 286.746C794.764 286.977 795.373 287.481 795.646 287.754C796.675 286.893 797.578 285.78 798.292 284.457C799.048 285.192 799.825 285.969 800.245 286.494L801.316 285.423C800.791 284.814 799.825 283.89 798.943 283.113C799.258 282.336 799.552 281.517 799.762 280.635L798.229 280.362ZM804.235 279.879H812.572V278.346H804.235V275.448H802.639V278.346H794.596V279.879H802.639V285.003C800.707 288.048 797.242 290.946 793.861 292.332C794.218 292.647 794.722 293.256 794.953 293.634C797.746 292.332 800.56 290.064 802.639 287.397V294.6H804.235V287.334C806.272 290.064 809.128 292.416 812.026 293.697C812.278 293.277 812.782 292.647 813.181 292.311C809.611 290.967 806.104 288.006 804.235 284.856V279.879ZM829.687 285.57H820.93V283.449H829.687V285.57ZM820.867 289.119C820.909 288.573 820.93 288.069 820.93 287.565V286.935H829.687V289.119H820.867ZM833.677 279.606V278.136H822.967C823.282 277.38 823.555 276.582 823.786 275.805L822.232 275.427C821.98 276.33 821.665 277.233 821.308 278.136H815.407V279.606H820.636C819.334 282.315 817.444 284.793 814.987 286.452C815.281 286.767 815.764 287.334 815.974 287.67C817.255 286.767 818.389 285.654 819.376 284.457V287.523C819.376 289.518 819.187 291.828 817.444 293.508C817.78 293.739 818.347 294.39 818.536 294.726C819.775 293.571 820.405 291.996 820.678 290.463H829.687V292.647C829.687 292.962 829.561 293.067 829.204 293.088C828.826 293.088 827.566 293.109 826.159 293.046C826.39 293.487 826.621 294.117 826.684 294.579C828.469 294.579 829.645 294.558 830.338 294.306C831.01 294.054 831.22 293.592 831.22 292.647V282.042H821.056C821.518 281.265 821.938 280.425 822.337 279.606H833.677ZM836.008 283.974V285.675H855.076V283.974H836.008ZM872.212 289.497V290.694H864.001V289.497H872.212ZM864.001 292.878V291.66H872.212V292.878H864.001ZM862.489 294.6H864.001V293.928H872.212V294.558H873.766V288.447H862.489V294.6ZM863.854 283.869C864.442 284.562 865.051 285.528 865.345 286.137L866.332 285.57C866.059 284.961 865.429 284.037 864.82 283.386L863.854 283.869ZM870.469 286.137C870.952 285.57 871.54 284.73 872.023 283.89L871.015 283.365C870.679 284.016 870.049 285.045 869.587 285.654L870.469 286.137ZM873.01 279.375H860.473V277.653H873.01V279.375ZM866.059 282.042C865.849 281.601 865.45 281.055 865.093 280.635H871.015C870.805 281.055 870.427 281.58 870.07 282.042H866.059ZM873.031 286.515H868.684V283.029H873.031V286.515ZM862.972 283.029H867.214V286.515H862.972V283.029ZM874.585 276.393H858.919V282.483C858.919 285.822 858.751 290.421 856.756 293.697C857.155 293.844 857.827 294.222 858.121 294.495C860.179 291.093 860.473 285.99 860.473 282.483V280.635H864.778L863.812 280.992C864.085 281.307 864.337 281.664 864.568 282.042H861.523V287.502H874.543V282.042H871.603C871.855 281.706 872.128 281.349 872.401 280.992L871.267 280.635H874.585V276.393ZM893.212 289.497V290.694H885.001V289.497H893.212ZM885.001 292.878V291.66H893.212V292.878H885.001ZM883.489 294.6H885.001V293.928H893.212V294.558H894.766V288.447H883.489V294.6ZM884.854 283.869C885.442 284.562 886.051 285.528 886.345 286.137L887.332 285.57C887.059 284.961 886.429 284.037 885.82 283.386L884.854 283.869ZM891.469 286.137C891.952 285.57 892.54 284.73 893.023 283.89L892.015 283.365C891.679 284.016 891.049 285.045 890.587 285.654L891.469 286.137ZM894.01 279.375H881.473V277.653H894.01V279.375ZM887.059 282.042C886.849 281.601 886.45 281.055 886.093 280.635H892.015C891.805 281.055 891.427 281.58 891.07 282.042H887.059ZM894.031 286.515H889.684V283.029H894.031V286.515ZM883.972 283.029H888.214V286.515H883.972V283.029ZM895.585 276.393H879.919V282.483C879.919 285.822 879.751 290.421 877.756 293.697C878.155 293.844 878.827 294.222 879.121 294.495C881.179 291.093 881.473 285.99 881.473 282.483V280.635H885.778L884.812 280.992C885.085 281.307 885.337 281.664 885.568 282.042H882.523V287.502H895.543V282.042H892.603C892.855 281.706 893.128 281.349 893.401 280.992L892.267 280.635H895.585V276.393ZM907.765 275.742V292.437C907.765 292.857 907.597 293.004 907.156 293.004C906.757 293.025 905.245 293.046 903.712 292.983C903.964 293.424 904.258 294.159 904.363 294.6C906.316 294.621 907.618 294.579 908.374 294.327C909.109 294.054 909.424 293.592 909.424 292.437V275.742H907.765ZM912.784 281.034C914.569 284.037 916.249 287.943 916.753 290.421L918.391 289.728C917.866 287.208 916.102 283.407 914.254 280.467L912.784 281.034ZM902.284 280.614C901.78 283.428 900.625 287.04 898.756 289.245C899.176 289.413 899.848 289.791 900.226 290.064C902.116 287.733 903.334 283.974 904.006 280.929L902.284 280.614ZM935.17 290.862C934.015 289.749 931.684 288.048 929.878 286.83C930.172 286.074 930.361 285.318 930.529 284.52H928.933C928.408 286.998 927.253 289.56 923.41 290.841C923.767 291.114 924.187 291.639 924.355 292.017C926.812 291.093 928.303 289.728 929.248 288.132C930.991 289.392 933.007 290.988 934.036 292.017L935.17 290.862ZM937.921 278.514H930.34C930.508 277.569 930.613 276.582 930.697 275.511H929.059C928.996 276.582 928.891 277.59 928.723 278.514H921.079V294.6H922.612V280.047H928.366C927.673 282.168 926.308 283.785 923.494 284.814C923.83 285.087 924.271 285.612 924.46 285.99C926.812 285.087 928.261 283.785 929.164 282.147C931.033 283.281 933.154 284.772 934.288 285.738L935.338 284.52C934.078 283.491 931.663 281.958 929.752 280.866C929.836 280.593 929.92 280.341 930.004 280.047H936.388V292.605C936.388 292.962 936.283 293.088 935.905 293.109C935.506 293.109 934.225 293.13 932.86 293.067C933.07 293.487 933.28 294.201 933.343 294.642C935.086 294.642 936.325 294.621 937.039 294.348C937.711 294.096 937.921 293.592 937.921 292.605V278.514ZM956.17 290.862C955.015 289.749 952.684 288.048 950.878 286.83C951.172 286.074 951.361 285.318 951.529 284.52H949.933C949.408 286.998 948.253 289.56 944.41 290.841C944.767 291.114 945.187 291.639 945.355 292.017C947.812 291.093 949.303 289.728 950.248 288.132C951.991 289.392 954.007 290.988 955.036 292.017L956.17 290.862ZM958.921 278.514H951.34C951.508 277.569 951.613 276.582 951.697 275.511H950.059C949.996 276.582 949.891 277.59 949.723 278.514H942.079V294.6H943.612V280.047H949.366C948.673 282.168 947.308 283.785 944.494 284.814C944.83 285.087 945.271 285.612 945.46 285.99C947.812 285.087 949.261 283.785 950.164 282.147C952.033 283.281 954.154 284.772 955.288 285.738L956.338 284.52C955.078 283.491 952.663 281.958 950.752 280.866C950.836 280.593 950.92 280.341 951.004 280.047H957.388V292.605C957.388 292.962 957.283 293.088 956.905 293.109C956.506 293.109 955.225 293.13 953.86 293.067C954.07 293.487 954.28 294.201 954.343 294.642C956.086 294.642 957.325 294.621 958.039 294.348C958.711 294.096 958.921 293.592 958.921 292.605V278.514ZM964.255 278.892H968.749C968.287 280.74 967.006 281.559 962.974 281.979C963.247 282.252 963.583 282.84 963.709 283.176C968.266 282.609 969.757 281.391 970.282 278.892H972.487V280.677C972.487 282 972.823 282.609 974.335 282.609H977.8C978.409 282.609 979.144 282.588 979.459 282.483C979.396 282.105 979.354 281.685 979.312 281.265C978.976 281.349 978.157 281.37 977.716 281.37H974.608C974.104 281.37 974.02 281.202 974.02 280.677V278.892H978.766V280.866H980.341V277.548H972.76C972.571 276.897 972.235 275.994 971.941 275.322L970.366 275.7C970.618 276.246 970.87 276.96 971.017 277.548H962.722V280.887H964.255V278.892ZM974.167 284.793V287.523H966.376C966.628 286.662 966.88 285.675 967.09 284.793H974.167ZM980.425 287.523H975.7V284.793H979.774V283.533H963.814V284.793H965.515C965.221 286.158 964.822 287.796 964.486 288.888H972.025C969.463 290.526 965.578 291.828 962.113 292.458C962.428 292.752 962.848 293.34 963.058 293.739C966.943 292.92 971.416 291.135 974.041 288.888H974.167V292.752C974.167 293.046 974.083 293.109 973.726 293.13C973.411 293.172 972.256 293.172 970.996 293.13C971.227 293.55 971.458 294.138 971.542 294.558C973.159 294.579 974.209 294.558 974.86 294.306C975.49 294.075 975.7 293.676 975.7 292.773V288.888H980.425V287.523ZM992.626 292.059V283.743H1000.44V282.189H992.626V275.763H990.988V292.059H983.155V293.613H1001.87V292.059H992.626ZM1022.91 285.78V284.226H1014.3V280.257H1021.35V278.724H1014.3V275.427H1012.68V278.724H1005.81V280.257H1012.68V284.226H1004.18V285.78H1010.79C1009.45 288.153 1007.7 290.4 1007.12 291.009C1006.51 291.744 1006.02 292.248 1005.58 292.353C1005.79 292.752 1006.02 293.55 1006.11 293.886C1006.93 293.571 1008.08 293.487 1019.44 292.584C1019.86 293.256 1020.2 293.865 1020.47 294.411L1021.96 293.592C1021 291.765 1018.96 288.993 1017.07 286.935L1015.71 287.565C1016.65 288.657 1017.66 289.959 1018.54 291.219L1008.17 291.954C1009.74 290.232 1011.34 288.048 1012.74 285.78H1022.91ZM774.1 341.411C775.528 340.214 776.179 338.156 776.578 336.203L775.192 335.825C774.877 337.652 774.142 339.5 772.84 340.613L774.1 341.411ZM778.195 336.539C778.552 337.883 778.825 339.584 778.846 340.718L780.232 340.487C780.19 339.353 779.917 337.652 779.539 336.329L778.195 336.539ZM781.807 336.413C782.353 337.61 782.878 339.206 783.025 340.172L784.327 339.794C784.159 338.828 783.613 337.274 783.004 336.14L781.807 336.413ZM777.061 331.499H781.954V333.557H777.061V331.499ZM781.954 324.842V326.9H777.061V324.842H781.954ZM781.954 330.218H777.061V328.16H781.954V330.218ZM783.487 333.557V331.499H789.493V330.218H783.487V328.16H789.493V326.9H783.487V324.842H790.207V323.456H775.549V334.943H789.871C789.64 338.282 789.367 339.605 788.989 340.025C788.821 340.193 788.611 340.235 788.233 340.235C787.876 340.235 786.889 340.235 785.86 340.109C786.091 340.508 786.238 341.138 786.28 341.537C787.351 341.621 788.401 341.621 788.947 341.579C789.535 341.537 789.934 341.39 790.291 340.991C790.879 340.34 791.194 338.618 791.467 334.229C791.509 334.019 791.53 333.557 791.53 333.557H783.487ZM788.149 338.45C787.834 337.694 787.057 336.497 786.301 335.636L785.167 336.098C785.881 336.98 786.637 338.219 786.952 338.996L788.149 338.45ZM803.626 339.059V330.743H811.438V329.189H803.626V322.763H801.988V339.059H794.155V340.613H812.866V339.059H803.626ZM833.929 330.239C833.803 329.441 833.341 328.139 832.879 327.173L831.892 327.404C832.081 327.803 832.27 328.265 832.417 328.706L829.897 329C831.094 327.824 832.312 326.333 833.425 324.779L832.312 324.296C831.976 324.842 831.577 325.43 831.157 325.934L829.435 326.018C830.191 325.157 830.968 324.002 831.577 322.826L830.422 322.406C829.834 323.75 828.805 325.136 828.511 325.493C828.217 325.829 827.944 326.06 827.671 326.123C827.797 326.417 827.986 326.984 828.049 327.257C828.28 327.152 828.679 327.068 830.359 326.921C829.771 327.635 829.246 328.202 828.994 328.433C828.511 328.895 828.112 329.231 827.734 329.294C827.881 329.588 828.049 330.155 828.112 330.407C828.427 330.239 828.973 330.113 832.711 329.609C832.816 329.945 832.879 330.281 832.921 330.533L833.929 330.239ZM833.866 333.599C833.719 332.801 833.404 331.541 833.047 330.575L832.123 330.827C832.417 331.793 832.753 333.053 832.879 333.872L833.866 333.599ZM831.556 333.809C831.535 333.032 831.367 331.793 831.115 330.869L830.149 331.037C830.38 331.982 830.527 333.221 830.527 334.019L831.556 333.809ZM828.28 330.848C828.154 331.856 827.986 332.948 827.692 333.809C827.944 333.935 828.427 334.208 828.637 334.355C828.91 333.515 829.183 332.213 829.351 331.121L828.28 330.848ZM827.713 324.233H825.361C825.172 323.687 824.815 322.91 824.437 322.385L823.261 322.763C823.534 323.225 823.786 323.75 823.975 324.233H821.224V325.199H827.713V324.233ZM827.251 328.013H821.665V328.979H827.251V328.013ZM822.799 330.974H826.075V332.843H822.799V330.974ZM827.146 333.788V330.029H821.77V333.788H827.146ZM827.272 326.144H821.665V327.068H827.272V326.144ZM821.287 330.26C821.14 329.525 820.699 328.265 820.237 327.299L819.292 327.551C819.481 327.929 819.67 328.391 819.817 328.832L817.318 329.126C818.557 327.95 819.838 326.438 820.951 324.842L819.817 324.338C819.502 324.884 819.082 325.451 818.683 325.955L817.003 326.039C817.717 325.157 818.473 324.002 819.103 322.826L817.927 322.406C817.36 323.771 816.331 325.178 816.037 325.535C815.743 325.871 815.47 326.102 815.176 326.165C815.323 326.459 815.512 327.047 815.575 327.299C815.806 327.215 816.205 327.131 817.843 327.005C817.234 327.719 816.709 328.286 816.457 328.517C815.974 329 815.554 329.336 815.197 329.378C815.323 329.693 815.512 330.281 815.575 330.512C815.89 330.365 816.436 330.26 820.09 329.714C820.174 330.029 820.258 330.323 820.3 330.554L821.287 330.26ZM821.056 333.368C820.951 332.675 820.636 331.583 820.342 330.764L819.418 331.016C819.691 331.856 819.964 332.948 820.069 333.662L821.056 333.368ZM818.893 333.872C818.851 333.095 818.662 331.877 818.431 330.932L817.465 331.142C817.654 332.087 817.843 333.305 817.843 334.103L818.893 333.872ZM815.68 330.953C815.554 332.066 815.386 333.242 815.05 334.124C815.302 334.25 815.743 334.544 815.953 334.67C816.289 333.746 816.562 332.381 816.73 331.163L815.68 330.953ZM828.616 336.287C827.608 337.211 826.285 337.925 824.731 338.534C822.988 337.904 821.497 337.169 820.384 336.287H828.616ZM833.32 336.287V335.069H821.371C821.602 334.754 821.854 334.439 822.064 334.103L820.699 333.683C819.565 335.426 817.36 336.833 815.176 337.715C815.449 337.967 815.932 338.597 816.1 338.87C817.192 338.387 818.305 337.757 819.313 336.959C820.321 337.799 821.56 338.513 822.925 339.101C820.489 339.794 817.675 340.193 814.882 340.424C815.134 340.76 815.47 341.39 815.617 341.747C818.788 341.369 822.022 340.823 824.773 339.857C827.398 340.76 830.38 341.348 833.341 341.663C833.509 341.264 833.866 340.718 834.139 340.382C831.556 340.151 828.91 339.752 826.6 339.101C828.154 338.366 829.519 337.442 830.527 336.287H833.32ZM854.866 332.717H846.256V325.388H853.69V323.855H837.268V325.388H844.66V332.717H836.176V334.25H844.66V341.6H846.256V334.25H854.866V332.717ZM838.738 326.837C839.536 328.37 840.334 330.407 840.628 331.646L842.098 331.142C841.825 329.903 840.964 327.929 840.103 326.417L838.738 326.837ZM849.868 331.709C850.687 330.449 851.695 328.454 852.451 326.774L850.813 326.312C850.288 327.824 849.322 329.966 848.545 331.268L849.868 331.709ZM873.787 330.029H868.012V327.992H873.787V330.029ZM873.787 333.2H868.012V331.142H873.787V333.2ZM873.787 336.434H868.012V334.355H873.787V336.434ZM866.584 326.774V337.652H875.257V326.774H871.204C871.393 326.165 871.624 325.472 871.813 324.8H875.824V323.435H865.912V324.8H870.133C870.049 325.43 869.902 326.144 869.734 326.774H866.584ZM857.974 331.604C857.974 335.006 857.827 338.072 856.651 340.613C856.966 340.823 857.449 341.285 857.701 341.537C859.108 338.744 859.255 335.384 859.255 331.604V323.183H857.974V331.604ZM860.83 338.618H861.985V324.674H860.83V338.618ZM863.665 340.886H864.946V323.12H863.665V340.886ZM868.81 338.093C868.012 338.954 866.395 340.025 865.009 340.613C865.324 340.886 865.765 341.348 865.975 341.642C867.382 341.012 869.062 339.899 870.112 338.87L868.81 338.093ZM871.729 338.912C872.947 339.689 874.438 340.844 875.173 341.621L876.37 340.76C875.593 339.983 874.081 338.87 872.884 338.135L871.729 338.912ZM879.73 335.363H881.053L881.305 326.459L881.368 324.275H879.415L879.478 326.459L879.73 335.363ZM880.381 340.277C881.158 340.277 881.767 339.689 881.767 338.828C881.767 337.967 881.158 337.337 880.381 337.337C879.625 337.337 878.995 337.967 878.995 338.828C878.995 339.689 879.625 340.277 880.381 340.277ZM894.511 332.045H903.142V333.368C900.202 333.599 897.157 333.83 894.511 334.019V332.045ZM903.142 325.871V327.824H894.511V325.871H903.142ZM894.511 329.021H903.142V330.848H894.511V329.021ZM906.712 329.441C906.124 330.302 905.452 331.121 904.717 331.877V324.485H898.942C899.299 323.939 899.656 323.288 899.971 322.679L898.123 322.385C897.913 322.973 897.556 323.792 897.199 324.485H892.957V334.124C891.97 334.208 891.088 334.271 890.29 334.313L890.458 335.741C893.335 335.51 897.262 335.195 901.252 334.838C897.955 337.169 893.923 338.891 889.576 340.004C889.891 340.361 890.395 341.054 890.626 341.411C895.246 340.088 899.572 338.114 903.142 335.363V339.353C903.142 339.794 902.995 339.92 902.554 339.962C902.092 339.962 900.496 339.983 898.858 339.92C899.11 340.361 899.362 341.096 899.425 341.558C901.567 341.558 902.932 341.516 903.709 341.243C904.465 340.991 904.717 340.466 904.717 339.374V334.061C906.019 332.885 907.174 331.583 908.182 330.176L906.712 329.441ZM919.27 332.864C918.745 332.255 916.645 329.798 915.868 328.958V328.412H918.724V326.921H915.868V322.427H914.314V326.921H910.828V328.412H914.083C913.306 331.31 911.71 334.565 910.114 336.308C910.408 336.686 910.807 337.337 910.975 337.778C912.214 336.35 913.411 333.956 914.314 331.499V341.579H915.868V330.848C916.729 331.982 917.821 333.452 918.283 334.208L919.27 332.864ZM929.539 326.942H927.376V322.469H925.78V326.942H919.522V328.433H925.234C923.68 331.73 920.929 335.237 918.304 337.022C918.682 337.337 919.144 337.883 919.417 338.282C921.727 336.539 924.121 333.578 925.78 330.554V339.5C925.78 339.878 925.633 339.983 925.255 340.004C924.856 340.004 923.512 340.025 922.147 339.983C922.378 340.424 922.63 341.138 922.714 341.579C924.478 341.579 925.717 341.537 926.41 341.264C927.103 341.033 927.376 340.55 927.376 339.479V328.433H929.539V326.942ZM946.591 334.397H937.477V332.948H946.591V334.397ZM937.477 339.584V338.03H946.591V339.584H937.477ZM946.591 336.938H937.477V335.468H946.591V336.938ZM950.182 330.26V328.958H939.178C939.43 328.454 939.661 327.929 939.871 327.425H948.964V326.165H940.312C940.48 325.64 940.648 325.136 940.795 324.611C943.798 324.443 946.654 324.17 948.754 323.729L947.767 322.595C944.449 323.267 938.107 323.603 933.025 323.645C933.172 323.981 933.319 324.485 933.34 324.842C935.146 324.842 937.12 324.8 939.073 324.695C938.947 325.199 938.8 325.682 938.632 326.165H933.319V327.425H938.17C937.981 327.929 937.729 328.454 937.477 328.958H931.786V330.26H936.742C935.44 332.444 933.634 334.397 931.282 335.762C931.576 336.035 932.038 336.602 932.248 336.959C933.676 336.098 934.915 335.048 935.986 333.872V341.663H937.477V340.844H946.591V341.663H948.124V331.709H937.666C937.981 331.247 938.254 330.743 938.527 330.26H950.182ZM968.914 324.821V329.63H964.126V324.821H968.914ZM969.145 338.198C970.993 338.198 971.434 337.316 971.665 334.46C971.224 334.376 970.615 334.124 970.258 333.851C970.132 336.245 969.985 336.77 969.082 336.77H965.365C964.315 336.77 964.126 336.581 964.126 335.678V331.016H970.426V323.435H962.614V335.678C962.614 337.673 963.244 338.198 965.239 338.198H969.145ZM958.33 334.733H961.333V333.347H958.33V330.239H961.522V328.832H957.994V326.186H961.018V324.8H957.994V322.469H956.503V324.8H953.101V326.186H956.503V328.832H952.576V330.239H956.881V338.114C956.041 337.4 955.432 336.371 954.97 334.901C955.033 333.977 955.075 332.99 955.096 331.982L953.626 331.877C953.563 335.615 953.332 338.933 952.114 341.033C952.471 341.201 953.143 341.6 953.416 341.789C954.046 340.613 954.424 339.185 954.676 337.505C956.209 340.361 958.708 341.075 963.139 341.075H971.14C971.245 340.613 971.539 339.899 971.791 339.521C970.51 339.584 964.126 339.584 963.118 339.563C961.123 339.563 959.569 339.416 958.33 338.954V334.733ZM987.604 327.362C987.142 329.693 986.134 331.73 984.622 333.032C985 333.2 985.63 333.641 985.924 333.872C986.638 333.2 987.247 332.36 987.772 331.394C989.011 332.423 990.334 333.599 991.048 334.397L992.161 333.326C991.321 332.465 989.704 331.121 988.381 330.092C988.675 329.315 988.927 328.496 989.095 327.614L987.604 327.362ZM977.713 327.362C977.104 330.071 975.802 332.318 973.891 333.746C974.248 333.977 974.857 334.481 975.13 334.754C976.159 333.893 977.062 332.78 977.776 331.457C978.532 332.192 979.309 332.969 979.729 333.494L980.8 332.423C980.275 331.814 979.309 330.89 978.427 330.113C978.742 329.336 979.036 328.517 979.246 327.635L977.713 327.362ZM983.719 326.879H992.056V325.346H983.719V322.448H982.123V325.346H974.08V326.879H982.123V332.003C980.191 335.048 976.726 337.946 973.345 339.332C973.702 339.647 974.206 340.256 974.437 340.634C977.23 339.332 980.044 337.064 982.123 334.397V341.6H983.719V334.334C985.756 337.064 988.612 339.416 991.51 340.697C991.762 340.277 992.266 339.647 992.665 339.311C989.095 337.967 985.588 335.006 983.719 331.856V326.879ZM1013.41 330.239C1013.29 329.441 1012.83 328.139 1012.36 327.173L1011.38 327.404C1011.57 327.803 1011.75 328.265 1011.9 328.706L1009.38 329C1010.58 327.824 1011.8 326.333 1012.91 324.779L1011.8 324.296C1011.46 324.842 1011.06 325.43 1010.64 325.934L1008.92 326.018C1009.68 325.157 1010.45 324.002 1011.06 322.826L1009.91 322.406C1009.32 323.75 1008.29 325.136 1008 325.493C1007.7 325.829 1007.43 326.06 1007.16 326.123C1007.28 326.417 1007.47 326.984 1007.53 327.257C1007.76 327.152 1008.16 327.068 1009.84 326.921C1009.26 327.635 1008.73 328.202 1008.48 328.433C1008 328.895 1007.6 329.231 1007.22 329.294C1007.37 329.588 1007.53 330.155 1007.6 330.407C1007.91 330.239 1008.46 330.113 1012.2 329.609C1012.3 329.945 1012.36 330.281 1012.41 330.533L1013.41 330.239ZM1013.35 333.599C1013.2 332.801 1012.89 331.541 1012.53 330.575L1011.61 330.827C1011.9 331.793 1012.24 333.053 1012.36 333.872L1013.35 333.599ZM1011.04 333.809C1011.02 333.032 1010.85 331.793 1010.6 330.869L1009.63 331.037C1009.86 331.982 1010.01 333.221 1010.01 334.019L1011.04 333.809ZM1007.76 330.848C1007.64 331.856 1007.47 332.948 1007.18 333.809C1007.43 333.935 1007.91 334.208 1008.12 334.355C1008.39 333.515 1008.67 332.213 1008.84 331.121L1007.76 330.848ZM1007.2 324.233H1004.85C1004.66 323.687 1004.3 322.91 1003.92 322.385L1002.75 322.763C1003.02 323.225 1003.27 323.75 1003.46 324.233H1000.71V325.199H1007.2V324.233ZM1006.74 328.013H1001.15V328.979H1006.74V328.013ZM1002.28 330.974H1005.56V332.843H1002.28V330.974ZM1006.63 333.788V330.029H1001.25V333.788H1006.63ZM1006.76 326.144H1001.15V327.068H1006.76V326.144ZM1000.77 330.26C1000.62 329.525 1000.18 328.265 999.721 327.299L998.776 327.551C998.965 327.929 999.154 328.391 999.301 328.832L996.802 329.126C998.041 327.95 999.322 326.438 1000.44 324.842L999.301 324.338C998.986 324.884 998.566 325.451 998.167 325.955L996.487 326.039C997.201 325.157 997.957 324.002 998.587 322.826L997.411 322.406C996.844 323.771 995.815 325.178 995.521 325.535C995.227 325.871 994.954 326.102 994.66 326.165C994.807 326.459 994.996 327.047 995.059 327.299C995.29 327.215 995.689 327.131 997.327 327.005C996.718 327.719 996.193 328.286 995.941 328.517C995.458 329 995.038 329.336 994.681 329.378C994.807 329.693 994.996 330.281 995.059 330.512C995.374 330.365 995.92 330.26 999.574 329.714C999.658 330.029 999.742 330.323 999.784 330.554L1000.77 330.26ZM1000.54 333.368C1000.44 332.675 1000.12 331.583 999.826 330.764L998.902 331.016C999.175 331.856 999.448 332.948 999.553 333.662L1000.54 333.368ZM998.377 333.872C998.335 333.095 998.146 331.877 997.915 330.932L996.949 331.142C997.138 332.087 997.327 333.305 997.327 334.103L998.377 333.872ZM995.164 330.953C995.038 332.066 994.87 333.242 994.534 334.124C994.786 334.25 995.227 334.544 995.437 334.67C995.773 333.746 996.046 332.381 996.214 331.163L995.164 330.953ZM1008.1 336.287C1007.09 337.211 1005.77 337.925 1004.22 338.534C1002.47 337.904 1000.98 337.169 999.868 336.287H1008.1ZM1012.8 336.287V335.069H1000.86C1001.09 334.754 1001.34 334.439 1001.55 334.103L1000.18 333.683C999.049 335.426 996.844 336.833 994.66 337.715C994.933 337.967 995.416 338.597 995.584 338.87C996.676 338.387 997.789 337.757 998.797 336.959C999.805 337.799 1001.04 338.513 1002.41 339.101C999.973 339.794 997.159 340.193 994.366 340.424C994.618 340.76 994.954 341.39 995.101 341.747C998.272 341.369 1001.51 340.823 1004.26 339.857C1006.88 340.76 1009.86 341.348 1012.83 341.663C1012.99 341.264 1013.35 340.718 1013.62 340.382C1011.04 340.151 1008.39 339.752 1006.08 339.101C1007.64 338.366 1009 337.442 1010.01 336.287H1012.8ZM1020.55 335.3V331.142H1025.26V335.3H1020.55ZM1034.43 335.3H1026.83V331.142H1032.99V329.672H1026.83V326.48H1033.47V324.968H1020.95C1021.29 324.254 1021.62 323.498 1021.92 322.763L1020.34 322.385C1019.36 325.199 1017.59 327.908 1015.62 329.63C1016.02 329.84 1016.67 330.365 1016.96 330.617C1018.1 329.525 1019.21 328.097 1020.15 326.48H1025.26V329.672H1019V335.3H1015.56V336.812H1025.26V341.621H1026.83V336.812H1034.43V335.3ZM1055.35 323.456H1044.98V324.821H1055.35V323.456ZM1050.06 325.514C1049.62 326.522 1048.76 328.097 1047.96 329.378C1049.01 330.848 1049.97 332.486 1050.42 333.578L1051.65 333.053C1051.23 332.087 1050.31 330.596 1049.41 329.357C1050.06 328.265 1050.84 326.942 1051.38 325.85L1050.06 325.514ZM1055.27 333.074C1054.78 332.129 1053.82 330.596 1052.87 329.378C1053.57 328.286 1054.38 326.963 1054.93 325.85L1053.63 325.514C1053.15 326.522 1052.24 328.118 1051.4 329.399C1052.52 330.869 1053.54 332.507 1054.03 333.62L1055.27 333.074ZM1048.19 333.116C1047.77 332.129 1046.91 330.638 1046.07 329.378C1046.7 328.286 1047.45 326.942 1047.98 325.85L1046.64 325.514C1046.24 326.522 1045.4 328.118 1044.62 329.399C1045.61 330.869 1046.49 332.507 1046.91 333.62L1048.19 333.116ZM1038.19 331.793H1040V333.704H1038.19V331.793ZM1038.19 328.811H1040V330.68H1038.19V328.811ZM1042.96 330.68H1041.11V328.811H1042.96V330.68ZM1042.96 333.704H1041.11V331.793H1042.96V333.704ZM1044.62 337.967V336.581H1041.24V334.88H1044.18V327.635H1041.22V326.081H1044.45V324.716H1041.22V322.448H1039.89V324.716H1036.64V326.081H1039.89V327.635H1037.04V334.88H1039.89V336.581H1036.37V337.967H1039.89V341.621H1041.24V337.967H1044.62ZM1050.75 339.731V335.636H1054.95V334.292H1045.38V335.636H1049.22V339.731H1044.2V341.075H1055.6V339.731H1050.75ZM789.472 370.96L789.094 371.065H774.1V372.598H787.603C786.028 374.089 783.781 375.727 781.765 376.714V386.563C781.765 386.941 781.639 387.046 781.198 387.067C780.715 387.088 779.098 387.109 777.355 387.046C777.607 387.466 777.901 388.159 777.985 388.6C780.106 388.6 781.492 388.579 782.29 388.327C783.109 388.096 783.382 387.634 783.382 386.563V377.491C785.986 376.084 788.842 373.9 790.69 371.863L789.472 370.96ZM800.371 379.045C800.371 380.809 801.82 382.237 803.563 382.237C805.327 382.237 806.755 380.809 806.755 379.045C806.755 377.281 805.327 375.853 803.563 375.853C801.82 375.853 800.371 377.281 800.371 379.045ZM801.442 379.045C801.442 377.869 802.408 376.924 803.563 376.924C804.739 376.924 805.684 377.869 805.684 379.045C805.684 380.221 804.739 381.166 803.563 381.166C802.408 381.166 801.442 380.221 801.442 379.045ZM822.82 379.801V378.121H826.033V379.801H822.82ZM822.82 375.37H826.033V377.008H822.82V375.37ZM830.905 375.37V377.008H827.545V375.37H830.905ZM830.905 379.801H827.545V378.121H830.905V379.801ZM826.033 386.29H827.545V383.791H833.803V382.468H827.545V380.956H832.417V374.215H827.545V372.619H833.509V371.296H827.545V369.448H826.033V371.296H820.384V372.619H826.033V374.215H821.392V380.956H826.033V382.468H820.384V383.791H826.033V386.29ZM818.641 372.934C818.368 372.01 817.885 370.645 817.528 369.553L816.142 369.952C816.499 371.044 816.961 372.493 817.213 373.417L818.641 372.934ZM819.334 379.171L819.061 379.234H817.633C818.179 377.785 818.83 376.021 819.355 374.509H815.05V375.916H817.381C816.814 377.575 816.163 379.36 815.596 380.599H818.326C817.99 382.111 817.465 383.77 816.814 384.967C816.184 385.387 815.47 386.248 814.714 387.298L815.785 388.705C816.415 387.382 817.108 386.059 817.591 386.059C818.053 386.059 818.83 386.773 819.691 387.277C821.224 388.201 823.072 388.432 825.823 388.432C828.322 388.432 832.291 388.306 833.845 388.201C833.887 387.739 834.118 387.004 834.328 386.584C831.976 386.815 828.574 387.025 825.886 387.025C823.387 387.025 821.497 386.878 820.006 385.975C819.229 385.513 818.746 385.114 818.326 384.883C819.04 383.35 819.67 381.313 820.048 379.465L819.334 379.171ZM838.486 375.034C839.179 375.79 840.019 376.84 840.418 377.491L841.195 376.924V379.318C840.145 379.99 839.137 380.599 838.381 381.019C838.465 379.801 838.486 378.625 838.486 377.617V375.034ZM841.195 371.632V376.546C840.733 375.916 839.998 375.034 839.326 374.383L838.486 374.929V371.632H841.195ZM854.425 372.157H846.193C846.487 371.38 846.781 370.582 847.012 369.742L845.479 369.427C844.87 371.674 843.862 373.858 842.497 375.37V370.204H837.163V377.617C837.163 380.641 837.058 384.778 835.735 387.739C836.029 387.865 836.596 388.369 836.806 388.663C837.814 386.521 838.213 383.686 838.381 381.124L838.969 382.321C839.683 381.775 840.439 381.208 841.195 380.62V386.731C841.195 387.025 841.09 387.13 840.817 387.13C840.586 387.13 839.746 387.151 838.822 387.109C838.99 387.487 839.179 388.096 839.221 388.474C840.565 388.474 841.342 388.453 841.846 388.201C842.329 387.97 842.497 387.55 842.497 386.752V376.126C842.833 376.357 843.148 376.651 843.337 376.84C843.442 376.735 843.526 376.63 843.631 376.504V385.471H851.548V376.378H850.33V384.211H844.849V376.504H843.631C844.303 375.685 844.975 374.698 845.521 373.585H852.997C852.997 382.951 852.913 386.269 852.472 386.878C852.283 387.151 852.115 387.235 851.737 387.214C851.317 387.214 850.183 387.214 848.965 387.13C849.238 387.529 849.406 388.138 849.427 388.558C850.477 388.6 851.632 388.642 852.325 388.558C852.997 388.495 853.417 388.306 853.795 387.718C854.425 386.773 854.425 383.518 854.425 372.955V372.157ZM850.015 382.825C849.616 381.817 848.965 380.536 848.209 379.171C848.776 377.974 849.259 376.714 849.679 375.496L848.566 375.181C848.272 376.105 847.936 377.05 847.537 377.974C847.012 377.071 846.445 376.147 845.941 375.328L844.996 375.79C845.647 376.84 846.34 378.037 846.991 379.213C846.34 380.557 845.647 381.817 844.912 382.804C845.206 382.951 845.689 383.287 845.899 383.476C846.466 382.615 847.075 381.565 847.642 380.431C848.188 381.523 848.692 382.531 849.007 383.35L850.015 382.825ZM867.592 371.905H863.728C863.476 371.191 863.056 370.162 862.615 369.343L861.25 369.742C861.544 370.393 861.88 371.212 862.111 371.905H857.764V373.333H867.592V371.905ZM861.775 377.071C861.565 376.084 860.998 374.614 860.389 373.522L859.045 373.858C859.612 374.992 860.158 376.483 860.347 377.449L861.775 377.071ZM865.555 382.279V386.08H859.843V382.279H865.555ZM858.352 388.474H859.843V387.466H865.555V388.306H867.088V380.872H858.352V388.474ZM865.114 373.459C864.778 374.635 864.148 376.357 863.581 377.533H857.155V378.961H868.075V377.533H865.093C865.618 376.441 866.206 375.013 866.668 373.795L865.114 373.459ZM874.774 370.477L874.522 370.561H869.146V388.579H870.553V371.989H873.892C873.325 373.606 872.506 375.832 871.729 377.596C873.598 379.507 874.123 381.019 874.123 382.342C874.144 383.056 873.997 383.707 873.577 383.98C873.346 384.106 873.052 384.169 872.737 384.19C872.317 384.211 871.729 384.211 871.12 384.148C871.372 384.589 871.519 385.219 871.54 385.639C872.128 385.66 872.8 385.66 873.325 385.597C873.808 385.555 874.27 385.408 874.627 385.156C875.299 384.715 875.572 383.686 875.572 382.489C875.572 381.019 875.11 379.402 873.241 377.428C874.123 375.496 875.089 373.102 875.845 371.191L874.774 370.477ZM883.615 375.769V373.249H886.072C885.526 374.131 884.896 374.971 884.245 375.769H883.615ZM886.324 382.51H881.62V380.473H886.324V382.51ZM881.62 385.975V383.77H886.324V385.975H881.62ZM887.689 370.183C887.248 371.17 886.786 372.115 886.219 373.018V371.863H883.615V369.616H882.145V371.863H878.932V373.249H882.145V375.769H877.987V377.155H882.964C881.389 378.73 879.562 380.032 877.525 381.04C877.819 381.355 878.323 382.006 878.512 382.321C879.079 382.006 879.646 381.67 880.171 381.313V388.516H881.62V387.277H886.324V388.222H887.815V379.192H882.922C883.636 378.562 884.287 377.869 884.917 377.155H888.76V375.769H886.051C887.227 374.215 888.277 372.493 889.096 370.582L887.689 370.183ZM896.047 370.561L895.795 370.624H889.642V388.621H891.175V372.115H895.081C894.409 373.795 893.422 376.021 892.519 377.806C894.724 379.633 895.375 381.208 895.375 382.531C895.396 383.287 895.228 383.917 894.766 384.169C894.493 384.316 894.136 384.4 893.779 384.421C893.317 384.463 892.687 384.442 891.994 384.379C892.267 384.82 892.435 385.471 892.456 385.912C893.107 385.954 893.842 385.954 894.409 385.891C894.934 385.828 895.438 385.681 895.816 385.408C896.593 384.925 896.908 383.959 896.887 382.678C896.887 381.187 896.32 379.549 894.115 377.596C895.123 375.664 896.278 373.27 897.16 371.296L896.047 370.561ZM899.008 377.974V379.675H918.076V377.974H899.008ZM936.43 371.821V376.63H931.642V371.821H936.43ZM936.661 385.198C938.509 385.198 938.95 384.316 939.181 381.46C938.74 381.376 938.131 381.124 937.774 380.851C937.648 383.245 937.501 383.77 936.598 383.77H932.881C931.831 383.77 931.642 383.581 931.642 382.678V378.016H937.942V370.435H930.13V382.678C930.13 384.673 930.76 385.198 932.755 385.198H936.661ZM925.846 381.733H928.849V380.347H925.846V377.239H929.038V375.832H925.51V373.186H928.534V371.8H925.51V369.469H924.019V371.8H920.617V373.186H924.019V375.832H920.092V377.239H924.397V385.114C923.557 384.4 922.948 383.371 922.486 381.901C922.549 380.977 922.591 379.99 922.612 378.982L921.142 378.877C921.079 382.615 920.848 385.933 919.63 388.033C919.987 388.201 920.659 388.6 920.932 388.789C921.562 387.613 921.94 386.185 922.192 384.505C923.725 387.361 926.224 388.075 930.655 388.075H938.656C938.761 387.613 939.055 386.899 939.307 386.521C938.026 386.584 931.642 386.584 930.634 386.563C928.639 386.563 927.085 386.416 925.846 385.954V381.733ZM946.636 371.737V375.391H943.486V371.737H946.636ZM943.486 380.872V376.777H946.636V380.872H943.486ZM943.486 382.279H948.085V370.33H942.016V383.35H943.486V382.279ZM942.457 388.705C943.423 387.529 944.473 385.723 945.187 384.169L943.717 383.749C943.003 385.282 941.911 386.983 940.966 388.033L942.457 388.705ZM947.161 384.358C947.434 385.723 947.602 387.487 947.602 388.537L949.135 388.306C949.114 387.277 948.883 385.555 948.61 384.211L947.161 384.358ZM957.766 371.695C957.619 373.669 957.451 374.488 957.199 374.761C957.073 374.908 956.863 374.95 956.548 374.95C956.233 374.95 955.372 374.929 954.448 374.845C954.679 375.223 954.826 375.748 954.868 376.126C955.813 376.189 956.737 376.189 957.22 376.147C957.766 376.126 958.123 376 958.438 375.664C958.9 375.181 959.089 373.942 959.278 370.918C959.299 370.708 959.32 370.309 959.32 370.309H949.009V371.695H952.495C952.075 373.648 951.088 374.971 948.358 375.706C948.652 375.979 949.051 376.546 949.198 376.882C952.411 375.916 953.545 374.236 954.028 371.695H957.766ZM957.199 381.649H951.088V378.457H957.199V381.649ZM958.732 377.176H949.618V382.951H958.732V377.176ZM951.634 384.295C952.18 385.618 952.705 387.424 952.915 388.495L954.448 388.117C954.238 387.046 953.65 385.324 953.083 384.001L951.634 384.295ZM955.897 384.169C956.884 385.555 958.039 387.487 958.522 388.642L960.013 387.991C959.467 386.794 958.291 384.946 957.283 383.581L955.897 384.169ZM978.766 376.882H974.209V374.95H978.766V376.882ZM978.766 380.032H974.209V378.058H978.766V380.032ZM978.766 383.182H974.209V381.208H978.766V383.182ZM972.886 373.711V384.421H980.131V373.711H976.834C976.981 373.123 977.128 372.43 977.275 371.779H980.866V370.435H972.298V371.779H975.679C975.616 372.388 975.532 373.102 975.427 373.711H972.886ZM968.392 381.754H966.229V380.599H968.392V381.754ZM968.392 383.917H966.229V382.741H968.392V383.917ZM968.392 386.101H966.229V384.925H968.392V386.101ZM970.24 374.383V376.231H964.234V374.383H970.24ZM972.046 387.235V386.101H969.505V384.925H971.731V383.917H969.505V382.741H971.689V381.754H969.505V380.599H971.92V379.528H969.673C969.484 378.982 969.106 378.268 968.77 377.722L967.72 378.037C967.972 378.499 968.224 379.045 968.413 379.528H966.502C966.733 379.024 966.922 378.499 967.09 377.953L965.914 377.659C965.536 378.982 964.906 380.305 964.15 381.376C964.213 380.2 964.234 379.087 964.234 378.1V377.47H971.647V373.144H964.234V372.136C966.733 371.905 969.505 371.485 971.416 370.918L970.261 369.847C968.602 370.393 965.494 370.834 962.911 371.086H962.89V378.1C962.89 380.977 962.827 385.009 961.756 387.844C962.092 387.97 962.68 388.285 962.932 388.495C963.562 386.815 963.898 384.694 964.066 382.657C964.213 382.804 964.339 382.972 964.402 383.077C964.633 382.825 964.822 382.552 965.032 382.237V388.369H966.229V387.235H972.046ZM974.734 385.03C974.083 385.912 972.781 387.025 971.584 387.676C971.92 387.907 972.403 388.348 972.613 388.642C973.789 387.949 975.175 386.794 976.057 385.744L974.734 385.03ZM977.296 385.744C978.262 386.563 979.417 387.718 979.963 388.474L981.139 387.676C980.572 386.899 979.396 385.807 978.451 385.051L977.296 385.744ZM989.686 381.733H993.865V380.347H989.686V378.079H988.195V380.347H984.1V381.733H988.195V385.261C986.368 385.576 984.667 385.891 983.386 386.101L983.722 387.571C986.473 387.025 990.442 386.269 994.159 385.555L994.054 384.19C992.605 384.463 991.114 384.736 989.686 385.009V381.733ZM983.554 372.199H986.872C986.2 373.69 985.36 374.992 985.045 375.412C984.688 375.916 984.373 376.273 984.037 376.336C984.226 376.735 984.478 377.47 984.562 377.806C985.066 377.575 985.822 377.491 992.353 376.861C992.668 377.344 992.92 377.806 993.088 378.163L994.285 377.386C993.676 376.189 992.29 374.299 991.114 372.892L990.001 373.564C990.505 374.194 991.051 374.908 991.555 375.643L986.2 376.105C987.04 374.992 987.901 373.585 988.615 372.199H994.285V370.813H983.554V372.199ZM996.91 371.254H995.44V383.875H996.91V371.254ZM999.556 369.784V386.185C999.556 386.542 999.472 386.626 999.115 386.647C998.758 386.668 997.603 386.668 996.385 386.626C996.616 387.046 996.889 387.76 996.952 388.159C998.464 388.159 999.577 388.117 1000.23 387.865C1000.86 387.634 1001.09 387.151 1001.09 386.164V369.784H999.556ZM1020.47 370.96L1020.09 371.065H1005.1V372.598H1018.6C1017.03 374.089 1014.78 375.727 1012.77 376.714V386.563C1012.77 386.941 1012.64 387.046 1012.2 387.067C1011.72 387.088 1010.1 387.109 1008.36 387.046C1008.61 387.466 1008.9 388.159 1008.99 388.6C1011.11 388.6 1012.49 388.579 1013.29 388.327C1014.11 388.096 1014.38 387.634 1014.38 386.563V377.491C1016.99 376.084 1019.84 373.9 1021.69 371.863L1020.47 370.96ZM1026.73 382.363H1028.05L1028.31 373.459L1028.37 371.275H1026.42L1026.48 373.459L1026.73 382.363ZM1027.38 387.277C1028.16 387.277 1028.77 386.689 1028.77 385.828C1028.77 384.967 1028.16 384.337 1027.38 384.337C1026.62 384.337 1026 384.967 1026 385.828C1026 386.689 1026.62 387.277 1027.38 387.277ZM923.247 475.775H940.089V474.431H923.247V475.775ZM964.243 466.409C963.76 467.753 962.836 469.622 962.122 470.798L963.235 471.344C963.991 470.21 964.894 468.488 965.671 467.018L964.243 466.409ZM956.641 470.84C956.326 469.685 955.507 467.921 954.73 466.577L953.575 467.039C954.331 468.404 955.087 470.231 955.423 471.407L956.641 470.84ZM953.47 473.213C953.113 472.625 951.496 470.357 950.908 469.601V468.929H952.945V467.459H950.908V463.427H949.417V467.459H946.75V468.929H949.312C948.787 471.743 947.611 475.082 946.435 476.846C946.687 477.224 947.065 477.917 947.233 478.379C948.031 477.098 948.829 475.082 949.417 472.961V482.6H950.908V471.491C951.517 472.52 952.21 473.717 952.504 474.389L953.47 473.213ZM956.914 472.058C956.914 472.478 956.914 472.94 956.893 473.402C955.423 474.473 953.932 475.544 952.945 476.195L953.701 477.602C954.667 476.825 955.738 475.922 956.788 475.019C956.494 477.539 955.549 480.08 952.525 481.529C952.861 481.802 953.323 482.369 953.512 482.684C957.88 480.269 958.342 475.817 958.342 472.058V463.448H956.914V472.058ZM962.416 480.899C961.912 480.899 961.828 480.752 961.828 479.975V474.011C963.025 475.103 964.348 476.51 965.041 477.413L966.028 476.426C965.272 475.46 963.676 473.948 962.416 472.856L961.828 473.402V463.448H960.358V479.954C960.358 481.823 960.778 482.306 962.206 482.306H964.243C965.545 482.306 965.923 481.445 966.07 478.946C965.629 478.841 965.083 478.589 964.726 478.337C964.684 480.353 964.6 480.899 964.159 480.899H962.416ZM983.374 469.643H977.893V468.341H982.261V467.375H977.893V466.199H976.465V467.375H972.244V468.341H976.465V469.643H971.047V470.651H983.374V469.643ZM973.714 472.268H980.728V473.717H973.714V472.268ZM974.785 478.4V475.922C975.646 475.502 976.465 475.061 977.095 474.557H982.135V471.428H972.391V474.557H975.331C974.029 475.271 972.181 475.88 970.543 476.258C970.795 476.489 971.173 476.972 971.341 477.182C972.055 476.993 972.811 476.741 973.567 476.447V478.001C973.567 478.757 973.063 479.009 972.748 479.114C972.916 479.345 973.126 479.807 973.189 480.101C973.504 479.891 974.05 479.744 977.935 478.673C977.893 478.421 977.872 477.959 977.893 477.665L974.785 478.4ZM982.303 475.019C981.757 475.439 980.854 475.985 980.056 476.447C979.258 475.901 978.418 475.418 977.662 474.998L976.696 475.586C978.67 476.72 981.148 478.421 982.366 479.513L983.395 478.799C982.786 478.295 981.904 477.665 980.959 477.014C981.757 476.636 982.597 476.153 983.311 475.649L982.303 475.019ZM970.018 480.311V465.779H984.424V480.311H970.018ZM968.527 464.351V482.621H970.018V481.739H984.424V482.621H985.957V464.351H968.527ZM1000.59 481.277C1002.67 481.277 1004.37 480.521 1005.35 479.492V473.024H1000.31V474.641H1003.57V478.673C1002.96 479.24 1001.89 479.576 1000.78 479.576C997.478 479.576 995.651 477.14 995.651 473.255C995.651 469.412 997.667 467.018 1000.75 467.018C1002.33 467.018 1003.32 467.669 1004.09 468.488L1005.14 467.228C1004.26 466.283 1002.85 465.317 1000.71 465.317C996.638 465.317 993.656 468.341 993.656 473.318C993.656 478.316 996.533 481.277 1000.59 481.277ZM1008.85 481.004H1010.76V469.601H1008.85V481.004ZM1009.81 467.249C1010.57 467.249 1011.14 466.724 1011.14 466.01C1011.14 465.233 1010.57 464.771 1009.81 464.771C1009.06 464.771 1008.49 465.233 1008.49 466.01C1008.49 466.724 1009.06 467.249 1009.81 467.249ZM1014.63 481.004H1016.54V472.73C1017.7 471.575 1018.5 470.987 1019.67 470.987C1021.18 470.987 1021.84 471.89 1021.84 474.032V481.004H1023.75V473.78C1023.75 470.861 1022.65 469.307 1020.26 469.307C1018.71 469.307 1017.53 470.168 1016.44 471.239H1016.38L1016.21 469.601H1014.63V481.004ZM1030.1 481.277C1031.5 481.277 1032.78 480.542 1033.88 479.639H1033.94L1034.11 481.004H1035.68V473.99C1035.68 471.176 1034.51 469.307 1031.73 469.307C1029.91 469.307 1028.29 470.126 1027.24 470.798L1028 472.121C1028.9 471.512 1030.1 470.903 1031.42 470.903C1033.29 470.903 1033.77 472.31 1033.77 473.78C1028.92 474.326 1026.76 475.565 1026.76 478.043C1026.76 480.101 1028.18 481.277 1030.1 481.277ZM1030.64 479.744C1029.51 479.744 1028.63 479.219 1028.63 477.917C1028.63 476.447 1029.93 475.502 1033.77 475.04V478.232C1032.66 479.219 1031.75 479.744 1030.64 479.744Z" fill="#3E3E3E"/>
<path d="M746.907 247.104C744.411 249.461 743.128 252.893 743.059 257.4L747.635 258.024V267.072H738.067V262.808C738.067 259.411 738.205 256.603 738.483 254.384C738.829 251.819 739.835 249.392 741.499 247.104C742.4 245.925 743.44 244.92 744.619 244.088L746.907 247.104ZM761.155 247.104C758.589 249.253 757.272 252.685 757.203 257.4L762.195 258.024V267.072H752.523V262.808C752.523 260.728 752.592 259.064 752.731 257.816C752.731 257.053 752.765 256.325 752.835 255.632C752.904 254.661 753.008 253.899 753.147 253.344C753.147 253.205 753.216 252.928 753.355 252.512C753.493 252.027 753.597 251.611 753.667 251.264C753.736 250.501 753.979 249.808 754.395 249.184C754.811 248.491 755.157 247.901 755.435 247.416C756.059 246.376 757.168 245.267 758.763 244.088L761.155 247.104Z" fill="#3E3E3E"/>
<path d="M1076.78 503.438C1079.28 501.081 1080.56 497.649 1080.63 493.142L1076.06 492.518V483.47H1085.62V487.734C1085.62 491.131 1085.48 493.939 1085.21 496.158C1084.86 498.723 1083.86 501.15 1082.19 503.438C1081.29 504.617 1080.25 505.622 1079.07 506.454L1076.78 503.438ZM1062.54 503.438C1065.1 501.289 1066.42 497.857 1066.49 493.142L1061.5 492.518V483.47H1071.17V487.734C1071.17 489.814 1071.1 491.478 1070.96 492.726C1070.96 493.489 1070.92 494.217 1070.86 494.91C1070.79 495.881 1070.68 496.643 1070.54 497.198C1070.54 497.337 1070.47 497.614 1070.34 498.03C1070.2 498.515 1070.09 498.931 1070.02 499.278C1069.95 500.041 1069.71 500.734 1069.3 501.358C1068.88 502.051 1068.53 502.641 1068.26 503.126C1067.63 504.166 1066.52 505.275 1064.93 506.454L1062.54 503.438Z" fill="#3E3E3E"/>
</svg>
