<svg width="1280" height="690" viewBox="0 0 1280 690" fill="none" xmlns="http://www.w3.org/2000/svg">
<path d="M788.744 184.41V185.712H782.948C783.389 185.292 783.767 184.872 784.103 184.41H788.744ZM798.53 185.712H790.319V184.41H797.018V183.339H790.319V181.953H788.744V183.339H784.796C784.985 183.003 785.153 182.667 785.321 182.31L783.872 182.079C783.431 183.045 782.654 184.2 781.541 185.082C781.877 185.208 782.276 185.46 782.591 185.712H780.449V186.867H798.53V185.712ZM784.145 188.988H795.128V190.563H784.145V188.988ZM796.703 191.613V187.917H782.654V191.613H796.703ZM786.686 193.188H780.575V194.301H786.686C786.686 194.7 786.665 195.12 786.623 195.582H781.058V196.653H786.497C786.434 196.989 786.371 197.346 786.287 197.661C783.935 197.955 781.646 198.249 780.05 198.417L780.218 199.572C781.793 199.383 783.851 199.11 785.909 198.816C785.678 199.425 785.342 199.992 784.943 200.517C785.279 200.685 785.972 201.084 786.224 201.357C787.862 199.278 788.198 196.275 788.198 194.154V191.928H786.686V193.188ZM799.034 198.018H792.524V196.653H798.005V195.582H792.524V194.28H798.446V193.188H792.524V192.012H790.991V201.147H792.524V199.173H799.034V198.018ZM810.206 183.927H816.002V185.628H812.18V189.135H810.206V183.927ZM813.398 189.135V186.72H816.002V189.135H813.398ZM808.589 190.374H817.619V196.653C817.619 196.863 817.535 196.947 817.283 196.968C817.073 196.968 816.296 196.968 815.414 196.947C815.582 197.304 815.771 197.829 815.834 198.207C817.094 198.207 817.892 198.207 818.396 197.976C818.921 197.745 819.047 197.388 819.047 196.653V189.135H817.43V182.709H808.82V189.135H807.203V198.207H808.589V190.374ZM814.574 195.078H811.571V192.852H814.574V195.078ZM815.792 191.739H810.353V196.989H811.571V196.17H815.792V191.739ZM804.62 185.46C804.368 184.536 803.885 183.171 803.528 182.079L802.142 182.478C802.499 183.57 802.961 185.019 803.213 185.922L804.62 185.46ZM805.334 191.697L805.061 191.76H803.612C804.179 190.311 804.83 188.547 805.355 187.035H801.05V188.442H803.381C802.814 190.101 802.163 191.886 801.575 193.125H804.326C803.99 194.637 803.465 196.296 802.814 197.493C802.184 197.913 801.47 198.774 800.714 199.824L801.785 201.231C802.415 199.908 803.108 198.585 803.591 198.585C804.053 198.585 804.83 199.299 805.67 199.803C807.224 200.727 809.072 200.958 811.823 200.958C814.301 200.958 818.291 200.832 819.845 200.727C819.887 200.265 820.118 199.53 820.328 199.11C817.976 199.341 814.574 199.551 811.886 199.551C809.387 199.551 807.497 199.404 806.006 198.501C805.229 198.039 804.725 197.64 804.326 197.409C805.04 195.876 805.649 193.839 806.048 191.991L805.334 191.697ZM836.12 186.888C835.658 189.219 834.65 191.256 833.138 192.558C833.516 192.726 834.146 193.167 834.44 193.398C835.154 192.726 835.763 191.886 836.288 190.92C837.527 191.949 838.85 193.125 839.564 193.923L840.677 192.852C839.837 191.991 838.22 190.647 836.897 189.618C837.191 188.841 837.443 188.022 837.611 187.14L836.12 186.888ZM826.229 186.888C825.62 189.597 824.318 191.844 822.407 193.272C822.764 193.503 823.373 194.007 823.646 194.28C824.675 193.419 825.578 192.306 826.292 190.983C827.048 191.718 827.825 192.495 828.245 193.02L829.316 191.949C828.791 191.34 827.825 190.416 826.943 189.639C827.258 188.862 827.552 188.043 827.762 187.161L826.229 186.888ZM832.235 186.405H840.572V184.872H832.235V181.974H830.639V184.872H822.596V186.405H830.639V191.529C828.707 194.574 825.242 197.472 821.861 198.858C822.218 199.173 822.722 199.782 822.953 200.16C825.746 198.858 828.56 196.59 830.639 193.923V201.126H832.235V193.86C834.272 196.59 837.128 198.942 840.026 200.223C840.278 199.803 840.782 199.173 841.181 198.837C837.611 197.493 834.104 194.532 832.235 191.382V186.405ZM847.754 194.364H857.267V195.834H847.754V194.364ZM857.267 187.476V188.883H847.754V187.476H857.267ZM857.267 192.096V193.356H847.754V192.096H857.267ZM857.267 191.088H847.754V189.891H857.267V191.088ZM861.761 195.834H858.821V186.405H852.773C852.857 186.006 852.941 185.565 853.025 185.082H861.236V183.738H853.256L853.529 182.121L851.87 181.932C851.828 182.457 851.765 183.108 851.681 183.738H843.848V185.082H851.492C851.45 185.565 851.366 186.006 851.282 186.405H846.242V195.834H843.26V197.157H861.761V195.834ZM849.308 197.577C847.985 198.459 845.36 199.488 843.26 200.055C843.596 200.349 844.079 200.832 844.331 201.147C846.41 200.559 849.014 199.509 850.673 198.459L849.308 197.577ZM854.453 198.522C856.784 199.299 859.157 200.307 860.585 201.105L861.845 200.013C860.312 199.257 857.75 198.249 855.419 197.514L854.453 198.522ZM870.728 191.109H866.318V186.72H870.728V191.109ZM866.318 197.535V192.495H870.728V197.535H866.318ZM868.082 181.911C867.935 182.898 867.557 184.305 867.242 185.313H864.89V200.601H866.318V198.942H872.156V185.313H868.67C869.027 184.41 869.405 183.255 869.762 182.226L868.082 181.911ZM882.425 185.25H876.146C876.503 184.263 876.797 183.255 877.049 182.226L875.558 181.869C874.886 184.746 873.752 187.644 872.345 189.492C872.681 189.702 873.353 190.122 873.626 190.374C874.361 189.387 875.012 188.106 875.6 186.699H880.934C880.661 195.057 880.346 198.249 879.653 198.984C879.443 199.257 879.212 199.299 878.792 199.299C878.309 199.299 877.049 199.299 875.684 199.173C875.978 199.614 876.167 200.244 876.209 200.706C877.385 200.769 878.582 200.811 879.317 200.727C880.031 200.664 880.514 200.475 880.976 199.887C881.816 198.858 882.089 195.624 882.425 186.048V185.25ZM879.107 194.7C878.435 193.461 876.986 191.445 875.81 189.954L874.592 190.668C875.747 192.18 877.154 194.259 877.784 195.519L879.107 194.7ZM898.931 195.33V196.758H890.237V195.33H898.931ZM890.237 199.299V197.871H898.931V199.299H890.237ZM888.704 201.105H890.237V200.412H898.931V201.042H900.506V194.217H888.704V201.105ZM897.503 192.075C897.944 191.445 898.469 190.5 898.931 189.597L897.608 189.177C897.377 189.891 896.831 191.004 896.453 191.697L897.503 192.075ZM890.09 189.618C890.615 190.395 891.098 191.403 891.266 192.075L892.463 191.634C892.274 190.962 891.749 189.996 891.203 189.261L890.09 189.618ZM888.83 189.03H893.786V192.159H888.83V189.03ZM900.107 192.159H895.109V189.03H900.107V192.159ZM887.486 193.23H901.514V187.938H887.486V193.23ZM891.875 185.775C892.862 185.166 893.786 184.452 894.584 183.675C895.382 184.431 896.348 185.145 897.356 185.775H891.875ZM894.374 181.89C892.4 184.431 888.683 186.279 884.882 187.287C885.155 187.581 885.596 188.211 885.764 188.484C887.507 187.938 889.292 187.224 890.909 186.342V186.909H898.175V186.258C899.813 187.161 901.619 187.875 903.32 188.358C903.551 187.98 903.992 187.434 904.307 187.161C901.031 186.384 897.398 184.704 895.445 182.793C895.529 182.667 895.634 182.52 895.739 182.394L894.374 181.89ZM924.866 183.528H919.805C919.595 183.003 919.259 182.31 918.902 181.806L917.621 182.184C917.852 182.583 918.083 183.066 918.272 183.528H912.896V184.746H924.866V183.528ZM910.271 184.872C910.124 184.137 909.599 182.982 909.074 182.1L907.94 182.499C908.444 183.381 908.927 184.578 909.095 185.313L910.271 184.872ZM912.476 185.523H905.903V186.804H912.476V185.523ZM910.733 195.141V198.669H907.814V195.141H910.733ZM911.909 193.881H906.659V200.916H907.814V199.929H911.909V193.881ZM906.764 192.306H911.909V191.046H906.764V192.306ZM906.764 189.513H911.909V188.274H906.764V189.513ZM917.222 193.461H920.372V194.595H917.222V193.461ZM917.222 191.298H920.372V192.411H917.222V191.298ZM914.891 186.531H917.096V188.169H914.891V186.531ZM920.645 186.531H922.934V188.169H920.645V186.531ZM923.837 196.023C923.207 196.464 922.22 197.073 921.338 197.493C920.897 196.968 920.498 196.359 920.183 195.729H925.076V194.595H921.8V193.461H924.215V192.411H921.8V191.298H924.614V190.248H921.8V189.114H924.194V185.586H919.448V189.114H920.372V190.248H917.222V189.114H918.335V185.586H913.694V189.114H915.815V190.248H913.253V191.298H915.815V192.411H913.631V193.461H915.815V194.595H912.602V195.729H916.844C915.626 196.59 913.904 197.283 912.266 197.703C912.518 197.955 912.917 198.48 913.085 198.732C913.862 198.48 914.66 198.165 915.437 197.787V198.438C915.437 199.362 914.933 199.887 914.618 200.118C914.849 200.349 915.185 200.832 915.311 201.126C915.647 200.916 916.214 200.727 919.868 199.908C919.826 199.614 919.805 199.089 919.826 198.711L916.697 199.32V197.136C917.411 196.695 918.062 196.254 918.587 195.729H918.86C919.889 198.291 921.758 200.202 924.425 201.042C924.614 200.685 925.013 200.202 925.307 199.908C924.089 199.593 923.018 199.026 922.136 198.291C922.976 197.871 923.942 197.367 924.677 196.821L923.837 196.023ZM929.486 187.56C930.179 188.316 931.019 189.366 931.418 190.017L932.195 189.45V191.844C931.145 192.516 930.137 193.125 929.381 193.545C929.465 192.327 929.486 191.151 929.486 190.143V187.56ZM932.195 184.158V189.072C931.733 188.442 930.998 187.56 930.326 186.909L929.486 187.455V184.158H932.195ZM945.425 184.683H937.193C937.487 183.906 937.781 183.108 938.012 182.268L936.479 181.953C935.87 184.2 934.862 186.384 933.497 187.896V182.73H928.163V190.143C928.163 193.167 928.058 197.304 926.735 200.265C927.029 200.391 927.596 200.895 927.806 201.189C928.814 199.047 929.213 196.212 929.381 193.65L929.969 194.847C930.683 194.301 931.439 193.734 932.195 193.146V199.257C932.195 199.551 932.09 199.656 931.817 199.656C931.586 199.656 930.746 199.677 929.822 199.635C929.99 200.013 930.179 200.622 930.221 201C931.565 201 932.342 200.979 932.846 200.727C933.329 200.496 933.497 200.076 933.497 199.278V188.652C933.833 188.883 934.148 189.177 934.337 189.366C934.442 189.261 934.526 189.156 934.631 189.03V197.997H942.548V188.904H941.33V196.737H935.849V189.03H934.631C935.303 188.211 935.975 187.224 936.521 186.111H943.997C943.997 195.477 943.913 198.795 943.472 199.404C943.283 199.677 943.115 199.761 942.737 199.74C942.317 199.74 941.183 199.74 939.965 199.656C940.238 200.055 940.406 200.664 940.427 201.084C941.477 201.126 942.632 201.168 943.325 201.084C943.997 201.021 944.417 200.832 944.795 200.244C945.425 199.299 945.425 196.044 945.425 185.481V184.683ZM941.015 195.351C940.616 194.343 939.965 193.062 939.209 191.697C939.776 190.5 940.259 189.24 940.679 188.022L939.566 187.707C939.272 188.631 938.936 189.576 938.537 190.5C938.012 189.597 937.445 188.673 936.941 187.854L935.996 188.316C936.647 189.366 937.34 190.563 937.991 191.739C937.34 193.083 936.647 194.343 935.912 195.33C936.206 195.477 936.689 195.813 936.899 196.002C937.466 195.141 938.075 194.091 938.642 192.957C939.188 194.049 939.692 195.057 940.007 195.876L941.015 195.351ZM958.592 184.431H954.728C954.476 183.717 954.056 182.688 953.615 181.869L952.25 182.268C952.544 182.919 952.88 183.738 953.111 184.431H948.764V185.859H958.592V184.431ZM952.775 189.597C952.565 188.61 951.998 187.14 951.389 186.048L950.045 186.384C950.612 187.518 951.158 189.009 951.347 189.975L952.775 189.597ZM956.555 194.805V198.606H950.843V194.805H956.555ZM949.352 201H950.843V199.992H956.555V200.832H958.088V193.398H949.352V201ZM956.114 185.985C955.778 187.161 955.148 188.883 954.581 190.059H948.155V191.487H959.075V190.059H956.093C956.618 188.967 957.206 187.539 957.668 186.321L956.114 185.985ZM965.774 183.003L965.522 183.087H960.146V201.105H961.553V184.515H964.892C964.325 186.132 963.506 188.358 962.729 190.122C964.598 192.033 965.123 193.545 965.123 194.868C965.144 195.582 964.997 196.233 964.577 196.506C964.346 196.632 964.052 196.695 963.737 196.716C963.317 196.737 962.729 196.737 962.12 196.674C962.372 197.115 962.519 197.745 962.54 198.165C963.128 198.186 963.8 198.186 964.325 198.123C964.808 198.081 965.27 197.934 965.627 197.682C966.299 197.241 966.572 196.212 966.572 195.015C966.572 193.545 966.11 191.928 964.241 189.954C965.123 188.022 966.089 185.628 966.845 183.717L965.774 183.003ZM792.65 242.351H794.204V230.213H799.286V228.764H792.65V242.351ZM814.44 231.41V232.712H808.644C809.085 232.292 809.463 231.872 809.799 231.41H814.44ZM824.226 232.712H816.015V231.41H822.714V230.339H816.015V228.953H814.44V230.339H810.492C810.681 230.003 810.849 229.667 811.017 229.31L809.568 229.079C809.127 230.045 808.35 231.2 807.237 232.082C807.573 232.208 807.972 232.46 808.287 232.712H806.145V233.867H824.226V232.712ZM809.841 235.988H820.824V237.563H809.841V235.988ZM822.399 238.613V234.917H808.35V238.613H822.399ZM812.382 240.188H806.271V241.301H812.382C812.382 241.7 812.361 242.12 812.319 242.582H806.754V243.653H812.193C812.13 243.989 812.067 244.346 811.983 244.661C809.631 244.955 807.342 245.249 805.746 245.417L805.914 246.572C807.489 246.383 809.547 246.11 811.605 245.816C811.374 246.425 811.038 246.992 810.639 247.517C810.975 247.685 811.668 248.084 811.92 248.357C813.558 246.278 813.894 243.275 813.894 241.154V238.928H812.382V240.188ZM824.73 245.018H818.22V243.653H823.701V242.582H818.22V241.28H824.142V240.188H818.22V239.012H816.687V248.147H818.22V246.173H824.73V245.018ZM839.787 240.272H844.512V238.802H839.787V234.791H838.233V238.802H833.529V240.272H838.233V246.173H832.71V247.643H845.331V246.173H839.787V240.272ZM834.516 232.208C834.894 231.263 835.251 230.297 835.524 229.352L833.928 228.953C833.634 230.024 833.256 231.137 832.815 232.208H827.082V233.699H832.122C830.82 236.366 828.972 238.844 826.578 240.545C826.83 240.881 827.229 241.532 827.376 241.952C828.258 241.322 829.077 240.629 829.812 239.831V248.063H831.345V237.983C832.332 236.639 833.151 235.211 833.886 233.699H845.331V232.208H834.516ZM847.704 237.5V239.201H866.772V237.5H847.704ZM885.126 231.347V236.156H880.338V231.347H885.126ZM885.357 244.724C887.205 244.724 887.646 243.842 887.877 240.986C887.436 240.902 886.827 240.65 886.47 240.377C886.344 242.771 886.197 243.296 885.294 243.296H881.577C880.527 243.296 880.338 243.107 880.338 242.204V237.542H886.638V229.961H878.826V242.204C878.826 244.199 879.456 244.724 881.451 244.724H885.357ZM874.542 241.259H877.545V239.873H874.542V236.765H877.734V235.358H874.206V232.712H877.23V231.326H874.206V228.995H872.715V231.326H869.313V232.712H872.715V235.358H868.788V236.765H873.093V244.64C872.253 243.926 871.644 242.897 871.182 241.427C871.245 240.503 871.287 239.516 871.308 238.508L869.838 238.403C869.775 242.141 869.544 245.459 868.326 247.559C868.683 247.727 869.355 248.126 869.628 248.315C870.258 247.139 870.636 245.711 870.888 244.031C872.421 246.887 874.92 247.601 879.351 247.601H887.352C887.457 247.139 887.751 246.425 888.003 246.047C886.722 246.11 880.338 246.11 879.33 246.089C877.335 246.089 875.781 245.942 874.542 245.48V241.259ZM896.123 241.889H897.446L897.698 232.985L897.761 230.801H895.808L895.871 232.985L896.123 241.889ZM896.774 246.803C897.551 246.803 898.16 246.215 898.16 245.354C898.16 244.493 897.551 243.863 896.774 243.863C896.018 243.863 895.388 244.493 895.388 245.354C895.388 246.215 896.018 246.803 896.774 246.803ZM912.227 234.749H910.673V246.887H905.591V248.336H912.227V234.749ZM929.363 234.56C930.056 235.316 930.896 236.366 931.295 237.017L932.072 236.45V238.844C931.022 239.516 930.014 240.125 929.258 240.545C929.342 239.327 929.363 238.151 929.363 237.143V234.56ZM932.072 231.158V236.072C931.61 235.442 930.875 234.56 930.203 233.909L929.363 234.455V231.158H932.072ZM945.302 231.683H937.07C937.364 230.906 937.658 230.108 937.889 229.268L936.356 228.953C935.747 231.2 934.739 233.384 933.374 234.896V229.73H928.04V237.143C928.04 240.167 927.935 244.304 926.612 247.265C926.906 247.391 927.473 247.895 927.683 248.189C928.691 246.047 929.09 243.212 929.258 240.65L929.846 241.847C930.56 241.301 931.316 240.734 932.072 240.146V246.257C932.072 246.551 931.967 246.656 931.694 246.656C931.463 246.656 930.623 246.677 929.699 246.635C929.867 247.013 930.056 247.622 930.098 248C931.442 248 932.219 247.979 932.723 247.727C933.206 247.496 933.374 247.076 933.374 246.278V235.652C933.71 235.883 934.025 236.177 934.214 236.366C934.319 236.261 934.403 236.156 934.508 236.03V244.997H942.425V235.904H941.207V243.737H935.726V236.03H934.508C935.18 235.211 935.852 234.224 936.398 233.111H943.874C943.874 242.477 943.79 245.795 943.349 246.404C943.16 246.677 942.992 246.761 942.614 246.74C942.194 246.74 941.06 246.74 939.842 246.656C940.115 247.055 940.283 247.664 940.304 248.084C941.354 248.126 942.509 248.168 943.202 248.084C943.874 248.021 944.294 247.832 944.672 247.244C945.302 246.299 945.302 243.044 945.302 232.481V231.683ZM940.892 242.351C940.493 241.343 939.842 240.062 939.086 238.697C939.653 237.5 940.136 236.24 940.556 235.022L939.443 234.707C939.149 235.631 938.813 236.576 938.414 237.5C937.889 236.597 937.322 235.673 936.818 234.854L935.873 235.316C936.524 236.366 937.217 237.563 937.868 238.739C937.217 240.083 936.524 241.343 935.789 242.33C936.083 242.477 936.566 242.813 936.776 243.002C937.343 242.141 937.952 241.091 938.519 239.957C939.065 241.049 939.569 242.057 939.884 242.876L940.892 242.351ZM965.567 229.1H964.076V238.403C964.076 238.697 963.992 238.781 963.677 238.781C963.362 238.823 962.312 238.823 961.115 238.781C961.346 239.201 961.577 239.789 961.64 240.209C963.131 240.209 964.139 240.188 964.769 239.957C965.399 239.705 965.567 239.306 965.567 238.445V229.1ZM961.64 230.15H960.191V237.143H961.64V230.15ZM952.463 233.951V231.2H955.046V234.077H952.463V233.951ZM955.046 235.463V239.957H956.516V235.463H958.889V234.077H956.516V231.2H958.469V229.814H949.061V231.2H951.014V233.909V234.077H948.368V235.463H950.909C950.657 236.87 950.006 238.277 948.179 239.39C948.473 239.621 948.998 240.188 949.208 240.482C951.329 239.138 952.106 237.269 952.358 235.463H955.046ZM958.28 245.963V243.317H964.622V241.889H958.28V239.537H956.705V241.889H950.111V243.317H956.705V245.963H947.948V247.433H966.806V245.963H958.28ZM974.891 234.938C974.849 236.975 974.576 239.411 973.421 241.805C972.623 241.112 971.783 240.461 970.985 239.852C971.342 238.487 971.741 236.807 972.077 235.106L974.891 234.938ZM977.579 234.77L977.6 233.342L976.382 233.405V231.956H974.912V233.489L972.35 233.636C972.623 232.082 972.875 230.507 973.043 229.1L971.51 229.016C971.363 230.444 971.132 232.103 970.838 233.699C970.061 233.72 969.347 233.762 968.738 233.783L968.906 235.274L970.565 235.19C970.145 237.143 969.704 239.012 969.284 240.377C970.355 241.196 971.552 242.162 972.665 243.149C971.783 244.535 970.544 245.9 968.822 247.118C969.137 247.349 969.683 247.853 969.914 248.189C971.615 246.95 972.896 245.585 973.82 244.178C974.786 245.081 975.647 245.942 976.235 246.656L977.243 245.354C976.613 244.619 975.668 243.737 974.618 242.813C976.004 240.041 976.319 237.206 976.382 234.854L977.579 234.77ZM987.953 237.815H983.333V235.799C984.803 234.518 986.294 232.754 987.323 231.2L986.252 230.423L985.895 230.507H977.831V231.956H984.824C983.963 233.174 982.829 234.539 981.758 235.421V237.815H976.907V239.306H981.758V246.278C981.758 246.572 981.632 246.677 981.296 246.677C980.981 246.698 979.826 246.698 978.587 246.656C978.818 247.097 979.07 247.706 979.154 248.147C980.792 248.168 981.8 248.126 982.451 247.895C983.102 247.643 983.333 247.202 983.333 246.278V239.306H987.953V237.815ZM1004.98 240.923H995.87V239.474H1004.98V240.923ZM995.87 246.11V244.556H1004.98V246.11H995.87ZM1004.98 243.464H995.87V241.994H1004.98V243.464ZM1008.57 236.786V235.484H997.571C997.823 234.98 998.054 234.455 998.264 233.951H1007.36V232.691H998.705C998.873 232.166 999.041 231.662 999.188 231.137C1002.19 230.969 1005.05 230.696 1007.15 230.255L1006.16 229.121C1002.84 229.793 996.5 230.129 991.418 230.171C991.565 230.507 991.712 231.011 991.733 231.368C993.539 231.368 995.513 231.326 997.466 231.221C997.34 231.725 997.193 232.208 997.025 232.691H991.712V233.951H996.563C996.374 234.455 996.122 234.98 995.87 235.484H990.179V236.786H995.135C993.833 238.97 992.027 240.923 989.675 242.288C989.969 242.561 990.431 243.128 990.641 243.485C992.069 242.624 993.308 241.574 994.379 240.398V248.189H995.87V247.37H1004.98V248.189H1006.52V238.235H996.059C996.374 237.773 996.647 237.269 996.92 236.786H1008.57ZM794.876 279.712H784.019V278.011H794.876V279.712ZM794.876 282.547H784.019V280.846H794.876V282.547ZM796.43 276.814H782.486V283.744H796.43V276.814ZM790.445 290.275H797.375V288.889H790.445V286.558H798.74V285.151H780.302V286.558H788.912V292.879C787.106 292.396 785.762 291.43 784.943 289.54C785.153 288.868 785.342 288.175 785.489 287.44L783.914 287.23C783.347 290.296 782.024 292.648 779.84 294.055C780.176 294.307 780.785 294.895 780.995 295.168C782.36 294.16 783.452 292.858 784.271 291.22C785.972 294.055 788.639 294.727 792.86 294.727H798.572C798.656 294.265 798.908 293.593 799.118 293.236C798.047 293.257 793.7 293.257 792.923 293.257C792.041 293.257 791.201 293.215 790.445 293.131V290.275ZM803.213 279.061H817.787V281.119H819.278V277.78H811.508C811.214 277.15 810.752 276.373 810.269 275.806L808.946 276.226C809.261 276.688 809.618 277.255 809.87 277.78H801.785V281.119H803.213V279.061ZM805.418 290.338H815.666V291.325H805.418V290.338ZM805.418 288.469H815.666V289.435H805.418V288.469ZM805.418 286.642H815.666V287.587H805.418V286.642ZM817.22 292.249V285.718H803.906V292.249H807.917C806.573 292.984 803.759 293.74 801.533 294.076C801.806 294.37 802.205 294.874 802.373 295.168C804.683 294.79 807.518 293.992 809.24 293.068L808.001 292.249H812.621L811.844 293.152C814.28 293.803 816.737 294.622 818.228 295.189L819.257 294.181C817.661 293.614 815.141 292.858 812.726 292.249H817.22ZM811.004 283.912C811.025 283.576 811.067 283.261 811.109 282.883H815.015L814.931 283.912H811.004ZM805.859 282.883H809.786C809.744 283.24 809.702 283.576 809.66 283.912H805.733L805.859 282.883ZM809.933 280.972L809.87 281.938H805.964L806.09 280.972H809.933ZM815.078 281.938H811.172L811.256 280.972H815.162L815.078 281.938ZM816.569 281.812L816.716 280.048H804.809L804.578 281.812H801.092V283.009H804.431L804.179 284.836H816.296L816.464 283.009H819.971V281.812H816.569ZM824.255 279.418H828.749C828.287 281.266 827.006 282.085 822.974 282.505C823.247 282.778 823.583 283.366 823.709 283.702C828.266 283.135 829.757 281.917 830.282 279.418H832.487V281.203C832.487 282.526 832.823 283.135 834.335 283.135H837.8C838.409 283.135 839.144 283.114 839.459 283.009C839.396 282.631 839.354 282.211 839.312 281.791C838.976 281.875 838.157 281.896 837.716 281.896H834.608C834.104 281.896 834.02 281.728 834.02 281.203V279.418H838.766V281.392H840.341V278.074H832.76C832.571 277.423 832.235 276.52 831.941 275.848L830.366 276.226C830.618 276.772 830.87 277.486 831.017 278.074H822.722V281.413H824.255V279.418ZM834.167 285.319V288.049H826.376C826.628 287.188 826.88 286.201 827.09 285.319H834.167ZM840.425 288.049H835.7V285.319H839.774V284.059H823.814V285.319H825.515C825.221 286.684 824.822 288.322 824.486 289.414H832.025C829.463 291.052 825.578 292.354 822.113 292.984C822.428 293.278 822.848 293.866 823.058 294.265C826.943 293.446 831.416 291.661 834.041 289.414H834.167V293.278C834.167 293.572 834.083 293.635 833.726 293.656C833.411 293.698 832.256 293.698 830.996 293.656C831.227 294.076 831.458 294.664 831.542 295.084C833.159 295.105 834.209 295.084 834.86 294.832C835.49 294.601 835.7 294.202 835.7 293.299V289.414H840.425V288.049ZM858.002 278.998C856.868 282.799 854.978 285.781 852.563 288.091C850.19 285.655 848.468 282.568 847.313 278.998H858.002ZM858.905 277.381L858.653 277.465H844.121V278.998H845.717C847.019 283.03 848.825 286.474 851.366 289.183C848.888 291.178 845.99 292.585 842.861 293.509C843.218 293.824 843.68 294.538 843.848 294.937C846.998 293.908 849.938 292.417 852.479 290.275C854.81 292.396 857.666 293.95 861.215 294.916C861.446 294.496 861.887 293.845 862.244 293.509C858.821 292.669 855.986 291.157 853.676 289.162C856.553 286.39 858.737 282.673 859.955 277.864L858.905 277.381ZM868.355 276.037C867.452 277.528 865.604 279.25 863.966 280.321C864.239 280.615 864.617 281.245 864.806 281.581C866.633 280.363 868.628 278.41 869.846 276.583L868.355 276.037ZM868.733 280.615C867.536 282.778 865.541 284.941 863.672 286.327C863.945 286.684 864.365 287.503 864.512 287.839C865.31 287.209 866.108 286.453 866.864 285.592V295.147H868.376V283.807C869.027 282.946 869.636 282.064 870.119 281.182L868.733 280.615ZM872.933 282.085H879.716V284.689H872.933V282.085ZM879.716 278.263V280.783H872.933V278.263H879.716ZM881.291 286.726C880.43 287.545 878.981 288.595 877.847 289.33C877.238 288.343 876.734 287.251 876.356 286.054H881.228V276.877H871.421V292.396C871.421 293.257 870.959 293.698 870.644 293.866C870.896 294.16 871.232 294.79 871.358 295.147C871.757 294.874 872.387 294.664 876.713 293.488C876.65 293.152 876.629 292.522 876.629 292.06L872.933 292.963V286.054H874.991C876.209 290.317 878.414 293.509 882.11 295C882.341 294.58 882.803 293.971 883.16 293.656C881.27 292.984 879.758 291.871 878.582 290.401C879.758 289.687 881.228 288.721 882.341 287.818L881.291 286.726ZM900.674 280.258C900.506 286.075 900.275 288.196 899.876 288.7C899.687 288.952 899.498 288.994 899.183 288.973C898.826 288.994 897.986 288.973 897.083 288.889C897.293 289.309 897.461 289.939 897.482 290.38C898.469 290.443 899.372 290.443 899.918 290.38C900.485 290.317 900.884 290.149 901.241 289.666C901.829 288.91 902.039 286.474 902.27 279.502V278.767H890.678C891.14 277.99 891.581 277.171 891.959 276.31L890.384 275.848C889.166 278.704 887.108 281.413 884.798 283.114C885.197 283.366 885.806 283.954 886.1 284.248C887.381 283.198 888.62 281.833 889.733 280.258H900.674ZM895.151 283.828V287.209H889.691V283.828H895.151ZM892.316 293.215C890.09 293.215 889.691 292.921 889.691 291.787V288.616H896.684V282.421H888.158V291.787C888.158 294.118 889.124 294.685 892.4 294.685H900.317C903.152 294.685 903.782 293.908 904.097 291.157C903.656 291.073 902.984 290.842 902.606 290.59C902.375 292.753 902.081 293.215 900.296 293.215H892.316ZM922.136 281.245H918.608V279.943H922.136V281.245ZM913.673 281.245V279.943H917.138V281.245H913.673ZM908.906 279.943H912.245V281.245H908.906V279.943ZM913.673 277.885H917.138V278.893H913.673V277.885ZM923.627 278.893H918.608V277.885H924.593V276.751H906.491V277.885H912.245V278.893H907.478V282.274H923.627V278.893ZM915.395 291.325H920.813C920.12 291.871 919.238 292.333 918.23 292.711C917.138 292.333 916.13 291.892 915.269 291.409L915.395 291.325ZM914.849 287.776H921.674V288.637H914.849V287.776ZM914.849 286.096H921.674V286.957H914.849V286.096ZM922.199 290.275L921.947 290.338H916.718C917.033 290.065 917.306 289.792 917.558 289.498H923.039V285.235H914.177C914.345 284.983 914.513 284.752 914.681 284.5H924.215V283.408H915.353C915.479 283.156 915.605 282.883 915.731 282.652L914.387 282.274C913.715 283.765 912.602 285.151 911.363 286.18C911.51 285.97 911.657 285.781 911.783 285.592L910.439 285.13C909.515 286.726 907.625 288.574 905.861 289.708C906.113 289.939 906.533 290.422 906.722 290.716C907.352 290.275 908.024 289.771 908.633 289.204V295.126H910.019V287.86C910.439 287.398 910.796 286.957 911.153 286.495C911.468 286.726 911.972 287.146 912.182 287.377C912.623 286.978 913.085 286.516 913.526 285.991V289.498H915.941C915.458 289.918 914.87 290.338 914.198 290.737C913.82 290.443 913.463 290.128 913.169 289.813L912.119 290.233C912.434 290.611 912.791 290.926 913.169 291.262C912.644 291.535 912.077 291.787 911.468 291.997C911.741 292.186 912.161 292.606 912.329 292.837C912.98 292.606 913.61 292.312 914.198 292.018C914.933 292.459 915.689 292.879 916.529 293.236C914.828 293.677 912.896 293.929 911.006 294.076C911.237 294.37 911.468 294.832 911.594 295.168C913.904 294.937 916.214 294.559 918.209 293.866C919.994 294.475 921.968 294.874 923.963 295.126C924.131 294.769 924.446 294.286 924.698 293.992C923.06 293.845 921.401 293.572 919.91 293.194C921.191 292.564 922.304 291.787 923.06 290.779L922.199 290.275ZM909.914 282.463C909.137 283.702 907.457 285.067 905.987 285.928C906.26 286.159 906.68 286.642 906.932 286.936C908.486 285.949 910.25 284.395 911.3 282.904L909.914 282.463ZM933.728 285.109H929.318V280.72H933.728V285.109ZM929.318 291.535V286.495H933.728V291.535H929.318ZM931.082 275.911C930.935 276.898 930.557 278.305 930.242 279.313H927.89V294.601H929.318V292.942H935.156V279.313H931.67C932.027 278.41 932.405 277.255 932.762 276.226L931.082 275.911ZM945.425 279.25H939.146C939.503 278.263 939.797 277.255 940.049 276.226L938.558 275.869C937.886 278.746 936.752 281.644 935.345 283.492C935.681 283.702 936.353 284.122 936.626 284.374C937.361 283.387 938.012 282.106 938.6 280.699H943.934C943.661 289.057 943.346 292.249 942.653 292.984C942.443 293.257 942.212 293.299 941.792 293.299C941.309 293.299 940.049 293.299 938.684 293.173C938.978 293.614 939.167 294.244 939.209 294.706C940.385 294.769 941.582 294.811 942.317 294.727C943.031 294.664 943.514 294.475 943.976 293.887C944.816 292.858 945.089 289.624 945.425 280.048V279.25ZM942.107 288.7C941.435 287.461 939.986 285.445 938.81 283.954L937.592 284.668C938.747 286.18 940.154 288.259 940.784 289.519L942.107 288.7ZM965.753 280.615H958.487C958.298 279.46 958.172 278.221 958.109 276.898H953.006V278.284H956.786C956.828 279.103 956.912 279.88 957.017 280.615H949.373V295.126H950.927V282.148H956.387C955.673 285.445 953.951 287.713 951.137 289.078C951.473 289.372 951.956 289.96 952.187 290.317C954.98 288.889 956.702 286.558 957.584 283.345C958.487 286.495 960.104 288.847 962.855 290.212C963.107 289.792 963.611 289.183 963.947 288.847C961.196 287.671 959.621 285.361 958.823 282.148H964.178V293.089C964.178 293.425 964.094 293.53 963.716 293.551C963.296 293.572 961.994 293.572 960.629 293.53C960.86 293.95 961.091 294.664 961.154 295.105C962.939 295.105 964.136 295.105 964.85 294.853C965.543 294.58 965.753 294.076 965.753 293.089V280.615ZM985.85 282.652C984.821 283.933 983.183 285.508 981.734 286.726C980.894 285.025 980.348 283.093 979.928 280.867H987.677V279.355H978.626L980.012 278.872C979.781 278.074 979.193 276.814 978.605 275.869L977.051 276.352C977.576 277.276 978.122 278.536 978.353 279.355H969.344V280.867H977.03C975.14 283.387 972.011 285.781 968.798 287.23C969.05 287.545 969.491 288.175 969.659 288.553C970.982 287.923 972.263 287.167 973.481 286.327V292.039C973.481 293.005 972.788 293.614 972.368 293.845C972.641 294.139 973.061 294.748 973.208 295.084C973.754 294.706 974.552 294.412 981.104 292.333C980.978 291.976 980.81 291.346 980.747 290.905L975.056 292.669V285.088C976.4 283.975 977.576 282.757 978.542 281.476C979.655 287.23 981.65 291.178 987.11 294.622C987.299 294.139 987.803 293.572 988.202 293.257C985.556 291.703 983.75 290.023 982.448 287.986C983.981 286.768 985.808 285.088 987.173 283.597L985.85 282.652ZM997.778 289.582C999.983 288.805 1001.41 287.083 1001.41 284.815C1001.41 283.345 1000.78 282.4 999.626 282.4C998.765 282.4 998.03 282.925 998.03 283.912C998.03 284.899 998.744 285.403 999.605 285.403C999.731 285.403 999.836 285.403 999.962 285.382C999.857 286.81 998.933 287.797 997.316 288.469L997.778 289.582ZM798.719 330.555V328.959H790.046C790.34 326.754 790.361 324.675 790.382 322.995H788.702C788.681 324.654 788.702 326.754 788.387 328.959H780.386V330.555H788.135C787.274 334.524 785.174 338.556 779.966 340.824C780.407 341.139 780.911 341.685 781.142 342.105C786.245 339.774 788.513 335.742 789.521 331.71C791.18 336.477 793.847 340.194 797.879 342.105C798.152 341.643 798.677 340.992 799.055 340.635C795.002 338.976 792.272 335.175 790.802 330.555H798.719ZM810.563 336.414H814.091V339.249H810.563V336.414ZM814.091 330.849H810.563V328.14H814.091V330.849ZM814.091 335.007H810.563V332.256H814.091V335.007ZM819.971 339.249H815.561V336.414H819.194V335.007H815.561V332.256H819.215V330.849H815.561V328.14H819.551V326.691H815.099L816.317 326.166C816.065 325.326 815.414 324.087 814.784 323.121L813.44 323.646C814.007 324.57 814.637 325.851 814.889 326.691H810.752C811.214 325.641 811.655 324.549 812.012 323.457L810.542 323.079C809.597 326.166 808.022 329.19 806.195 331.143C806.468 331.353 806.93 331.794 807.203 332.109L805.103 332.76V328.581H807.455V327.132H805.103V322.974H803.591V327.132H800.924V328.581H803.591V333.222C802.52 333.579 801.533 333.852 800.735 334.083L801.134 335.595L803.591 334.776V340.215C803.591 340.53 803.486 340.593 803.213 340.593C802.982 340.614 802.163 340.614 801.26 340.593C801.47 341.034 801.68 341.685 801.722 342.105C803.066 342.126 803.864 342.063 804.368 341.811C804.893 341.538 805.103 341.118 805.103 340.215V334.293L807.497 333.516L807.287 332.172L807.35 332.256C807.938 331.563 808.526 330.765 809.051 329.883V342.147H810.563V340.677H819.971V339.249ZM830.807 335.448H832.193L832.718 327.3L832.76 324.822H830.24L830.303 327.3L830.807 335.448ZM831.5 340.635C832.424 340.635 833.18 340.005 833.18 338.976C833.18 337.989 832.424 337.338 831.5 337.338C830.576 337.338 829.82 337.989 829.82 338.976C829.82 340.005 830.576 340.635 831.5 340.635ZM892.677 429.301H909.519V427.957H892.677V429.301ZM930.712 428.839V433.48H920.569V428.839H930.712ZM918.994 436.126H920.569V434.992H930.712V436.084H932.35V427.348H918.994V436.126ZM927.73 420.145C928.738 421.048 929.809 422.14 930.775 423.232L920.065 423.757C921.913 422.014 923.782 419.851 925.441 417.583L923.908 416.89C922.27 419.494 919.834 422.14 919.078 422.812C918.385 423.505 917.839 423.967 917.377 424.051C917.545 424.471 917.818 425.248 917.881 425.584C918.7 425.29 919.918 425.248 931.909 424.576C932.434 425.227 932.875 425.836 933.19 426.382L934.513 425.437C933.421 423.694 931.006 421.132 928.969 419.347L927.73 420.145ZM947.428 427.789V422.224H953.455V427.789H947.428ZM939.805 427.789V422.224H945.811V427.789H939.805ZM947.428 420.691V416.953H945.811V420.691H938.272V430.624H939.805V429.322H945.811V436.126H947.428V429.322H953.455V430.519H955.051V420.691H947.428ZM962.918 434.53H973.523V432.871H965.312L973.439 420.271V419.137H963.653V420.775H971.045L962.918 433.375V434.53ZM980.372 434.803C983.165 434.803 985.664 432.619 985.664 428.839C985.664 425.038 983.165 422.833 980.372 422.833C977.579 422.833 975.08 425.038 975.08 428.839C975.08 432.619 977.579 434.803 980.372 434.803ZM980.372 433.207C978.398 433.207 977.075 431.464 977.075 428.839C977.075 426.214 978.398 424.429 980.372 424.429C982.346 424.429 983.69 426.214 983.69 428.839C983.69 431.464 982.346 433.207 980.372 433.207ZM988.676 434.53H990.587V426.256C991.742 425.101 992.54 424.513 993.716 424.513C995.228 424.513 995.879 425.416 995.879 427.558V434.53H997.79V427.306C997.79 424.387 996.698 422.833 994.304 422.833C992.75 422.833 991.574 423.694 990.482 424.765H990.419L990.251 423.127H988.676V434.53ZM1004.14 434.803C1005.55 434.803 1006.83 434.068 1007.92 433.165H1007.98L1008.15 434.53H1009.73V427.516C1009.73 424.702 1008.55 422.833 1005.78 422.833C1003.95 422.833 1002.33 423.652 1001.28 424.324L1002.04 425.647C1002.94 425.038 1004.14 424.429 1005.46 424.429C1007.33 424.429 1007.81 425.836 1007.81 427.306C1002.96 427.852 1000.8 429.091 1000.8 431.569C1000.8 433.627 1002.23 434.803 1004.14 434.803ZM1004.69 433.27C1003.55 433.27 1002.67 432.745 1002.67 431.443C1002.67 429.973 1003.97 429.028 1007.81 428.566V431.758C1006.7 432.745 1005.8 433.27 1004.69 433.27Z" fill="#3E3E3E"/>
<path d="M727.907 153.514C725.411 155.871 724.128 159.303 724.059 163.81L728.635 164.434V173.482H719.067V169.218C719.067 165.82 719.205 163.012 719.483 160.794C719.829 158.228 720.835 155.802 722.499 153.514C723.4 152.335 724.44 151.33 725.619 150.498L727.907 153.514ZM742.155 153.514C739.589 155.663 738.272 159.095 738.203 163.81L743.195 164.434V173.482H733.523V169.218C733.523 167.138 733.592 165.474 733.731 164.226C733.731 163.463 733.765 162.735 733.835 162.042C733.904 161.071 734.008 160.308 734.147 159.754C734.147 159.615 734.216 159.338 734.355 158.922C734.493 158.436 734.597 158.02 734.667 157.674C734.736 156.911 734.979 156.218 735.395 155.594C735.811 154.9 736.157 154.311 736.435 153.826C737.059 152.786 738.168 151.676 739.763 150.498L742.155 153.514Z" fill="#3E3E3E"/>
<path d="M1056.78 455.848C1059.28 453.491 1060.56 450.059 1060.63 445.552L1056.06 444.928V435.88H1065.62V440.144C1065.62 443.541 1065.48 446.349 1065.21 448.568C1064.86 451.133 1063.86 453.56 1062.19 455.848C1061.29 457.027 1060.25 458.032 1059.07 458.864L1056.78 455.848ZM1042.54 455.848C1045.1 453.699 1046.42 450.267 1046.49 445.552L1041.5 444.928V435.88H1051.17V440.144C1051.17 442.224 1051.1 443.888 1050.96 445.136C1050.96 445.899 1050.92 446.627 1050.86 447.32C1050.79 448.291 1050.68 449.053 1050.54 449.608C1050.54 449.747 1050.47 450.024 1050.34 450.44C1050.2 450.925 1050.09 451.341 1050.02 451.688C1049.95 452.451 1049.71 453.144 1049.3 453.768C1048.88 454.461 1048.53 455.051 1048.26 455.536C1047.63 456.576 1046.52 457.685 1044.93 458.864L1042.54 455.848Z" fill="#3E3E3E"/>
</svg>
