<svg width="367" height="130" viewBox="0 0 367 130" fill="none" xmlns="http://www.w3.org/2000/svg">
<path d="M57.0174 72.5478H68.4834V73.8708H57.0174V72.5478ZM57.0174 70.1748H68.4834V71.4978H57.0174V70.1748ZM60.9444 62.5938H64.3884V64.5678H60.9444V62.5938ZM59.4954 64.5678H56.1774V62.5938H59.4954V64.5678ZM65.8164 62.5938H69.3444V64.5678H65.8164V62.5938ZM72.0114 76.2438H63.4854V75.0048H70.0374V69.0618H63.2754V67.9488H71.1084V66.8148H63.2754V65.7648H70.8984V61.4178H54.6654V65.7648H61.7214V69.0618H55.5054V75.0048H61.9314V76.2438H53.4684V77.5038H61.9314V79.7508H63.4854V77.5038H72.0114V76.2438ZM81.8814 70.2378C81.4194 69.6498 79.5084 67.3188 78.8574 66.6048V66.1008H81.4194V64.6308H78.8574V60.5988H77.3454V64.6308H74.3004V66.1008H77.1564C76.5264 68.9778 75.2034 72.3378 73.8804 74.2278C74.1534 74.6058 74.5734 75.1938 74.7624 75.6558C75.7284 74.2698 76.6314 72.1488 77.3454 69.9228V79.7718H78.8574V68.4948C79.5924 69.5448 80.4534 70.8258 80.8314 71.5188L81.8814 70.2378ZM92.8014 63.4338V61.9428H81.5244V63.4338H86.9844C85.6194 67.1508 83.4564 70.4688 80.8104 72.5688C81.1674 72.8418 81.7764 73.4718 82.0074 73.7868C83.4774 72.4848 84.8634 70.8048 86.0394 68.8938V79.7088H87.5724V66.0588C87.9714 65.1978 88.3284 64.3368 88.6434 63.4338H92.8014ZM87.5934 67.7808C89.1264 69.5448 91.0164 71.9388 91.8564 73.4298L93.1374 72.4638C92.2344 70.9938 90.3234 68.6628 88.7694 66.9828L87.5934 67.7808ZM99.6894 67.5078V63.1398H110.672V68.2638H99.6894V67.5078ZM112.268 69.7968V61.6068H98.0724V67.4868C98.0724 70.9308 97.7994 75.5088 95.0274 78.7428C95.4054 78.9528 96.0564 79.5408 96.3294 79.8558C98.6814 77.0838 99.4164 73.1358 99.6264 69.7968H105.065C106.367 74.6688 108.866 78.1548 113.192 79.7298C113.423 79.2888 113.885 78.6378 114.284 78.3228C110.252 77.0628 107.816 73.9548 106.64 69.7968H112.268ZM118.799 69.4398C120.353 71.0568 121.97 73.3038 122.642 74.7738L124.028 73.8918C123.356 72.3798 121.676 70.2168 120.122 68.6628L118.799 69.4398ZM135.095 65.0298H130.181V60.5988H128.543V65.0298H116.405V66.5628H128.543V77.4408C128.543 77.9238 128.375 78.0708 127.871 78.0918C127.304 78.1128 125.498 78.1128 123.566 78.0498C123.839 78.5328 124.154 79.3098 124.259 79.7928C126.527 79.7928 128.102 79.7508 128.963 79.4778C129.824 79.2258 130.181 78.7008 130.181 77.4198V66.5628H135.095V65.0298ZM143.306 74.3328H146.729V73.0308H143.306V70.8888H147.17V69.5658H144.818C145.28 68.8098 145.763 67.9068 146.204 67.0668L144.818 66.5628C144.503 67.4448 143.894 68.7048 143.411 69.5658H137.993V70.8888H141.836V73.0308H138.518V74.3328H141.836V76.8108C140.114 77.0418 138.539 77.2308 137.279 77.3778L137.51 78.8688C140.198 78.4908 144.104 77.9448 147.758 77.4198L147.716 76.0338C146.246 76.2438 144.734 76.4328 143.306 76.6428V74.3328ZM139.106 67.0668C139.757 67.8228 140.429 68.8308 140.702 69.5238L141.857 68.8728C141.584 68.1798 140.87 67.1928 140.219 66.4998L139.106 67.0668ZM156.2 66.2058H154.184V60.6618H152.672V66.2058H147.8V65.0928H144.65V64.2318L145.49 64.7358C146.183 64.0218 147.065 62.9508 147.821 61.9848L146.561 61.2918C146.12 62.0688 145.28 63.2448 144.65 64.0008V60.5988H143.369V65.0928H141.752V60.5988H140.492V63.8958C140.135 63.1398 139.316 62.0478 138.56 61.2708L137.573 61.9008C138.329 62.7408 139.148 63.9378 139.505 64.6938L140.492 64.0218V65.0928H137.279V66.4368H147.695V67.6758H152.672V77.8188C152.672 78.1758 152.525 78.2808 152.168 78.3018C151.853 78.3228 150.719 78.3228 149.459 78.2808C149.69 78.7008 149.942 79.3728 150.026 79.7718C151.727 79.7718 152.714 79.7298 153.323 79.4778C153.932 79.2048 154.184 78.7848 154.184 77.8188V67.6758H156.2V66.2058ZM151.517 74.0598C151.286 72.7788 150.467 70.8258 149.585 69.3138L148.283 69.7758C149.144 71.3088 149.921 73.3038 150.131 74.5848L151.517 74.0598ZM174.722 62.1108L174.344 62.2158H159.35V63.7488H172.853C171.278 65.2398 169.031 66.8778 167.015 67.8648V77.7138C167.015 78.0918 166.889 78.1968 166.448 78.2178C165.965 78.2388 164.348 78.2598 162.605 78.1968C162.857 78.6168 163.151 79.3098 163.235 79.7508C165.356 79.7508 166.742 79.7298 167.54 79.4778C168.359 79.2468 168.632 78.7848 168.632 77.7138V68.6418C171.236 67.2348 174.092 65.0508 175.94 63.0138L174.722 62.1108ZM195.554 64.1898H193.37V62.2368H195.554V64.1898ZM192.131 64.1898H189.968V62.2368H192.131V64.1898ZM188.708 64.1898H186.629V62.2368H188.708V64.1898ZM196.961 61.2288H185.285V65.1978H196.961V61.2288ZM198.074 66.1848H184.151V67.3608H198.074V66.1848ZM194.798 71.0778H187.406V69.3138H194.798V71.0778ZM191.249 73.3458C193.076 74.4798 195.491 76.0968 196.709 77.0418L197.486 76.0548C196.835 75.5508 195.785 74.8578 194.714 74.1858C195.554 73.7658 196.478 73.2408 197.213 72.6738L196.247 72.0648H196.331V68.3268H185.936V72.0648H189.674C188.12 73.0098 185.999 73.8078 184.193 74.2278C184.466 74.5008 184.823 74.9628 185.033 75.3198C185.894 75.0678 186.818 74.7108 187.742 74.3118V75.4038C187.742 76.1598 187.301 76.4118 186.986 76.5378C187.196 76.7898 187.406 77.3358 187.469 77.6718C187.826 77.4198 188.414 77.2308 192.425 76.1808C192.383 75.9078 192.32 75.4248 192.32 75.0888L189.086 75.8658V73.6398C189.968 73.1778 190.808 72.6318 191.459 72.0648H196.058C195.47 72.5268 194.546 73.1148 193.748 73.5768C193.139 73.1988 192.53 72.8208 192.005 72.5058L191.249 73.3458ZM182.891 64.0848C182.618 63.1818 182.135 61.7958 181.778 60.7038L180.392 61.1238C180.749 62.2158 181.211 63.6438 181.463 64.5468L182.891 64.0848ZM183.584 70.3218L183.332 70.3848H181.883C182.492 68.9358 183.164 67.1718 183.731 65.6598H179.3V67.0668H181.715C181.127 68.7258 180.434 70.5108 179.825 71.7498H182.597C182.261 73.2198 181.757 74.8578 181.19 76.0338C180.518 76.4328 179.741 77.3568 178.964 78.4488L180.035 79.8558C180.665 78.5328 181.358 77.2098 181.82 77.2098C182.303 77.2098 183.08 77.9238 183.92 78.4278C185.474 79.3518 187.301 79.5828 190.073 79.5828C192.551 79.5828 196.52 79.4568 198.095 79.3518C198.137 78.8898 198.368 78.1548 198.557 77.7348C196.226 77.9658 192.824 78.1758 190.136 78.1758C187.637 78.1758 185.747 78.0288 184.256 77.1258C183.5 76.6848 183.017 76.2858 182.618 76.0548C183.332 74.5008 183.92 72.4428 184.319 70.5948L183.584 70.3218ZM215.126 64.3368H204.269V62.6358H215.126V64.3368ZM215.126 67.1718H204.269V65.4708H215.126V67.1718ZM216.68 61.4388H202.736V68.3688H216.68V61.4388ZM210.695 74.8998H217.625V73.5138H210.695V71.1828H218.99V69.7758H200.552V71.1828H209.162V77.5038C207.356 77.0208 206.012 76.0548 205.193 74.1648C205.403 73.4928 205.592 72.7998 205.739 72.0648L204.164 71.8548C203.597 74.9208 202.274 77.2728 200.09 78.6798C200.426 78.9318 201.035 79.5198 201.245 79.7928C202.61 78.7848 203.702 77.4828 204.521 75.8448C206.222 78.6798 208.889 79.3518 213.11 79.3518H218.822C218.906 78.8898 219.158 78.2178 219.368 77.8608C218.297 77.8818 213.95 77.8818 213.173 77.8818C212.291 77.8818 211.451 77.8398 210.695 77.7558V74.8998ZM235.937 70.7208H227.18V68.5998H235.937V70.7208ZM227.117 74.2698C227.159 73.7238 227.18 73.2198 227.18 72.7158V72.0858H235.937V74.2698H227.117ZM239.927 64.7568V63.2868H229.217C229.532 62.5308 229.805 61.7328 230.036 60.9558L228.482 60.5778C228.23 61.4808 227.915 62.3838 227.558 63.2868H221.657V64.7568H226.886C225.584 67.4658 223.694 69.9438 221.237 71.6028C221.531 71.9178 222.014 72.4848 222.224 72.8208C223.505 71.9178 224.639 70.8048 225.626 69.6078V72.6738C225.626 74.6688 225.437 76.9788 223.694 78.6588C224.03 78.8898 224.597 79.5408 224.786 79.8768C226.025 78.7218 226.655 77.1468 226.928 75.6138H235.937V77.7978C235.937 78.1128 235.811 78.2178 235.454 78.2388C235.076 78.2388 233.816 78.2598 232.409 78.1968C232.64 78.6378 232.871 79.2678 232.934 79.7298C234.719 79.7298 235.895 79.7088 236.588 79.4568C237.26 79.2048 237.47 78.7428 237.47 77.7978V67.1928H227.306C227.768 66.4158 228.188 65.5758 228.587 64.7568H239.927ZM248.516 66.8568C248.873 66.0168 249.272 64.6728 249.65 63.5808L248.726 63.2448C248.537 64.2108 248.138 65.6808 247.823 66.5838L248.516 66.8568ZM244.463 63.5178C244.82 64.5258 245.072 65.8488 245.114 66.7098L245.954 66.4788C245.891 65.6388 245.618 64.3158 245.24 63.3078L244.463 63.5178ZM244.169 62.4888H246.437V67.5288H244.169V62.4888ZM249.923 67.5288H247.508V62.4888H249.923V67.5288ZM242.426 74.5218C244.841 74.3958 248.264 74.1858 251.603 73.9338L251.645 72.6738C250.301 72.7578 248.957 72.8418 247.676 72.9048V71.3508H251.309V70.1118H247.676V68.6628H251.183V61.3548H242.951V68.6628H246.269V70.1118H242.804V71.3508H246.269V72.9888C244.778 73.0518 243.434 73.1358 242.342 73.1778L242.426 74.5218ZM243.056 79.7508C243.98 78.8268 244.295 77.2098 244.505 75.6558L243.392 75.3618C243.224 76.8108 242.825 78.3228 242.006 79.1838L243.056 79.7508ZM245.177 75.4248C245.471 76.6008 245.681 78.0918 245.681 79.0788L246.752 78.9318C246.752 77.9658 246.521 76.4538 246.185 75.3198L245.177 75.4248ZM247.172 75.3198C247.634 76.3908 248.075 77.7768 248.18 78.7008L249.251 78.4698C249.104 77.5458 248.642 76.1598 248.159 75.1098L247.172 75.3198ZM249.167 75.0468C249.86 76.0128 250.595 77.3568 250.889 78.2388L251.939 77.7768C251.624 76.9158 250.868 75.6138 250.133 74.6478L249.167 75.0468ZM259.058 77.3358H253.766V71.9388H259.058V77.3358ZM261.368 66.6048V65.1348H256.895V60.6198H255.362V70.4898H252.338V79.7298H253.766V78.7428H259.058V79.6458H260.528V70.4898H256.895V66.6048H261.368ZM265.442 64.4418H270.02C269.747 67.4448 268.823 68.8098 264.182 69.4818C264.455 69.7968 264.812 70.3638 264.917 70.7418C270.104 69.8808 271.28 68.1378 271.595 64.4418H274.283V67.7808C274.283 69.4188 274.745 69.9858 276.488 69.9858H280.184C280.856 69.9858 281.591 69.9648 281.948 69.8598C281.906 69.5028 281.843 68.8938 281.78 68.4738C281.402 68.5578 280.583 68.5998 280.1 68.5998H276.509C275.921 68.5998 275.816 68.3898 275.816 67.8018V64.4418H279.932V67.1928H281.507V63.0138H273.989C273.674 62.2578 273.149 61.2498 272.666 60.4728L271.07 60.9348C271.448 61.5438 271.805 62.3418 272.099 63.0138H263.909V67.6968H265.442V64.4418ZM273.611 73.3038H279.743V71.8338H265.757V73.3038H272.015V77.8188H263.867V79.3098H281.717V77.8188H273.611V73.3038ZM291.881 70.2378C291.419 69.6498 289.508 67.3188 288.857 66.6048V66.1008H291.419V64.6308H288.857V60.5988H287.345V64.6308H284.3V66.1008H287.156C286.526 68.9778 285.203 72.3378 283.88 74.2278C284.153 74.6058 284.573 75.1938 284.762 75.6558C285.728 74.2698 286.631 72.1488 287.345 69.9228V79.7718H288.857V68.4948C289.592 69.5448 290.453 70.8258 290.831 71.5188L291.881 70.2378ZM302.801 63.4338V61.9428H291.524V63.4338H296.984C295.619 67.1508 293.456 70.4688 290.81 72.5688C291.167 72.8418 291.776 73.4718 292.007 73.7868C293.477 72.4848 294.863 70.8048 296.039 68.8938V79.7088H297.572V66.0588C297.971 65.1978 298.328 64.3368 298.643 63.4338H302.801ZM297.593 67.7808C299.126 69.5448 301.016 71.9388 301.856 73.4298L303.137 72.4638C302.234 70.9938 300.323 68.6628 298.769 66.9828L297.593 67.7808ZM307.988 73.5138H309.689C309.311 70.2168 313.091 68.9778 313.091 65.8908C313.091 63.6018 311.537 62.1528 309.164 62.1528C307.463 62.1528 306.119 62.9718 305.153 64.0848L306.245 65.0928C306.98 64.2528 307.904 63.7488 308.954 63.7488C310.445 63.7488 311.222 64.7568 311.222 66.0168C311.222 68.5158 307.505 69.8598 307.988 73.5138ZM308.891 78.4278C309.668 78.4278 310.298 77.8398 310.298 76.9788C310.298 76.1178 309.668 75.4878 308.891 75.4878C308.135 75.4878 307.505 76.1178 307.505 76.9788C307.505 77.8398 308.135 78.4278 308.891 78.4278Z" fill="#3E3E3E"/>
<rect x="138.997" width="115.53" height="32.4928" fill="#96C6DF"/>
<path d="M192.829 11.752H187.661V8.883H192.829V11.752ZM192.829 15.476H187.661V12.569H192.829V15.476ZM181.524 12.569H186.787V15.476H181.524V12.569ZM181.524 8.883H186.787V11.752H181.524V8.883ZM193.722 8.028H180.631V16.312H193.722V8.028ZM189.713 19.713C188.82 18.858 187.072 17.718 185.59 16.958L184.982 17.528C186.464 18.307 188.212 19.523 189.086 20.359L189.713 19.713ZM179.662 23.494C180.631 22.259 181.315 20.245 181.771 18.744L180.973 18.459C180.555 19.903 179.833 21.86 178.845 23.057L179.662 23.494ZM185.571 23.114C184.412 23.114 184.203 23 184.203 22.487V18.326H183.291V22.487C183.291 23.684 183.785 23.969 185.571 23.969H189.789C191.404 23.969 191.727 23.38 191.879 20.853C191.613 20.796 191.252 20.663 191.005 20.492C190.91 22.772 190.758 23.114 189.751 23.114H185.571ZM191.974 18.535C193.114 19.998 194.273 22.012 194.729 23.304L195.603 22.905C195.128 21.632 193.931 19.656 192.791 18.193L191.974 18.535ZM203.393 19.58C202.614 19.827 201.835 20.093 201.075 20.321V14.944H203.108V14.089H201.075V9.453H203.564V8.579H197.788V9.453H200.22V14.089H197.94V14.944H200.22V20.587C199.232 20.891 198.32 21.157 197.598 21.366L197.826 22.259C199.403 21.765 201.512 21.081 203.526 20.435L203.393 19.58ZM207.174 20.302C206.395 21.48 204.932 22.867 203.488 23.798C203.716 23.95 203.982 24.197 204.115 24.368C205.597 23.399 207.06 22.012 207.991 20.72L207.174 20.302ZM210.689 20.777C212 21.841 213.463 23.323 214.128 24.33L214.888 23.779C214.166 22.791 212.684 21.328 211.373 20.302L210.689 20.777ZM207.003 16.616H211.829V18.782H207.003V16.616ZM211.829 10.821V12.911H207.003V10.821H211.829ZM207.003 13.69H211.829V15.818H207.003V13.69ZM212.722 18.782V10.821H214.546V9.985H212.722V7.173H211.829V9.985H207.003V7.173H206.129V9.985H204.153V10.821H206.129V18.782H203.773V19.618H214.888V18.782H212.722Z" fill="white"/>
<line y1="41.0187" x2="30.6877" y2="41.0187" stroke="#3E3E3E"/>
<line x1="9.42822" y1="62.2778" x2="9.42822" y2="31.5902" stroke="#3E3E3E"/>
<line x1="366.447" y1="100.686" x2="335.759" y2="100.686" stroke="#3E3E3E"/>
<line x1="357.019" y1="79.4269" x2="357.019" y2="110.115" stroke="#3E3E3E"/>
</svg>
