<svg width="214" height="163" viewBox="0 0 214 163" fill="none" xmlns="http://www.w3.org/2000/svg">
<path d="M24.777 66.1917V68.1657H21.627V66.1917H24.777ZM29.334 68.1657H26.205V66.1917H29.334V68.1657ZM26.205 71.4837V69.3837H29.334V71.4837H26.205ZM21.627 71.4837V69.3837H24.777V71.4837H21.627ZM20.199 73.8777H21.627V72.7227H29.334V73.6257H30.825V64.9527H20.199V73.8777ZM28.452 62.1807H22.362V59.8287H28.452V62.1807ZM20.934 58.5687V63.4407H29.943V58.5687H20.934ZM19.632 57.0777H31.14V55.7127H19.632V57.0777ZM33.891 57.2877H32.505V68.8377H33.891V57.2877ZM36.138 55.1667V71.9037C36.138 72.2607 35.991 72.3867 35.613 72.3867C35.277 72.4077 34.08 72.4287 32.736 72.3657C32.967 72.8067 33.198 73.4997 33.261 73.9197C35.046 73.9407 36.117 73.8987 36.768 73.6257C37.398 73.3737 37.65 72.9117 37.65 71.9037V55.1667H36.138ZM51.132 66.6117C49.704 66.7797 48.213 66.9267 46.806 67.0737V66.3597C48.192 65.3517 49.704 63.9867 50.775 62.7057L49.746 61.9077L49.389 62.0127H41.514V63.3567H48.171C47.31 64.2597 46.239 65.2257 45.294 65.8557V67.2207C43.425 67.4097 41.703 67.5567 40.38 67.6827L40.548 69.1737C41.871 69.0267 43.53 68.8587 45.294 68.6487V72.2187C45.294 72.4707 45.21 72.5337 44.916 72.5547C44.643 72.5757 43.635 72.5757 42.606 72.5337C42.774 72.9327 43.005 73.4997 43.089 73.9197C44.538 73.9197 45.441 73.9197 46.05 73.6887C46.638 73.4367 46.806 73.0587 46.806 72.2607V68.5017C48.234 68.3337 49.725 68.1657 51.153 67.9977L51.132 66.6117ZM44.307 61.3197C43.992 60.3957 43.341 58.9047 42.711 57.7917L41.451 58.2957C42.018 59.4087 42.69 60.9207 42.963 61.8867L44.307 61.3197ZM44.601 57.8547C45.021 59.0097 45.525 60.5427 45.735 61.5087L47.079 61.0257C46.848 60.0807 46.323 58.6107 45.882 57.4767L44.601 57.8547ZM48.864 61.7397C49.578 60.6687 50.46 58.9257 51.153 57.4977L49.662 56.9097C49.2 58.2327 48.318 60.1227 47.625 61.2567L48.864 61.7397ZM50.292 54.7257C48.15 55.3767 44.181 55.8177 40.884 56.0277C41.052 56.3847 41.262 56.9517 41.304 57.3087C44.685 57.1197 48.738 56.7207 51.363 55.9647L50.292 54.7257ZM54.849 71.9877C54.156 71.9877 54.009 71.8197 54.009 70.7907V55.3137H52.476V70.7697C52.476 72.8067 52.938 73.3737 54.66 73.3737H57.243C58.923 73.3737 59.301 72.1977 59.448 68.7747C59.028 68.6697 58.44 68.3757 58.062 68.0817C57.978 71.2107 57.852 71.9877 57.138 71.9877H54.849ZM66.504 57.5607V62.2017H63.459V57.5607H66.504ZM63.459 68.4177V63.5877H66.504V68.4177H63.459ZM67.974 56.1327H62.01V71.5257H63.459V69.8457H67.974V56.1327ZM69.696 67.9137C70.704 69.0477 71.838 70.5807 72.342 71.5887L73.707 70.7487C73.161 69.7827 71.985 68.2497 70.998 67.1787L69.696 67.9137ZM80.364 58.6737V57.2667H75.114V54.7467H73.581V57.2667H68.352V58.6737H73.581V61.3827H69.276V62.7687H76.332V65.0577H68.436V66.4437H76.332V72.0507C76.332 72.3657 76.227 72.4497 75.891 72.4707C75.555 72.4917 74.379 72.4917 73.098 72.4497C73.308 72.8697 73.539 73.4787 73.602 73.9197C75.303 73.9197 76.332 73.8987 77.004 73.6467C77.634 73.4157 77.865 72.9747 77.865 72.0717V66.4437H80.301V65.0577H77.865V62.7687H79.692V61.3827H75.114V58.6737H80.364ZM100.818 57.7917V56.2377H82.884V57.7917H92.166C90.087 61.3827 86.496 64.8687 82.359 66.9477C82.674 67.3047 83.178 67.9137 83.409 68.3127C86.328 66.7797 88.89 64.6167 91.011 62.2017V73.8777H92.67V60.1017C93.195 59.3247 93.699 58.5687 94.161 57.7917H100.818ZM93.09 62.3067C95.568 63.9447 98.676 66.4227 100.167 68.0187L101.406 66.8217C99.873 65.2257 96.681 62.8737 94.245 61.2987L93.09 62.3067ZM108.504 57.5607V62.2017H105.459V57.5607H108.504ZM105.459 68.4177V63.5877H108.504V68.4177H105.459ZM109.974 56.1327H104.01V71.5257H105.459V69.8457H109.974V56.1327ZM111.696 67.9137C112.704 69.0477 113.838 70.5807 114.342 71.5887L115.707 70.7487C115.161 69.7827 113.985 68.2497 112.998 67.1787L111.696 67.9137ZM122.364 58.6737V57.2667H117.114V54.7467H115.581V57.2667H110.352V58.6737H115.581V61.3827H111.276V62.7687H118.332V65.0577H110.436V66.4437H118.332V72.0507C118.332 72.3657 118.227 72.4497 117.891 72.4707C117.555 72.4917 116.379 72.4917 115.098 72.4497C115.308 72.8697 115.539 73.4787 115.602 73.9197C117.303 73.9197 118.332 73.8987 119.004 73.6467C119.634 73.4157 119.865 72.9747 119.865 72.0717V66.4437H122.301V65.0577H119.865V62.7687H121.692V61.3827H117.114V58.6737H122.364ZM130.134 60.6687H126.585V57.0147H130.134V60.6687ZM125.22 55.6497V62.0337H127.929V70.5387L126.522 70.8957V64.0077H125.22V71.2107L124.149 71.4837L124.548 72.9537C126.606 72.3657 129.42 71.5887 132.066 70.8117L131.877 69.4887L129.315 70.1607V66.3177H131.583V64.9317H129.315V62.0337H131.562V55.6497H125.22ZM137.526 62.1177V65.8347H134.502V62.1177H137.526ZM136.056 72.3027C134.754 72.3027 134.502 72.1137 134.502 71.2317V67.1577H138.87V60.8157H133.41C133.872 60.1227 134.313 59.3667 134.733 58.5267H140.781C140.76 64.6167 140.697 66.7587 140.403 67.2207C140.256 67.4727 140.088 67.5147 139.794 67.5147C139.437 67.5147 138.639 67.4937 137.778 67.4307C138.009 67.8087 138.177 68.4177 138.198 68.8167C139.08 68.8587 139.92 68.8797 140.445 68.8167C141.012 68.7537 141.411 68.5857 141.726 68.1237C142.188 67.4307 142.209 65.0577 142.251 57.8757V57.1617H135.321C135.594 56.5107 135.804 55.8177 136.014 55.1457L134.628 54.7887C133.998 57.0567 132.906 59.3037 131.562 60.7527C131.877 61.0047 132.423 61.5507 132.612 61.8237C132.78 61.6347 132.927 61.4457 133.095 61.2357V71.2317C133.095 73.1427 133.767 73.6257 135.993 73.6257H140.865C142.839 73.6257 143.301 72.8907 143.511 70.3497C143.091 70.2447 142.524 70.0137 142.188 69.7827C142.062 71.8827 141.873 72.3027 140.802 72.3027H136.056ZM161.403 65.1837V71.1687H155.649V63.8607H162.264V56.6577H160.584V62.3277H155.649V54.7677H153.969V62.3277H149.16V56.6787H147.543V63.8607H153.969V71.1687H148.299V65.1837H146.619V72.7017H161.403V73.8987H163.083V65.1837H161.403ZM180.471 59.6817C180.009 62.0127 179.001 64.0497 177.489 65.3517C177.867 65.5197 178.497 65.9607 178.791 66.1917C179.505 65.5197 180.114 64.6797 180.639 63.7137C181.878 64.7427 183.201 65.9187 183.915 66.7167L185.028 65.6457C184.188 64.7847 182.571 63.4407 181.248 62.4117C181.542 61.6347 181.794 60.8157 181.962 59.9337L180.471 59.6817ZM170.58 59.6817C169.971 62.3907 168.669 64.6377 166.758 66.0657C167.115 66.2967 167.724 66.8007 167.997 67.0737C169.026 66.2127 169.929 65.0997 170.643 63.7767C171.399 64.5117 172.176 65.2887 172.596 65.8137L173.667 64.7427C173.142 64.1337 172.176 63.2097 171.294 62.4327C171.609 61.6557 171.903 60.8367 172.113 59.9547L170.58 59.6817ZM176.586 59.1987H184.923V57.6657H176.586V54.7677H174.99V57.6657H166.947V59.1987H174.99V64.3227C173.058 67.3677 169.593 70.2657 166.212 71.6517C166.569 71.9667 167.073 72.5757 167.304 72.9537C170.097 71.6517 172.911 69.3837 174.99 66.7167V73.9197H176.586V66.6537C178.623 69.3837 181.479 71.7357 184.377 73.0167C184.629 72.5967 185.133 71.9667 185.532 71.6307C181.962 70.2867 178.455 67.3257 176.586 64.1757V59.1987ZM60.4797 87.7627H55.0617C54.9567 87.1747 54.7047 86.2717 54.4527 85.5997L53.0037 85.7887C53.2137 86.3767 53.3817 87.1537 53.5077 87.7627H47.4807V89.0437H60.4797V87.7627ZM55.5657 89.0647C55.0827 89.7787 54.2007 90.8287 53.5077 91.5007V95.9317H54.7047V91.5007C55.3137 90.9337 56.0697 90.1987 56.6787 89.4847L55.5657 89.0647ZM51.8907 89.5057C52.2687 90.0307 52.6677 90.7447 52.8147 91.2487L53.7807 90.7657C53.5917 90.3247 53.1927 89.6317 52.7937 89.1277L51.8907 89.5057ZM51.3027 91.8157C51.2397 93.6637 51.1767 94.3567 51.0297 94.5667C50.9247 94.6927 50.8197 94.7347 50.6517 94.7137C50.4837 94.7137 50.1267 94.7137 49.6857 94.6717C49.8327 94.9657 49.9377 95.3857 49.9797 95.7217C50.3997 95.7427 50.8407 95.7427 51.1137 95.7007C51.5127 95.6797 51.7647 95.5537 51.9537 95.3017C52.2687 94.9447 52.3317 93.9157 52.4157 91.2487C52.4157 91.0597 52.4367 90.7447 52.4367 90.7447H47.8167V91.8157H49.0137C48.8037 93.3487 48.3207 94.5037 47.2497 95.2177C47.5017 95.4277 47.8377 95.8687 47.9427 96.0997C49.2447 95.1757 49.8747 93.7267 50.1267 91.8157H51.3027ZM47.0607 96.3097L46.7877 94.9027L45.2967 95.4487V91.4167H46.7877V89.9677H45.2967V85.7677H43.9317V89.9677H41.6427V91.4167H43.9317V95.9317C42.9867 96.2887 42.1467 96.6037 41.4327 96.8347L41.8737 98.3257C42.5037 98.0737 43.2177 97.8217 43.9317 97.5277V103.03C43.9317 103.303 43.8267 103.366 43.5747 103.366C43.3647 103.387 42.6087 103.387 41.7897 103.366C41.9787 103.786 42.1677 104.374 42.2307 104.752C43.4067 104.752 44.1627 104.71 44.6457 104.479C45.1287 104.227 45.2967 103.828 45.2967 103.03V97.0027L47.0607 96.3097ZM50.6727 100.384C50.7567 99.8587 50.7777 99.3337 50.7777 98.8507V98.6617H57.5397V100.384H50.6727ZM57.5397 97.4017H50.7777V96.0367H49.3077V98.8297C49.3077 100.447 48.9927 102.631 46.8717 104.122C47.2287 104.311 47.7747 104.71 48.0267 104.983C49.3287 104.059 50.0427 102.862 50.3997 101.644H57.5397V104.962H59.0097V96.0157H57.5397V97.4017ZM59.3667 89.9467C58.5687 90.4297 57.1827 90.9127 55.9227 91.2277V93.7687C55.9227 94.5667 55.6707 94.9027 55.4397 95.0287C55.6287 95.2807 55.8807 95.8057 55.9857 96.0577V96.0787C56.2167 95.9107 56.6367 95.7007 58.7367 95.0077C58.6947 94.7977 58.6107 94.3987 58.5687 94.1257L56.9307 94.5877V91.9417C57.3297 91.8577 57.7287 91.7317 58.1277 91.6057C58.4637 93.3067 59.0097 94.9657 59.9757 95.8267C60.1437 95.5537 60.4587 95.1757 60.7107 95.0077C59.8287 94.2937 59.2827 92.8447 58.9677 91.3327C59.4717 91.1437 59.9127 90.9547 60.3327 90.7447L59.3667 89.9467ZM75.6207 86.7967C76.9437 87.5107 78.5397 88.5817 79.3377 89.3167L80.3037 88.2457C79.4847 87.5107 77.8467 86.5027 76.5447 85.8517L75.6207 86.7967ZM78.6027 92.4667C77.9517 94.5877 77.0487 96.4777 75.9147 98.1367C75.3477 96.1417 74.9697 93.6427 74.7597 90.8497H81.4377V89.3167H74.6547C74.5917 88.1827 74.5707 87.0067 74.5707 85.7887H72.9537C72.9747 86.9857 72.9957 88.1617 73.0797 89.3167H64.3227V95.1757C64.3227 97.8847 64.1337 101.476 62.4117 104.038C62.7687 104.227 63.4407 104.773 63.7137 105.088C65.6037 102.358 65.9187 98.1367 65.9187 95.1967V95.0287H69.7407C69.6567 98.6407 69.5517 99.9637 69.2577 100.279C69.1317 100.468 68.9217 100.51 68.6277 100.51C68.2707 100.51 67.3677 100.489 66.4017 100.405C66.6537 100.804 66.8217 101.392 66.8427 101.875C67.8717 101.917 68.8167 101.917 69.3417 101.875C69.9297 101.812 70.2867 101.665 70.6017 101.266C71.0427 100.72 71.1687 98.9557 71.2737 94.2517V93.5797H65.9187V90.8497H73.1637C73.4367 94.2307 73.9407 97.3177 74.6967 99.6907C73.3527 101.266 71.7357 102.568 69.8667 103.576C70.2237 103.87 70.7697 104.5 71.0007 104.815C72.6177 103.87 74.0667 102.694 75.3267 101.329C76.2927 103.492 77.5527 104.773 79.1697 104.773C80.7657 104.773 81.3327 103.744 81.6267 100.174C81.2067 100.048 80.6397 99.6907 80.2827 99.3337C80.1357 102.127 79.8837 103.219 79.2957 103.219C78.2247 103.219 77.2587 102.022 76.4817 99.9637C78.0357 97.9687 79.2747 95.5747 80.1777 92.8657L78.6027 92.4667ZM92.3157 86.0617V102.757C92.3157 103.177 92.1477 103.324 91.7067 103.324C91.3077 103.345 89.7957 103.366 88.2627 103.303C88.5147 103.744 88.8087 104.479 88.9137 104.92C90.8667 104.941 92.1687 104.899 92.9247 104.647C93.6597 104.374 93.9747 103.912 93.9747 102.757V86.0617H92.3157ZM97.3347 91.3537C99.1197 94.3567 100.8 98.2627 101.304 100.741L102.942 100.048C102.417 97.5277 100.653 93.7267 98.8047 90.7867L97.3347 91.3537ZM86.8347 90.9337C86.3307 93.7477 85.1757 97.3597 83.3067 99.5647C83.7267 99.7327 84.3987 100.111 84.7767 100.384C86.6667 98.0527 87.8847 94.2937 88.5567 91.2487L86.8347 90.9337ZM109.116 88.4767H105.672V89.3797H113.946V88.4767H110.586V87.6997H114.387V86.7757H110.586V85.7467H109.116V86.7757H105.315V87.6997H109.116V88.4767ZM112.455 92.7187C112.371 93.2437 112.308 93.4957 112.182 93.6007C112.077 93.7267 111.951 93.7267 111.699 93.7267C111.447 93.7267 110.796 93.7267 110.061 93.6637C110.208 93.8947 110.334 94.2727 110.355 94.5037C111.111 94.5667 111.909 94.5667 112.266 94.5457C112.728 94.5457 113.085 94.4617 113.316 94.2307C113.631 93.9577 113.778 93.4117 113.904 92.2777C113.904 92.1307 113.925 91.8157 113.925 91.8157H109.221C109.284 91.6057 109.347 91.3957 109.41 91.1647H114.429V90.2617H110.859C110.712 89.9677 110.523 89.6527 110.355 89.4007L109.053 89.6947C109.158 89.8417 109.263 90.0517 109.368 90.2617H104.79V91.1647H107.961C107.562 92.5507 106.659 93.5377 104.454 94.1257C104.727 94.3357 105.105 94.8397 105.273 95.1547C107.079 94.6087 108.15 93.8317 108.78 92.7187H112.455ZM111.174 102.295C109.62 102.946 107.037 103.513 104.916 103.849C105.21 104.143 105.63 104.752 105.819 105.046C107.94 104.563 110.649 103.744 112.413 102.925L111.174 102.295ZM109.053 99.9847H119.133V101.161H109.053V99.9847ZM109.053 97.9267H119.133V99.0607H109.053V97.9267ZM109.053 95.8687H119.133V97.0027H109.053V95.8687ZM120.666 102.127V94.9027H107.562V102.127H116.403L115.857 103.072C118.335 103.66 120.834 104.395 122.409 104.983L123.102 103.891C121.506 103.366 119.007 102.652 116.613 102.127H120.666ZM116.928 88.6237H120.498C120.225 89.6317 119.637 90.5137 118.797 91.2277C117.978 90.5137 117.327 89.6947 116.844 88.7497L116.928 88.6237ZM123.417 88.6237V87.4267H117.642C117.894 86.9857 118.104 86.5657 118.272 86.1037L116.907 85.7677C116.34 87.2587 115.332 88.6867 114.156 89.6527C114.471 89.8627 114.996 90.3457 115.206 90.5977C115.5 90.3457 115.752 90.0727 116.025 89.7787C116.508 90.5977 117.096 91.3327 117.768 91.9837C116.739 92.6347 115.437 93.0967 113.925 93.4117C114.177 93.6427 114.534 94.1887 114.639 94.4827C116.277 94.1467 117.663 93.5797 118.818 92.8447C119.994 93.7057 121.359 94.3777 122.913 94.7767C123.102 94.4407 123.459 93.9157 123.753 93.6427C122.304 93.3277 121.002 92.7607 119.889 92.0467C120.918 91.1017 121.653 89.9677 122.052 88.6237H123.417ZM140.721 101.182C139.566 100.069 137.235 98.3677 135.429 97.1497C135.723 96.3937 135.912 95.6377 136.08 94.8397H134.484C133.959 97.3177 132.804 99.8797 128.961 101.161C129.318 101.434 129.738 101.959 129.906 102.337C132.363 101.413 133.854 100.048 134.799 98.4517C136.542 99.7117 138.558 101.308 139.587 102.337L140.721 101.182ZM143.472 88.8337H135.891C136.059 87.8887 136.164 86.9017 136.248 85.8307H134.61C134.547 86.9017 134.442 87.9097 134.274 88.8337H126.63V104.92H128.163V90.3667H133.917C133.224 92.4877 131.859 94.1047 129.045 95.1337C129.381 95.4067 129.822 95.9317 130.011 96.3097C132.363 95.4067 133.812 94.1047 134.715 92.4667C136.584 93.6007 138.705 95.0917 139.839 96.0577L140.889 94.8397C139.629 93.8107 137.214 92.2777 135.303 91.1857C135.387 90.9127 135.471 90.6607 135.555 90.3667H141.939V102.925C141.939 103.282 141.834 103.408 141.456 103.429C141.057 103.429 139.776 103.45 138.411 103.387C138.621 103.807 138.831 104.521 138.894 104.962C140.637 104.962 141.876 104.941 142.59 104.668C143.262 104.416 143.472 103.912 143.472 102.925V88.8337ZM146.349 100.258L156.408 96.3097V94.7767L146.349 90.8287V92.4877L151.305 94.3147L154.455 95.4907V95.5747L151.305 96.7507L146.349 98.5777V100.258ZM168.056 100.258V98.5777L163.1 96.7507L159.95 95.5747V95.4907L163.1 94.3147L168.056 92.4877V90.8287L157.997 94.7767V96.3097L168.056 100.258Z" fill="#3E3E3E"/>
<rect x="47" width="115.53" height="32.4928" fill="#96C6DF"/>
<path d="M103.674 15.742H95.6749V13.405C97.8029 12.341 100.368 10.631 102.021 9.016L101.356 8.522L101.128 8.579H88.6259V9.472H100.159C98.6959 10.726 96.5299 12.094 94.7439 12.911V15.742H86.7069V16.635H94.7439V23C94.7439 23.361 94.6299 23.456 94.2499 23.475C93.8319 23.494 92.4449 23.513 90.7919 23.456C90.9629 23.76 91.1339 24.121 91.2099 24.406C93.0909 24.406 94.2499 24.387 94.8389 24.235C95.4469 24.064 95.6749 23.779 95.6749 23V16.635H103.674V15.742ZM117.658 11.087H118.532V9.434H122.389V8.617H118.532V7.192H117.658V8.617H114.713V9.434H117.658V11.087ZM106.448 11.885V14.925H107.303V12.683H121.002V14.925H121.876V11.885H114.865C114.637 11.372 114.276 10.669 113.934 10.137L113.041 10.384C113.326 10.821 113.649 11.391 113.839 11.885H106.448ZM119.843 13.975H108.538V14.697H119.843V13.975ZM109.849 19.086H118.437V20.815H109.849V19.086ZM109.849 16.749H118.437V18.402H109.849V16.749ZM119.33 21.518V16.046H108.975V21.518H119.33ZM110.02 11.087H110.894V9.453H113.478V8.617H110.894V7.192H110.02V8.617H105.783V9.453H110.02V11.087ZM105.821 22.905V23.722H122.522V22.905H105.821Z" fill="white"/>
<path d="M0 128.166H79.4269L92.063 146.218L104.699 128.166H213.009" stroke="#3E3E3E"/>
</svg>
