<svg width="308" height="133" viewBox="0 0 308 133" fill="none" xmlns="http://www.w3.org/2000/svg">
<path d="M80.5874 66.0871V70.0561H77.1644V66.0871H80.5874ZM77.1644 75.6421V71.4841H80.5874V75.6421H77.1644ZM82.0574 77.0911V64.6591H75.6944V79.0231H77.1644V77.0911H82.0574ZM85.9844 74.4241C86.0894 73.4791 86.1104 72.5551 86.1104 71.6941V70.7491H91.6544V74.4241H85.9844ZM91.6544 65.7301V69.3211H86.1104V65.7301H91.6544ZM93.1874 64.2601H84.5774V71.6941C84.5774 74.9281 84.2204 78.8971 80.8814 81.6271C81.2174 81.8161 81.8264 82.3621 82.0364 82.6561C84.2834 80.8291 85.3334 78.3301 85.7744 75.8521H91.6544V80.4931C91.6544 80.8501 91.5074 80.9761 91.1504 80.9971C90.7724 80.9971 89.4494 81.0181 88.1264 80.9761C88.3574 81.3961 88.6094 82.0681 88.6724 82.5091C90.4574 82.5091 91.6124 82.4671 92.3054 82.2151C92.9564 81.9421 93.1874 81.4801 93.1874 80.4931V64.2601ZM101.587 66.0871V70.0561H98.1644V66.0871H101.587ZM98.1644 75.6421V71.4841H101.587V75.6421H98.1644ZM103.057 77.0911V64.6591H96.6944V79.0231H98.1644V77.0911H103.057ZM106.984 74.4241C107.089 73.4791 107.11 72.5551 107.11 71.6941V70.7491H112.654V74.4241H106.984ZM112.654 65.7301V69.3211H107.11V65.7301H112.654ZM114.187 64.2601H105.577V71.6941C105.577 74.9281 105.22 78.8971 101.881 81.6271C102.217 81.8161 102.826 82.3621 103.036 82.6561C105.283 80.8291 106.333 78.3301 106.774 75.8521H112.654V80.4931C112.654 80.8501 112.507 80.9761 112.15 80.9971C111.772 80.9971 110.449 81.0181 109.126 80.9761C109.357 81.3961 109.609 82.0681 109.672 82.5091C111.457 82.5091 112.612 82.4671 113.305 82.2151C113.956 81.9421 114.187 81.4801 114.187 80.4931V64.2601ZM127.942 66.5071H132.73C132.1 67.5991 131.239 68.5441 130.168 69.3211C129.16 68.4811 128.383 67.5361 127.879 66.5911L127.942 66.5071ZM135.691 66.5071V65.2471H128.761C129.034 64.7431 129.286 64.2601 129.517 63.7351L128.11 63.3781C127.291 65.2891 125.863 67.0741 124.267 68.2291C124.561 68.5021 125.086 69.0901 125.275 69.3631C125.884 68.8801 126.472 68.2921 127.039 67.6411C127.543 68.4811 128.194 69.3001 129.055 70.0771C127.648 70.9591 126.031 71.5891 124.267 72.0511C124.561 72.3451 125.002 72.9961 125.17 73.3111C126.997 72.7441 128.698 71.9881 130.168 71.0221C131.512 71.9881 133.15 72.7861 135.124 73.2691C135.334 72.9121 135.712 72.3241 136.006 72.0301C134.179 71.6311 132.604 70.9801 131.344 70.1611C132.604 69.1531 133.654 67.9561 134.431 66.5071H135.691ZM120.907 63.3991C119.962 66.6331 118.429 69.8251 116.707 71.9251C116.98 72.3031 117.4 73.1221 117.547 73.5001C118.114 72.7861 118.681 71.9671 119.206 71.0641V82.5511H120.718V68.1031C121.327 66.7381 121.894 65.2471 122.335 63.7981L120.907 63.3991ZM122.419 78.9811H123.784V66.1711H122.419V78.9811ZM126.682 76.8811C126.031 78.2881 124.96 79.6951 123.805 80.6611C124.162 80.8291 124.75 81.2281 125.023 81.4381C126.115 80.4091 127.27 78.8131 128.026 77.2591L126.682 76.8811ZM135.502 76.0201V74.6341H130.819V72.4921H129.349V74.6341H124.855V76.0201H129.349V82.5091H130.819V76.0201H135.502ZM132.037 77.4271C133.066 78.5401 134.2 80.1151 134.683 81.1441L135.922 80.4721C135.397 79.4431 134.263 77.9311 133.192 76.8181L132.037 77.4271ZM142.621 63.4411C141.508 66.6121 139.66 69.7411 137.707 71.7781C137.98 72.1351 138.442 72.9331 138.589 73.3111C139.24 72.5761 139.912 71.7571 140.521 70.8541V82.5091H142.012V68.4391C142.81 66.9901 143.503 65.4361 144.091 63.9031L142.621 63.4411ZM156.859 73.7731H151.168V69.1741H155.956V67.6411H151.168V63.6301H149.614V67.6411H146.821C147.094 66.6961 147.325 65.7091 147.514 64.7221L146.044 64.4071C145.561 67.1161 144.7 69.8461 143.461 71.5681C143.86 71.7571 144.511 72.1351 144.805 72.3661C145.372 71.4841 145.876 70.3921 146.317 69.1741H149.614V73.7731H143.629V75.3061H149.614V82.5511H151.168V75.3061H156.859V73.7731ZM175.255 66.9691H173.071V65.0161H175.255V66.9691ZM171.832 66.9691H169.669V65.0161H171.832V66.9691ZM168.409 66.9691H166.33V65.0161H168.409V66.9691ZM176.662 64.0081H164.986V67.9771H176.662V64.0081ZM177.775 68.9641H163.852V70.1401H177.775V68.9641ZM174.499 73.8571H167.107V72.0931H174.499V73.8571ZM170.95 76.1251C172.777 77.2591 175.192 78.8761 176.41 79.8211L177.187 78.8341C176.536 78.3301 175.486 77.6371 174.415 76.9651C175.255 76.5451 176.179 76.0201 176.914 75.4531L175.948 74.8441H176.032V71.1061H165.637V74.8441H169.375C167.821 75.7891 165.7 76.5871 163.894 77.0071C164.167 77.2801 164.524 77.7421 164.734 78.0991C165.595 77.8471 166.519 77.4901 167.443 77.0911V78.1831C167.443 78.9391 167.002 79.1911 166.687 79.3171C166.897 79.5691 167.107 80.1151 167.17 80.4511C167.527 80.1991 168.115 80.0101 172.126 78.9601C172.084 78.6871 172.021 78.2041 172.021 77.8681L168.787 78.6451V76.4191C169.669 75.9571 170.509 75.4111 171.16 74.8441H175.759C175.171 75.3061 174.247 75.8941 173.449 76.3561C172.84 75.9781 172.231 75.6001 171.706 75.2851L170.95 76.1251ZM162.592 66.8641C162.319 65.9611 161.836 64.5751 161.479 63.4831L160.093 63.9031C160.45 64.9951 160.912 66.4231 161.164 67.3261L162.592 66.8641ZM163.285 73.1011L163.033 73.1641H161.584C162.193 71.7151 162.865 69.9511 163.432 68.4391H159.001V69.8461H161.416C160.828 71.5051 160.135 73.2901 159.526 74.5291H162.298C161.962 75.9991 161.458 77.6371 160.891 78.8131C160.219 79.2121 159.442 80.1361 158.665 81.2281L159.736 82.6351C160.366 81.3121 161.059 79.9891 161.521 79.9891C162.004 79.9891 162.781 80.7031 163.621 81.2071C165.175 82.1311 167.002 82.3621 169.774 82.3621C172.252 82.3621 176.221 82.2361 177.796 82.1311C177.838 81.6691 178.069 80.9341 178.258 80.5141C175.927 80.7451 172.525 80.9551 169.837 80.9551C167.338 80.9551 165.448 80.8081 163.957 79.9051C163.201 79.4641 162.718 79.0651 162.319 78.8341C163.033 77.2801 163.621 75.2221 164.02 73.3741L163.285 73.1011ZM198.418 66.4021V64.8481H180.484V66.4021H189.766C187.687 69.9931 184.096 73.4791 179.959 75.5581C180.274 75.9151 180.778 76.5241 181.009 76.9231C183.928 75.3901 186.49 73.2271 188.611 70.8121V82.4881H190.27V68.7121C190.795 67.9351 191.299 67.1791 191.761 66.4021H198.418ZM190.69 70.9171C193.168 72.5551 196.276 75.0331 197.767 76.6291L199.006 75.4321C197.473 73.8361 194.281 71.4841 191.845 69.9091L190.69 70.9171ZM205.684 79.4851V73.6681H208.54V72.3031H205.684V70.0351H207.91V68.6701H202.786C203.584 67.8301 204.361 66.8431 205.033 65.8141C206.272 66.7171 207.595 67.8091 208.414 68.6701L209.149 67.3891C208.309 66.5701 207.028 65.5201 205.705 64.6591C205.873 64.3651 206.02 64.0711 206.167 63.7981L204.97 63.2521C203.983 65.3101 202.324 67.2211 200.707 68.4601C200.896 68.8381 201.253 69.6781 201.358 70.0351C201.715 69.7411 202.03 69.4261 202.387 69.0901V70.0351H204.403V72.3031H201.232V73.6681H204.403V79.7371C203.101 80.0101 201.925 80.2411 201.001 80.4091L201.337 81.8161C203.311 81.3751 206.062 80.7451 208.624 80.1361L208.519 78.8761L205.684 79.4851ZM201.631 75.0541C201.988 76.2721 202.324 77.8891 202.387 78.9391L203.479 78.6241C203.374 77.5951 203.017 75.9991 202.66 74.7811L201.631 75.0541ZM207.196 78.6871C207.553 77.7211 207.994 76.1881 208.351 74.9071L207.217 74.5291C207.007 75.6631 206.587 77.3221 206.23 78.3511L207.196 78.6871ZM217.276 74.6761V76.8181H211.795V74.6761H217.276ZM211.795 80.3041V78.0991H217.276V80.3041H211.795ZM210.409 82.5301H211.795V81.6061H217.276V82.4881H218.746V73.3321H210.409V82.5301ZM212.908 67.4941H216.142V70.2451H212.908V67.4941ZM217.549 70.2451V67.4941H219.376V66.1081H217.549V63.3781H216.142V66.1081H212.908V63.3781H211.501V66.1081H209.506V67.4941H211.501V70.2451H209.086V71.6731H219.964V70.2451H217.549ZM229.729 76.9861C231.934 76.2091 233.362 74.4871 233.362 72.2191C233.362 70.7491 232.732 69.8041 231.577 69.8041C230.716 69.8041 229.981 70.3291 229.981 71.3161C229.981 72.3031 230.695 72.8071 231.556 72.8071C231.682 72.8071 231.787 72.8071 231.913 72.7861C231.808 74.2141 230.884 75.2011 229.267 75.8731L229.729 76.9861ZM75.2783 101.434H68.3273V97.3391H75.2783V101.434ZM75.2783 107.083H68.3273V102.883H75.2783V107.083ZM76.9163 95.8691H66.7313V108.553H76.9163V95.8691ZM64.3583 94.4411C63.1823 97.6541 61.2083 100.762 59.1293 102.757C59.4233 103.135 59.8643 103.975 60.0323 104.353C60.7463 103.597 61.4813 102.736 62.1533 101.791V113.509H63.6863V99.4181C64.5263 97.9901 65.2613 96.4571 65.8703 94.9241L64.3583 94.4411ZM64.9673 111.241V112.711H78.6803V111.241H64.9673ZM96.6773 103.408C96.3413 102.883 95.8163 102.232 95.2073 101.581C95.8583 100.804 96.3833 100.027 96.8033 99.2501L95.7113 99.0821C95.4383 99.6281 95.0183 100.237 94.5563 100.846C94.2413 100.531 93.9263 100.216 93.6113 99.9221C94.0943 99.3131 94.4933 98.7041 94.8083 98.1161L93.7373 97.9271C93.5273 98.3261 93.2333 98.7881 92.8763 99.2291C92.5193 98.9141 92.1413 98.5781 91.7633 98.2841L90.9023 98.8511C91.3433 99.1871 91.7633 99.5861 92.2043 100.027C91.6793 100.552 91.0703 101.098 90.3773 101.539C90.6083 101.686 90.9443 102.022 91.0913 102.232C91.7843 101.77 92.3933 101.245 92.9183 100.72C93.2333 101.035 93.5483 101.329 93.8213 101.665C93.0863 102.421 92.2043 103.177 91.1753 103.807C91.4273 103.975 91.7213 104.29 91.8683 104.542C92.8763 103.891 93.7373 103.177 94.4933 102.379C94.9973 103.009 95.4593 103.576 95.7743 104.08L96.6773 103.408ZM97.0973 104.773H90.0833V97.6541H97.0973V104.773ZM98.5253 96.3521H92.9813C93.2753 95.8271 93.5903 95.1761 93.8843 94.5461L92.3303 94.2311C92.1623 94.8401 91.8473 95.7011 91.5743 96.3521H88.6973V106.075H98.5253V96.3521ZM95.6693 109.624C95.2703 108.826 94.3673 107.419 93.6533 106.411L92.6243 106.894C93.3383 107.965 94.1783 109.414 94.5983 110.254L95.6693 109.624ZM87.7943 106.474C87.5843 105.445 87.0173 103.744 86.4713 102.442L85.3583 102.757C85.5893 103.303 85.7993 103.933 85.9883 104.542L82.7543 105.088C84.3923 103.114 86.0093 100.636 87.3113 98.1581L86.0093 97.5071C85.5893 98.4731 85.0433 99.4391 84.5183 100.342L82.3343 100.552C83.4053 98.9561 84.4763 96.8981 85.2743 94.9031L83.8673 94.3361C83.1323 96.5831 81.8093 99.0191 81.3893 99.6281C81.0113 100.258 80.6543 100.699 80.3183 100.783C80.4863 101.182 80.7173 101.854 80.8013 102.169C81.0743 102.022 81.5153 101.917 83.7203 101.644C82.9643 102.841 82.2923 103.765 81.9563 104.143C81.3683 104.899 80.8853 105.445 80.4653 105.55C80.6333 105.928 80.8643 106.6 80.9273 106.915C81.3263 106.663 81.9353 106.516 86.3453 105.676C86.4713 106.117 86.5553 106.516 86.6183 106.873L87.7943 106.474ZM81.5783 107.776C81.3473 109.456 80.9693 111.325 80.4023 112.606C80.7173 112.69 81.3053 112.879 81.5363 113.026C82.0403 111.745 82.4813 109.771 82.7543 107.986L81.5783 107.776ZM83.4893 107.986C83.7413 109.393 83.9723 111.241 84.0143 112.438L85.1903 112.186C85.1063 110.968 84.8543 109.162 84.6023 107.734L83.4893 107.986ZM85.4213 107.587C85.7573 108.742 86.1563 110.233 86.3243 111.22L87.3953 110.884C87.2693 109.918 86.8493 108.448 86.4713 107.293L85.4213 107.587ZM88.3823 112.459C89.0123 111.283 89.4743 109.372 89.7893 107.986L88.6763 107.587C88.4033 108.931 87.8573 110.779 87.2483 111.913L88.3823 112.459ZM92.4563 111.85C91.6583 111.85 91.5323 111.766 91.5323 111.283V107.587H90.1883V111.304C90.1883 112.669 90.6293 113.026 92.3303 113.026H95.3543C96.7403 113.026 97.1183 112.459 97.2653 110.17C96.8873 110.065 96.3833 109.897 96.0893 109.666C96.0053 111.598 95.8793 111.85 95.2283 111.85H92.4563ZM96.6773 107.944C97.3073 109.246 98.1053 110.989 98.4623 112.102L99.6383 111.556C99.2393 110.485 98.4623 108.805 97.7903 107.482L96.6773 107.944ZM103.733 97.8221H108.227C107.765 99.6701 106.484 100.489 102.452 100.909C102.725 101.182 103.061 101.77 103.187 102.106C107.744 101.539 109.235 100.321 109.76 97.8221H111.965V99.6071C111.965 100.93 112.301 101.539 113.813 101.539H117.278C117.887 101.539 118.622 101.518 118.937 101.413C118.874 101.035 118.832 100.615 118.79 100.195C118.454 100.279 117.635 100.3 117.194 100.3H114.086C113.582 100.3 113.498 100.132 113.498 99.6071V97.8221H118.244V99.7961H119.819V96.4781H112.238C112.049 95.8271 111.713 94.9241 111.419 94.2521L109.844 94.6301C110.096 95.1761 110.348 95.8901 110.495 96.4781H102.2V99.8171H103.733V97.8221ZM113.645 103.723V106.453H105.854C106.106 105.592 106.358 104.605 106.568 103.723H113.645ZM119.903 106.453H115.178V103.723H119.252V102.463H103.292V103.723H104.993C104.699 105.088 104.3 106.726 103.964 107.818H111.503C108.941 109.456 105.056 110.758 101.591 111.388C101.906 111.682 102.326 112.27 102.536 112.669C106.421 111.85 110.894 110.065 113.519 107.818H113.645V111.682C113.645 111.976 113.561 112.039 113.204 112.06C112.889 112.102 111.734 112.102 110.474 112.06C110.705 112.48 110.936 113.068 111.02 113.488C112.637 113.509 113.687 113.488 114.338 113.236C114.968 113.005 115.178 112.606 115.178 111.703V107.818H119.903V106.453ZM140.945 97.4021V95.8481H123.011V97.4021H132.293C130.214 100.993 126.623 104.479 122.486 106.558C122.801 106.915 123.305 107.524 123.536 107.923C126.455 106.39 129.017 104.227 131.138 101.812V113.488H132.797V99.7121C133.322 98.9351 133.826 98.1791 134.288 97.4021H140.945ZM133.217 101.917C135.695 103.555 138.803 106.033 140.294 107.629L141.533 106.432C140 104.836 136.808 102.484 134.372 100.909L133.217 101.917ZM159.53 104.794V110.779H153.776V103.471H160.391V96.2681H158.711V101.938H153.776V94.3781H152.096V101.938H147.287V96.2891H145.67V103.471H152.096V110.779H146.426V104.794H144.746V112.312H159.53V113.509H161.21V104.794H159.53ZM174.083 109.267C176.981 110.422 180.74 112.312 182.588 113.614L183.323 112.27C181.412 111.01 177.632 109.204 174.755 108.112L174.083 109.267ZM174.713 103.513V101.749H181.433V100.384H174.713V98.6831H182.441V97.2761H177.968C178.514 96.5411 179.144 95.6381 179.648 94.7771L178.052 94.2941C177.611 95.1761 176.876 96.4151 176.246 97.2761H170.723L171.479 96.9401C171.143 96.1841 170.408 95.0921 169.631 94.2941L168.287 94.8401C168.917 95.5751 169.568 96.5411 169.904 97.2761H165.473V98.6831H173.159V100.384H166.628V101.749H173.159V103.513H164.738V104.899H172.97C172.907 105.466 172.823 106.012 172.697 106.516H165.2V107.881H172.256C171.311 110.044 169.253 111.388 164.402 112.081C164.696 112.438 165.095 113.089 165.221 113.488C170.723 112.543 172.97 110.758 173.957 107.881H183.008V106.516H174.335C174.44 106.012 174.524 105.466 174.587 104.899H183.344V103.513H174.713ZM187.964 99.9641C188.657 100.72 189.497 101.77 189.896 102.421L190.673 101.854V104.248C189.623 104.92 188.615 105.529 187.859 105.949C187.943 104.731 187.964 103.555 187.964 102.547V99.9641ZM190.673 96.5621V101.476C190.211 100.846 189.476 99.9641 188.804 99.3131L187.964 99.8591V96.5621H190.673ZM203.903 97.0871H195.671C195.965 96.3101 196.259 95.5121 196.49 94.6721L194.957 94.3571C194.348 96.6041 193.34 98.7881 191.975 100.3V95.1341H186.641V102.547C186.641 105.571 186.536 109.708 185.213 112.669C185.507 112.795 186.074 113.299 186.284 113.593C187.292 111.451 187.691 108.616 187.859 106.054L188.447 107.251C189.161 106.705 189.917 106.138 190.673 105.55V111.661C190.673 111.955 190.568 112.06 190.295 112.06C190.064 112.06 189.224 112.081 188.3 112.039C188.468 112.417 188.657 113.026 188.699 113.404C190.043 113.404 190.82 113.383 191.324 113.131C191.807 112.9 191.975 112.48 191.975 111.682V101.056C192.311 101.287 192.626 101.581 192.815 101.77C192.92 101.665 193.004 101.56 193.109 101.434V110.401H201.026V101.308H199.808V109.141H194.327V101.434H193.109C193.781 100.615 194.453 99.6281 194.999 98.5151H202.475C202.475 107.881 202.391 111.199 201.95 111.808C201.761 112.081 201.593 112.165 201.215 112.144C200.795 112.144 199.661 112.144 198.443 112.06C198.716 112.459 198.884 113.068 198.905 113.488C199.955 113.53 201.11 113.572 201.803 113.488C202.475 113.425 202.895 113.236 203.273 112.648C203.903 111.703 203.903 108.448 203.903 97.8851V97.0871ZM199.493 107.755C199.094 106.747 198.443 105.466 197.687 104.101C198.254 102.904 198.737 101.644 199.157 100.426L198.044 100.111C197.75 101.035 197.414 101.98 197.015 102.904C196.49 102.001 195.923 101.077 195.419 100.258L194.474 100.72C195.125 101.77 195.818 102.967 196.469 104.143C195.818 105.487 195.125 106.747 194.39 107.734C194.684 107.881 195.167 108.217 195.377 108.406C195.944 107.545 196.553 106.495 197.12 105.361C197.666 106.453 198.17 107.461 198.485 108.28L199.493 107.755ZM219.191 110.695V106.075H222.908V110.695H219.191ZM209.09 106.075H212.597V110.695H209.09V106.075ZM212.597 100.069V104.584H209.09V100.069H212.597ZM217.658 106.075V110.695H214.13V106.075H217.658ZM217.658 100.069V104.584H214.13V100.069H217.658ZM222.908 100.069V104.584H219.191V100.069H222.908ZM219.191 98.5361V94.5881H217.658V98.5361H214.13V94.5881H212.597V98.5361H207.599V113.551H209.09V112.207H222.908V113.467H224.441V98.5361H219.191ZM234.626 106.726C234.458 105.613 233.912 103.723 233.408 102.274L232.211 102.589C232.442 103.24 232.652 103.954 232.841 104.668L229.817 105.067C231.497 103.135 233.156 100.699 234.5 98.2841L233.114 97.4861C232.652 98.4311 232.127 99.3971 231.56 100.279L229.376 100.489C230.51 98.9351 231.644 96.8981 232.547 94.9451L231.098 94.3361C230.279 96.5831 228.872 98.9771 228.41 99.5861C228.011 100.237 227.654 100.657 227.297 100.741C227.465 101.14 227.717 101.854 227.801 102.169C228.095 102.022 228.536 101.938 230.678 101.665C229.943 102.778 229.271 103.639 228.956 103.996C228.326 104.773 227.864 105.277 227.423 105.382C227.591 105.802 227.843 106.537 227.927 106.873C228.305 106.663 228.956 106.516 233.135 105.907C233.219 106.327 233.303 106.747 233.345 107.104L234.626 106.726ZM228.305 107.776C228.116 109.519 227.801 111.409 227.297 112.711C227.633 112.816 228.221 113.005 228.494 113.152C228.956 111.829 229.334 109.834 229.565 107.986L228.305 107.776ZM230.342 107.944C230.573 109.372 230.783 111.22 230.804 112.438L232.043 112.207C231.98 110.989 231.749 109.162 231.518 107.734L230.342 107.944ZM232.295 107.545C232.673 108.616 233.114 110.044 233.282 110.968L234.437 110.59C234.248 109.687 233.807 108.301 233.387 107.23L232.295 107.545ZM238.805 105.613L238.553 105.676H235.235V106.978H237.944C237.188 109.015 235.697 110.653 234.101 111.451C234.395 111.703 234.815 112.228 235.004 112.564C237.125 111.367 238.952 109.12 239.708 105.949L238.805 105.613ZM237.461 100.825H243.992V102.694H237.461V100.825ZM237.461 97.8221H243.992V99.6491H237.461V97.8221ZM245 104.668C244.433 105.382 243.467 106.348 242.648 107.104C242.228 106.327 241.913 105.529 241.661 104.689V103.933H245.504V96.5831H240.779C241.052 96.0161 241.367 95.3441 241.661 94.7141L239.918 94.3571C239.771 95.0081 239.498 95.8691 239.204 96.5831H235.991V103.933H240.17V111.808C240.17 112.06 240.086 112.123 239.813 112.144C239.561 112.165 238.679 112.165 237.692 112.123C237.902 112.543 238.07 113.131 238.154 113.572C239.498 113.572 240.38 113.551 240.926 113.299C241.493 113.047 241.661 112.627 241.661 111.829V107.881C242.648 109.918 243.971 111.619 245.63 112.648C245.882 112.249 246.323 111.682 246.659 111.409C245.315 110.716 244.139 109.561 243.236 108.133C244.16 107.44 245.231 106.474 246.176 105.613L245 104.668ZM251.216 107.293H252.917C252.539 103.996 256.319 102.757 256.319 99.6701C256.319 97.3811 254.765 95.9321 252.392 95.9321C250.691 95.9321 249.347 96.7511 248.381 97.8641L249.473 98.8721C250.208 98.0321 251.132 97.5281 252.182 97.5281C253.673 97.5281 254.45 98.5361 254.45 99.7961C254.45 102.295 250.733 103.639 251.216 107.293ZM252.119 112.207C252.896 112.207 253.526 111.619 253.526 110.758C253.526 109.897 252.896 109.267 252.119 109.267C251.363 109.267 250.733 109.897 250.733 110.758C250.733 111.619 251.363 112.207 252.119 112.207Z" fill="#3E3E3E"/>
<rect x="92.063" width="115.53" height="32.4928" fill="#96C6DF"/>
<path d="M131.896 23.1948H139.344V22.2068H133.036V9.34382H131.896V23.1948ZM144.412 23.4418C145.818 23.4418 146.844 22.6628 147.832 21.5228H147.889L147.984 23.1948H148.914V13.0678H147.813V20.4778C146.672 21.8458 145.836 22.4538 144.658 22.4538C143.101 22.4538 142.454 21.4848 142.454 19.4138V13.0678H141.352V19.5468C141.352 22.1498 142.302 23.4418 144.412 23.4418ZM156.512 23.4418C157.785 23.4418 158.868 22.8908 159.742 22.1308L159.21 21.3708C158.526 21.9788 157.614 22.4918 156.569 22.4918C154.441 22.4918 153.035 20.7248 153.035 18.1408C153.035 15.5568 154.574 13.7708 156.588 13.7708C157.538 13.7708 158.279 14.2078 158.906 14.7968L159.533 14.0368C158.83 13.4098 157.918 12.8018 156.569 12.8018C154.061 12.8018 151.876 14.7588 151.876 18.1408C151.876 21.5038 153.871 23.4418 156.512 23.4418ZM162.075 27.7548C163.937 27.7548 164.963 26.1208 165.571 24.3728L169.523 13.0678H168.402L166.331 19.2618C166.046 20.1358 165.723 21.1998 165.419 22.1118H165.324C164.963 21.1998 164.583 20.1358 164.26 19.2618L161.904 13.0678H160.707L164.849 23.3468L164.583 24.2018C164.089 25.6648 163.272 26.7668 162.056 26.7668C161.771 26.7668 161.448 26.6908 161.239 26.6148L160.992 27.5458C161.277 27.6788 161.676 27.7548 162.075 27.7548Z" fill="white"/>
<line y1="-0.5" x2="55.2272" y2="-0.5" transform="matrix(-0.196116 0.980581 -0.848822 -0.528678 306.877 59.5702)" stroke="#3E3E3E"/>
<line x1="0.469438" y1="68.4238" x2="20.3262" y2="122.579" stroke="#3E3E3E"/>
</svg>
