<svg width="528" height="112" viewBox="0 0 528 112" fill="none" xmlns="http://www.w3.org/2000/svg">
<path d="M99.602 61.665H97.901V60.174H99.602V61.665ZM99.602 64.269H97.901V62.715H99.602V64.269ZM92.609 62.715H94.226V64.269H92.609V62.715ZM92.609 60.174H94.226V61.665H92.609V60.174ZM96.851 62.715V64.269H95.276V62.715H96.851ZM95.276 61.665V60.174H96.851V61.665H95.276ZM100.862 59.061H98.069V57.465H96.788V59.061H95.276V57.465H93.995V59.061H91.391V65.382H100.862V59.061ZM101.387 66.474H90.929V67.65H101.387V66.474ZM93.344 69.729H98.909V71.493H93.344V69.729ZM100.358 72.543V68.658H91.958V72.543H100.358ZM89.375 66.495H83.873V65.109H89.375V66.495ZM84.818 59.376H88.409V60.72H86.12V63.975H84.818V59.376ZM87.044 63.975V61.707H88.409V63.975H87.044ZM89.711 58.179H83.537V63.975H82.676V66.978H83.705V70.422C83.705 72.081 83.579 74.244 82.487 75.84C82.802 75.987 83.348 76.428 83.579 76.68C84.818 74.895 85.028 72.333 85.028 70.422V67.608H88.325V71.157C87.044 71.829 85.826 72.459 84.923 72.837L85.511 73.95C86.393 73.446 87.338 72.858 88.325 72.249V75C88.325 75.21 88.262 75.294 88.031 75.294C87.821 75.294 87.086 75.294 86.267 75.273C86.435 75.63 86.645 76.134 86.708 76.47C87.884 76.47 88.598 76.449 89.06 76.26C89.522 76.029 89.648 75.693 89.648 75.021V66.978H90.614V63.975H89.711V58.179ZM88.157 70.107C87.674 69.624 86.708 68.931 85.868 68.406L85.154 69.12C85.931 69.645 86.876 70.464 87.38 70.968L88.157 70.107ZM98.405 74.979C98.72 74.391 99.098 73.656 99.455 73.005L98.027 72.585C97.817 73.257 97.439 74.244 97.124 74.979H95.108C94.898 74.307 94.52 73.362 94.205 72.648L92.987 73.005C93.26 73.593 93.533 74.349 93.722 74.979H90.719V76.197H101.576V74.979H98.405ZM121.19 57.57H119.699V66.873C119.699 67.167 119.615 67.251 119.3 67.251C118.985 67.293 117.935 67.293 116.738 67.251C116.969 67.671 117.2 68.259 117.263 68.679C118.754 68.679 119.762 68.658 120.392 68.427C121.022 68.175 121.19 67.776 121.19 66.915V57.57ZM117.263 58.62H115.814V65.613H117.263V58.62ZM108.086 62.421V59.67H110.669V62.547H108.086V62.421ZM110.669 63.933V68.427H112.139V63.933H114.512V62.547H112.139V59.67H114.092V58.284H104.684V59.67H106.637V62.379V62.547H103.991V63.933H106.532C106.28 65.34 105.629 66.747 103.802 67.86C104.096 68.091 104.621 68.658 104.831 68.952C106.952 67.608 107.729 65.739 107.981 63.933H110.669ZM113.903 74.433V71.787H120.245V70.359H113.903V68.007H112.328V70.359H105.734V71.787H112.328V74.433H103.571V75.903H122.429V74.433H113.903ZM134.252 62.61L134.945 62.4C134.84 61.875 134.483 61.056 134.105 60.447H138.998C138.746 61.098 138.326 62.001 137.969 62.61H134.252ZM138.263 70.422H134.945V68.826H138.263V70.422ZM132.719 60.636C133.097 61.245 133.412 62.043 133.559 62.61H130.682V73.173H132.11V63.849H135.974V65.277H132.845V66.348H135.974V67.839H133.79V72.207H134.945V71.409H139.418V67.839H137.171V66.348H140.3V65.277H137.171V63.849H141.161V71.64C141.161 71.85 141.098 71.934 140.846 71.955C140.573 71.976 139.775 71.976 138.83 71.934C138.998 72.312 139.229 72.879 139.292 73.278C140.531 73.278 141.392 73.257 141.938 73.026C142.484 72.774 142.61 72.396 142.61 71.64V62.61H139.439C139.817 62.022 140.195 61.308 140.552 60.594L140.006 60.447H143.366V59.187H137.507C137.192 58.578 136.709 57.843 136.247 57.297L135.008 57.78C135.323 58.2 135.617 58.704 135.89 59.187H129.926V60.447H133.433L132.719 60.636ZM128.435 60.867C128.099 59.964 127.469 58.599 127.007 57.507L125.642 57.948C126.083 59.04 126.755 60.489 127.07 61.413L128.435 60.867ZM128.876 67.167L128.624 67.23H127.196C127.805 65.802 128.498 64.017 129.065 62.505H124.55V63.912H127.049C126.44 65.571 125.726 67.356 125.117 68.595H127.91C127.595 70.044 127.091 71.661 126.524 72.837C125.831 73.215 125.033 74.139 124.214 75.294L125.285 76.701C125.915 75.378 126.608 74.055 127.091 74.055C127.553 74.055 128.33 74.769 129.17 75.273C130.724 76.197 132.551 76.428 135.323 76.428C137.801 76.428 141.791 76.302 143.345 76.197C143.387 75.735 143.618 75 143.828 74.58C141.476 74.811 138.074 75.021 135.386 75.021C132.887 75.021 130.997 74.874 129.506 73.971C128.771 73.53 128.288 73.152 127.889 72.9C128.603 71.367 129.191 69.288 129.59 67.44L128.876 67.167ZM155.756 68.259V62.694H161.783V68.259H155.756ZM148.133 68.259V62.694H154.139V68.259H148.133ZM155.756 61.161V57.423H154.139V61.161H146.6V71.094H148.133V69.792H154.139V76.596H155.756V69.792H161.783V70.989H163.379V61.161H155.756ZM174.278 71.052C176.483 70.275 177.911 68.553 177.911 66.285C177.911 64.815 177.281 63.87 176.126 63.87C175.265 63.87 174.53 64.395 174.53 65.382C174.53 66.369 175.244 66.873 176.105 66.873C176.231 66.873 176.336 66.873 176.462 66.852C176.357 68.28 175.433 69.267 173.816 69.939L174.278 71.052ZM203.3 64.5H196.349V60.405H203.3V64.5ZM203.3 70.149H196.349V65.949H203.3V70.149ZM204.938 58.935H194.753V71.619H204.938V58.935ZM192.38 57.507C191.204 60.72 189.23 63.828 187.151 65.823C187.445 66.201 187.886 67.041 188.054 67.419C188.768 66.663 189.503 65.802 190.175 64.857V76.575H191.708V62.484C192.548 61.056 193.283 59.523 193.892 57.99L192.38 57.507ZM192.989 74.307V75.777H206.702V74.307H192.989ZM226.253 62.085H218.987C218.798 60.93 218.672 59.691 218.609 58.368H213.506V59.754H217.286C217.328 60.573 217.412 61.35 217.517 62.085H209.873V76.596H211.427V63.618H216.887C216.173 66.915 214.451 69.183 211.637 70.548C211.973 70.842 212.456 71.43 212.687 71.787C215.48 70.359 217.202 68.028 218.084 64.815C218.987 67.965 220.604 70.317 223.355 71.682C223.607 71.262 224.111 70.653 224.447 70.317C221.696 69.141 220.121 66.831 219.323 63.618H224.678V74.559C224.678 74.895 224.594 75 224.216 75.021C223.796 75.042 222.494 75.042 221.129 75C221.36 75.42 221.591 76.134 221.654 76.575C223.439 76.575 224.636 76.575 225.35 76.323C226.043 76.05 226.253 75.546 226.253 74.559V62.085ZM246.35 64.122C245.321 65.403 243.683 66.978 242.234 68.196C241.394 66.495 240.848 64.563 240.428 62.337H248.177V60.825H239.126L240.512 60.342C240.281 59.544 239.693 58.284 239.105 57.339L237.551 57.822C238.076 58.746 238.622 60.006 238.853 60.825H229.844V62.337H237.53C235.64 64.857 232.511 67.251 229.298 68.7C229.55 69.015 229.991 69.645 230.159 70.023C231.482 69.393 232.763 68.637 233.981 67.797V73.509C233.981 74.475 233.288 75.084 232.868 75.315C233.141 75.609 233.561 76.218 233.708 76.554C234.254 76.176 235.052 75.882 241.604 73.803C241.478 73.446 241.31 72.816 241.247 72.375L235.556 74.139V66.558C236.9 65.445 238.076 64.227 239.042 62.946C240.155 68.7 242.15 72.648 247.61 76.092C247.799 75.609 248.303 75.042 248.702 74.727C246.056 73.173 244.25 71.493 242.948 69.456C244.481 68.238 246.308 66.558 247.673 65.067L246.35 64.122ZM254.666 57.444C253.805 58.914 252.083 60.699 250.55 61.812C250.781 62.106 251.201 62.631 251.39 62.946C253.07 61.665 254.939 59.733 256.094 57.969L254.666 57.444ZM255.17 61.686C254.015 63.891 252.146 66.075 250.34 67.503C250.634 67.818 251.075 68.574 251.243 68.868C251.894 68.322 252.566 67.671 253.217 66.915V76.68H254.708V65.088C255.401 64.143 256.031 63.156 256.556 62.169L255.17 61.686ZM265.628 69.477C264.851 70.737 263.717 71.808 262.415 72.669C261.365 72.018 260.441 71.241 259.664 70.38C259.937 70.086 260.189 69.792 260.441 69.477H265.628ZM266.783 68.112L266.531 68.175H261.386C261.764 67.65 262.1 67.062 262.394 66.495L267.056 66.201C267.518 66.831 267.875 67.44 268.148 67.923L269.429 67.188C268.715 65.97 267.224 64.038 265.985 62.652L264.767 63.282C265.229 63.807 265.712 64.416 266.195 65.025L259.622 65.382C262.184 64.017 264.767 62.274 267.245 60.237L265.817 59.439C264.956 60.216 263.99 60.993 263.045 61.686L259.307 61.812C260.651 60.867 262.037 59.628 263.297 58.326L261.764 57.654C260.483 59.187 258.635 60.699 258.089 61.098C257.543 61.476 257.102 61.77 256.703 61.833C256.892 62.253 257.144 63.009 257.207 63.345C257.522 63.219 258.089 63.114 261.218 62.967C260.042 63.723 259.076 64.332 258.593 64.584C257.606 65.151 256.871 65.508 256.262 65.592C256.43 65.991 256.682 66.747 256.745 67.041C257.144 66.894 257.69 66.81 260.693 66.621C260.168 67.545 259.475 68.448 258.74 69.246C258.488 68.889 258.278 68.532 258.068 68.154L256.787 68.595C257.102 69.141 257.417 69.687 257.795 70.17C257.228 70.695 256.598 71.157 255.989 71.556C256.304 71.829 256.85 72.417 257.06 72.711C257.606 72.291 258.173 71.85 258.719 71.325C259.391 72.102 260.21 72.837 261.05 73.467C259.349 74.349 257.417 74.979 255.506 75.336C255.8 75.672 256.136 76.281 256.262 76.68C258.404 76.176 260.525 75.441 262.415 74.349C264.158 75.378 266.153 76.155 268.358 76.638C268.568 76.218 268.967 75.63 269.303 75.294C267.287 74.937 265.418 74.286 263.759 73.467C265.502 72.207 266.888 70.611 267.749 68.595L266.783 68.112ZM287.678 74.055H284.528V64.395H287.678V74.055ZM274.259 64.395H277.241V74.055H274.259V64.395ZM283.1 66.705H278.669V64.395H283.1V66.705ZM278.669 71.619H283.1V74.055H278.669V71.619ZM283.1 70.338H278.669V67.986H283.1V70.338ZM290.261 60.321V58.83H271.802V60.321H279.845C279.677 61.182 279.467 62.148 279.236 62.946H272.747V76.617H274.259V75.504H287.678V76.617H289.253V62.946H280.832C281.105 62.148 281.399 61.203 281.651 60.321H290.261ZM294.755 60.888H299.249C298.787 62.736 297.506 63.555 293.474 63.975C293.747 64.248 294.083 64.836 294.209 65.172C298.766 64.605 300.257 63.387 300.782 60.888H302.987V62.673C302.987 63.996 303.323 64.605 304.835 64.605H308.3C308.909 64.605 309.644 64.584 309.959 64.479C309.896 64.101 309.854 63.681 309.812 63.261C309.476 63.345 308.657 63.366 308.216 63.366H305.108C304.604 63.366 304.52 63.198 304.52 62.673V60.888H309.266V62.862H310.841V59.544H303.26C303.071 58.893 302.735 57.99 302.441 57.318L300.866 57.696C301.118 58.242 301.37 58.956 301.517 59.544H293.222V62.883H294.755V60.888ZM304.667 66.789V69.519H296.876C297.128 68.658 297.38 67.671 297.59 66.789H304.667ZM310.925 69.519H306.2V66.789H310.274V65.529H294.314V66.789H296.015C295.721 68.154 295.322 69.792 294.986 70.884H302.525C299.963 72.522 296.078 73.824 292.613 74.454C292.928 74.748 293.348 75.336 293.558 75.735C297.443 74.916 301.916 73.131 304.541 70.884H304.667V74.748C304.667 75.042 304.583 75.105 304.226 75.126C303.911 75.168 302.756 75.168 301.496 75.126C301.727 75.546 301.958 76.134 302.042 76.554C303.659 76.575 304.709 76.554 305.36 76.302C305.99 76.071 306.2 75.672 306.2 74.769V70.884H310.925V69.519ZM329.93 59.817V64.626H325.142V59.817H329.93ZM330.161 73.194C332.009 73.194 332.45 72.312 332.681 69.456C332.24 69.372 331.631 69.12 331.274 68.847C331.148 71.241 331.001 71.766 330.098 71.766H326.381C325.331 71.766 325.142 71.577 325.142 70.674V66.012H331.442V58.431H323.63V70.674C323.63 72.669 324.26 73.194 326.255 73.194H330.161ZM319.346 69.729H322.349V68.343H319.346V65.235H322.538V63.828H319.01V61.182H322.034V59.796H319.01V57.465H317.519V59.796H314.117V61.182H317.519V63.828H313.592V65.235H317.897V73.11C317.057 72.396 316.448 71.367 315.986 69.897C316.049 68.973 316.091 67.986 316.112 66.978L314.642 66.873C314.579 70.611 314.348 73.929 313.13 76.029C313.487 76.197 314.159 76.596 314.432 76.785C315.062 75.609 315.44 74.181 315.692 72.501C317.225 75.357 319.724 76.071 324.155 76.071H332.156C332.261 75.609 332.555 74.895 332.807 74.517C331.526 74.58 325.142 74.58 324.134 74.559C322.139 74.559 320.585 74.412 319.346 73.95V69.729ZM348.62 62.358C348.158 64.689 347.15 66.726 345.638 68.028C346.016 68.196 346.646 68.637 346.94 68.868C347.654 68.196 348.263 67.356 348.788 66.39C350.027 67.419 351.35 68.595 352.064 69.393L353.177 68.322C352.337 67.461 350.72 66.117 349.397 65.088C349.691 64.311 349.943 63.492 350.111 62.61L348.62 62.358ZM338.729 62.358C338.12 65.067 336.818 67.314 334.907 68.742C335.264 68.973 335.873 69.477 336.146 69.75C337.175 68.889 338.078 67.776 338.792 66.453C339.548 67.188 340.325 67.965 340.745 68.49L341.816 67.419C341.291 66.81 340.325 65.886 339.443 65.109C339.758 64.332 340.052 63.513 340.262 62.631L338.729 62.358ZM344.735 61.875H353.072V60.342H344.735V57.444H343.139V60.342H335.096V61.875H343.139V66.999C341.207 70.044 337.742 72.942 334.361 74.328C334.718 74.643 335.222 75.252 335.453 75.63C338.246 74.328 341.06 72.06 343.139 69.393V76.596H344.735V69.33C346.772 72.06 349.628 74.412 352.526 75.693C352.778 75.273 353.282 74.643 353.681 74.307C350.111 72.963 346.604 70.002 344.735 66.852V61.875ZM370.187 67.566H361.43V65.445H370.187V67.566ZM361.367 71.115C361.409 70.569 361.43 70.065 361.43 69.561V68.931H370.187V71.115H361.367ZM374.177 61.602V60.132H363.467C363.782 59.376 364.055 58.578 364.286 57.801L362.732 57.423C362.48 58.326 362.165 59.229 361.808 60.132H355.907V61.602H361.136C359.834 64.311 357.944 66.789 355.487 68.448C355.781 68.763 356.264 69.33 356.474 69.666C357.755 68.763 358.889 67.65 359.876 66.453V69.519C359.876 71.514 359.687 73.824 357.944 75.504C358.28 75.735 358.847 76.386 359.036 76.722C360.275 75.567 360.905 73.992 361.178 72.459H370.187V74.643C370.187 74.958 370.061 75.063 369.704 75.084C369.326 75.084 368.066 75.105 366.659 75.042C366.89 75.483 367.121 76.113 367.184 76.575C368.969 76.575 370.145 76.554 370.838 76.302C371.51 76.05 371.72 75.588 371.72 74.643V64.038H361.556C362.018 63.261 362.438 62.421 362.837 61.602H374.177ZM378.146 59.46V61.014H393.896V59.46H378.146ZM379.49 66.264V67.839H392.258V66.264H379.49ZM376.949 73.509V75.084H395.03V73.509H376.949ZM412.712 71.493V72.69H404.501V71.493H412.712ZM404.501 74.874V73.656H412.712V74.874H404.501ZM402.989 76.596H404.501V75.924H412.712V76.554H414.266V70.443H402.989V76.596ZM404.354 65.865C404.942 66.558 405.551 67.524 405.845 68.133L406.832 67.566C406.559 66.957 405.929 66.033 405.32 65.382L404.354 65.865ZM410.969 68.133C411.452 67.566 412.04 66.726 412.523 65.886L411.515 65.361C411.179 66.012 410.549 67.041 410.087 67.65L410.969 68.133ZM413.51 61.371H400.973V59.649H413.51V61.371ZM406.559 64.038C406.349 63.597 405.95 63.051 405.593 62.631H411.515C411.305 63.051 410.927 63.576 410.57 64.038H406.559ZM413.531 68.511H409.184V65.025H413.531V68.511ZM403.472 65.025H407.714V68.511H403.472V65.025ZM415.085 58.389H399.419V64.479C399.419 67.818 399.251 72.417 397.256 75.693C397.655 75.84 398.327 76.218 398.621 76.491C400.679 73.089 400.973 67.986 400.973 64.479V62.631H405.278L404.312 62.988C404.585 63.303 404.837 63.66 405.068 64.038H402.023V69.498H415.043V64.038H412.103C412.355 63.702 412.628 63.345 412.901 62.988L411.767 62.631H415.085V58.389ZM433.67 72.858C432.515 71.745 430.184 70.044 428.378 68.826C428.672 68.07 428.861 67.314 429.029 66.516H427.433C426.908 68.994 425.753 71.556 421.91 72.837C422.267 73.11 422.687 73.635 422.855 74.013C425.312 73.089 426.803 71.724 427.748 70.128C429.491 71.388 431.507 72.984 432.536 74.013L433.67 72.858ZM436.421 60.51H428.84C429.008 59.565 429.113 58.578 429.197 57.507H427.559C427.496 58.578 427.391 59.586 427.223 60.51H419.579V76.596H421.112V62.043H426.866C426.173 64.164 424.808 65.781 421.994 66.81C422.33 67.083 422.771 67.608 422.96 67.986C425.312 67.083 426.761 65.781 427.664 64.143C429.533 65.277 431.654 66.768 432.788 67.734L433.838 66.516C432.578 65.487 430.163 63.954 428.252 62.862C428.336 62.589 428.42 62.337 428.504 62.043H434.888V74.601C434.888 74.958 434.783 75.084 434.405 75.105C434.006 75.105 432.725 75.126 431.36 75.063C431.57 75.483 431.78 76.197 431.843 76.638C433.586 76.638 434.825 76.617 435.539 76.344C436.211 76.092 436.421 75.588 436.421 74.601V60.51ZM440.621 67.02C440.621 67.797 441.23 68.406 442.007 68.406C442.784 68.406 443.393 67.797 443.393 67.02C443.393 66.243 442.784 65.634 442.007 65.634C441.23 65.634 440.621 66.243 440.621 67.02ZM447.614 67.02C447.614 67.797 448.223 68.406 449 68.406C449.777 68.406 450.386 67.797 450.386 67.02C450.386 66.243 449.777 65.634 449 65.634C448.223 65.634 447.614 66.243 447.614 67.02ZM454.607 67.02C454.607 67.797 455.216 68.406 455.993 68.406C456.77 68.406 457.379 67.797 457.379 67.02C457.379 66.243 456.77 65.634 455.993 65.634C455.216 65.634 454.607 66.243 454.607 67.02Z" fill="#3E3E3E"/>
<path d="M11.8771 31.1247C10.5811 32.3487 9.91511 34.1307 9.87911 36.4707L12.2551 36.7947V41.4927H7.28711V39.2787C7.28711 37.5147 7.35911 36.0567 7.50311 34.9047C7.68311 33.5727 8.20511 32.3127 9.06911 31.1247C9.53711 30.5127 10.0771 29.9907 10.6891 29.5587L11.8771 31.1247ZM19.2751 31.1247C17.9431 32.2407 17.2591 34.0227 17.2231 36.4707L19.8151 36.7947V41.4927H14.7931V39.2787C14.7931 38.1987 14.8291 37.3347 14.9011 36.6867C14.9011 36.2907 14.9191 35.9127 14.9551 35.5527C14.9911 35.0487 15.0451 34.6527 15.1171 34.3647C15.1171 34.2927 15.1531 34.1487 15.2251 33.9327C15.2971 33.6807 15.3511 33.4647 15.3871 33.2847C15.4231 32.8887 15.5491 32.5287 15.7651 32.2047C15.9811 31.8447 16.1611 31.5387 16.3051 31.2867C16.6291 30.7467 17.2051 30.1707 18.0331 29.5587L19.2751 31.1247Z" fill="#3E3E3E"/>
<path d="M515.229 95.2354C516.525 94.0114 517.191 92.2294 517.227 89.8894L514.851 89.5654V84.8674H519.819V87.0814C519.819 88.8454 519.747 90.3034 519.603 91.4554C519.423 92.7874 518.901 94.0474 518.037 95.2354C517.569 95.8474 517.029 96.3694 516.417 96.8014L515.229 95.2354ZM507.831 95.2354C509.163 94.1194 509.847 92.3374 509.883 89.8894L507.291 89.5654V84.8674H512.313V87.0814C512.313 88.1614 512.277 89.0254 512.205 89.6734C512.205 90.0694 512.187 90.4474 512.151 90.8074C512.115 91.3114 512.061 91.7074 511.989 91.9954C511.989 92.0674 511.953 92.2114 511.881 92.4274C511.809 92.6794 511.755 92.8954 511.719 93.0754C511.683 93.4714 511.557 93.8314 511.341 94.1554C511.125 94.5154 510.945 94.8214 510.801 95.0734C510.477 95.6134 509.901 96.1894 509.073 96.8014L507.831 95.2354Z" fill="#3E3E3E"/>
<rect x="202.177" width="115.53" height="32.4928" fill="#96C6DF"/>
<path d="M234.911 23.2465C237.476 23.2465 238.445 21.4415 238.445 19.1615V9.14851H237.305V19.0475C237.305 21.2705 236.507 22.2205 234.873 22.2205C233.733 22.2205 232.935 21.7645 232.251 20.6055L231.396 21.1755C232.137 22.5245 233.315 23.2465 234.911 23.2465ZM246.189 23.2465C247.652 23.2465 248.602 22.7715 249.419 22.2585L249.001 21.4415C248.241 21.9735 247.386 22.3155 246.303 22.3155C244.118 22.3155 242.655 20.5865 242.598 18.1165H249.78C249.818 17.8695 249.837 17.6035 249.837 17.3185C249.837 14.3545 248.374 12.6065 245.923 12.6065C243.624 12.6065 241.477 14.6585 241.477 17.9455C241.477 21.2705 243.586 23.2465 246.189 23.2465ZM242.598 17.2425C242.807 14.9245 244.289 13.5565 245.942 13.5565C247.709 13.5565 248.83 14.7915 248.83 17.2425H242.598ZM252.537 22.9995H253.639V15.4185C254.817 14.2025 255.653 13.5945 256.831 13.5945C258.389 13.5945 259.054 14.5635 259.054 16.6725V22.9995H260.156V16.5205C260.156 13.9175 259.187 12.6065 257.078 12.6065C255.691 12.6065 254.646 13.4045 253.62 14.4115H253.582L253.449 12.8725H252.537V22.9995ZM263.8 22.9995H264.902V12.8725H263.8V22.9995ZM264.37 10.4975C264.864 10.4975 265.301 10.1365 265.301 9.62351C265.301 9.05351 264.864 8.71151 264.37 8.71151C263.857 8.71151 263.439 9.05351 263.439 9.62351C263.439 10.1365 263.857 10.4975 264.37 10.4975ZM272.974 7.98951C272.499 7.78051 271.967 7.64751 271.454 7.64751C269.744 7.64751 268.851 8.73051 268.851 10.7445V12.8725L267.445 12.9675V13.8035H268.851V22.9995H269.953V13.8035H272.252V12.8725H269.953V10.8015C269.953 9.37651 270.428 8.57851 271.511 8.57851C271.891 8.57851 272.29 8.67351 272.708 8.86351L272.974 7.98951ZM278.011 23.2465C279.474 23.2465 280.424 22.7715 281.241 22.2585L280.823 21.4415C280.063 21.9735 279.208 22.3155 278.125 22.3155C275.94 22.3155 274.477 20.5865 274.42 18.1165H281.602C281.64 17.8695 281.659 17.6035 281.659 17.3185C281.659 14.3545 280.196 12.6065 277.745 12.6065C275.446 12.6065 273.299 14.6585 273.299 17.9455C273.299 21.2705 275.408 23.2465 278.011 23.2465ZM274.42 17.2425C274.629 14.9245 276.111 13.5565 277.764 13.5565C279.531 13.5565 280.652 14.7915 280.652 17.2425H274.42ZM284.358 22.9995H285.46V16.1975C286.201 14.3165 287.284 13.6515 288.177 13.6515C288.576 13.6515 288.766 13.6895 289.108 13.8225L289.336 12.8345C289.013 12.6635 288.709 12.6065 288.31 12.6065C287.132 12.6065 286.125 13.4805 285.441 14.7535H285.403L285.27 12.8725H284.358V22.9995Z" fill="white"/>
</svg>
