<svg width="52" height="52" viewBox="0 0 52 52" fill="none" xmlns="http://www.w3.org/2000/svg">
<path d="M26.2667 51C40.0738 51 51.2667 39.8071 51.2667 26C51.2667 12.1929 40.0738 1 26.2667 1C12.4595 1 1.26666 12.1929 1.26666 26C1.26666 39.8071 12.4595 51 26.2667 51Z" stroke="white" stroke-miterlimit="10"/>
<path d="M32.2361 23.1723L22.676 17.0682V29.2764L32.2361 23.1723Z" fill="white"/>
<path d="M15.9704 40.7294V33.5294H18.6004C19.067 33.5294 19.4504 33.5828 19.7504 33.6894C20.057 33.7961 20.297 33.9428 20.4704 34.1294C20.6504 34.3161 20.7737 34.5328 20.8404 34.7794C20.9137 35.0194 20.9504 35.2728 20.9504 35.5394C20.9504 35.9394 20.867 36.2694 20.7004 36.5294C20.5404 36.7894 20.3304 36.9961 20.0704 37.1494C19.8104 37.2961 19.5137 37.3994 19.1804 37.4594C18.8537 37.5194 18.5237 37.5494 18.1904 37.5494H16.6504V40.7294H15.9704ZM18.2104 36.9694C18.5304 36.9694 18.817 36.9494 19.0704 36.9094C19.3237 36.8694 19.537 36.7961 19.7104 36.6894C19.8904 36.5761 20.027 36.4261 20.1204 36.2394C20.2204 36.0461 20.2704 35.7961 20.2704 35.4894C20.2704 35.0361 20.1204 34.6928 19.8204 34.4594C19.527 34.2261 19.057 34.1094 18.4104 34.1094H16.6504V36.9694H18.2104ZM22.1136 40.7294V33.5294H22.7936V40.1494H26.6537V40.7294H22.1136ZM27.0103 40.7294L29.8403 33.5294H30.6103L33.3703 40.7294H32.6703L31.8403 38.4694H28.5603L27.7103 40.7294H27.0103ZM28.7903 37.8894H31.6103L30.2003 34.1094L28.7903 37.8894ZM35.808 36.9994L37.978 33.5294H38.768L36.158 37.5894V40.7294H35.478V37.6394L32.908 33.5294H33.688L35.808 36.9994Z" fill="white"/>
</svg>
