<svg width="414" height="250" viewBox="0 0 414 250" fill="none" xmlns="http://www.w3.org/2000/svg">
<path d="M243.568 63.2301V63.9741H240.256C240.508 63.7341 240.724 63.4941 240.916 63.2301H243.568ZM249.16 63.9741H244.468V63.2301H248.296V62.6181H244.468V61.8261H243.568V62.6181H241.312C241.42 62.4261 241.516 62.2341 241.612 62.0301L240.784 61.8981C240.532 62.4501 240.088 63.1101 239.452 63.6141C239.644 63.6861 239.872 63.8301 240.052 63.9741H238.828V64.6341H249.16V63.9741ZM240.94 65.8461H247.216V66.7461H240.94V65.8461ZM248.116 67.3461V65.2341H240.088V67.3461H248.116ZM242.392 68.2461H238.9V68.8821H242.392C242.392 69.1101 242.38 69.3501 242.356 69.6141H239.176V70.2261H242.284C242.248 70.4181 242.212 70.6221 242.164 70.8021C240.82 70.9701 239.512 71.1381 238.6 71.2341L238.696 71.8941C239.596 71.7861 240.772 71.6301 241.948 71.4621C241.816 71.8101 241.624 72.1341 241.396 72.4341C241.588 72.5301 241.984 72.7581 242.128 72.9141C243.064 71.7261 243.256 70.0101 243.256 68.7981V67.5261H242.392V68.2461ZM249.448 71.0061H245.728V70.2261H248.86V69.6141H245.728V68.8701H249.112V68.2461H245.728V67.5741H244.852V72.7941H245.728V71.6661H249.448V71.0061ZM255.832 62.9541H259.144V63.9261H256.96V65.9301H255.832V62.9541ZM257.656 65.9301V64.5501H259.144V65.9301H257.656ZM254.908 66.6381H260.068V70.2261C260.068 70.3461 260.02 70.3941 259.876 70.4061C259.756 70.4061 259.312 70.4061 258.808 70.3941C258.904 70.5981 259.012 70.8981 259.048 71.1141C259.768 71.1141 260.224 71.1141 260.512 70.9821C260.812 70.8501 260.884 70.6461 260.884 70.2261V65.9301H259.96V62.2581H255.04V65.9301H254.116V71.1141H254.908V66.6381ZM258.328 69.3261H256.612V68.0541H258.328V69.3261ZM259.024 67.4181H255.916V70.4181H256.612V69.9501H259.024V67.4181ZM252.64 63.8301C252.496 63.3021 252.22 62.5221 252.016 61.8981L251.224 62.1261C251.428 62.7501 251.692 63.5781 251.836 64.0941L252.64 63.8301ZM253.048 67.3941L252.892 67.4301H252.064C252.388 66.6021 252.76 65.5941 253.06 64.7301H250.6V65.5341H251.932C251.608 66.4821 251.236 67.5021 250.9 68.2101H252.472C252.28 69.0741 251.98 70.0221 251.608 70.7061C251.248 70.9461 250.84 71.4381 250.408 72.0381L251.02 72.8421C251.38 72.0861 251.776 71.3301 252.052 71.3301C252.316 71.3301 252.76 71.7381 253.24 72.0261C254.128 72.5541 255.184 72.6861 256.756 72.6861C258.172 72.6861 260.452 72.6141 261.34 72.5541C261.364 72.2901 261.496 71.8701 261.616 71.6301C260.272 71.7621 258.328 71.8821 256.792 71.8821C255.364 71.8821 254.284 71.7981 253.432 71.2821C252.988 71.0181 252.7 70.7901 252.472 70.6581C252.88 69.7821 253.228 68.6181 253.456 67.5621L253.048 67.3941ZM270.64 64.6461C270.376 65.9781 269.8 67.1421 268.936 67.8861C269.152 67.9821 269.512 68.2341 269.68 68.3661C270.088 67.9821 270.436 67.5021 270.736 66.9501C271.444 67.5381 272.2 68.2101 272.608 68.6661L273.244 68.0541C272.764 67.5621 271.84 66.7941 271.084 66.2061C271.252 65.7621 271.396 65.2941 271.492 64.7901L270.64 64.6461ZM264.988 64.6461C264.64 66.1941 263.896 67.4781 262.804 68.2941C263.008 68.4261 263.356 68.7141 263.512 68.8701C264.1 68.3781 264.616 67.7421 265.024 66.9861C265.456 67.4061 265.9 67.8501 266.14 68.1501L266.752 67.5381C266.452 67.1901 265.9 66.6621 265.396 66.2181C265.576 65.7741 265.744 65.3061 265.864 64.8021L264.988 64.6461ZM268.42 64.3701H273.184V63.4941H268.42V61.8381H267.508V63.4941H262.912V64.3701H267.508V67.2981C266.404 69.0381 264.424 70.6941 262.492 71.4861C262.696 71.6661 262.984 72.0141 263.116 72.2301C264.712 71.4861 266.32 70.1901 267.508 68.6661V72.7821H268.42V68.6301C269.584 70.1901 271.216 71.5341 272.872 72.2661C273.016 72.0261 273.304 71.6661 273.532 71.4741C271.492 70.7061 269.488 69.0141 268.42 67.2141V64.3701ZM277.288 68.9181H282.724V69.7581H277.288V68.9181ZM282.724 64.9821V65.7861H277.288V64.9821H282.724ZM282.724 67.6221V68.3421H277.288V67.6221H282.724ZM282.724 67.0461H277.288V66.3621H282.724V67.0461ZM285.292 69.7581H283.612V64.3701H280.156C280.204 64.1421 280.252 63.8901 280.3 63.6141H284.992V62.8461H280.432L280.588 61.9221L279.64 61.8141C279.616 62.1141 279.58 62.4861 279.532 62.8461H275.056V63.6141H279.424C279.4 63.8901 279.352 64.1421 279.304 64.3701H276.424V69.7581H274.72V70.5141H285.292V69.7581ZM278.176 70.7541C277.42 71.2581 275.92 71.8461 274.72 72.1701C274.912 72.3381 275.188 72.6141 275.332 72.7941C276.52 72.4581 278.008 71.8581 278.956 71.2581L278.176 70.7541ZM281.116 71.2941C282.448 71.7381 283.804 72.3141 284.62 72.7701L285.34 72.1461C284.464 71.7141 283 71.1381 281.668 70.7181L281.116 71.2941ZM290.416 67.0581H287.896V64.5501H290.416V67.0581ZM287.896 70.7301V67.8501H290.416V70.7301H287.896ZM288.904 61.8021C288.82 62.3661 288.604 63.1701 288.424 63.7461H287.08V72.4821H287.896V71.5341H291.232V63.7461H289.24C289.444 63.2301 289.66 62.5701 289.864 61.9821L288.904 61.8021ZM297.1 63.7101H293.512C293.716 63.1461 293.884 62.5701 294.028 61.9821L293.176 61.7781C292.792 63.4221 292.144 65.0781 291.34 66.1341C291.532 66.2541 291.916 66.4941 292.072 66.6381C292.492 66.0741 292.864 65.3421 293.2 64.5381H296.248C296.092 69.3141 295.912 71.1381 295.516 71.5581C295.396 71.7141 295.264 71.7381 295.024 71.7381C294.748 71.7381 294.028 71.7381 293.248 71.6661C293.416 71.9181 293.524 72.2781 293.548 72.5421C294.22 72.5781 294.904 72.6021 295.324 72.5541C295.732 72.5181 296.008 72.4101 296.272 72.0741C296.752 71.4861 296.908 69.6381 297.1 64.1661V63.7101ZM295.204 69.1101C294.82 68.4021 293.992 67.2501 293.32 66.3981L292.624 66.8061C293.284 67.6701 294.088 68.8581 294.448 69.5781L295.204 69.1101ZM306.532 69.4701V70.2861H301.564V69.4701H306.532ZM301.564 71.7381V70.9221H306.532V71.7381H301.564ZM300.688 72.7701H301.564V72.3741H306.532V72.7341H307.432V68.8341H300.688V72.7701ZM305.716 67.6101C305.968 67.2501 306.268 66.7101 306.532 66.1941L305.776 65.9541C305.644 66.3621 305.332 66.9981 305.116 67.3941L305.716 67.6101ZM301.48 66.2061C301.78 66.6501 302.056 67.2261 302.152 67.6101L302.836 67.3581C302.728 66.9741 302.428 66.4221 302.116 66.0021L301.48 66.2061ZM300.76 65.8701H303.592V67.6581H300.76V65.8701ZM307.204 67.6581H304.348V65.8701H307.204V67.6581ZM299.992 68.2701H308.008V65.2461H299.992V68.2701ZM302.5 64.0101C303.064 63.6621 303.592 63.2541 304.048 62.8101C304.504 63.2421 305.056 63.6501 305.632 64.0101H302.5ZM303.928 61.7901C302.8 63.2421 300.676 64.2981 298.504 64.8741C298.66 65.0421 298.912 65.4021 299.008 65.5581C300.004 65.2461 301.024 64.8381 301.948 64.3341V64.6581H306.1V64.2861C307.036 64.8021 308.068 65.2101 309.04 65.4861C309.172 65.2701 309.424 64.9581 309.604 64.8021C307.732 64.3581 305.656 63.3981 304.54 62.3061C304.588 62.2341 304.648 62.1501 304.708 62.0781L303.928 61.7901ZM321.352 62.7261H318.46C318.34 62.4261 318.148 62.0301 317.944 61.7421L317.212 61.9581C317.344 62.1861 317.476 62.4621 317.584 62.7261H314.512V63.4221H321.352V62.7261ZM313.012 63.4941C312.928 63.0741 312.628 62.4141 312.328 61.9101L311.68 62.1381C311.968 62.6421 312.244 63.3261 312.34 63.7461L313.012 63.4941ZM314.272 63.8661H310.516V64.5981H314.272V63.8661ZM313.276 69.3621V71.3781H311.608V69.3621H313.276ZM313.948 68.6421H310.948V72.6621H311.608V72.0981H313.948V68.6421ZM311.008 67.7421H313.948V67.0221H311.008V67.7421ZM311.008 66.1461H313.948V65.4381H311.008V66.1461ZM316.984 68.4021H318.784V69.0501H316.984V68.4021ZM316.984 67.1661H318.784V67.8021H316.984V67.1661ZM315.652 64.4421H316.912V65.3781H315.652V64.4421ZM318.94 64.4421H320.248V65.3781H318.94V64.4421ZM320.764 69.8661C320.404 70.1181 319.84 70.4661 319.336 70.7061C319.084 70.4061 318.856 70.0581 318.676 69.6981H321.472V69.0501H319.6V68.4021H320.98V67.8021H319.6V67.1661H321.208V66.5661H319.6V65.9181H320.968V63.9021H318.256V65.9181H318.784V66.5661H316.984V65.9181H317.62V63.9021H314.968V65.9181H316.18V66.5661H314.716V67.1661H316.18V67.8021H314.932V68.4021H316.18V69.0501H314.344V69.6981H316.768C316.072 70.1901 315.088 70.5861 314.152 70.8261C314.296 70.9701 314.524 71.2701 314.62 71.4141C315.064 71.2701 315.52 71.0901 315.964 70.8741V71.2461C315.964 71.7741 315.676 72.0741 315.496 72.2061C315.628 72.3381 315.82 72.6141 315.892 72.7821C316.084 72.6621 316.408 72.5541 318.496 72.0861C318.472 71.9181 318.46 71.6181 318.472 71.4021L316.684 71.7501V70.5021C317.092 70.2501 317.464 69.9981 317.764 69.6981H317.92C318.508 71.1621 319.576 72.2541 321.1 72.7341C321.208 72.5301 321.436 72.2541 321.604 72.0861C320.908 71.9061 320.296 71.5821 319.792 71.1621C320.272 70.9221 320.824 70.6341 321.244 70.3221L320.764 69.8661ZM323.992 65.0301C324.388 65.4621 324.868 66.0621 325.096 66.4341L325.54 66.1101V67.4781C324.94 67.8621 324.364 68.2101 323.932 68.4501C323.98 67.7541 323.992 67.0821 323.992 66.5061V65.0301ZM325.54 63.0861V65.8941C325.276 65.5341 324.856 65.0301 324.472 64.6581L323.992 64.9701V63.0861H325.54ZM333.1 63.3861H328.396C328.564 62.9421 328.732 62.4861 328.864 62.0061L327.988 61.8261C327.64 63.1101 327.064 64.3581 326.284 65.2221V62.2701H323.236V66.5061C323.236 68.2341 323.176 70.5981 322.42 72.2901C322.588 72.3621 322.912 72.6501 323.032 72.8181C323.608 71.5941 323.836 69.9741 323.932 68.5101L324.268 69.1941C324.676 68.8821 325.108 68.5581 325.54 68.2221V71.7141C325.54 71.8821 325.48 71.9421 325.324 71.9421C325.192 71.9421 324.712 71.9541 324.184 71.9301C324.28 72.1461 324.388 72.4941 324.412 72.7101C325.18 72.7101 325.624 72.6981 325.912 72.5541C326.188 72.4221 326.284 72.1821 326.284 71.7261V65.6541C326.476 65.7861 326.656 65.9541 326.764 66.0621C326.824 66.0021 326.872 65.9421 326.932 65.8701V70.9941H331.456V65.7981H330.76V70.2741H327.628V65.8701H326.932C327.316 65.4021 327.7 64.8381 328.012 64.2021H332.284C332.284 69.5541 332.236 71.4501 331.984 71.7981C331.876 71.9541 331.78 72.0021 331.564 71.9901C331.324 71.9901 330.676 71.9901 329.98 71.9421C330.136 72.1701 330.232 72.5181 330.244 72.7581C330.844 72.7821 331.504 72.8061 331.9 72.7581C332.284 72.7221 332.524 72.6141 332.74 72.2781C333.1 71.7381 333.1 69.8781 333.1 63.8421V63.3861ZM330.58 69.4821C330.352 68.9061 329.98 68.1741 329.548 67.3941C329.872 66.7101 330.148 65.9901 330.388 65.2941L329.752 65.1141C329.584 65.6421 329.392 66.1821 329.164 66.7101C328.864 66.1941 328.54 65.6661 328.252 65.1981L327.712 65.4621C328.084 66.0621 328.48 66.7461 328.852 67.4181C328.48 68.1861 328.084 68.9061 327.664 69.4701C327.832 69.5541 328.108 69.7461 328.228 69.8541C328.552 69.3621 328.9 68.7621 329.224 68.1141C329.536 68.7381 329.824 69.3141 330.004 69.7821L330.58 69.4821ZM340.624 63.2421H338.416C338.272 62.8341 338.032 62.2461 337.78 61.7781L337 62.0061C337.168 62.3781 337.36 62.8461 337.492 63.2421H335.008V64.0581H340.624V63.2421ZM337.3 66.1941C337.18 65.6301 336.856 64.7901 336.508 64.1661L335.74 64.3581C336.064 65.0061 336.376 65.8581 336.484 66.4101L337.3 66.1941ZM339.46 69.1701V71.3421H336.196V69.1701H339.46ZM335.344 72.7101H336.196V72.1341H339.46V72.6141H340.336V68.3661H335.344V72.7101ZM339.208 64.1301C339.016 64.8021 338.656 65.7861 338.332 66.4581H334.66V67.2741H340.9V66.4581H339.196C339.496 65.8341 339.832 65.0181 340.096 64.3221L339.208 64.1301ZM344.728 62.4261L344.584 62.4741H341.512V72.7701H342.316V63.2901H344.224C343.9 64.2141 343.432 65.4861 342.988 66.4941C344.056 67.5861 344.356 68.4501 344.356 69.2061C344.368 69.6141 344.284 69.9861 344.044 70.1421C343.912 70.2141 343.744 70.2501 343.564 70.2621C343.324 70.2741 342.988 70.2741 342.64 70.2381C342.784 70.4901 342.868 70.8501 342.88 71.0901C343.216 71.1021 343.6 71.1021 343.9 71.0661C344.176 71.0421 344.44 70.9581 344.644 70.8141C345.028 70.5621 345.184 69.9741 345.184 69.2901C345.184 68.4501 344.92 67.5261 343.852 66.3981C344.356 65.2941 344.908 63.9261 345.34 62.8341L344.728 62.4261ZM245.8 94.4821H246.688V87.5461H249.592V86.7181H245.8V94.4821ZM255.568 88.2301V88.9741H252.256C252.508 88.7341 252.724 88.4941 252.916 88.2301H255.568ZM261.16 88.9741H256.468V88.2301H260.296V87.6181H256.468V86.8261H255.568V87.6181H253.312C253.42 87.4261 253.516 87.2341 253.612 87.0301L252.784 86.8981C252.532 87.4501 252.088 88.1101 251.452 88.6141C251.644 88.6861 251.872 88.8301 252.052 88.9741H250.828V89.6341H261.16V88.9741ZM252.94 90.8461H259.216V91.7461H252.94V90.8461ZM260.116 92.3461V90.2341H252.088V92.3461H260.116ZM254.392 93.2461H250.9V93.8821H254.392C254.392 94.1101 254.38 94.3501 254.356 94.6141H251.176V95.2261H254.284C254.248 95.4181 254.212 95.6221 254.164 95.8021C252.82 95.9701 251.512 96.1381 250.6 96.2341L250.696 96.8941C251.596 96.7861 252.772 96.6301 253.948 96.4621C253.816 96.8101 253.624 97.1341 253.396 97.4341C253.588 97.5301 253.984 97.7581 254.128 97.9141C255.064 96.7261 255.256 95.0101 255.256 93.7981V92.5261H254.392V93.2461ZM261.448 96.0061H257.728V95.2261H260.86V94.6141H257.728V93.8701H261.112V93.2461H257.728V92.5741H256.852V97.7941H257.728V96.6661H261.448V96.0061ZM270.052 93.2941H272.752V92.4541H270.052V90.1621H269.164V92.4541H266.476V93.2941H269.164V96.6661H266.008V97.5061H273.22V96.6661H270.052V93.2941ZM267.04 88.6861C267.256 88.1461 267.46 87.5941 267.616 87.0541L266.704 86.8261C266.536 87.4381 266.32 88.0741 266.068 88.6861H262.792V89.5381H265.672C264.928 91.0621 263.872 92.4781 262.504 93.4501C262.648 93.6421 262.876 94.0141 262.96 94.2541C263.464 93.8941 263.932 93.4981 264.352 93.0421V97.7461H265.228V91.9861C265.792 91.2181 266.26 90.4021 266.68 89.5381H273.22V88.6861H267.04ZM274.576 91.7101V92.6821H285.472V91.7101H274.576ZM295.96 88.1941V90.9421H293.224V88.1941H295.96ZM296.092 95.8381C297.148 95.8381 297.4 95.3341 297.532 93.7021C297.28 93.6541 296.932 93.5101 296.728 93.3541C296.656 94.7221 296.572 95.0221 296.056 95.0221H293.932C293.332 95.0221 293.224 94.9141 293.224 94.3981V91.7341H296.824V87.4021H292.36V94.3981C292.36 95.5381 292.72 95.8381 293.86 95.8381H296.092ZM289.912 93.8581H291.628V93.0661H289.912V91.2901H291.736V90.4861H289.72V88.9741H291.448V88.1821H289.72V86.8501H288.868V88.1821H286.924V88.9741H288.868V90.4861H286.624V91.2901H289.084V95.7901C288.604 95.3821 288.256 94.7941 287.992 93.9541C288.028 93.4261 288.052 92.8621 288.064 92.2861L287.224 92.2261C287.188 94.3621 287.056 96.2581 286.36 97.4581C286.564 97.5541 286.948 97.7821 287.104 97.8901C287.464 97.2181 287.68 96.4021 287.824 95.4421C288.7 97.0741 290.128 97.4821 292.66 97.4821H297.232C297.292 97.2181 297.46 96.8101 297.604 96.5941C296.872 96.6301 293.224 96.6301 292.648 96.6181C291.508 96.6181 290.62 96.5341 289.912 96.2701V93.8581ZM299.56 94.2181H300.316L300.46 89.1301L300.496 87.8821H299.38L299.416 89.1301L299.56 94.2181ZM299.932 97.0261C300.376 97.0261 300.724 96.6901 300.724 96.1981C300.724 95.7061 300.376 95.3461 299.932 95.3461C299.5 95.3461 299.14 95.7061 299.14 96.1981C299.14 96.6901 299.5 97.0261 299.932 97.0261ZM306.079 90.1381H305.191V97.0741H302.287V97.9021H306.079V90.1381ZM315.871 90.0301C316.267 90.4621 316.747 91.0621 316.975 91.4341L317.419 91.1101V92.4781C316.819 92.8621 316.243 93.2101 315.811 93.4501C315.859 92.7541 315.871 92.0821 315.871 91.5061V90.0301ZM317.419 88.0861V90.8941C317.155 90.5341 316.735 90.0301 316.351 89.6581L315.871 89.9701V88.0861H317.419ZM324.979 88.3861H320.275C320.443 87.9421 320.611 87.4861 320.743 87.0061L319.867 86.8261C319.519 88.1101 318.943 89.3581 318.163 90.2221V87.2701H315.115V91.5061C315.115 93.2341 315.055 95.5981 314.299 97.2901C314.467 97.3621 314.791 97.6501 314.911 97.8181C315.487 96.5941 315.715 94.9741 315.811 93.5101L316.147 94.1941C316.555 93.8821 316.987 93.5581 317.419 93.2221V96.7141C317.419 96.8821 317.359 96.9421 317.203 96.9421C317.071 96.9421 316.591 96.9541 316.063 96.9301C316.159 97.1461 316.267 97.4941 316.291 97.7101C317.059 97.7101 317.503 97.6981 317.791 97.5541C318.067 97.4221 318.163 97.1821 318.163 96.7261V90.6541C318.355 90.7861 318.535 90.9541 318.643 91.0621C318.703 91.0021 318.751 90.9421 318.811 90.8701V95.9941H323.335V90.7981H322.639V95.2741H319.507V90.8701H318.811C319.195 90.4021 319.579 89.8381 319.891 89.2021H324.163C324.163 94.5541 324.115 96.4501 323.863 96.7981C323.755 96.9541 323.659 97.0021 323.443 96.9901C323.203 96.9901 322.555 96.9901 321.859 96.9421C322.015 97.1701 322.111 97.5181 322.123 97.7581C322.723 97.7821 323.383 97.8061 323.779 97.7581C324.163 97.7221 324.403 97.6141 324.619 97.2781C324.979 96.7381 324.979 94.8781 324.979 88.8421V88.3861ZM322.459 94.4821C322.231 93.9061 321.859 93.1741 321.427 92.3941C321.751 91.7101 322.027 90.9901 322.267 90.2941L321.631 90.1141C321.463 90.6421 321.271 91.1821 321.043 91.7101C320.743 91.1941 320.419 90.6661 320.131 90.1981L319.591 90.4621C319.963 91.0621 320.359 91.7461 320.731 92.4181C320.359 93.1861 319.963 93.9061 319.543 94.4701C319.711 94.5541 319.987 94.7461 320.107 94.8541C320.431 94.3621 320.779 93.7621 321.103 93.1141C321.415 93.7381 321.703 94.3141 321.883 94.7821L322.459 94.4821ZM336.559 86.9101H335.707V92.2261C335.707 92.3941 335.659 92.4421 335.479 92.4421C335.299 92.4661 334.699 92.4661 334.015 92.4421C334.147 92.6821 334.279 93.0181 334.315 93.2581C335.167 93.2581 335.743 93.2461 336.103 93.1141C336.463 92.9701 336.559 92.7421 336.559 92.2501V86.9101ZM334.315 87.5101H333.487V91.5061H334.315V87.5101ZM329.071 89.6821V88.1101H330.547V89.7541H329.071V89.6821ZM330.547 90.5461V93.1141H331.387V90.5461H332.743V89.7541H331.387V88.1101H332.503V87.3181H327.127V88.1101H328.243V89.6581V89.7541H326.731V90.5461H328.183C328.039 91.3501 327.667 92.1541 326.623 92.7901C326.791 92.9221 327.091 93.2461 327.211 93.4141C328.423 92.6461 328.867 91.5781 329.011 90.5461H330.547ZM332.395 96.5461V95.0341H336.019V94.2181H332.395V92.8741H331.495V94.2181H327.727V95.0341H331.495V96.5461H326.491V97.3861H337.267V96.5461H332.395ZM341.887 90.2461C341.863 91.4101 341.707 92.8021 341.047 94.1701C340.591 93.7741 340.111 93.4021 339.655 93.0541C339.859 92.2741 340.087 91.3141 340.279 90.3421L341.887 90.2461ZM343.423 90.1501L343.435 89.3341L342.739 89.3701V88.5421H341.899V89.4181L340.435 89.5021C340.591 88.6141 340.735 87.7141 340.831 86.9101L339.955 86.8621C339.871 87.6781 339.739 88.6261 339.571 89.5381C339.127 89.5501 338.719 89.5741 338.371 89.5861L338.467 90.4381L339.415 90.3901C339.175 91.5061 338.923 92.5741 338.683 93.3541C339.295 93.8221 339.979 94.3741 340.615 94.9381C340.111 95.7301 339.403 96.5101 338.419 97.2061C338.599 97.3381 338.911 97.6261 339.043 97.8181C340.015 97.1101 340.747 96.3301 341.275 95.5261C341.827 96.0421 342.319 96.5341 342.655 96.9421L343.231 96.1981C342.871 95.7781 342.331 95.2741 341.731 94.7461C342.523 93.1621 342.703 91.5421 342.739 90.1981L343.423 90.1501ZM349.351 91.8901H346.711V90.7381C347.551 90.0061 348.403 88.9981 348.991 88.1101L348.379 87.6661L348.175 87.7141H343.567V88.5421H347.563C347.071 89.2381 346.423 90.0181 345.811 90.5221V91.8901H343.039V92.7421H345.811V96.7261C345.811 96.8941 345.739 96.9541 345.547 96.9541C345.367 96.9661 344.707 96.9661 343.999 96.9421C344.131 97.1941 344.275 97.5421 344.323 97.7941C345.259 97.8061 345.835 97.7821 346.207 97.6501C346.579 97.5061 346.711 97.2541 346.711 96.7261V92.7421H349.351V91.8901ZM359.083 93.6661H353.875V92.8381H359.083V93.6661ZM353.875 96.6301V95.7421H359.083V96.6301H353.875ZM359.083 95.1181H353.875V94.2781H359.083V95.1181ZM361.135 91.3021V90.5581H354.847C354.991 90.2701 355.123 89.9701 355.243 89.6821H360.439V88.9621H355.495C355.591 88.6621 355.687 88.3741 355.771 88.0741C357.487 87.9781 359.119 87.8221 360.319 87.5701L359.755 86.9221C357.859 87.3061 354.235 87.4981 351.331 87.5221C351.415 87.7141 351.499 88.0021 351.511 88.2061C352.543 88.2061 353.671 88.1821 354.787 88.1221C354.715 88.4101 354.631 88.6861 354.535 88.9621H351.499V89.6821H354.271C354.163 89.9701 354.019 90.2701 353.875 90.5581H350.623V91.3021H353.455C352.711 92.5501 351.679 93.6661 350.335 94.4461C350.503 94.6021 350.767 94.9261 350.887 95.1301C351.703 94.6381 352.411 94.0381 353.023 93.3661V97.8181H353.875V97.3501H359.083V97.8181H359.959V92.1301H353.983C354.163 91.8661 354.319 91.5781 354.475 91.3021H361.135ZM370.951 88.9741H364.747V88.0021H370.951V88.9741ZM370.951 90.5941H364.747V89.6221H370.951V90.5941ZM371.839 87.3181H363.871V91.2781H371.839V87.3181ZM368.419 95.0101H372.379V94.2181H368.419V92.8861H373.159V92.0821H362.623V92.8861H367.543V96.4981C366.511 96.2221 365.743 95.6701 365.275 94.5901C365.395 94.2061 365.503 93.8101 365.587 93.3901L364.687 93.2701C364.363 95.0221 363.607 96.3661 362.359 97.1701C362.551 97.3141 362.899 97.6501 363.019 97.8061C363.799 97.2301 364.423 96.4861 364.891 95.5501C365.863 97.1701 367.387 97.5541 369.799 97.5541H373.063C373.111 97.2901 373.255 96.9061 373.375 96.7021C372.763 96.7141 370.279 96.7141 369.835 96.7141C369.331 96.7141 368.851 96.6901 368.419 96.6421V95.0101ZM375.715 88.6021H384.043V89.7781H384.895V87.8701H380.455C380.287 87.5101 380.023 87.0661 379.747 86.7421L378.991 86.9821C379.171 87.2461 379.375 87.5701 379.519 87.8701H374.899V89.7781H375.715V88.6021ZM376.975 95.0461H382.831V95.6101H376.975V95.0461ZM376.975 93.9781H382.831V94.5301H376.975V93.9781ZM376.975 92.9341H382.831V93.4741H376.975V92.9341ZM383.719 96.1381V92.4061H376.111V96.1381H378.403C377.635 96.5581 376.027 96.9901 374.755 97.1821C374.911 97.3501 375.139 97.6381 375.235 97.8061C376.555 97.5901 378.175 97.1341 379.159 96.6061L378.451 96.1381H381.091L380.647 96.6541C382.039 97.0261 383.443 97.4941 384.295 97.8181L384.883 97.2421C383.971 96.9181 382.531 96.4861 381.151 96.1381H383.719ZM380.167 91.3741C380.179 91.1821 380.203 91.0021 380.227 90.7861H382.459L382.411 91.3741H380.167ZM377.227 90.7861H379.471C379.447 90.9901 379.423 91.1821 379.399 91.3741H377.155L377.227 90.7861ZM379.555 89.6941L379.519 90.2461H377.287L377.359 89.6941H379.555ZM382.495 90.2461H380.263L380.311 89.6941H382.543L382.495 90.2461ZM383.347 90.1741L383.431 89.1661H376.627L376.495 90.1741H374.503V90.8581H376.411L376.267 91.9021H383.191L383.287 90.8581H385.291V90.1741H383.347ZM239.86 113.806H242.428C242.164 114.862 241.432 115.33 239.128 115.57C239.284 115.726 239.476 116.062 239.548 116.254C242.152 115.93 243.004 115.234 243.304 113.806H244.564V114.826C244.564 115.582 244.756 115.93 245.62 115.93H247.6C247.948 115.93 248.368 115.918 248.548 115.858C248.512 115.642 248.488 115.402 248.464 115.162C248.272 115.21 247.804 115.222 247.552 115.222H245.776C245.488 115.222 245.44 115.126 245.44 114.826V113.806H248.152V114.934H249.052V113.038H244.72C244.612 112.666 244.42 112.15 244.252 111.766L243.352 111.982C243.496 112.294 243.64 112.702 243.724 113.038H238.984V114.946H239.86V113.806ZM245.524 117.178V118.738H241.072C241.216 118.246 241.36 117.682 241.48 117.178H245.524ZM249.1 118.738H246.4V117.178H248.728V116.458H239.608V117.178H240.58C240.412 117.958 240.184 118.894 239.992 119.518H244.3C242.836 120.454 240.616 121.198 238.636 121.558C238.816 121.726 239.056 122.062 239.176 122.29C241.396 121.822 243.952 120.802 245.452 119.518H245.524V121.726C245.524 121.894 245.476 121.93 245.272 121.942C245.092 121.966 244.432 121.966 243.712 121.942C243.844 122.182 243.976 122.518 244.024 122.758C244.948 122.77 245.548 122.758 245.92 122.614C246.28 122.482 246.4 122.254 246.4 121.738V119.518H249.1V118.738ZM259.144 113.566C258.496 115.738 257.416 117.442 256.036 118.762C254.68 117.37 253.696 115.606 253.036 113.566H259.144ZM259.66 112.642L259.516 112.69H251.212V113.566H252.124C252.868 115.87 253.9 117.838 255.352 119.386C253.936 120.526 252.28 121.33 250.492 121.858C250.696 122.038 250.96 122.446 251.056 122.674C252.856 122.086 254.536 121.234 255.988 120.01C257.32 121.222 258.952 122.11 260.98 122.662C261.112 122.422 261.364 122.05 261.568 121.858C259.612 121.378 257.992 120.514 256.672 119.374C258.316 117.79 259.564 115.666 260.26 112.918L259.66 112.642ZM265.06 111.874C264.544 112.726 263.488 113.71 262.552 114.322C262.708 114.49 262.924 114.85 263.032 115.042C264.076 114.346 265.216 113.23 265.912 112.186L265.06 111.874ZM265.276 114.49C264.592 115.726 263.452 116.962 262.384 117.754C262.54 117.958 262.78 118.426 262.864 118.618C263.32 118.258 263.776 117.826 264.208 117.334V122.794H265.072V116.314C265.444 115.822 265.792 115.318 266.068 114.814L265.276 114.49ZM267.676 115.33H271.552V116.818H267.676V115.33ZM271.552 113.146V114.586H267.676V113.146H271.552ZM272.452 117.982C271.96 118.45 271.132 119.05 270.484 119.47C270.136 118.906 269.848 118.282 269.632 117.598H272.416V112.354H266.812V121.222C266.812 121.714 266.548 121.966 266.368 122.062C266.512 122.23 266.704 122.59 266.776 122.794C267.004 122.638 267.364 122.518 269.836 121.846C269.8 121.654 269.788 121.294 269.788 121.03L267.676 121.546V117.598H268.852C269.548 120.034 270.808 121.858 272.92 122.71C273.052 122.47 273.316 122.122 273.52 121.942C272.44 121.558 271.576 120.922 270.904 120.082C271.576 119.674 272.416 119.122 273.052 118.606L272.452 117.982ZM283.528 114.286C283.432 117.61 283.3 118.822 283.072 119.11C282.964 119.254 282.856 119.278 282.676 119.266C282.472 119.278 281.992 119.266 281.476 119.218C281.596 119.458 281.692 119.818 281.704 120.07C282.268 120.106 282.784 120.106 283.096 120.07C283.42 120.034 283.648 119.938 283.852 119.662C284.188 119.23 284.308 117.838 284.44 113.854V113.434H277.816C278.08 112.99 278.332 112.522 278.548 112.03L277.648 111.766C276.952 113.398 275.776 114.946 274.456 115.918C274.684 116.062 275.032 116.398 275.2 116.566C275.932 115.966 276.64 115.186 277.276 114.286H283.528ZM280.372 116.326V118.258H277.252V116.326H280.372ZM278.752 121.69C277.48 121.69 277.252 121.522 277.252 120.874V119.062H281.248V115.522H276.376V120.874C276.376 122.206 276.928 122.53 278.8 122.53H283.324C284.944 122.53 285.304 122.086 285.484 120.514C285.232 120.466 284.848 120.334 284.632 120.19C284.5 121.426 284.332 121.69 283.312 121.69H278.752ZM295.792 114.85H293.776V114.106H295.792V114.85ZM290.956 114.85V114.106H292.936V114.85H290.956ZM288.232 114.106H290.14V114.85H288.232V114.106ZM290.956 112.93H292.936V113.506H290.956V112.93ZM296.644 113.506H293.776V112.93H297.196V112.282H286.852V112.93H290.14V113.506H287.416V115.438H296.644V113.506ZM291.94 120.61H295.036C294.64 120.922 294.136 121.186 293.56 121.402C292.936 121.186 292.36 120.934 291.868 120.658L291.94 120.61ZM291.628 118.582H295.528V119.074H291.628V118.582ZM291.628 117.622H295.528V118.114H291.628V117.622ZM295.828 120.01L295.684 120.046H292.696C292.876 119.89 293.032 119.734 293.176 119.566H296.308V117.13H291.244C291.34 116.986 291.436 116.854 291.532 116.71H296.98V116.086H291.916C291.988 115.942 292.06 115.786 292.132 115.654L291.364 115.438C290.98 116.29 290.344 117.082 289.636 117.67C289.72 117.55 289.804 117.442 289.876 117.334L289.108 117.07C288.58 117.982 287.5 119.038 286.492 119.686C286.636 119.818 286.876 120.094 286.984 120.262C287.344 120.01 287.728 119.722 288.076 119.398V122.782H288.868V118.63C289.108 118.366 289.312 118.114 289.516 117.85C289.696 117.982 289.984 118.222 290.104 118.354C290.356 118.126 290.62 117.862 290.872 117.562V119.566H292.252C291.976 119.806 291.64 120.046 291.256 120.274C291.04 120.106 290.836 119.926 290.668 119.746L290.068 119.986C290.248 120.202 290.452 120.382 290.668 120.574C290.368 120.73 290.044 120.874 289.696 120.994C289.852 121.102 290.092 121.342 290.188 121.474C290.56 121.342 290.92 121.174 291.256 121.006C291.676 121.258 292.108 121.498 292.588 121.702C291.616 121.954 290.512 122.098 289.432 122.182C289.564 122.35 289.696 122.614 289.768 122.806C291.088 122.674 292.408 122.458 293.548 122.062C294.568 122.41 295.696 122.638 296.836 122.782C296.932 122.578 297.112 122.302 297.256 122.134C296.32 122.05 295.372 121.894 294.52 121.678C295.252 121.318 295.888 120.874 296.32 120.298L295.828 120.01ZM288.808 115.546C288.364 116.254 287.404 117.034 286.564 117.526C286.72 117.658 286.96 117.934 287.104 118.102C287.992 117.538 289 116.65 289.6 115.798L288.808 115.546ZM302.416 117.058H299.896V114.55H302.416V117.058ZM299.896 120.73V117.85H302.416V120.73H299.896ZM300.904 111.802C300.82 112.366 300.604 113.17 300.424 113.746H299.08V122.482H299.896V121.534H303.232V113.746H301.24C301.444 113.23 301.66 112.57 301.864 111.982L300.904 111.802ZM309.1 113.71H305.512C305.716 113.146 305.884 112.57 306.028 111.982L305.176 111.778C304.792 113.422 304.144 115.078 303.34 116.134C303.532 116.254 303.916 116.494 304.072 116.638C304.492 116.074 304.864 115.342 305.2 114.538H308.248C308.092 119.314 307.912 121.138 307.516 121.558C307.396 121.714 307.264 121.738 307.024 121.738C306.748 121.738 306.028 121.738 305.248 121.666C305.416 121.918 305.524 122.278 305.548 122.542C306.22 122.578 306.904 122.602 307.324 122.554C307.732 122.518 308.008 122.41 308.272 122.074C308.752 121.486 308.908 119.638 309.1 114.166V113.71ZM307.204 119.11C306.82 118.402 305.992 117.25 305.32 116.398L304.624 116.806C305.284 117.67 306.088 118.858 306.448 119.578L307.204 119.11ZM320.716 114.49H316.564C316.456 113.83 316.384 113.122 316.348 112.366H313.432V113.158H315.592C315.616 113.626 315.664 114.07 315.724 114.49H311.356V122.782H312.244V115.366H315.364C314.956 117.25 313.972 118.546 312.364 119.326C312.556 119.494 312.832 119.83 312.964 120.034C314.56 119.218 315.544 117.886 316.048 116.05C316.564 117.85 317.488 119.194 319.06 119.974C319.204 119.734 319.492 119.386 319.684 119.194C318.112 118.522 317.212 117.202 316.756 115.366H319.816V121.618C319.816 121.81 319.768 121.87 319.552 121.882C319.312 121.894 318.568 121.894 317.788 121.87C317.92 122.11 318.052 122.518 318.088 122.77C319.108 122.77 319.792 122.77 320.2 122.626C320.596 122.47 320.716 122.182 320.716 121.618V114.49ZM332.2 115.654C331.612 116.386 330.676 117.286 329.848 117.982C329.368 117.01 329.056 115.906 328.816 114.634H333.244V113.77H328.072L328.864 113.494C328.732 113.038 328.396 112.318 328.06 111.778L327.172 112.054C327.472 112.582 327.784 113.302 327.916 113.77H322.768V114.634H327.16C326.08 116.074 324.292 117.442 322.456 118.27C322.6 118.45 322.852 118.81 322.948 119.026C323.704 118.666 324.436 118.234 325.132 117.754V121.018C325.132 121.57 324.736 121.918 324.496 122.05C324.652 122.218 324.892 122.566 324.976 122.758C325.288 122.542 325.744 122.374 329.488 121.186C329.416 120.982 329.32 120.622 329.284 120.37L326.032 121.378V117.046C326.8 116.41 327.472 115.714 328.024 114.982C328.66 118.27 329.8 120.526 332.92 122.494C333.028 122.218 333.316 121.894 333.544 121.714C332.032 120.826 331 119.866 330.256 118.702C331.132 118.006 332.176 117.046 332.956 116.194L332.2 115.654ZM339.016 119.614C340.276 119.17 341.092 118.186 341.092 116.89C341.092 116.05 340.732 115.51 340.072 115.51C339.58 115.51 339.16 115.81 339.16 116.374C339.16 116.938 339.568 117.226 340.06 117.226C340.132 117.226 340.192 117.226 340.264 117.214C340.204 118.03 339.676 118.594 338.752 118.978L339.016 119.614ZM357.268 116.17V115.258H352.312C352.48 113.998 352.492 112.81 352.504 111.85H351.544C351.532 112.798 351.544 113.998 351.364 115.258H346.792V116.17H351.22C350.728 118.438 349.528 120.742 346.552 122.038C346.804 122.218 347.092 122.53 347.224 122.77C350.14 121.438 351.436 119.134 352.012 116.83C352.96 119.554 354.484 121.678 356.788 122.77C356.944 122.506 357.244 122.134 357.46 121.93C355.144 120.982 353.584 118.81 352.744 116.17H357.268ZM364.036 119.518H366.052V121.138H364.036V119.518ZM366.052 116.338H364.036V114.79H366.052V116.338ZM366.052 118.714H364.036V117.142H366.052V118.714ZM369.412 121.138H366.892V119.518H368.968V118.714H366.892V117.142H368.98V116.338H366.892V114.79H369.172V113.962H366.628L367.324 113.662C367.18 113.182 366.808 112.474 366.448 111.922L365.68 112.222C366.004 112.75 366.364 113.482 366.508 113.962H364.144C364.408 113.362 364.66 112.738 364.864 112.114L364.024 111.898C363.484 113.662 362.584 115.39 361.54 116.506C361.696 116.626 361.96 116.878 362.116 117.058L360.916 117.43V115.042H362.26V114.214H360.916V111.838H360.052V114.214H358.528V115.042H360.052V117.694C359.44 117.898 358.876 118.054 358.42 118.186L358.648 119.05L360.052 118.582V121.69C360.052 121.87 359.992 121.906 359.836 121.906C359.704 121.918 359.236 121.918 358.72 121.906C358.84 122.158 358.96 122.53 358.984 122.77C359.752 122.782 360.208 122.746 360.496 122.602C360.796 122.446 360.916 122.206 360.916 121.69V118.306L362.284 117.862L362.164 117.094L362.2 117.142C362.536 116.746 362.872 116.29 363.172 115.786V122.794H364.036V121.954H369.412V121.138ZM375.604 118.966H376.396L376.696 114.31L376.72 112.894H375.28L375.316 114.31L375.604 118.966ZM376 121.93C376.528 121.93 376.96 121.57 376.96 120.982C376.96 120.418 376.528 120.046 376 120.046C375.472 120.046 375.04 120.418 375.04 120.982C375.04 121.57 375.472 121.93 376 121.93ZM238.552 168.882H248.176V168.114H238.552V168.882ZM257.603 168.618V171.27H251.807V168.618H257.603ZM250.907 172.782H251.807V172.134H257.603V172.758H258.539V167.766H250.907V172.782ZM255.899 163.65C256.475 164.166 257.087 164.79 257.639 165.414L251.519 165.714C252.575 164.718 253.643 163.482 254.591 162.186L253.715 161.79C252.779 163.278 251.387 164.79 250.955 165.174C250.559 165.57 250.247 165.834 249.983 165.882C250.079 166.122 250.235 166.566 250.271 166.758C250.739 166.59 251.435 166.566 258.287 166.182C258.587 166.554 258.839 166.902 259.019 167.214L259.775 166.674C259.151 165.678 257.771 164.214 256.607 163.194L255.899 163.65ZM267.155 168.018V164.838H270.599V168.018H267.155ZM262.799 168.018V164.838H266.231V168.018H262.799ZM267.155 163.962V161.826H266.231V163.962H261.923V169.638H262.799V168.894H266.231V172.782H267.155V168.894H270.599V169.578H271.511V163.962H267.155ZM276.006 171.87H282.066V170.922H277.374L282.018 163.722V163.074H276.426V164.01H280.65L276.006 171.21V171.87ZM285.98 172.026C287.576 172.026 289.004 170.778 289.004 168.618C289.004 166.446 287.576 165.186 285.98 165.186C284.384 165.186 282.956 166.446 282.956 168.618C282.956 170.778 284.384 172.026 285.98 172.026ZM285.98 171.114C284.852 171.114 284.096 170.118 284.096 168.618C284.096 167.118 284.852 166.098 285.98 166.098C287.108 166.098 287.876 167.118 287.876 168.618C287.876 170.118 287.108 171.114 285.98 171.114ZM290.725 171.87H291.817V167.142C292.477 166.482 292.933 166.146 293.605 166.146C294.469 166.146 294.841 166.662 294.841 167.886V171.87H295.933V167.742C295.933 166.074 295.309 165.186 293.941 165.186C293.053 165.186 292.381 165.678 291.757 166.29H291.721L291.625 165.354H290.725V171.87ZM299.561 172.026C300.365 172.026 301.097 171.606 301.721 171.09H301.757L301.853 171.87H302.753V167.862C302.753 166.254 302.081 165.186 300.497 165.186C299.453 165.186 298.529 165.654 297.929 166.038L298.361 166.794C298.877 166.446 299.561 166.098 300.317 166.098C301.385 166.098 301.661 166.902 301.661 167.742C298.889 168.054 297.653 168.762 297.653 170.178C297.653 171.354 298.469 172.026 299.561 172.026ZM299.873 171.15C299.225 171.15 298.721 170.85 298.721 170.106C298.721 169.266 299.465 168.726 301.661 168.462V170.286C301.025 170.85 300.509 171.15 299.873 171.15Z" fill="#3E3E3E"/>
<path d="M219.436 46.5541C218.14 47.7781 217.474 49.5601 217.438 51.9001L219.814 52.2241V56.9221H214.846V54.7081C214.846 52.9441 214.918 51.4861 215.062 50.3341C215.242 49.0021 215.764 47.7421 216.628 46.5541C217.096 45.9421 217.636 45.4201 218.248 44.9881L219.436 46.5541ZM226.834 46.5541C225.502 47.6701 224.818 49.4521 224.782 51.9001L227.374 52.2241V56.9221H222.352V54.7081C222.352 53.6281 222.388 52.7641 222.46 52.1161C222.46 51.7201 222.478 51.3421 222.514 50.9821C222.55 50.4781 222.604 50.0821 222.676 49.7941C222.676 49.7221 222.712 49.5781 222.784 49.3621C222.856 49.1101 222.91 48.8941 222.946 48.7141C222.982 48.3181 223.108 47.9581 223.324 47.6341C223.54 47.2741 223.72 46.9681 223.864 46.7161C224.188 46.1761 224.764 45.6001 225.592 44.9881L226.834 46.5541Z" fill="#3E3E3E"/>
<path d="M376.564 191.186C377.86 189.962 378.526 188.18 378.562 185.84L376.186 185.516V180.818H381.154V183.032C381.154 184.796 381.082 186.254 380.938 187.406C380.758 188.738 380.236 189.998 379.372 191.186C378.904 191.798 378.364 192.32 377.752 192.752L376.564 191.186ZM369.166 191.186C370.498 190.07 371.182 188.288 371.218 185.84L368.626 185.516V180.818H373.648V183.032C373.648 184.112 373.612 184.976 373.54 185.624C373.54 186.02 373.522 186.398 373.486 186.758C373.45 187.262 373.396 187.658 373.324 187.946C373.324 188.018 373.288 188.162 373.216 188.378C373.144 188.63 373.09 188.846 373.054 189.026C373.018 189.422 372.892 189.782 372.676 190.106C372.46 190.466 372.28 190.772 372.136 191.024C371.812 191.564 371.236 192.14 370.408 192.752L369.166 191.186Z" fill="#3E3E3E"/>
</svg>
