<svg width="414" height="250" viewBox="0 0 414 250" fill="none" xmlns="http://www.w3.org/2000/svg">
<path d="M254.208 66.364V65.476H249.456V62.968H248.532V65.476H243.816V66.364H247.44C246.564 68.392 245.088 70.336 243.504 71.308C243.708 71.476 243.996 71.8 244.14 72.016C245.868 70.84 247.416 68.704 248.34 66.364H248.532V70.792H245.748V71.68H248.532V73.912H249.456V71.68H252.24V70.792H249.456V66.364H249.624C250.524 68.704 252.072 70.864 253.848 71.98C253.992 71.74 254.304 71.416 254.532 71.224C252.876 70.288 251.364 68.392 250.5 66.364H254.208ZM263.64 65.776C263.376 67.108 262.8 68.272 261.936 69.016C262.152 69.112 262.512 69.364 262.68 69.496C263.088 69.112 263.436 68.632 263.736 68.08C264.444 68.668 265.2 69.34 265.608 69.796L266.244 69.184C265.764 68.692 264.84 67.924 264.084 67.336C264.252 66.892 264.396 66.424 264.492 65.92L263.64 65.776ZM257.988 65.776C257.64 67.324 256.896 68.608 255.804 69.424C256.008 69.556 256.356 69.844 256.512 70C257.1 69.508 257.616 68.872 258.024 68.116C258.456 68.536 258.9 68.98 259.14 69.28L259.752 68.668C259.452 68.32 258.9 67.792 258.396 67.348C258.576 66.904 258.744 66.436 258.864 65.932L257.988 65.776ZM261.42 65.5H266.184V64.624H261.42V62.968H260.508V64.624H255.912V65.5H260.508V68.428C259.404 70.168 257.424 71.824 255.492 72.616C255.696 72.796 255.984 73.144 256.116 73.36C257.712 72.616 259.32 71.32 260.508 69.796V73.912H261.42V69.76C262.584 71.32 264.216 72.664 265.872 73.396C266.016 73.156 266.304 72.796 266.532 72.604C264.492 71.836 262.488 70.144 261.42 68.344V65.5ZM275.964 68.752H270.96V67.54H275.964V68.752ZM270.924 70.78C270.948 70.468 270.96 70.18 270.96 69.892V69.532H275.964V70.78H270.924ZM278.244 65.344V64.504H272.124C272.304 64.072 272.46 63.616 272.592 63.172L271.704 62.956C271.56 63.472 271.38 63.988 271.176 64.504H267.804V65.344H270.792C270.048 66.892 268.968 68.308 267.564 69.256C267.732 69.436 268.008 69.76 268.128 69.952C268.86 69.436 269.508 68.8 270.072 68.116V69.868C270.072 71.008 269.964 72.328 268.968 73.288C269.16 73.42 269.484 73.792 269.592 73.984C270.3 73.324 270.66 72.424 270.816 71.548H275.964V72.796C275.964 72.976 275.892 73.036 275.688 73.048C275.472 73.048 274.752 73.06 273.948 73.024C274.08 73.276 274.212 73.636 274.248 73.9C275.268 73.9 275.94 73.888 276.336 73.744C276.72 73.6 276.84 73.336 276.84 72.796V66.736H271.032C271.296 66.292 271.536 65.812 271.764 65.344H278.244ZM279.576 67.84V68.812H290.472V67.84H279.576ZM300.264 70.996V71.68H295.572V70.996H300.264ZM295.572 72.928V72.232H300.264V72.928H295.572ZM294.708 73.912H295.572V73.528H300.264V73.888H301.152V70.396H294.708V73.912ZM295.488 67.78C295.824 68.176 296.172 68.728 296.34 69.076L296.904 68.752C296.748 68.404 296.388 67.876 296.04 67.504L295.488 67.78ZM299.268 69.076C299.544 68.752 299.88 68.272 300.156 67.792L299.58 67.492C299.388 67.864 299.028 68.452 298.764 68.8L299.268 69.076ZM300.72 65.212H293.556V64.228H300.72V65.212ZM296.748 66.736C296.628 66.484 296.4 66.172 296.196 65.932H299.58C299.46 66.172 299.244 66.472 299.04 66.736H296.748ZM300.732 69.292H298.248V67.3H300.732V69.292ZM294.984 67.3H297.408V69.292H294.984V67.3ZM301.62 63.508H292.668V66.988C292.668 68.896 292.572 71.524 291.432 73.396C291.66 73.48 292.044 73.696 292.212 73.852C293.388 71.908 293.556 68.992 293.556 66.988V65.932H296.016L295.464 66.136C295.62 66.316 295.764 66.52 295.896 66.736H294.156V69.856H301.596V66.736H299.916C300.06 66.544 300.216 66.34 300.372 66.136L299.724 65.932H301.62V63.508ZM312.264 70.996V71.68H307.572V70.996H312.264ZM307.572 72.928V72.232H312.264V72.928H307.572ZM306.708 73.912H307.572V73.528H312.264V73.888H313.152V70.396H306.708V73.912ZM307.488 67.78C307.824 68.176 308.172 68.728 308.34 69.076L308.904 68.752C308.748 68.404 308.388 67.876 308.04 67.504L307.488 67.78ZM311.268 69.076C311.544 68.752 311.88 68.272 312.156 67.792L311.58 67.492C311.388 67.864 311.028 68.452 310.764 68.8L311.268 69.076ZM312.72 65.212H305.556V64.228H312.72V65.212ZM308.748 66.736C308.628 66.484 308.4 66.172 308.196 65.932H311.58C311.46 66.172 311.244 66.472 311.04 66.736H308.748ZM312.732 69.292H310.248V67.3H312.732V69.292ZM306.984 67.3H309.408V69.292H306.984V67.3ZM313.62 63.508H304.668V66.988C304.668 68.896 304.572 71.524 303.432 73.396C303.66 73.48 304.044 73.696 304.212 73.852C305.388 71.908 305.556 68.992 305.556 66.988V65.932H308.016L307.464 66.136C307.62 66.316 307.764 66.52 307.896 66.736H306.156V69.856H313.596V66.736H311.916C312.06 66.544 312.216 66.34 312.372 66.136L311.724 65.932H313.62V63.508ZM320.58 63.136V72.676C320.58 72.916 320.484 73 320.232 73C320.004 73.012 319.14 73.024 318.264 72.988C318.408 73.24 318.576 73.66 318.636 73.912C319.752 73.924 320.496 73.9 320.928 73.756C321.348 73.6 321.528 73.336 321.528 72.676V63.136H320.58ZM323.448 66.16C324.468 67.876 325.428 70.108 325.716 71.524L326.652 71.128C326.352 69.688 325.344 67.516 324.288 65.836L323.448 66.16ZM317.448 65.92C317.16 67.528 316.5 69.592 315.432 70.852C315.672 70.948 316.056 71.164 316.272 71.32C317.352 69.988 318.048 67.84 318.432 66.1L317.448 65.92ZM336.24 71.776C335.58 71.14 334.248 70.168 333.216 69.472C333.384 69.04 333.492 68.608 333.588 68.152H332.676C332.376 69.568 331.716 71.032 329.52 71.764C329.724 71.92 329.964 72.22 330.06 72.436C331.464 71.908 332.316 71.128 332.856 70.216C333.852 70.936 335.004 71.848 335.592 72.436L336.24 71.776ZM337.812 64.72H333.48C333.576 64.18 333.636 63.616 333.684 63.004H332.748C332.712 63.616 332.652 64.192 332.556 64.72H328.188V73.912H329.064V65.596H332.352C331.956 66.808 331.176 67.732 329.568 68.32C329.76 68.476 330.012 68.776 330.12 68.992C331.464 68.476 332.292 67.732 332.808 66.796C333.876 67.444 335.088 68.296 335.736 68.848L336.336 68.152C335.616 67.564 334.236 66.688 333.144 66.064C333.192 65.908 333.24 65.764 333.288 65.596H336.936V72.772C336.936 72.976 336.876 73.048 336.66 73.06C336.432 73.06 335.7 73.072 334.92 73.036C335.04 73.276 335.16 73.684 335.196 73.936C336.192 73.936 336.9 73.924 337.308 73.768C337.692 73.624 337.812 73.336 337.812 72.772V64.72ZM348.24 71.776C347.58 71.14 346.248 70.168 345.216 69.472C345.384 69.04 345.492 68.608 345.588 68.152H344.676C344.376 69.568 343.716 71.032 341.52 71.764C341.724 71.92 341.964 72.22 342.06 72.436C343.464 71.908 344.316 71.128 344.856 70.216C345.852 70.936 347.004 71.848 347.592 72.436L348.24 71.776ZM349.812 64.72H345.48C345.576 64.18 345.636 63.616 345.684 63.004H344.748C344.712 63.616 344.652 64.192 344.556 64.72H340.188V73.912H341.064V65.596H344.352C343.956 66.808 343.176 67.732 341.568 68.32C341.76 68.476 342.012 68.776 342.12 68.992C343.464 68.476 344.292 67.732 344.808 66.796C345.876 67.444 347.088 68.296 347.736 68.848L348.336 68.152C347.616 67.564 346.236 66.688 345.144 66.064C345.192 65.908 345.24 65.764 345.288 65.596H348.936V72.772C348.936 72.976 348.876 73.048 348.66 73.06C348.432 73.06 347.7 73.072 346.92 73.036C347.04 73.276 347.16 73.684 347.196 73.936C348.192 73.936 348.9 73.924 349.308 73.768C349.692 73.624 349.812 73.336 349.812 72.772V64.72ZM352.86 64.936H355.428C355.164 65.992 354.432 66.46 352.128 66.7C352.284 66.856 352.476 67.192 352.548 67.384C355.152 67.06 356.004 66.364 356.304 64.936H357.564V65.956C357.564 66.712 357.756 67.06 358.62 67.06H360.6C360.948 67.06 361.368 67.048 361.548 66.988C361.512 66.772 361.488 66.532 361.464 66.292C361.272 66.34 360.804 66.352 360.552 66.352H358.776C358.488 66.352 358.44 66.256 358.44 65.956V64.936H361.152V66.064H362.052V64.168H357.72C357.612 63.796 357.42 63.28 357.252 62.896L356.352 63.112C356.496 63.424 356.64 63.832 356.724 64.168H351.984V66.076H352.86V64.936ZM358.524 68.308V69.868H354.072C354.216 69.376 354.36 68.812 354.48 68.308H358.524ZM362.1 69.868H359.4V68.308H361.728V67.588H352.608V68.308H353.58C353.412 69.088 353.184 70.024 352.992 70.648H357.3C355.836 71.584 353.616 72.328 351.636 72.688C351.816 72.856 352.056 73.192 352.176 73.42C354.396 72.952 356.952 71.932 358.452 70.648H358.524V72.856C358.524 73.024 358.476 73.06 358.272 73.072C358.092 73.096 357.432 73.096 356.712 73.072C356.844 73.312 356.976 73.648 357.024 73.888C357.948 73.9 358.548 73.888 358.92 73.744C359.28 73.612 359.4 73.384 359.4 72.868V70.648H362.1V69.868ZM369.072 72.46V67.708H373.536V66.82H369.072V63.148H368.136V72.46H363.66V73.348H374.352V72.46H369.072ZM386.376 68.872V67.984H381.456V65.716H385.488V64.84H381.456V62.956H380.532V64.84H376.608V65.716H380.532V67.984H375.672V68.872H379.452C378.684 70.228 377.688 71.512 377.352 71.86C377.004 72.28 376.728 72.568 376.476 72.628C376.596 72.856 376.728 73.312 376.776 73.504C377.244 73.324 377.904 73.276 384.396 72.76C384.636 73.144 384.828 73.492 384.984 73.804L385.836 73.336C385.284 72.292 384.12 70.708 383.04 69.532L382.26 69.892C382.8 70.516 383.376 71.26 383.88 71.98L377.952 72.4C378.852 71.416 379.764 70.168 380.568 68.872H386.376ZM244.2 98.804C245.016 98.12 245.388 96.944 245.616 95.828L244.824 95.612C244.644 96.656 244.224 97.712 243.48 98.348L244.2 98.804ZM246.54 96.02C246.744 96.788 246.9 97.76 246.912 98.408L247.704 98.276C247.68 97.628 247.524 96.656 247.308 95.9L246.54 96.02ZM248.604 95.948C248.916 96.632 249.216 97.544 249.3 98.096L250.044 97.88C249.948 97.328 249.636 96.44 249.288 95.792L248.604 95.948ZM245.892 93.14H248.688V94.316H245.892V93.14ZM248.688 89.336V90.512H245.892V89.336H248.688ZM248.688 92.408H245.892V91.232H248.688V92.408ZM249.564 94.316V93.14H252.996V92.408H249.564V91.232H252.996V90.512H249.564V89.336H253.404V88.544H245.028V95.108H253.212C253.08 97.016 252.924 97.772 252.708 98.012C252.612 98.108 252.492 98.132 252.276 98.132C252.072 98.132 251.508 98.132 250.92 98.06C251.052 98.288 251.136 98.648 251.16 98.876C251.772 98.924 252.372 98.924 252.684 98.9C253.02 98.876 253.248 98.792 253.452 98.564C253.788 98.192 253.968 97.208 254.124 94.7C254.148 94.58 254.16 94.316 254.16 94.316H249.564ZM252.228 97.112C252.048 96.68 251.604 95.996 251.172 95.504L250.524 95.768C250.932 96.272 251.364 96.98 251.544 97.424L252.228 97.112ZM261.072 97.46V92.708H265.536V91.82H261.072V88.148H260.136V97.46H255.66V98.348H266.352V97.46H261.072ZM278.388 92.42C278.316 91.964 278.052 91.22 277.788 90.668L277.224 90.8C277.332 91.028 277.44 91.292 277.524 91.544L276.084 91.712C276.768 91.04 277.464 90.188 278.1 89.3L277.464 89.024C277.272 89.336 277.044 89.672 276.804 89.96L275.82 90.008C276.252 89.516 276.696 88.856 277.044 88.184L276.384 87.944C276.048 88.712 275.46 89.504 275.292 89.708C275.124 89.9 274.968 90.032 274.812 90.068C274.884 90.236 274.992 90.56 275.028 90.716C275.16 90.656 275.388 90.608 276.348 90.524C276.012 90.932 275.712 91.256 275.568 91.388C275.292 91.652 275.064 91.844 274.848 91.88C274.932 92.048 275.028 92.372 275.064 92.516C275.244 92.42 275.556 92.348 277.692 92.06C277.752 92.252 277.788 92.444 277.812 92.588L278.388 92.42ZM278.352 94.34C278.268 93.884 278.088 93.164 277.884 92.612L277.356 92.756C277.524 93.308 277.716 94.028 277.788 94.496L278.352 94.34ZM277.032 94.46C277.02 94.016 276.924 93.308 276.78 92.78L276.228 92.876C276.36 93.416 276.444 94.124 276.444 94.58L277.032 94.46ZM275.16 92.768C275.088 93.344 274.992 93.968 274.824 94.46C274.968 94.532 275.244 94.688 275.364 94.772C275.52 94.292 275.676 93.548 275.772 92.924L275.16 92.768ZM274.836 88.988H273.492C273.384 88.676 273.18 88.232 272.964 87.932L272.292 88.148C272.448 88.412 272.592 88.712 272.7 88.988H271.128V89.54H274.836V88.988ZM274.572 91.148H271.38V91.7H274.572V91.148ZM272.028 92.84H273.9V93.908H272.028V92.84ZM274.512 94.448V92.3H271.44V94.448H274.512ZM274.584 90.08H271.38V90.608H274.584V90.08ZM271.164 92.432C271.08 92.012 270.828 91.292 270.564 90.74L270.024 90.884C270.132 91.1 270.24 91.364 270.324 91.616L268.896 91.784C269.604 91.112 270.336 90.248 270.972 89.336L270.324 89.048C270.144 89.36 269.904 89.684 269.676 89.972L268.716 90.02C269.124 89.516 269.556 88.856 269.916 88.184L269.244 87.944C268.92 88.724 268.332 89.528 268.164 89.732C267.996 89.924 267.84 90.056 267.672 90.092C267.756 90.26 267.864 90.596 267.9 90.74C268.032 90.692 268.26 90.644 269.196 90.572C268.848 90.98 268.548 91.304 268.404 91.436C268.128 91.712 267.888 91.904 267.684 91.928C267.756 92.108 267.864 92.444 267.9 92.576C268.08 92.492 268.392 92.432 270.48 92.12C270.528 92.3 270.576 92.468 270.6 92.6L271.164 92.432ZM271.032 94.208C270.972 93.812 270.792 93.188 270.624 92.72L270.096 92.864C270.252 93.344 270.408 93.968 270.468 94.376L271.032 94.208ZM269.796 94.496C269.772 94.052 269.664 93.356 269.532 92.816L268.98 92.936C269.088 93.476 269.196 94.172 269.196 94.628L269.796 94.496ZM267.96 92.828C267.888 93.464 267.792 94.136 267.6 94.64C267.744 94.712 267.996 94.88 268.116 94.952C268.308 94.424 268.464 93.644 268.56 92.948L267.96 92.828ZM275.352 95.876C274.776 96.404 274.02 96.812 273.132 97.16C272.136 96.8 271.284 96.38 270.648 95.876H275.352ZM278.04 95.876V95.18H271.212C271.344 95 271.488 94.82 271.608 94.628L270.828 94.388C270.18 95.384 268.92 96.188 267.672 96.692C267.828 96.836 268.104 97.196 268.2 97.352C268.824 97.076 269.46 96.716 270.036 96.26C270.612 96.74 271.32 97.148 272.1 97.484C270.708 97.88 269.1 98.108 267.504 98.24C267.648 98.432 267.84 98.792 267.924 98.996C269.736 98.78 271.584 98.468 273.156 97.916C274.656 98.432 276.36 98.768 278.052 98.948C278.148 98.72 278.352 98.408 278.508 98.216C277.032 98.084 275.52 97.856 274.2 97.484C275.088 97.064 275.868 96.536 276.444 95.876H278.04ZM290.352 93.836H285.432V89.648H289.68V88.772H280.296V89.648H284.52V93.836H279.672V94.712H284.52V98.912H285.432V94.712H290.352V93.836ZM281.136 90.476C281.592 91.352 282.048 92.516 282.216 93.224L283.056 92.936C282.9 92.228 282.408 91.1 281.916 90.236L281.136 90.476ZM287.496 93.26C287.964 92.54 288.54 91.4 288.972 90.44L288.036 90.176C287.736 91.04 287.184 92.264 286.74 93.008L287.496 93.26ZM301.164 92.3H297.864V91.136H301.164V92.3ZM301.164 94.112H297.864V92.936H301.164V94.112ZM301.164 95.96H297.864V94.772H301.164V95.96ZM297.048 90.44V96.656H302.004V90.44H299.688C299.796 90.092 299.928 89.696 300.036 89.312H302.328V88.532H296.664V89.312H299.076C299.028 89.672 298.944 90.08 298.848 90.44H297.048ZM292.128 93.2C292.128 95.144 292.044 96.896 291.372 98.348C291.552 98.468 291.828 98.732 291.972 98.876C292.776 97.28 292.86 95.36 292.86 93.2V88.388H292.128V93.2ZM293.76 97.208H294.42V89.24H293.76V97.208ZM295.38 98.504H296.112V88.352H295.38V98.504ZM298.32 96.908C297.864 97.4 296.94 98.012 296.148 98.348C296.328 98.504 296.58 98.768 296.7 98.936C297.504 98.576 298.464 97.94 299.064 97.352L298.32 96.908ZM299.988 97.376C300.684 97.82 301.536 98.48 301.956 98.924L302.64 98.432C302.196 97.988 301.332 97.352 300.648 96.932L299.988 97.376ZM304.56 95.348H305.316L305.46 90.26L305.496 89.012H304.38L304.416 90.26L304.56 95.348ZM304.932 98.156C305.376 98.156 305.724 97.82 305.724 97.328C305.724 96.836 305.376 96.476 304.932 96.476C304.5 96.476 304.14 96.836 304.14 97.328C304.14 97.82 304.5 98.156 304.932 98.156ZM313.007 93.452H317.939V94.208C316.259 94.34 314.519 94.472 313.007 94.58V93.452ZM317.939 89.924V91.04H313.007V89.924H317.939ZM313.007 91.724H317.939V92.768H313.007V91.724ZM319.979 91.964C319.643 92.456 319.259 92.924 318.839 93.356V89.132H315.539C315.743 88.82 315.947 88.448 316.127 88.1L315.071 87.932C314.951 88.268 314.747 88.736 314.543 89.132H312.119V94.64C311.555 94.688 311.051 94.724 310.595 94.748L310.691 95.564C312.335 95.432 314.579 95.252 316.859 95.048C314.975 96.38 312.671 97.364 310.187 98C310.367 98.204 310.655 98.6 310.787 98.804C313.427 98.048 315.898 96.92 317.939 95.348V97.628C317.939 97.88 317.855 97.952 317.603 97.976C317.339 97.976 316.427 97.988 315.491 97.952C315.635 98.204 315.779 98.624 315.815 98.888C317.039 98.888 317.819 98.864 318.263 98.708C318.695 98.564 318.839 98.264 318.839 97.64V94.604C319.583 93.932 320.243 93.188 320.819 92.384L319.979 91.964ZM327.155 93.92C326.855 93.572 325.655 92.168 325.211 91.688V91.376H326.843V90.524H325.211V87.956H324.323V90.524H322.331V91.376H324.191C323.747 93.032 322.835 94.892 321.923 95.888C322.091 96.104 322.319 96.476 322.415 96.728C323.123 95.912 323.807 94.544 324.323 93.14V98.9H325.211V92.768C325.703 93.416 326.327 94.256 326.591 94.688L327.155 93.92ZM333.023 90.536H331.787V87.98H330.875V90.536H327.299V91.388H330.563C329.675 93.272 328.103 95.276 326.603 96.296C326.819 96.476 327.083 96.788 327.239 97.016C328.559 96.02 329.927 94.328 330.875 92.6V97.712C330.875 97.928 330.791 97.988 330.575 98C330.347 98 329.579 98.012 328.799 97.988C328.931 98.24 329.075 98.648 329.123 98.9C330.131 98.9 330.839 98.876 331.235 98.72C331.631 98.588 331.787 98.312 331.787 97.7V91.388H333.023V90.536ZM342.767 94.796H337.559V93.968H342.767V94.796ZM337.559 97.76V96.872H342.767V97.76H337.559ZM342.767 96.248H337.559V95.408H342.767V96.248ZM344.819 92.432V91.688H338.531C338.675 91.4 338.807 91.1 338.927 90.812H344.123V90.092H339.179C339.275 89.792 339.371 89.504 339.455 89.204C341.171 89.108 342.803 88.952 344.003 88.7L343.439 88.052C341.543 88.436 337.919 88.628 335.015 88.652C335.099 88.844 335.183 89.132 335.195 89.336C336.227 89.336 337.355 89.312 338.471 89.252C338.399 89.54 338.315 89.816 338.219 90.092H335.183V90.812H337.955C337.847 91.1 337.703 91.4 337.559 91.688H334.307V92.432H337.139C336.395 93.68 335.363 94.796 334.019 95.576C334.187 95.732 334.451 96.056 334.571 96.26C335.387 95.768 336.095 95.168 336.707 94.496V98.948H337.559V98.48H342.767V98.948H343.643V93.26H337.667C337.847 92.996 338.003 92.708 338.159 92.432H344.819ZM355.523 89.324V92.072H352.787V89.324H355.523ZM355.655 96.968C356.711 96.968 356.963 96.464 357.095 94.832C356.843 94.784 356.495 94.64 356.291 94.484C356.219 95.852 356.135 96.152 355.619 96.152H353.495C352.895 96.152 352.787 96.044 352.787 95.528V92.864H356.387V88.532H351.923V95.528C351.923 96.668 352.283 96.968 353.423 96.968H355.655ZM349.475 94.988H351.191V94.196H349.475V92.42H351.299V91.616H349.283V90.104H351.011V89.312H349.283V87.98H348.431V89.312H346.487V90.104H348.431V91.616H346.187V92.42H348.646V96.92C348.167 96.512 347.819 95.924 347.555 95.084C347.591 94.556 347.615 93.992 347.627 93.416L346.787 93.356C346.751 95.492 346.619 97.388 345.923 98.588C346.127 98.684 346.511 98.912 346.667 99.02C347.027 98.348 347.243 97.532 347.387 96.572C348.263 98.204 349.691 98.612 352.223 98.612H356.795C356.855 98.348 357.023 97.94 357.167 97.724C356.435 97.76 352.787 97.76 352.211 97.748C351.071 97.748 350.183 97.664 349.475 97.4V94.988ZM366.203 90.776C365.939 92.108 365.363 93.272 364.499 94.016C364.715 94.112 365.075 94.364 365.243 94.496C365.651 94.112 365.999 93.632 366.299 93.08C367.007 93.668 367.763 94.34 368.171 94.796L368.807 94.184C368.327 93.692 367.403 92.924 366.647 92.336C366.815 91.892 366.959 91.424 367.055 90.92L366.203 90.776ZM360.551 90.776C360.203 92.324 359.459 93.608 358.367 94.424C358.571 94.556 358.919 94.844 359.075 95C359.663 94.508 360.179 93.872 360.587 93.116C361.019 93.536 361.463 93.98 361.703 94.28L362.315 93.668C362.015 93.32 361.463 92.792 360.959 92.348C361.139 91.904 361.307 91.436 361.427 90.932L360.551 90.776ZM363.983 90.5H368.747V89.624H363.983V87.968H363.071V89.624H358.475V90.5H363.071V93.428C361.967 95.168 359.987 96.824 358.055 97.616C358.259 97.796 358.547 98.144 358.679 98.36C360.275 97.616 361.883 96.32 363.071 94.796V98.912H363.983V94.76C365.147 96.32 366.779 97.664 368.435 98.396C368.579 98.156 368.867 97.796 369.095 97.604C367.055 96.836 365.051 95.144 363.983 93.344V90.5ZM380.951 92.42C380.879 91.964 380.615 91.22 380.351 90.668L379.787 90.8C379.895 91.028 380.003 91.292 380.087 91.544L378.647 91.712C379.331 91.04 380.027 90.188 380.663 89.3L380.027 89.024C379.835 89.336 379.607 89.672 379.367 89.96L378.383 90.008C378.815 89.516 379.259 88.856 379.607 88.184L378.947 87.944C378.611 88.712 378.023 89.504 377.855 89.708C377.687 89.9 377.531 90.032 377.375 90.068C377.447 90.236 377.555 90.56 377.591 90.716C377.723 90.656 377.951 90.608 378.911 90.524C378.575 90.932 378.275 91.256 378.131 91.388C377.855 91.652 377.627 91.844 377.411 91.88C377.495 92.048 377.591 92.372 377.627 92.516C377.807 92.42 378.119 92.348 380.255 92.06C380.315 92.252 380.351 92.444 380.375 92.588L380.951 92.42ZM380.915 94.34C380.831 93.884 380.651 93.164 380.447 92.612L379.919 92.756C380.087 93.308 380.279 94.028 380.351 94.496L380.915 94.34ZM379.595 94.46C379.583 94.016 379.487 93.308 379.343 92.78L378.791 92.876C378.923 93.416 379.007 94.124 379.007 94.58L379.595 94.46ZM377.723 92.768C377.651 93.344 377.555 93.968 377.387 94.46C377.531 94.532 377.807 94.688 377.927 94.772C378.083 94.292 378.239 93.548 378.335 92.924L377.723 92.768ZM377.399 88.988H376.055C375.947 88.676 375.743 88.232 375.527 87.932L374.855 88.148C375.011 88.412 375.155 88.712 375.263 88.988H373.691V89.54H377.399V88.988ZM377.135 91.148H373.943V91.7H377.135V91.148ZM374.591 92.84H376.463V93.908H374.591V92.84ZM377.075 94.448V92.3H374.003V94.448H377.075ZM377.147 90.08H373.943V90.608H377.147V90.08ZM373.727 92.432C373.643 92.012 373.391 91.292 373.127 90.74L372.587 90.884C372.695 91.1 372.803 91.364 372.887 91.616L371.459 91.784C372.167 91.112 372.899 90.248 373.535 89.336L372.887 89.048C372.707 89.36 372.467 89.684 372.239 89.972L371.279 90.02C371.687 89.516 372.119 88.856 372.479 88.184L371.807 87.944C371.483 88.724 370.895 89.528 370.727 89.732C370.559 89.924 370.403 90.056 370.235 90.092C370.319 90.26 370.427 90.596 370.463 90.74C370.595 90.692 370.823 90.644 371.759 90.572C371.411 90.98 371.111 91.304 370.967 91.436C370.691 91.712 370.451 91.904 370.247 91.928C370.319 92.108 370.427 92.444 370.463 92.576C370.643 92.492 370.955 92.432 373.043 92.12C373.09 92.3 373.139 92.468 373.163 92.6L373.727 92.432ZM373.595 94.208C373.535 93.812 373.355 93.188 373.187 92.72L372.659 92.864C372.815 93.344 372.971 93.968 373.031 94.376L373.595 94.208ZM372.359 94.496C372.335 94.052 372.227 93.356 372.095 92.816L371.543 92.936C371.651 93.476 371.759 94.172 371.759 94.628L372.359 94.496ZM370.523 92.828C370.451 93.464 370.354 94.136 370.163 94.64C370.307 94.712 370.559 94.88 370.679 94.952C370.871 94.424 371.027 93.644 371.123 92.948L370.523 92.828ZM377.915 95.876C377.339 96.404 376.583 96.812 375.695 97.16C374.699 96.8 373.847 96.38 373.211 95.876H377.915ZM380.603 95.876V95.18H373.775C373.907 95 374.051 94.82 374.171 94.628L373.391 94.388C372.743 95.384 371.483 96.188 370.235 96.692C370.391 96.836 370.667 97.196 370.763 97.352C371.387 97.076 372.023 96.716 372.599 96.26C373.175 96.74 373.883 97.148 374.663 97.484C373.271 97.88 371.663 98.108 370.067 98.24C370.211 98.432 370.403 98.792 370.487 98.996C372.299 98.78 374.147 98.468 375.719 97.916C377.219 98.432 378.923 98.768 380.615 98.948C380.711 98.72 380.915 98.408 381.071 98.216C379.595 98.084 378.083 97.856 376.763 97.484C377.651 97.064 378.431 96.536 379.007 95.876H380.603ZM246.468 120.312V117.936H249.156V120.312H246.468ZM254.4 120.312H250.056V117.936H253.572V117.096H250.056V115.272H253.848V114.408H246.696C246.888 114 247.08 113.568 247.248 113.148L246.348 112.932C245.784 114.54 244.776 116.088 243.648 117.072C243.876 117.192 244.248 117.492 244.416 117.636C245.064 117.012 245.7 116.196 246.24 115.272H249.156V117.096H245.58V120.312H243.612V121.176H249.156V123.924H250.056V121.176H254.4V120.312ZM266.352 113.544H260.424V114.324H266.352V113.544ZM263.328 114.72C263.076 115.296 262.584 116.196 262.128 116.928C262.728 117.768 263.28 118.704 263.532 119.328L264.24 119.028C264 118.476 263.472 117.624 262.956 116.916C263.328 116.292 263.772 115.536 264.084 114.912L263.328 114.72ZM266.304 119.04C266.028 118.5 265.476 117.624 264.936 116.928C265.332 116.304 265.8 115.548 266.112 114.912L265.368 114.72C265.092 115.296 264.576 116.208 264.096 116.94C264.732 117.78 265.32 118.716 265.596 119.352L266.304 119.04ZM262.26 119.064C262.02 118.5 261.528 117.648 261.048 116.928C261.408 116.304 261.84 115.536 262.14 114.912L261.372 114.72C261.144 115.296 260.664 116.208 260.22 116.94C260.784 117.78 261.288 118.716 261.528 119.352L262.26 119.064ZM256.548 118.308H257.58V119.4H256.548V118.308ZM256.548 116.604H257.58V117.672H256.548V116.604ZM259.272 117.672H258.216V116.604H259.272V117.672ZM259.272 119.4H258.216V118.308H259.272V119.4ZM260.22 121.836V121.044H258.288V120.072H259.968V115.932H258.276V115.044H260.124V114.264H258.276V112.968H257.52V114.264H255.66V115.044H257.52V115.932H255.888V120.072H257.52V121.044H255.504V121.836H257.52V123.924H258.288V121.836H260.22ZM263.724 122.844V120.504H266.124V119.736H260.652V120.504H262.848V122.844H259.98V123.612H266.496V122.844H263.724ZM276.984 113.832L276.768 113.892H268.2V114.768H275.916C275.016 115.62 273.732 116.556 272.58 117.12V122.748C272.58 122.964 272.508 123.024 272.256 123.036C271.98 123.048 271.056 123.06 270.06 123.024C270.204 123.264 270.372 123.66 270.42 123.912C271.632 123.912 272.424 123.9 272.88 123.756C273.348 123.624 273.504 123.36 273.504 122.748V117.564C274.992 116.76 276.624 115.512 277.68 114.348L276.984 113.832ZM283.212 118.452C283.212 119.46 284.04 120.276 285.036 120.276C286.044 120.276 286.86 119.46 286.86 118.452C286.86 117.444 286.044 116.628 285.036 116.628C284.04 116.628 283.212 117.444 283.212 118.452ZM283.824 118.452C283.824 117.78 284.376 117.24 285.036 117.24C285.708 117.24 286.248 117.78 286.248 118.452C286.248 119.124 285.708 119.664 285.036 119.664C284.376 119.664 283.824 119.124 283.824 118.452ZM296.04 118.884V117.924H297.876V118.884H296.04ZM296.04 116.352H297.876V117.288H296.04V116.352ZM300.66 116.352V117.288H298.74V116.352H300.66ZM300.66 118.884H298.74V117.924H300.66V118.884ZM297.876 122.592H298.74V121.164H302.316V120.408H298.74V119.544H301.524V115.692H298.74V114.78H302.148V114.024H298.74V112.968H297.876V114.024H294.648V114.78H297.876V115.692H295.224V119.544H297.876V120.408H294.648V121.164H297.876V122.592ZM293.652 114.96C293.496 114.432 293.22 113.652 293.016 113.028L292.224 113.256C292.428 113.88 292.692 114.708 292.836 115.236L293.652 114.96ZM294.048 118.524L293.892 118.56H293.076C293.388 117.732 293.76 116.724 294.06 115.86H291.6V116.664H292.932C292.608 117.612 292.236 118.632 291.912 119.34H293.472C293.28 120.204 292.98 121.152 292.608 121.836C292.248 122.076 291.84 122.568 291.408 123.168L292.02 123.972C292.38 123.216 292.776 122.46 293.052 122.46C293.316 122.46 293.76 122.868 294.252 123.156C295.128 123.684 296.184 123.816 297.756 123.816C299.184 123.816 301.452 123.744 302.34 123.684C302.364 123.42 302.496 123 302.616 122.76C301.272 122.892 299.328 123.012 297.792 123.012C296.364 123.012 295.284 122.928 294.432 122.412C293.988 122.148 293.712 121.92 293.472 121.788C293.88 120.912 294.24 119.748 294.456 118.692L294.048 118.524ZM304.992 116.16C305.388 116.592 305.868 117.192 306.096 117.564L306.54 117.24V118.608C305.94 118.992 305.364 119.34 304.932 119.58C304.98 118.884 304.992 118.212 304.992 117.636V116.16ZM306.54 114.216V117.024C306.276 116.664 305.856 116.16 305.472 115.788L304.992 116.1V114.216H306.54ZM314.1 114.516H309.396C309.564 114.072 309.732 113.616 309.864 113.136L308.988 112.956C308.64 114.24 308.064 115.488 307.284 116.352V113.4H304.236V117.636C304.236 119.364 304.176 121.728 303.42 123.42C303.588 123.492 303.912 123.78 304.032 123.948C304.608 122.724 304.836 121.104 304.932 119.64L305.268 120.324C305.676 120.012 306.108 119.688 306.54 119.352V122.844C306.54 123.012 306.48 123.072 306.324 123.072C306.192 123.072 305.712 123.084 305.184 123.06C305.28 123.276 305.388 123.624 305.412 123.84C306.18 123.84 306.624 123.828 306.912 123.684C307.188 123.552 307.284 123.312 307.284 122.856V116.784C307.476 116.916 307.656 117.084 307.764 117.192C307.824 117.132 307.872 117.072 307.932 117V122.124H312.456V116.928H311.76V121.404H308.628V117H307.932C308.316 116.532 308.7 115.968 309.012 115.332H313.284C313.284 120.684 313.236 122.58 312.984 122.928C312.876 123.084 312.78 123.132 312.564 123.12C312.324 123.12 311.676 123.12 310.98 123.072C311.136 123.3 311.232 123.648 311.244 123.888C311.844 123.912 312.504 123.936 312.9 123.888C313.284 123.852 313.524 123.744 313.74 123.408C314.1 122.868 314.1 121.008 314.1 114.972V114.516ZM311.58 120.612C311.352 120.036 310.98 119.304 310.548 118.524C310.872 117.84 311.148 117.12 311.388 116.424L310.752 116.244C310.584 116.772 310.392 117.312 310.164 117.84C309.864 117.324 309.54 116.796 309.252 116.328L308.712 116.592C309.084 117.192 309.48 117.876 309.852 118.548C309.48 119.316 309.084 120.036 308.664 120.6C308.832 120.684 309.108 120.876 309.228 120.984C309.552 120.492 309.9 119.892 310.224 119.244C310.536 119.868 310.824 120.444 311.004 120.912L311.58 120.612ZM321.624 114.372H319.416C319.272 113.964 319.032 113.376 318.78 112.908L318 113.136C318.168 113.508 318.36 113.976 318.492 114.372H316.008V115.188H321.624V114.372ZM318.3 117.324C318.18 116.76 317.856 115.92 317.508 115.296L316.74 115.488C317.064 116.136 317.376 116.988 317.484 117.54L318.3 117.324ZM320.46 120.3V122.472H317.196V120.3H320.46ZM316.344 123.84H317.196V123.264H320.46V123.744H321.336V119.496H316.344V123.84ZM320.208 115.26C320.016 115.932 319.656 116.916 319.332 117.588H315.66V118.404H321.9V117.588H320.196C320.496 116.964 320.832 116.148 321.096 115.452L320.208 115.26ZM325.728 113.556L325.584 113.604H322.512V123.9H323.316V114.42H325.224C324.9 115.344 324.432 116.616 323.988 117.624C325.056 118.716 325.356 119.58 325.356 120.336C325.368 120.744 325.284 121.116 325.044 121.272C324.912 121.344 324.744 121.38 324.564 121.392C324.324 121.404 323.988 121.404 323.64 121.368C323.784 121.62 323.868 121.98 323.88 122.22C324.216 122.232 324.6 122.232 324.9 122.196C325.176 122.172 325.44 122.088 325.644 121.944C326.028 121.692 326.184 121.104 326.184 120.42C326.184 119.58 325.92 118.656 324.852 117.528C325.356 116.424 325.908 115.056 326.34 113.964L325.728 113.556ZM330.78 116.58V115.14H332.184C331.872 115.644 331.512 116.124 331.14 116.58H330.78ZM332.328 120.432H329.64V119.268H332.328V120.432ZM329.64 122.412V121.152H332.328V122.412H329.64ZM333.108 113.388C332.856 113.952 332.592 114.492 332.268 115.008V114.348H330.78V113.064H329.94V114.348H328.104V115.14H329.94V116.58H327.564V117.372H330.408C329.508 118.272 328.464 119.016 327.3 119.592C327.468 119.772 327.756 120.144 327.864 120.324C328.188 120.144 328.512 119.952 328.812 119.748V123.864H329.64V123.156H332.328V123.696H333.18V118.536H330.384C330.792 118.176 331.164 117.78 331.524 117.372H333.72V116.58H332.172C332.844 115.692 333.444 114.708 333.912 113.616L333.108 113.388ZM337.884 113.604L337.74 113.64H334.224V123.924H335.1V114.492H337.332C336.948 115.452 336.384 116.724 335.868 117.744C337.128 118.788 337.5 119.688 337.5 120.444C337.512 120.876 337.416 121.236 337.152 121.38C336.996 121.464 336.792 121.512 336.588 121.524C336.324 121.548 335.964 121.536 335.568 121.5C335.724 121.752 335.82 122.124 335.832 122.376C336.204 122.4 336.624 122.4 336.948 122.364C337.248 122.328 337.536 122.244 337.752 122.088C338.196 121.812 338.376 121.26 338.364 120.528C338.364 119.676 338.04 118.74 336.78 117.624C337.356 116.52 338.016 115.152 338.52 114.024L337.884 113.604ZM339.576 117.84V118.812H350.472V117.84H339.576ZM360.96 114.324V117.072H358.224V114.324H360.96ZM361.092 121.968C362.148 121.968 362.4 121.464 362.532 119.832C362.28 119.784 361.932 119.64 361.728 119.484C361.656 120.852 361.572 121.152 361.056 121.152H358.932C358.332 121.152 358.224 121.044 358.224 120.528V117.864H361.824V113.532H357.36V120.528C357.36 121.668 357.72 121.968 358.86 121.968H361.092ZM354.912 119.988H356.628V119.196H354.912V117.42H356.736V116.616H354.72V115.104H356.448V114.312H354.72V112.98H353.868V114.312H351.924V115.104H353.868V116.616H351.624V117.42H354.084V121.92C353.604 121.512 353.256 120.924 352.992 120.084C353.028 119.556 353.052 118.992 353.064 118.416L352.224 118.356C352.188 120.492 352.056 122.388 351.36 123.588C351.564 123.684 351.948 123.912 352.104 124.02C352.464 123.348 352.68 122.532 352.824 121.572C353.7 123.204 355.128 123.612 357.66 123.612H362.232C362.292 123.348 362.46 122.94 362.604 122.724C361.872 122.76 358.224 122.76 357.648 122.748C356.508 122.748 355.62 122.664 354.912 122.4V119.988ZM366.792 114.276V116.364H364.992V114.276H366.792ZM364.992 119.496V117.156H366.792V119.496H364.992ZM364.992 120.3H367.62V113.472H364.152V120.912H364.992V120.3ZM364.404 123.972C364.956 123.3 365.556 122.268 365.964 121.38L365.124 121.14C364.716 122.016 364.092 122.988 363.552 123.588L364.404 123.972ZM367.092 121.488C367.248 122.268 367.344 123.276 367.344 123.876L368.22 123.744C368.208 123.156 368.076 122.172 367.92 121.404L367.092 121.488ZM373.152 114.252C373.068 115.38 372.972 115.848 372.828 116.004C372.756 116.088 372.636 116.112 372.456 116.112C372.276 116.112 371.784 116.1 371.256 116.052C371.388 116.268 371.472 116.568 371.496 116.784C372.036 116.82 372.564 116.82 372.84 116.796C373.152 116.784 373.356 116.712 373.536 116.52C373.8 116.244 373.908 115.536 374.016 113.808C374.028 113.688 374.04 113.46 374.04 113.46H368.148V114.252H370.14C369.9 115.368 369.336 116.124 367.776 116.544C367.944 116.7 368.172 117.024 368.256 117.216C370.092 116.664 370.74 115.704 371.016 114.252H373.152ZM372.828 119.94H369.336V118.116H372.828V119.94ZM373.704 117.384H368.496V120.684H373.704V117.384ZM369.648 121.452C369.96 122.208 370.26 123.24 370.38 123.852L371.256 123.636C371.136 123.024 370.8 122.04 370.476 121.284L369.648 121.452ZM372.084 121.38C372.648 122.172 373.308 123.276 373.584 123.936L374.436 123.564C374.124 122.88 373.452 121.824 372.876 121.044L372.084 121.38ZM385.152 117.216H382.548V116.112H385.152V117.216ZM385.152 119.016H382.548V117.888H385.152V119.016ZM385.152 120.816H382.548V119.688H385.152V120.816ZM381.792 115.404V121.524H385.932V115.404H384.048C384.132 115.068 384.216 114.672 384.3 114.3H386.352V113.532H381.456V114.3H383.388C383.352 114.648 383.304 115.056 383.244 115.404H381.792ZM379.224 120H377.988V119.34H379.224V120ZM379.224 121.236H377.988V120.564H379.224V121.236ZM379.224 122.484H377.988V121.812H379.224V122.484ZM380.28 115.788V116.844H376.848V115.788H380.28ZM381.312 123.132V122.484H379.86V121.812H381.132V121.236H379.86V120.564H381.108V120H379.86V119.34H381.24V118.728H379.956C379.848 118.416 379.632 118.008 379.44 117.696L378.84 117.876C378.984 118.14 379.128 118.452 379.236 118.728H378.144C378.276 118.44 378.384 118.14 378.48 117.828L377.808 117.66C377.592 118.416 377.232 119.172 376.8 119.784C376.836 119.112 376.848 118.476 376.848 117.912V117.552H381.084V115.08H376.848V114.504C378.276 114.372 379.86 114.132 380.952 113.808L380.292 113.196C379.344 113.508 377.568 113.76 376.092 113.904H376.08V117.912C376.08 119.556 376.044 121.86 375.432 123.48C375.624 123.552 375.96 123.732 376.104 123.852C376.464 122.892 376.656 121.68 376.752 120.516C376.836 120.6 376.908 120.696 376.944 120.756C377.076 120.612 377.184 120.456 377.304 120.276V123.78H377.988V123.132H381.312ZM382.848 121.872C382.476 122.376 381.732 123.012 381.048 123.384C381.24 123.516 381.516 123.768 381.636 123.936C382.308 123.54 383.1 122.88 383.604 122.28L382.848 121.872ZM384.312 122.28C384.864 122.748 385.524 123.408 385.836 123.84L386.508 123.384C386.184 122.94 385.512 122.316 384.972 121.884L384.312 122.28ZM247.392 144.988H249.78V144.196H247.392V142.9H246.54V144.196H244.2V144.988H246.54V147.004C245.496 147.184 244.524 147.364 243.792 147.484L243.984 148.324C245.556 148.012 247.824 147.58 249.948 147.172L249.888 146.392C249.06 146.548 248.208 146.704 247.392 146.86V144.988ZM243.888 139.54H245.784C245.4 140.392 244.92 141.136 244.74 141.376C244.536 141.664 244.356 141.868 244.164 141.904C244.272 142.132 244.416 142.552 244.464 142.744C244.752 142.612 245.184 142.564 248.916 142.204C249.096 142.48 249.24 142.744 249.336 142.948L250.02 142.504C249.672 141.82 248.88 140.74 248.208 139.936L247.572 140.32C247.86 140.68 248.172 141.088 248.46 141.508L245.4 141.772C245.88 141.136 246.372 140.332 246.78 139.54H250.02V138.748H243.888V139.54ZM251.52 139H250.68V146.212H251.52V139ZM253.032 138.16V147.532C253.032 147.736 252.984 147.784 252.78 147.796C252.576 147.808 251.916 147.808 251.22 147.784C251.352 148.024 251.508 148.432 251.544 148.66C252.408 148.66 253.044 148.636 253.416 148.492C253.776 148.36 253.908 148.084 253.908 147.52V138.16H253.032ZM264.984 138.832L264.768 138.892H256.2V139.768H263.916C263.016 140.62 261.732 141.556 260.58 142.12V147.748C260.58 147.964 260.508 148.024 260.256 148.036C259.98 148.048 259.056 148.06 258.06 148.024C258.204 148.264 258.372 148.66 258.42 148.912C259.632 148.912 260.424 148.9 260.88 148.756C261.348 148.624 261.504 148.36 261.504 147.748V142.564C262.992 141.76 264.624 140.512 265.68 139.348L264.984 138.832ZM268.56 145.348H269.316L269.46 140.26L269.496 139.012H268.38L268.416 140.26L268.56 145.348ZM268.932 148.156C269.376 148.156 269.724 147.82 269.724 147.328C269.724 146.836 269.376 146.476 268.932 146.476C268.5 146.476 268.14 146.836 268.14 147.328C268.14 147.82 268.5 148.156 268.932 148.156ZM243.552 195.012H253.176V194.244H243.552V195.012ZM266.978 189.66C266.702 190.428 266.174 191.496 265.766 192.168L266.402 192.48C266.834 191.832 267.35 190.848 267.794 190.008L266.978 189.66ZM262.634 192.192C262.454 191.532 261.986 190.524 261.542 189.756L260.882 190.02C261.314 190.8 261.746 191.844 261.938 192.516L262.634 192.192ZM260.822 193.548C260.618 193.212 259.694 191.916 259.358 191.484V191.1H260.522V190.26H259.358V187.956H258.506V190.26H256.982V191.1H258.446C258.146 192.708 257.474 194.616 256.802 195.624C256.946 195.84 257.162 196.236 257.258 196.5C257.714 195.768 258.17 194.616 258.506 193.404V198.912H259.358V192.564C259.706 193.152 260.102 193.836 260.27 194.22L260.822 193.548ZM262.79 192.888C262.79 193.128 262.79 193.392 262.778 193.656C261.938 194.268 261.086 194.88 260.522 195.252L260.954 196.056C261.506 195.612 262.118 195.096 262.718 194.58C262.55 196.02 262.01 197.472 260.282 198.3C260.474 198.456 260.738 198.78 260.846 198.96C263.342 197.58 263.606 195.036 263.606 192.888V187.968H262.79V192.888ZM265.934 197.94C265.646 197.94 265.598 197.856 265.598 197.412V194.004C266.282 194.628 267.038 195.432 267.434 195.948L267.998 195.384C267.566 194.832 266.654 193.968 265.934 193.344L265.598 193.656V187.968H264.758V197.4C264.758 198.468 264.998 198.744 265.814 198.744H266.978C267.722 198.744 267.938 198.252 268.022 196.824C267.77 196.764 267.458 196.62 267.254 196.476C267.23 197.628 267.182 197.94 266.93 197.94H265.934ZM277.91 191.508H274.778V190.764H277.274V190.212H274.778V189.54H273.962V190.212H271.55V190.764H273.962V191.508H270.866V192.084H277.91V191.508ZM272.39 193.008H276.398V193.836H272.39V193.008ZM273.002 196.512V195.096C273.494 194.856 273.962 194.604 274.322 194.316H277.202V192.528H271.634V194.316H273.314C272.57 194.724 271.514 195.072 270.578 195.288C270.722 195.42 270.938 195.696 271.034 195.816C271.442 195.708 271.874 195.564 272.306 195.396V196.284C272.306 196.716 272.018 196.86 271.838 196.92C271.934 197.052 272.054 197.316 272.09 197.484C272.27 197.364 272.582 197.28 274.802 196.668C274.778 196.524 274.766 196.26 274.778 196.092L273.002 196.512ZM277.298 194.58C276.986 194.82 276.47 195.132 276.014 195.396C275.558 195.084 275.078 194.808 274.646 194.568L274.094 194.904C275.222 195.552 276.638 196.524 277.334 197.148L277.922 196.74C277.574 196.452 277.07 196.092 276.53 195.72C276.986 195.504 277.466 195.228 277.874 194.94L277.298 194.58ZM270.278 197.604V189.3H278.51V197.604H270.278ZM269.426 188.484V198.924H270.278V198.42H278.51V198.924H279.386V188.484H269.426ZM287.746 198.156C288.934 198.156 289.906 197.724 290.47 197.136V193.44H287.59V194.364H289.45V196.668C289.102 196.992 288.49 197.184 287.854 197.184C285.97 197.184 284.926 195.792 284.926 193.572C284.926 191.376 286.078 190.008 287.842 190.008C288.742 190.008 289.306 190.38 289.75 190.848L290.35 190.128C289.846 189.588 289.042 189.036 287.818 189.036C285.49 189.036 283.786 190.764 283.786 193.608C283.786 196.464 285.43 198.156 287.746 198.156ZM292.467 198H293.559V191.484H292.467V198ZM293.019 190.14C293.451 190.14 293.775 189.84 293.775 189.432C293.775 188.988 293.451 188.724 293.019 188.724C292.587 188.724 292.263 188.988 292.263 189.432C292.263 189.84 292.587 190.14 293.019 190.14ZM295.772 198H296.864V193.272C297.524 192.612 297.98 192.276 298.652 192.276C299.516 192.276 299.888 192.792 299.888 194.016V198H300.98V193.872C300.98 192.204 300.356 191.316 298.988 191.316C298.1 191.316 297.428 191.808 296.804 192.42H296.768L296.672 191.484H295.772V198ZM304.608 198.156C305.412 198.156 306.144 197.736 306.768 197.22H306.804L306.9 198H307.8V193.992C307.8 192.384 307.128 191.316 305.544 191.316C304.5 191.316 303.576 191.784 302.976 192.168L303.408 192.924C303.924 192.576 304.608 192.228 305.364 192.228C306.432 192.228 306.708 193.032 306.708 193.872C303.936 194.184 302.7 194.892 302.7 196.308C302.7 197.484 303.516 198.156 304.608 198.156ZM304.92 197.28C304.272 197.28 303.768 196.98 303.768 196.236C303.768 195.396 304.512 194.856 306.708 194.592V196.416C306.072 196.98 305.556 197.28 304.92 197.28Z" fill="#3E3E3E"/>
<path d="M229.436 42.684C228.14 43.908 227.474 45.69 227.438 48.03L229.814 48.354V53.052H224.846V50.838C224.846 49.074 224.918 47.616 225.062 46.464C225.242 45.132 225.764 43.872 226.628 42.684C227.096 42.072 227.636 41.55 228.248 41.118L229.436 42.684ZM236.834 42.684C235.502 43.8 234.818 45.582 234.782 48.03L237.374 48.354V53.052H232.352V50.838C232.352 49.758 232.388 48.894 232.46 48.246C232.46 47.85 232.478 47.472 232.514 47.112C232.55 46.608 232.604 46.212 232.676 45.924C232.676 45.852 232.712 45.708 232.784 45.492C232.856 45.24 232.91 45.024 232.946 44.844C232.982 44.448 233.108 44.088 233.324 43.764C233.54 43.404 233.72 43.098 233.864 42.846C234.188 42.306 234.764 41.73 235.592 41.118L236.834 42.684Z" fill="#3E3E3E"/>
<path d="M381.564 203.316C382.86 202.092 383.526 200.31 383.562 197.97L381.186 197.646V192.948H386.154V195.162C386.154 196.926 386.082 198.384 385.938 199.536C385.758 200.868 385.236 202.128 384.372 203.316C383.904 203.928 383.364 204.45 382.752 204.882L381.564 203.316ZM374.166 203.316C375.498 202.2 376.182 200.418 376.218 197.97L373.626 197.646V192.948H378.648V195.162C378.648 196.242 378.612 197.106 378.54 197.754C378.54 198.15 378.522 198.528 378.486 198.888C378.45 199.392 378.396 199.788 378.324 200.076C378.324 200.148 378.288 200.292 378.216 200.508C378.144 200.76 378.09 200.976 378.054 201.156C378.018 201.552 377.892 201.912 377.676 202.236C377.46 202.596 377.28 202.902 377.136 203.154C376.812 203.694 376.236 204.27 375.408 204.882L374.166 203.316Z" fill="#3E3E3E"/>
</svg>
