<svg width="1280" height="690" viewBox="0 0 1280 690" fill="none" xmlns="http://www.w3.org/2000/svg">
<path d="M205.114 274.125C204.001 274.419 202.846 274.734 201.754 275.028V266.502H204.799V265.011H197.155V266.502H200.221V275.448C198.94 275.763 197.785 276.057 196.861 276.267L197.26 277.863C199.465 277.254 202.468 276.414 205.303 275.574L205.114 274.125ZM210.007 267.3C210.049 265.872 210.07 264.402 210.07 262.89H208.516C208.516 264.423 208.495 265.893 208.453 267.3H204.946V268.812H208.39C208.075 273.894 206.92 278.136 202.468 280.509C202.846 280.782 203.371 281.349 203.581 281.748C208.369 279.06 209.587 274.377 209.923 268.812H214.123C213.808 276.246 213.472 279.06 212.884 279.732C212.653 279.984 212.401 280.047 212.002 280.047C211.54 280.047 210.343 280.047 209.062 279.921C209.335 280.362 209.524 281.013 209.545 281.454C210.721 281.538 211.96 281.559 212.632 281.496C213.367 281.412 213.787 281.244 214.249 280.677C215.047 279.711 215.32 276.708 215.656 268.098C215.677 267.888 215.677 267.3 215.677 267.3H210.007ZM234.85 271.584C235.606 271.584 236.362 271.542 236.719 271.458C236.656 271.101 236.593 270.513 236.551 270.093C236.152 270.198 235.312 270.219 234.808 270.219H230.944C230.272 270.219 230.104 269.967 230.104 269.211V266.838H235.753V265.452H230.104V262.554H228.571V269.169C228.571 270.933 229.075 271.584 230.923 271.584H234.85ZM220.99 273.285C222.124 273.978 223.573 274.944 224.308 275.553L225.148 274.692C224.392 274.104 222.922 273.159 221.809 272.508L220.99 273.285ZM220.822 271.311H225.169V275.553C223.489 276.393 221.83 277.233 220.654 277.758C220.78 276.834 220.822 275.91 220.822 275.112V271.311ZM226.66 269.967H219.373V275.091C219.373 276.876 219.247 279.081 218.05 280.677C218.365 280.887 218.911 281.433 219.121 281.769C220.003 280.677 220.423 279.228 220.633 277.842L221.179 279.102C222.355 278.43 223.783 277.611 225.169 276.792V280.026C225.169 280.299 225.106 280.383 224.812 280.383C224.539 280.383 223.678 280.404 222.67 280.362C222.88 280.74 223.09 281.265 223.174 281.664C224.476 281.664 225.4 281.643 225.925 281.412C226.492 281.181 226.66 280.824 226.66 280.026V269.967ZM224.056 264.549C224.497 265.2 224.938 265.914 225.358 266.628L221.053 266.922C222.082 265.83 223.09 264.423 223.972 263.058L222.418 262.533C221.536 264.234 220.15 265.935 219.751 266.376C219.331 266.817 218.974 267.132 218.638 267.195C218.827 267.573 219.058 268.35 219.142 268.665C219.625 268.434 220.36 268.35 226.051 267.888C226.324 268.413 226.555 268.896 226.723 269.316L228.067 268.707C227.542 267.468 226.345 265.494 225.316 264.066L224.056 264.549ZM231.28 280.152C230.293 280.152 230.104 280.026 230.104 279.333V276.183H235.984V274.776H230.104V272.277H228.571V279.333C228.571 281.055 229.096 281.538 231.133 281.538H234.85C236.593 281.538 237.055 280.824 237.244 278.094C236.824 277.989 236.215 277.758 235.858 277.506C235.753 279.753 235.606 280.152 234.724 280.152H231.28ZM257.803 265.032H251.377L252.448 264.612C252.133 264.024 251.44 263.058 250.873 262.386L249.382 262.89C249.907 263.541 250.495 264.423 250.831 265.032H244.594V266.292H257.803V265.032ZM246.253 271.689H256.018V270.492H246.253V271.689ZM256.018 267.72H246.253V268.917H256.018V267.72ZM247.513 274.419H254.59V277.023H247.513V274.419ZM246.022 278.22H256.123V273.222H246.022V278.22ZM243.187 265.914C242.788 265.053 242.053 263.667 241.486 262.575L240.163 263.079C240.688 264.171 241.423 265.641 241.822 266.544L243.187 265.914ZM243.502 272.277L243.271 272.34H241.822C242.473 270.891 243.25 269.127 243.838 267.615H239.05V269.022H241.759C241.108 270.681 240.331 272.466 239.701 273.705H242.725C242.284 275.322 241.507 277.065 240.52 278.22L240.562 278.241C239.974 278.682 239.344 279.459 238.714 280.341L239.764 281.769C240.373 280.467 241.129 279.186 241.591 279.186C242.074 279.186 242.83 279.858 243.67 280.362C245.224 281.265 247.072 281.496 249.823 281.496C252.301 281.496 256.291 281.37 257.845 281.265C257.866 280.803 258.118 280.026 258.307 279.606C255.976 279.858 252.532 280.047 249.886 280.047C247.408 280.047 245.497 279.9 244.006 279.039C243.25 278.598 242.767 278.22 242.368 278.01C243.313 276.519 244.048 274.566 244.447 272.697L243.502 272.277ZM277.249 272.403C276.997 272.403 276.976 272.298 276.976 271.899V269.463H275.989V271.878C275.989 272.781 276.136 273.159 277.018 273.159H277.942C278.236 273.159 278.572 273.159 278.719 273.096C278.698 272.844 278.677 272.571 278.677 272.319C278.488 272.382 278.11 272.403 277.9 272.403H277.249ZM275.065 273.474V268.707H278.32V267.468H275.065V266.271H273.826V267.468H271.096V268.707H273.826V273.474H275.065ZM272.776 269.505H271.789V270.366C271.789 271.164 271.642 272.235 270.781 272.886C271.033 273.012 271.453 273.348 271.621 273.558C272.608 272.697 272.776 271.479 272.776 270.408V269.505ZM278.656 265.578V264.192H271.201C271.054 263.667 270.802 262.995 270.571 262.47L269.038 262.764C269.185 263.205 269.353 263.73 269.479 264.192H261.478V270.114C261.478 273.264 261.352 277.737 259.861 280.929C260.176 281.097 260.827 281.559 261.079 281.853C262.717 278.472 262.969 273.453 262.969 270.114V265.578H278.656ZM267.82 273.579V268.707H270.508V267.468H267.82V266.271H266.581V267.468H263.935V268.707H266.581V273.579H267.82ZM270.088 272.907C270.319 272.907 270.592 272.907 270.76 272.844L270.697 272.109C270.508 272.151 270.193 272.172 270.067 272.172H269.878C269.689 272.172 269.668 272.088 269.668 271.71V269.589H268.681V271.689C268.681 272.55 268.849 272.907 269.626 272.907H270.088ZM265.426 269.505H264.418V270.45C264.418 271.332 264.292 272.487 263.326 273.201C263.578 273.348 263.977 273.663 264.166 273.894C265.258 272.928 265.426 271.647 265.426 270.492V269.505ZM273.847 277.191C274.309 277.779 274.834 278.43 275.317 279.081L267.295 279.669C269.878 278.451 272.503 276.897 275.107 275.049L273.889 274.23C272.965 274.944 271.957 275.658 270.97 276.288L267.043 276.456C268.324 275.763 269.626 274.839 270.865 273.789L269.752 273.117C268.387 274.398 266.539 275.595 265.972 275.889C265.468 276.204 265.006 276.414 264.67 276.456C264.796 276.813 264.985 277.443 265.027 277.716C265.384 277.611 265.888 277.527 269.227 277.338C267.862 278.157 266.686 278.766 266.119 279.018C265.069 279.543 264.271 279.879 263.704 279.921C263.851 280.299 264.019 280.992 264.082 281.286C264.733 281.055 265.741 281.013 276.157 280.215C276.535 280.761 276.871 281.244 277.123 281.643L278.32 280.95C277.564 279.858 276.136 277.968 275.002 276.624L273.847 277.191ZM294.259 265.767C293.23 267.069 291.76 268.224 290.101 269.169C289.366 268.371 288.19 267.447 287.098 266.712C287.539 266.397 287.959 266.103 288.337 265.767H294.259ZM295.645 264.297L295.372 264.36H289.933C290.437 263.856 290.899 263.373 291.298 262.869L289.597 262.512C288.253 264.234 285.754 266.271 282.415 267.678C282.751 267.93 283.234 268.413 283.465 268.77C284.326 268.35 285.166 267.93 285.922 267.468C286.951 268.203 288.043 269.127 288.736 269.862C286.51 270.933 284.053 271.689 281.722 272.109C281.995 272.445 282.331 273.096 282.457 273.516C287.896 272.382 294.007 269.568 296.653 264.927L295.645 264.297ZM297.43 273.138C296.359 274.818 294.805 276.162 292.915 277.212C292.138 276.414 290.92 275.364 289.807 274.566C290.5 274.104 291.172 273.642 291.76 273.138H297.43ZM298.711 271.626L298.396 271.71H293.335C293.86 271.206 294.301 270.681 294.721 270.156L292.999 269.778C291.466 271.836 288.484 274.167 284.242 275.7C284.599 275.952 285.04 276.519 285.229 276.855C286.426 276.393 287.518 275.868 288.526 275.322C289.597 276.141 290.731 277.128 291.466 277.926C288.568 279.207 285.145 279.921 281.659 280.257C281.932 280.635 282.184 281.328 282.289 281.769C289.681 280.887 296.842 278.451 299.761 272.277L298.711 271.626ZM309.778 276.162C311.983 275.385 313.411 273.663 313.411 271.395C313.411 269.925 312.781 268.98 311.626 268.98C310.765 268.98 310.03 269.505 310.03 270.492C310.03 271.479 310.744 271.983 311.605 271.983C311.731 271.983 311.836 271.983 311.962 271.962C311.857 273.39 310.933 274.377 309.316 275.049L309.778 276.162ZM339.304 266.145H337.12V264.192H339.304V266.145ZM335.881 266.145H333.718V264.192H335.881V266.145ZM332.458 266.145H330.379V264.192H332.458V266.145ZM340.711 263.184H329.035V267.153H340.711V263.184ZM341.824 268.14H327.901V269.316H341.824V268.14ZM338.548 273.033H331.156V271.269H338.548V273.033ZM334.999 275.301C336.826 276.435 339.241 278.052 340.459 278.997L341.236 278.01C340.585 277.506 339.535 276.813 338.464 276.141C339.304 275.721 340.228 275.196 340.963 274.629L339.997 274.02H340.081V270.282H329.686V274.02H333.424C331.87 274.965 329.749 275.763 327.943 276.183C328.216 276.456 328.573 276.918 328.783 277.275C329.644 277.023 330.568 276.666 331.492 276.267V277.359C331.492 278.115 331.051 278.367 330.736 278.493C330.946 278.745 331.156 279.291 331.219 279.627C331.576 279.375 332.164 279.186 336.175 278.136C336.133 277.863 336.07 277.38 336.07 277.044L332.836 277.821V275.595C333.718 275.133 334.558 274.587 335.209 274.02H339.808C339.22 274.482 338.296 275.07 337.498 275.532C336.889 275.154 336.28 274.776 335.755 274.461L334.999 275.301ZM326.641 266.04C326.368 265.137 325.885 263.751 325.528 262.659L324.142 263.079C324.499 264.171 324.961 265.599 325.213 266.502L326.641 266.04ZM327.334 272.277L327.082 272.34H325.633C326.242 270.891 326.914 269.127 327.481 267.615H323.05V269.022H325.465C324.877 270.681 324.184 272.466 323.575 273.705H326.347C326.011 275.175 325.507 276.813 324.94 277.989C324.268 278.388 323.491 279.312 322.714 280.404L323.785 281.811C324.415 280.488 325.108 279.165 325.57 279.165C326.053 279.165 326.83 279.879 327.67 280.383C329.224 281.307 331.051 281.538 333.823 281.538C336.301 281.538 340.27 281.412 341.845 281.307C341.887 280.845 342.118 280.11 342.307 279.69C339.976 279.921 336.574 280.131 333.886 280.131C331.387 280.131 329.497 279.984 328.006 279.081C327.25 278.64 326.767 278.241 326.368 278.01C327.082 276.456 327.67 274.398 328.069 272.55L327.334 272.277ZM360.85 271.584C361.606 271.584 362.362 271.542 362.719 271.458C362.656 271.101 362.593 270.513 362.551 270.093C362.152 270.198 361.312 270.219 360.808 270.219H356.944C356.272 270.219 356.104 269.967 356.104 269.211V266.838H361.753V265.452H356.104V262.554H354.571V269.169C354.571 270.933 355.075 271.584 356.923 271.584H360.85ZM346.99 273.285C348.124 273.978 349.573 274.944 350.308 275.553L351.148 274.692C350.392 274.104 348.922 273.159 347.809 272.508L346.99 273.285ZM346.822 271.311H351.169V275.553C349.489 276.393 347.83 277.233 346.654 277.758C346.78 276.834 346.822 275.91 346.822 275.112V271.311ZM352.66 269.967H345.373V275.091C345.373 276.876 345.247 279.081 344.05 280.677C344.365 280.887 344.911 281.433 345.121 281.769C346.003 280.677 346.423 279.228 346.633 277.842L347.179 279.102C348.355 278.43 349.783 277.611 351.169 276.792V280.026C351.169 280.299 351.106 280.383 350.812 280.383C350.539 280.383 349.678 280.404 348.67 280.362C348.88 280.74 349.09 281.265 349.174 281.664C350.476 281.664 351.4 281.643 351.925 281.412C352.492 281.181 352.66 280.824 352.66 280.026V269.967ZM350.056 264.549C350.497 265.2 350.938 265.914 351.358 266.628L347.053 266.922C348.082 265.83 349.09 264.423 349.972 263.058L348.418 262.533C347.536 264.234 346.15 265.935 345.751 266.376C345.331 266.817 344.974 267.132 344.638 267.195C344.827 267.573 345.058 268.35 345.142 268.665C345.625 268.434 346.36 268.35 352.051 267.888C352.324 268.413 352.555 268.896 352.723 269.316L354.067 268.707C353.542 267.468 352.345 265.494 351.316 264.066L350.056 264.549ZM357.28 280.152C356.293 280.152 356.104 280.026 356.104 279.333V276.183H361.984V274.776H356.104V272.277H354.571V279.333C354.571 281.055 355.096 281.538 357.133 281.538H360.85C362.593 281.538 363.055 280.824 363.244 278.094C362.824 277.989 362.215 277.758 361.858 277.506C361.753 279.753 361.606 280.152 360.724 280.152H357.28ZM370.636 264.843V268.497H367.486V264.843H370.636ZM367.486 273.978V269.883H370.636V273.978H367.486ZM367.486 275.385H372.085V263.436H366.016V276.456H367.486V275.385ZM366.457 281.811C367.423 280.635 368.473 278.829 369.187 277.275L367.717 276.855C367.003 278.388 365.911 280.089 364.966 281.139L366.457 281.811ZM371.161 277.464C371.434 278.829 371.602 280.593 371.602 281.643L373.135 281.412C373.114 280.383 372.883 278.661 372.61 277.317L371.161 277.464ZM381.766 264.801C381.619 266.775 381.451 267.594 381.199 267.867C381.073 268.014 380.863 268.056 380.548 268.056C380.233 268.056 379.372 268.035 378.448 267.951C378.679 268.329 378.826 268.854 378.868 269.232C379.813 269.295 380.737 269.295 381.22 269.253C381.766 269.232 382.123 269.106 382.438 268.77C382.9 268.287 383.089 267.048 383.278 264.024C383.299 263.814 383.32 263.415 383.32 263.415H373.009V264.801H376.495C376.075 266.754 375.088 268.077 372.358 268.812C372.652 269.085 373.051 269.652 373.198 269.988C376.411 269.022 377.545 267.342 378.028 264.801H381.766ZM381.199 274.755H375.088V271.563H381.199V274.755ZM382.732 270.282H373.618V276.057H382.732V270.282ZM375.634 277.401C376.18 278.724 376.705 280.53 376.915 281.601L378.448 281.223C378.238 280.152 377.65 278.43 377.083 277.107L375.634 277.401ZM379.897 277.275C380.884 278.661 382.039 280.593 382.522 281.748L384.013 281.097C383.467 279.9 382.291 278.052 381.283 276.687L379.897 277.275ZM402.766 269.988H398.209V268.056H402.766V269.988ZM402.766 273.138H398.209V271.164H402.766V273.138ZM402.766 276.288H398.209V274.314H402.766V276.288ZM396.886 266.817V277.527H404.131V266.817H400.834C400.981 266.229 401.128 265.536 401.275 264.885H404.866V263.541H396.298V264.885H399.679C399.616 265.494 399.532 266.208 399.427 266.817H396.886ZM392.392 274.86H390.229V273.705H392.392V274.86ZM392.392 277.023H390.229V275.847H392.392V277.023ZM392.392 279.207H390.229V278.031H392.392V279.207ZM394.24 267.489V269.337H388.234V267.489H394.24ZM396.046 280.341V279.207H393.505V278.031H395.731V277.023H393.505V275.847H395.689V274.86H393.505V273.705H395.92V272.634H393.673C393.484 272.088 393.106 271.374 392.77 270.828L391.72 271.143C391.972 271.605 392.224 272.151 392.413 272.634H390.502C390.733 272.13 390.922 271.605 391.09 271.059L389.914 270.765C389.536 272.088 388.906 273.411 388.15 274.482C388.213 273.306 388.234 272.193 388.234 271.206V270.576H395.647V266.25H388.234V265.242C390.733 265.011 393.505 264.591 395.416 264.024L394.261 262.953C392.602 263.499 389.494 263.94 386.911 264.192H386.89V271.206C386.89 274.083 386.827 278.115 385.756 280.95C386.092 281.076 386.68 281.391 386.932 281.601C387.562 279.921 387.898 277.8 388.066 275.763C388.213 275.91 388.339 276.078 388.402 276.183C388.633 275.931 388.822 275.658 389.032 275.343V281.475H390.229V280.341H396.046ZM398.734 278.136C398.083 279.018 396.781 280.131 395.584 280.782C395.92 281.013 396.403 281.454 396.613 281.748C397.789 281.055 399.175 279.9 400.057 278.85L398.734 278.136ZM401.296 278.85C402.262 279.669 403.417 280.824 403.963 281.58L405.139 280.782C404.572 280.005 403.396 278.913 402.451 278.157L401.296 278.85ZM413.686 274.839H417.865V273.453H413.686V271.185H412.195V273.453H408.1V274.839H412.195V278.367C410.368 278.682 408.667 278.997 407.386 279.207L407.722 280.677C410.473 280.131 414.442 279.375 418.159 278.661L418.054 277.296C416.605 277.569 415.114 277.842 413.686 278.115V274.839ZM407.554 265.305H410.872C410.2 266.796 409.36 268.098 409.045 268.518C408.688 269.022 408.373 269.379 408.037 269.442C408.226 269.841 408.478 270.576 408.562 270.912C409.066 270.681 409.822 270.597 416.353 269.967C416.668 270.45 416.92 270.912 417.088 271.269L418.285 270.492C417.676 269.295 416.29 267.405 415.114 265.998L414.001 266.67C414.505 267.3 415.051 268.014 415.555 268.749L410.2 269.211C411.04 268.098 411.901 266.691 412.615 265.305H418.285V263.919H407.554V265.305ZM420.91 264.36H419.44V276.981H420.91V264.36ZM423.556 262.89V279.291C423.556 279.648 423.472 279.732 423.115 279.753C422.758 279.774 421.603 279.774 420.385 279.732C420.616 280.152 420.889 280.866 420.952 281.265C422.464 281.265 423.577 281.223 424.228 280.971C424.858 280.74 425.089 280.257 425.089 279.27V262.89H423.556ZM437.605 277.443C440.503 278.598 444.262 280.488 446.11 281.79L446.845 280.446C444.934 279.186 441.154 277.38 438.277 276.288L437.605 277.443ZM438.235 271.689V269.925H444.955V268.56H438.235V266.859H445.963V265.452H441.49C442.036 264.717 442.666 263.814 443.17 262.953L441.574 262.47C441.133 263.352 440.398 264.591 439.768 265.452H434.245L435.001 265.116C434.665 264.36 433.93 263.268 433.153 262.47L431.809 263.016C432.439 263.751 433.09 264.717 433.426 265.452H428.995V266.859H436.681V268.56H430.15V269.925H436.681V271.689H428.26V273.075H436.492C436.429 273.642 436.345 274.188 436.219 274.692H428.722V276.057H435.778C434.833 278.22 432.775 279.564 427.924 280.257C428.218 280.614 428.617 281.265 428.743 281.664C434.245 280.719 436.492 278.934 437.479 276.057H446.53V274.692H437.857C437.962 274.188 438.046 273.642 438.109 273.075H446.866V271.689H438.235ZM452.662 281.013C452.977 279.837 453.355 278.01 453.607 276.834L452.557 276.456C452.326 277.611 451.864 279.438 451.507 280.572L452.662 281.013ZM456.4 280.383C455.707 280.383 455.581 280.299 455.581 279.816V276.309H454.279V279.816C454.279 281.16 454.699 281.517 456.253 281.517H459.004C460.306 281.517 460.684 280.95 460.81 278.472C460.453 278.388 459.949 278.199 459.676 277.968C459.613 280.089 459.487 280.383 458.857 280.383H456.4ZM458.836 277.821C458.437 277.065 457.618 275.784 456.967 274.839L455.938 275.322C456.568 276.288 457.345 277.611 457.744 278.409L458.836 277.821ZM460.18 276.54C460.894 277.821 461.755 279.606 462.175 280.656L463.33 280.131C462.91 279.102 462.007 277.401 461.272 276.12L460.18 276.54ZM458.584 273.264H454.468V270.765H458.584V273.264ZM465.619 266.985C465.115 268.35 464.443 269.631 463.603 270.765C463.435 269.274 463.309 267.657 463.246 265.956H467.845V264.654H465.871L466.711 263.919C466.144 263.499 465.052 262.869 464.233 262.449L463.33 263.163C464.107 263.604 465.094 264.234 465.682 264.654H463.204C463.183 263.961 463.183 263.247 463.183 262.533H461.65C461.671 263.247 461.671 263.961 461.713 264.654H450.73V269.085C450.73 272.424 450.562 277.359 448.819 280.908C449.155 281.055 449.785 281.475 450.058 281.748C451.885 278.031 452.179 272.613 452.179 269.085V268.455H460.831V267.321H452.179V265.956H461.755C461.86 268.203 462.049 270.324 462.301 272.319C461.545 273.054 460.747 273.726 459.865 274.272V269.61H453.145V274.419H459.613L459.466 274.503C459.802 274.755 460.348 275.301 460.579 275.574C461.272 275.112 461.923 274.608 462.532 274.041C463.288 278.556 464.485 281.643 466.186 281.643C467.509 281.643 467.971 280.656 468.202 277.443C467.824 277.296 467.341 276.96 467.026 276.624C466.921 279.039 466.711 280.131 466.375 280.131C465.472 280.131 464.485 277.17 463.834 272.718C465.178 271.206 466.27 269.358 467.026 267.321L465.619 266.985ZM208.243 311.759H211.729V315.119C211.729 316.694 212.023 317.282 213.388 317.282H214.753C215.152 317.282 215.572 317.261 215.782 317.177C215.761 316.82 215.698 316.232 215.677 315.833C215.425 315.896 215.026 315.938 214.753 315.938H213.514C213.22 315.938 213.178 315.749 213.178 315.161V310.289H206.794V312.599C206.794 314.09 206.437 315.812 204.19 317.093C204.463 317.324 204.988 317.912 205.198 318.227C207.697 316.757 208.243 314.531 208.243 312.641V311.759ZM202.153 312.158C201.817 311.402 201.145 310.31 200.536 309.449L199.318 310.058C199.906 310.94 200.578 312.116 200.893 312.872L202.153 312.158ZM204.988 313.103H197.05V314.384H204.988V313.103ZM197.953 319.823H204.148V318.584H197.953V319.823ZM197.953 315.854V317.093H204.127V315.854H197.953ZM212.968 320.222C212.275 321.818 211.246 323.141 210.007 324.233C208.747 323.12 207.739 321.776 207.046 320.222H212.968ZM202.741 326.144H199.297V322.679H202.741V326.144ZM213.976 318.689L213.703 318.752H204.757V320.222H206.584L205.681 320.537C206.437 322.322 207.508 323.897 208.81 325.178C207.403 326.144 205.786 326.858 204.127 327.299V321.377H197.932V328.433H199.297V327.446H204.085C204.358 327.803 204.652 328.349 204.799 328.748C206.689 328.181 208.453 327.341 210.007 326.186C211.498 327.32 213.241 328.16 215.215 328.685C215.425 328.244 215.866 327.614 216.181 327.278C214.312 326.858 212.653 326.144 211.225 325.178C212.884 323.645 214.186 321.671 214.963 319.13L213.976 318.689ZM223.699 312.158C223.384 311.423 222.712 310.331 222.082 309.47L220.906 310.079C221.473 310.94 222.145 312.116 222.439 312.872L223.699 312.158ZM227.038 313.103H218.407V314.384H227.038V313.103ZM226.093 318.584H219.331V319.823H226.093V318.584ZM224.77 322.679V326.144H220.864V322.679H224.77ZM226.156 321.377H219.499V328.433H220.864V327.446H226.156V321.377ZM219.331 317.093H226.156V315.854H219.331V317.093ZM236.992 316.778H232.687V309.932H231.112V316.778H226.996V318.311H231.112V328.727H232.687V318.311H236.992V316.778ZM246.778 323.162C248.983 322.385 250.411 320.663 250.411 318.395C250.411 316.925 249.781 315.98 248.626 315.98C247.765 315.98 247.03 316.505 247.03 317.492C247.03 318.479 247.744 318.983 248.605 318.983C248.731 318.983 248.836 318.983 248.962 318.962C248.857 320.39 247.933 321.377 246.316 322.049L246.778 323.162ZM271.222 312.032C270.97 311.78 270.613 311.486 270.235 311.192C270.655 310.814 271.033 310.373 271.348 309.932L270.361 309.68C270.13 310.016 269.815 310.352 269.437 310.667C269.059 310.394 268.618 310.163 268.24 309.953L267.547 310.562C267.925 310.772 268.324 310.982 268.702 311.255C268.198 311.612 267.652 311.927 267.106 312.2C267.358 312.347 267.715 312.725 267.862 312.893C268.408 312.62 268.975 312.242 269.5 311.822C269.899 312.116 270.277 312.431 270.508 312.704L271.222 312.032ZM262.087 317.24H276.892V319.13H278.341V316.148H276.325C276.451 314.531 276.577 312.2 276.64 310.352H272.188V311.402H275.212L275.191 312.326H272.461V313.292H275.128L275.086 314.237H272.335V315.203H275.002C274.96 315.539 274.939 315.854 274.918 316.148H268.03C268.576 315.812 269.164 315.455 269.689 315.014C270.151 315.371 270.529 315.728 270.823 316.043L271.537 315.371C271.264 315.056 270.865 314.72 270.424 314.384C270.844 313.964 271.264 313.523 271.558 313.061L270.592 312.809C270.34 313.166 270.004 313.523 269.626 313.838C269.206 313.586 268.765 313.313 268.366 313.082L267.673 313.691C268.072 313.901 268.513 314.153 268.891 314.447C268.324 314.867 267.652 315.266 267.022 315.602C267.211 315.707 267.484 315.959 267.652 316.148H264.145L264.103 315.203H266.77V314.237H264.061L263.998 313.292H266.644V312.326H263.956L263.914 311.528C264.922 311.192 266.098 310.772 267.001 310.247L266.14 309.554C265.216 310.016 263.599 310.73 262.444 311.108L262.465 311.129L262.759 316.148H260.68V319.13H262.087V317.24ZM265.111 323.057H273.826V324.128H265.111V323.057ZM265.111 321.104H273.826V322.154H265.111V321.104ZM265.111 319.193H273.826V320.201H265.111V319.193ZM273.427 327.215C272.461 327.215 272.293 327.131 272.293 326.669V325.073H275.359V318.248H263.62V325.073H266.098C265.447 326.522 263.872 327.194 259.903 327.53C260.155 327.824 260.47 328.37 260.575 328.727C265.09 328.202 266.917 327.194 267.673 325.073H270.76V326.69C270.76 328.097 271.285 328.454 273.28 328.454H276.85C278.425 328.454 278.887 327.887 279.034 325.598C278.635 325.535 278.047 325.325 277.732 325.094C277.627 326.963 277.501 327.215 276.682 327.215H273.427ZM297.031 313.061H290.122V311.381H297.031V313.061ZM297.031 315.896H290.122V314.195H297.031V315.896ZM298.585 310.205H288.61V317.093H298.585V310.205ZM285.313 309.617C284.389 311.087 282.52 312.83 280.861 313.901C281.134 314.216 281.512 314.804 281.68 315.161C283.528 313.922 285.565 311.969 286.804 310.184L285.313 309.617ZM285.691 314.195C284.452 316.358 282.415 318.479 280.525 319.865C280.798 320.243 281.218 321.041 281.344 321.356C282.163 320.726 283.003 319.949 283.801 319.088V328.706H285.334V317.324C285.964 316.484 286.573 315.602 287.056 314.741L285.691 314.195ZM288.652 324.044C289.597 324.968 290.731 326.249 291.235 327.089L292.432 326.249C291.886 325.43 290.731 324.191 289.765 323.33L288.652 324.044ZM299.95 321.629H296.821V319.844H299.572V318.5H287.329V319.844H295.267V321.629H286.846V322.973H295.267V326.963C295.267 327.236 295.183 327.32 294.847 327.341C294.553 327.362 293.503 327.362 292.327 327.32C292.537 327.74 292.768 328.307 292.831 328.748C294.406 328.748 295.393 328.727 296.023 328.496C296.632 328.244 296.821 327.845 296.821 327.005V322.973H299.95V321.629ZM313.613 327.383C315.608 327.383 317.12 326.585 318.338 325.178L317.267 323.96C316.28 325.031 315.167 325.682 313.697 325.682C310.757 325.682 308.909 323.246 308.909 319.361C308.909 315.518 310.841 313.124 313.76 313.124C315.083 313.124 316.112 313.733 316.91 314.594L317.96 313.334C317.078 312.347 315.608 311.423 313.739 311.423C309.833 311.423 306.914 314.447 306.914 319.424C306.914 324.422 309.791 327.383 313.613 327.383ZM321.188 327.11H323.141V320.999H325.682C329.042 320.999 331.352 319.487 331.352 316.232C331.352 312.872 329.042 311.717 325.577 311.717H321.188V327.11ZM323.141 319.424V313.292H325.346C328.055 313.292 329.42 314.006 329.42 316.232C329.42 318.437 328.139 319.424 325.43 319.424H323.141ZM342.639 309.575C341.547 312.746 339.741 315.854 337.809 317.891C338.061 318.269 338.523 319.067 338.67 319.424C339.279 318.731 339.888 317.975 340.455 317.135V328.706H341.904V314.804C342.744 313.292 343.479 311.654 344.046 310.016L342.639 309.575ZM346.503 325.031H353.79V326.753H346.503V325.031ZM353.79 316.232V317.996H346.503V316.232H353.79ZM353.79 320.936H346.503V319.151H353.79V320.936ZM346.503 322.07H353.79V323.876H346.503V322.07ZM355.239 326.753V315.014H350.115C350.283 314.447 350.43 313.754 350.598 313.061H356.478V311.696H350.871C351.018 311.003 351.144 310.289 351.27 309.659L349.611 309.554C349.548 310.184 349.443 310.94 349.338 311.696H343.983V313.061H349.107C348.96 313.754 348.834 314.447 348.708 315.014H345.096V326.753H343.101V328.097H357.108V326.753H355.239ZM363.408 309.617C362.505 311.108 360.657 312.83 359.019 313.901C359.292 314.195 359.67 314.825 359.859 315.161C361.686 313.943 363.681 311.99 364.899 310.163L363.408 309.617ZM363.786 314.195C362.589 316.358 360.594 318.521 358.725 319.907C358.998 320.264 359.418 321.083 359.565 321.419C360.363 320.789 361.161 320.033 361.917 319.172V328.727H363.429V317.387C364.08 316.526 364.689 315.644 365.172 314.762L363.786 314.195ZM367.986 315.665H374.769V318.269H367.986V315.665ZM374.769 311.843V314.363H367.986V311.843H374.769ZM376.344 320.306C375.483 321.125 374.034 322.175 372.9 322.91C372.291 321.923 371.787 320.831 371.409 319.634H376.281V310.457H366.474V325.976C366.474 326.837 366.012 327.278 365.697 327.446C365.949 327.74 366.285 328.37 366.411 328.727C366.81 328.454 367.44 328.244 371.766 327.068C371.703 326.732 371.682 326.102 371.682 325.64L367.986 326.543V319.634H370.044C371.262 323.897 373.467 327.089 377.163 328.58C377.394 328.16 377.856 327.551 378.213 327.236C376.323 326.564 374.811 325.451 373.635 323.981C374.811 323.267 376.281 322.301 377.394 321.398L376.344 320.306ZM392.43 323.33V325.283H386.445V323.33H392.43ZM393.837 322.154H384.996V327.488H386.445V326.459H393.837V322.154ZM397.995 319.592H381.132V328.706H382.644V320.915H396.441V327.068C396.441 327.32 396.357 327.383 396.084 327.404C395.832 327.404 394.866 327.425 393.963 327.383C394.152 327.698 394.383 328.181 394.467 328.538C395.79 328.559 396.693 328.538 397.239 328.349C397.806 328.139 397.995 327.824 397.995 327.068V319.592ZM394.131 317.303H385.08V315.413H394.131V317.303ZM383.547 314.258V318.458H395.727V314.258H383.547ZM390.666 311.738C390.435 311.066 390.12 310.184 389.826 309.47L388.314 309.827C388.524 310.415 388.776 311.129 388.965 311.738H380.376V313.082H398.667V311.738H390.666ZM408.831 323.162C411.036 322.385 412.464 320.663 412.464 318.395C412.464 316.925 411.834 315.98 410.679 315.98C409.818 315.98 409.083 316.505 409.083 317.492C409.083 318.479 409.797 318.983 410.658 318.983C410.784 318.983 410.889 318.983 411.015 318.962C410.91 320.39 409.986 321.377 408.369 322.049L408.831 323.162ZM431.343 314.447H426.261V313.04H431.343V314.447ZM431.343 316.946H426.261V315.56H431.343V316.946ZM431.343 319.508H426.261V318.059H431.343V319.508ZM424.728 321.398H426.261V320.768H440.289V319.508H432.855V318.059H438.819V316.946H432.855V315.56H438.756V314.447H432.855V313.04H439.596V311.78H433.422C433.17 311.108 432.666 310.184 432.204 309.449L430.776 309.89C431.112 310.457 431.469 311.171 431.721 311.78H427.059C427.521 311.129 427.899 310.436 428.256 309.806L426.66 309.512C425.757 311.339 424.077 313.691 421.788 315.434C422.145 315.644 422.649 316.106 422.901 316.442C423.552 315.896 424.182 315.329 424.728 314.741V321.398ZM428.088 324.695C426.744 325.64 424.14 326.459 421.998 326.858C422.313 327.152 422.754 327.677 422.964 328.055C425.106 327.551 427.815 326.438 429.285 325.283L428.088 324.695ZM433.506 325.556C435.585 326.249 438.399 327.278 439.806 327.908L440.667 326.753C439.197 326.123 436.404 325.178 434.367 324.569L433.506 325.556ZM432.267 322.385V320.957H430.734V322.385H422.25V323.666H430.734V328.706H432.267V323.666H440.877V322.385H432.267ZM453.309 320.369V314.804H459.336V320.369H453.309ZM445.686 320.369V314.804H451.692V320.369H445.686ZM453.309 313.271V309.533H451.692V313.271H444.153V323.204H445.686V321.902H451.692V328.706H453.309V321.902H459.336V323.099H460.932V313.271H453.309ZM212.674 360.838C212.506 366.655 212.275 368.776 211.876 369.28C211.687 369.532 211.498 369.574 211.183 369.553C210.826 369.574 209.986 369.553 209.083 369.469C209.293 369.889 209.461 370.519 209.482 370.96C210.469 371.023 211.372 371.023 211.918 370.96C212.485 370.897 212.884 370.729 213.241 370.246C213.829 369.49 214.039 367.054 214.27 360.082V359.347H202.678C203.14 358.57 203.581 357.751 203.959 356.89L202.384 356.428C201.166 359.284 199.108 361.993 196.798 363.694C197.197 363.946 197.806 364.534 198.1 364.828C199.381 363.778 200.62 362.413 201.733 360.838H212.674ZM207.151 364.408V367.789H201.691V364.408H207.151ZM204.316 373.795C202.09 373.795 201.691 373.501 201.691 372.367V369.196H208.684V363.001H200.158V372.367C200.158 374.698 201.124 375.265 204.4 375.265H212.317C215.152 375.265 215.782 374.488 216.097 371.737C215.656 371.653 214.984 371.422 214.606 371.17C214.375 373.333 214.081 373.795 212.296 373.795H204.316ZM234.136 361.825H230.608V360.523H234.136V361.825ZM225.673 361.825V360.523H229.138V361.825H225.673ZM220.906 360.523H224.245V361.825H220.906V360.523ZM225.673 358.465H229.138V359.473H225.673V358.465ZM235.627 359.473H230.608V358.465H236.593V357.331H218.491V358.465H224.245V359.473H219.478V362.854H235.627V359.473ZM227.395 371.905H232.813C232.12 372.451 231.238 372.913 230.23 373.291C229.138 372.913 228.13 372.472 227.269 371.989L227.395 371.905ZM226.849 368.356H233.674V369.217H226.849V368.356ZM226.849 366.676H233.674V367.537H226.849V366.676ZM234.199 370.855L233.947 370.918H228.718C229.033 370.645 229.306 370.372 229.558 370.078H235.039V365.815H226.177C226.345 365.563 226.513 365.332 226.681 365.08H236.215V363.988H227.353C227.479 363.736 227.605 363.463 227.731 363.232L226.387 362.854C225.715 364.345 224.602 365.731 223.363 366.76C223.51 366.55 223.657 366.361 223.783 366.172L222.439 365.71C221.515 367.306 219.625 369.154 217.861 370.288C218.113 370.519 218.533 371.002 218.722 371.296C219.352 370.855 220.024 370.351 220.633 369.784V375.706H222.019V368.44C222.439 367.978 222.796 367.537 223.153 367.075C223.468 367.306 223.972 367.726 224.182 367.957C224.623 367.558 225.085 367.096 225.526 366.571V370.078H227.941C227.458 370.498 226.87 370.918 226.198 371.317C225.82 371.023 225.463 370.708 225.169 370.393L224.119 370.813C224.434 371.191 224.791 371.506 225.169 371.842C224.644 372.115 224.077 372.367 223.468 372.577C223.741 372.766 224.161 373.186 224.329 373.417C224.98 373.186 225.61 372.892 226.198 372.598C226.933 373.039 227.689 373.459 228.529 373.816C226.828 374.257 224.896 374.509 223.006 374.656C223.237 374.95 223.468 375.412 223.594 375.748C225.904 375.517 228.214 375.139 230.209 374.446C231.994 375.055 233.968 375.454 235.963 375.706C236.131 375.349 236.446 374.866 236.698 374.572C235.06 374.425 233.401 374.152 231.91 373.774C233.191 373.144 234.304 372.367 235.06 371.359L234.199 370.855ZM221.914 363.043C221.137 364.282 219.457 365.647 217.987 366.508C218.26 366.739 218.68 367.222 218.932 367.516C220.486 366.529 222.25 364.975 223.3 363.484L221.914 363.043ZM254.002 359.578C252.868 363.379 250.978 366.361 248.563 368.671C246.19 366.235 244.468 363.148 243.313 359.578H254.002ZM254.905 357.961L254.653 358.045H240.121V359.578H241.717C243.019 363.61 244.825 367.054 247.366 369.763C244.888 371.758 241.99 373.165 238.861 374.089C239.218 374.404 239.68 375.118 239.848 375.517C242.998 374.488 245.938 372.997 248.479 370.855C250.81 372.976 253.666 374.53 257.215 375.496C257.446 375.076 257.887 374.425 258.244 374.089C254.821 373.249 251.986 371.737 249.676 369.742C252.553 366.97 254.737 363.253 255.955 358.444L254.905 357.961ZM266.014 362.518C265.972 364.555 265.699 366.991 264.544 369.385C263.746 368.692 262.906 368.041 262.108 367.432C262.465 366.067 262.864 364.387 263.2 362.686L266.014 362.518ZM268.702 362.35L268.723 360.922L267.505 360.985V359.536H266.035V361.069L263.473 361.216C263.746 359.662 263.998 358.087 264.166 356.68L262.633 356.596C262.486 358.024 262.255 359.683 261.961 361.279C261.184 361.3 260.47 361.342 259.861 361.363L260.029 362.854L261.688 362.77C261.268 364.723 260.827 366.592 260.407 367.957C261.478 368.776 262.675 369.742 263.788 370.729C262.906 372.115 261.667 373.48 259.945 374.698C260.26 374.929 260.806 375.433 261.037 375.769C262.738 374.53 264.019 373.165 264.943 371.758C265.909 372.661 266.77 373.522 267.358 374.236L268.366 372.934C267.736 372.199 266.791 371.317 265.741 370.393C267.127 367.621 267.442 364.786 267.505 362.434L268.702 362.35ZM279.076 365.395H274.456V363.379C275.926 362.098 277.417 360.334 278.446 358.78L277.375 358.003L277.018 358.087H268.954V359.536H275.947C275.086 360.754 273.952 362.119 272.881 363.001V365.395H268.03V366.886H272.881V373.858C272.881 374.152 272.755 374.257 272.419 374.257C272.104 374.278 270.949 374.278 269.71 374.236C269.941 374.677 270.193 375.286 270.277 375.727C271.915 375.748 272.923 375.706 273.574 375.475C274.225 375.223 274.456 374.782 274.456 373.858V366.886H279.076V365.395ZM296.107 368.503H286.993V367.054H296.107V368.503ZM286.993 373.69V372.136H296.107V373.69H286.993ZM296.107 371.044H286.993V369.574H296.107V371.044ZM299.698 364.366V363.064H288.694C288.946 362.56 289.177 362.035 289.387 361.531H298.48V360.271H289.828C289.996 359.746 290.164 359.242 290.311 358.717C293.314 358.549 296.17 358.276 298.27 357.835L297.283 356.701C293.965 357.373 287.623 357.709 282.541 357.751C282.688 358.087 282.835 358.591 282.856 358.948C284.662 358.948 286.636 358.906 288.589 358.801C288.463 359.305 288.316 359.788 288.148 360.271H282.835V361.531H287.686C287.497 362.035 287.245 362.56 286.993 363.064H281.302V364.366H286.258C284.956 366.55 283.15 368.503 280.798 369.868C281.092 370.141 281.554 370.708 281.764 371.065C283.192 370.204 284.431 369.154 285.502 367.978V375.769H286.993V374.95H296.107V375.769H297.64V365.815H287.182C287.497 365.353 287.77 364.849 288.043 364.366H299.698ZM309.778 370.162C311.983 369.385 313.411 367.663 313.411 365.395C313.411 363.925 312.781 362.98 311.626 362.98C310.765 362.98 310.03 363.505 310.03 364.492C310.03 365.479 310.744 365.983 311.605 365.983C311.731 365.983 311.836 365.983 311.962 365.962C311.857 367.39 310.933 368.377 309.316 369.049L309.778 370.162ZM327.754 368.944H337.267V370.414H327.754V368.944ZM337.267 362.056V363.463H327.754V362.056H337.267ZM337.267 366.676V367.936H327.754V366.676H337.267ZM337.267 365.668H327.754V364.471H337.267V365.668ZM341.761 370.414H338.821V360.985H332.773C332.857 360.586 332.941 360.145 333.025 359.662H341.236V358.318H333.256L333.529 356.701L331.87 356.512C331.828 357.037 331.765 357.688 331.681 358.318H323.848V359.662H331.492C331.45 360.145 331.366 360.586 331.282 360.985H326.242V370.414H323.26V371.737H341.761V370.414ZM329.308 372.157C327.985 373.039 325.36 374.068 323.26 374.635C323.596 374.929 324.079 375.412 324.331 375.727C326.41 375.139 329.014 374.089 330.673 373.039L329.308 372.157ZM334.453 373.102C336.784 373.879 339.157 374.887 340.585 375.685L341.845 374.593C340.312 373.837 337.75 372.829 335.419 372.094L334.453 373.102ZM350.728 365.689H346.318V361.3H350.728V365.689ZM346.318 372.115V367.075H350.728V372.115H346.318ZM348.082 356.491C347.935 357.478 347.557 358.885 347.242 359.893H344.89V375.181H346.318V373.522H352.156V359.893H348.67C349.027 358.99 349.405 357.835 349.762 356.806L348.082 356.491ZM362.425 359.83H356.146C356.503 358.843 356.797 357.835 357.049 356.806L355.558 356.449C354.886 359.326 353.752 362.224 352.345 364.072C352.681 364.282 353.353 364.702 353.626 364.954C354.361 363.967 355.012 362.686 355.6 361.279H360.934C360.661 369.637 360.346 372.829 359.653 373.564C359.443 373.837 359.212 373.879 358.792 373.879C358.309 373.879 357.049 373.879 355.684 373.753C355.978 374.194 356.167 374.824 356.209 375.286C357.385 375.349 358.582 375.391 359.317 375.307C360.031 375.244 360.514 375.055 360.976 374.467C361.816 373.438 362.089 370.204 362.425 360.628V359.83ZM359.107 369.28C358.435 368.041 356.986 366.025 355.81 364.534L354.592 365.248C355.747 366.76 357.154 368.839 357.784 370.099L359.107 369.28ZM370.615 362.875V360.355H373.072C372.526 361.237 371.896 362.077 371.245 362.875H370.615ZM373.324 369.616H368.62V367.579H373.324V369.616ZM368.62 373.081V370.876H373.324V373.081H368.62ZM374.689 357.289C374.248 358.276 373.786 359.221 373.219 360.124V358.969H370.615V356.722H369.145V358.969H365.932V360.355H369.145V362.875H364.987V364.261H369.964C368.389 365.836 366.562 367.138 364.525 368.146C364.819 368.461 365.323 369.112 365.512 369.427C366.079 369.112 366.646 368.776 367.171 368.419V375.622H368.62V374.383H373.324V375.328H374.815V366.298H369.922C370.636 365.668 371.287 364.975 371.917 364.261H375.76V362.875H373.051C374.227 361.321 375.277 359.599 376.096 357.688L374.689 357.289ZM383.047 357.667L382.795 357.73H376.642V375.727H378.175V359.221H382.081C381.409 360.901 380.422 363.127 379.519 364.912C381.724 366.739 382.375 368.314 382.375 369.637C382.396 370.393 382.228 371.023 381.766 371.275C381.493 371.422 381.136 371.506 380.779 371.527C380.317 371.569 379.687 371.548 378.994 371.485C379.267 371.926 379.435 372.577 379.456 373.018C380.107 373.06 380.842 373.06 381.409 372.997C381.934 372.934 382.438 372.787 382.816 372.514C383.593 372.031 383.908 371.065 383.887 369.784C383.887 368.293 383.32 366.655 381.115 364.702C382.123 362.77 383.278 360.376 384.16 358.402L383.047 357.667ZM401.674 360.838C401.506 366.655 401.275 368.776 400.876 369.28C400.687 369.532 400.498 369.574 400.183 369.553C399.826 369.574 398.986 369.553 398.083 369.469C398.293 369.889 398.461 370.519 398.482 370.96C399.469 371.023 400.372 371.023 400.918 370.96C401.485 370.897 401.884 370.729 402.241 370.246C402.829 369.49 403.039 367.054 403.27 360.082V359.347H391.678C392.14 358.57 392.581 357.751 392.959 356.89L391.384 356.428C390.166 359.284 388.108 361.993 385.798 363.694C386.197 363.946 386.806 364.534 387.1 364.828C388.381 363.778 389.62 362.413 390.733 360.838H401.674ZM396.151 364.408V367.789H390.691V364.408H396.151ZM393.316 373.795C391.09 373.795 390.691 373.501 390.691 372.367V369.196H397.684V363.001H389.158V372.367C389.158 374.698 390.124 375.265 393.4 375.265H401.317C404.152 375.265 404.782 374.488 405.097 371.737C404.656 371.653 403.984 371.422 403.606 371.17C403.375 373.333 403.081 373.795 401.296 373.795H393.316ZM423.472 358.066L423.094 358.171H408.1V359.704H421.603C420.028 361.195 417.781 362.833 415.765 363.82V373.669C415.765 374.047 415.639 374.152 415.198 374.173C414.715 374.194 413.098 374.215 411.355 374.152C411.607 374.572 411.901 375.265 411.985 375.706C414.106 375.706 415.492 375.685 416.29 375.433C417.109 375.202 417.382 374.74 417.382 373.669V364.597C419.986 363.19 422.842 361.006 424.69 358.969L423.472 358.066ZM434.371 366.151C434.371 367.915 435.82 369.343 437.563 369.343C439.327 369.343 440.755 367.915 440.755 366.151C440.755 364.387 439.327 362.959 437.563 362.959C435.82 362.959 434.371 364.387 434.371 366.151ZM435.442 366.151C435.442 364.975 436.408 364.03 437.563 364.03C438.739 364.03 439.684 364.975 439.684 366.151C439.684 367.327 438.739 368.272 437.563 368.272C436.408 368.272 435.442 367.327 435.442 366.151ZM314.373 462.881H331.215V461.537H314.373V462.881ZM345.205 465.149V450.932H343.609V455.846H338.296V457.379H343.609V465.758C341.341 466.64 339.178 467.438 337.666 467.963L338.38 469.496C340.795 468.551 344.05 467.186 347.053 465.884L346.78 464.54L345.205 465.149ZM351.274 467.354C350.476 467.354 350.329 467.165 350.329 466.115V457.358H356.188V455.825H350.329V450.953H348.754V466.094C348.754 468.278 349.279 468.887 351.085 468.887H353.899C355.915 468.887 356.293 467.396 356.461 463.091C356.02 462.986 355.39 462.671 354.97 462.335C354.844 466.346 354.718 467.354 353.773 467.354H351.274ZM369.271 452.759H372.925V456.119C372.925 457.673 373.261 458.282 374.71 458.282H376.474C376.894 458.282 377.335 458.261 377.608 458.177C377.545 457.82 377.503 457.232 377.482 456.833C377.209 456.896 376.747 456.938 376.432 456.938H374.815C374.479 456.938 374.416 456.728 374.416 456.14V451.289H367.801V453.599C367.801 455.09 367.423 456.812 365.113 458.093C365.386 458.345 365.932 458.933 366.121 459.248C368.704 457.757 369.271 455.51 369.271 453.641V452.759ZM365.449 461.18L365.239 459.752L363.286 460.319V456.224H365.89V454.754H363.286V450.554H361.753V454.754H358.897V456.224H361.753V460.739C360.577 461.075 359.506 461.369 358.645 461.579L359.107 463.091L361.753 462.314V467.732C361.753 468.026 361.648 468.131 361.354 468.131C361.102 468.131 360.199 468.152 359.191 468.11C359.38 468.53 359.611 469.16 359.674 469.559C361.102 469.559 361.984 469.517 362.509 469.265C363.055 469.034 363.286 468.614 363.286 467.732V461.831L365.449 461.18ZM374.353 461.222C373.597 462.818 372.442 464.141 371.077 465.233C369.733 464.099 368.62 462.755 367.885 461.222H374.353ZM375.445 459.689L375.151 459.752H365.764V461.222H366.583L366.373 461.306C367.213 463.175 368.368 464.792 369.796 466.115C368.095 467.165 366.142 467.9 364.126 468.341C364.42 468.677 364.756 469.328 364.903 469.769C367.108 469.202 369.229 468.362 371.056 467.123C372.694 468.32 374.689 469.202 376.936 469.748C377.146 469.307 377.566 468.656 377.923 468.32C375.823 467.879 373.933 467.144 372.358 466.157C374.164 464.645 375.613 462.671 376.453 460.151L375.445 459.689ZM385.664 468.11H387.428V459.584C387.428 458.261 387.281 456.392 387.197 455.048H387.281L388.499 458.555L391.418 466.556H392.72L395.639 458.555L396.857 455.048H396.941C396.836 456.392 396.689 458.261 396.689 459.584V468.11H398.516V452.717H396.164L393.224 460.949C392.867 462.02 392.531 463.091 392.174 464.162H392.069C391.691 463.091 391.334 462.02 390.977 460.949L388.016 452.717H385.664V468.11ZM407.137 468.383C408.691 468.383 409.909 467.858 410.917 467.207L410.224 465.947C409.384 466.514 408.481 466.85 407.368 466.85C405.205 466.85 403.714 465.296 403.588 462.86H411.274C411.316 462.587 411.358 462.188 411.358 461.768C411.358 458.513 409.72 456.413 406.822 456.413C404.176 456.413 401.677 458.723 401.677 462.419C401.677 466.178 404.113 468.383 407.137 468.383ZM403.567 461.495C403.798 459.248 405.226 457.946 406.843 457.946C408.628 457.946 409.678 459.185 409.678 461.495H403.567ZM416.182 468.383C416.686 468.383 417.022 468.32 417.295 468.215L417.022 466.745C416.812 466.787 416.728 466.787 416.623 466.787C416.329 466.787 416.077 466.556 416.077 465.968V451.394H414.166V465.842C414.166 467.459 414.754 468.383 416.182 468.383ZM424.586 468.383C427.379 468.383 429.878 466.199 429.878 462.419C429.878 458.618 427.379 456.413 424.586 456.413C421.793 456.413 419.294 458.618 419.294 462.419C419.294 466.199 421.793 468.383 424.586 468.383ZM424.586 466.787C422.612 466.787 421.289 465.044 421.289 462.419C421.289 459.794 422.612 458.009 424.586 458.009C426.56 458.009 427.904 459.794 427.904 462.419C427.904 465.044 426.56 466.787 424.586 466.787ZM436.775 468.383C438.14 468.383 439.337 467.648 440.24 466.766H440.282L440.471 468.11H442.025V451.394H440.114V455.783L440.219 457.757C439.211 456.917 438.35 456.413 437.006 456.413C434.402 456.413 432.071 458.723 432.071 462.419C432.071 466.22 433.919 468.383 436.775 468.383ZM437.195 466.787C435.179 466.787 434.045 465.149 434.045 462.398C434.045 459.794 435.494 458.03 437.342 458.03C438.287 458.03 439.148 458.366 440.114 459.227V465.212C439.169 466.262 438.245 466.787 437.195 466.787ZM446.101 473.024C448.369 473.024 449.545 471.302 450.343 469.055L454.648 456.707H452.779L450.742 463.049C450.427 464.057 450.091 465.212 449.776 466.241H449.671C449.314 465.212 448.915 464.036 448.579 463.049L446.248 456.707H444.253L448.831 468.131L448.579 468.992C448.117 470.399 447.298 471.449 445.996 471.449C445.702 471.449 445.366 471.344 445.135 471.26L444.757 472.793C445.114 472.94 445.555 473.024 446.101 473.024Z" fill="#3E3E3E"/>
<path d="M158.907 234.094C156.411 236.452 155.128 239.884 155.059 244.39L159.635 245.014V254.062H150.067V249.798C150.067 246.401 150.205 243.593 150.483 241.374C150.829 238.809 151.835 236.382 153.499 234.094C154.4 232.916 155.44 231.91 156.619 231.078L158.907 234.094ZM173.155 234.094C170.589 236.244 169.272 239.676 169.203 244.39L174.195 245.014V254.062H164.523V249.798C164.523 247.718 164.592 246.054 164.731 244.806C164.731 244.044 164.765 243.316 164.835 242.622C164.904 241.652 165.008 240.889 165.147 240.334C165.147 240.196 165.216 239.918 165.355 239.502C165.493 239.017 165.597 238.601 165.667 238.254C165.736 237.492 165.979 236.798 166.395 236.174C166.811 235.481 167.157 234.892 167.435 234.406C168.059 233.366 169.168 232.257 170.763 231.078L173.155 234.094Z" fill="#3E3E3E"/>
<path d="M488.783 490.428C491.279 488.071 492.562 484.639 492.631 480.132L488.055 479.508V470.46H497.623V474.724C497.623 478.121 497.485 480.929 497.207 483.148C496.861 485.713 495.855 488.14 494.191 490.428C493.29 491.607 492.25 492.612 491.071 493.444L488.783 490.428ZM474.535 490.428C477.101 488.279 478.418 484.847 478.487 480.132L473.495 479.508V470.46H483.167V474.724C483.167 476.804 483.098 478.468 482.959 479.716C482.959 480.479 482.925 481.207 482.855 481.9C482.786 482.871 482.682 483.633 482.543 484.188C482.543 484.327 482.474 484.604 482.335 485.02C482.197 485.505 482.093 485.921 482.023 486.268C481.954 487.031 481.711 487.724 481.295 488.348C480.879 489.041 480.533 489.631 480.255 490.116C479.631 491.156 478.522 492.265 476.927 493.444L474.535 490.428Z" fill="#3E3E3E"/>
</svg>
