<svg width="414" height="250" viewBox="0 0 414 250" fill="none" xmlns="http://www.w3.org/2000/svg">
<path d="M45.208 67.4501C44.572 67.6181 43.912 67.7981 43.288 67.9661V63.0941H45.028V62.2421H40.66V63.0941H42.412V68.2061C41.68 68.3861 41.02 68.5541 40.492 68.6741L40.72 69.5861C41.98 69.2381 43.696 68.7581 45.316 68.2781L45.208 67.4501ZM48.004 63.5501C48.028 62.7341 48.04 61.8941 48.04 61.0301H47.152C47.152 61.9061 47.14 62.7461 47.116 63.5501H45.112V64.4141H47.08C46.9 67.3181 46.24 69.7421 43.696 71.0981C43.912 71.2541 44.212 71.5781 44.332 71.8061C47.068 70.2701 47.764 67.5941 47.956 64.4141H50.356C50.176 68.6621 49.984 70.2701 49.648 70.6541C49.516 70.7981 49.372 70.8341 49.144 70.8341C48.88 70.8341 48.196 70.8341 47.464 70.7621C47.62 71.0141 47.728 71.3861 47.74 71.6381C48.412 71.6861 49.12 71.6981 49.504 71.6621C49.924 71.6141 50.164 71.5181 50.428 71.1941C50.884 70.6421 51.04 68.9261 51.232 64.0061C51.244 63.8861 51.244 63.5501 51.244 63.5501H48.004ZM62.2 65.9981C62.632 65.9981 63.064 65.9741 63.268 65.9261C63.232 65.7221 63.196 65.3861 63.172 65.1461C62.944 65.2061 62.464 65.2181 62.176 65.2181H59.968C59.584 65.2181 59.488 65.0741 59.488 64.6421V63.2861H62.716V62.4941H59.488V60.8381H58.612V64.6181C58.612 65.6261 58.9 65.9981 59.956 65.9981H62.2ZM54.28 66.9701C54.928 67.3661 55.756 67.9181 56.176 68.2661L56.656 67.7741C56.224 67.4381 55.384 66.8981 54.748 66.5261L54.28 66.9701ZM54.184 65.8421H56.668V68.2661C55.708 68.7461 54.76 69.2261 54.088 69.5261C54.16 68.9981 54.184 68.4701 54.184 68.0141V65.8421ZM57.52 65.0741H53.356V68.0021C53.356 69.0221 53.284 70.2821 52.6 71.1941C52.78 71.3141 53.092 71.6261 53.212 71.8181C53.716 71.1941 53.956 70.3661 54.076 69.5741L54.388 70.2941C55.06 69.9101 55.876 69.4421 56.668 68.9741V70.8221C56.668 70.9781 56.632 71.0261 56.464 71.0261C56.308 71.0261 55.816 71.0381 55.24 71.0141C55.36 71.2301 55.48 71.5301 55.528 71.7581C56.272 71.7581 56.8 71.7461 57.1 71.6141C57.424 71.4821 57.52 71.2781 57.52 70.8221V65.0741ZM56.032 61.9781C56.284 62.3501 56.536 62.7581 56.776 63.1661L54.316 63.3341C54.904 62.7101 55.48 61.9061 55.984 61.1261L55.096 60.8261C54.592 61.7981 53.8 62.7701 53.572 63.0221C53.332 63.2741 53.128 63.4541 52.936 63.4901C53.044 63.7061 53.176 64.1501 53.224 64.3301C53.5 64.1981 53.92 64.1501 57.172 63.8861C57.328 64.1861 57.46 64.4621 57.556 64.7021L58.324 64.3541C58.024 63.6461 57.34 62.5181 56.752 61.7021L56.032 61.9781ZM60.16 70.8941C59.596 70.8941 59.488 70.8221 59.488 70.4261V68.6261H62.848V67.8221H59.488V66.3941H58.612V70.4261C58.612 71.4101 58.912 71.6861 60.076 71.6861H62.2C63.196 71.6861 63.46 71.2781 63.568 69.7181C63.328 69.6581 62.98 69.5261 62.776 69.3821C62.716 70.6661 62.632 70.8941 62.128 70.8941H60.16ZM75.316 62.2541H71.644L72.256 62.0141C72.076 61.6781 71.68 61.1261 71.356 60.7421L70.504 61.0301C70.804 61.4021 71.14 61.9061 71.332 62.2541H67.768V62.9741H75.316V62.2541ZM68.716 66.0581H74.296V65.3741H68.716V66.0581ZM74.296 63.7901H68.716V64.4741H74.296V63.7901ZM69.436 67.6181H73.48V69.1061H69.436V67.6181ZM68.584 69.7901H74.356V66.9341H68.584V69.7901ZM66.964 62.7581C66.736 62.2661 66.316 61.4741 65.992 60.8501L65.236 61.1381C65.536 61.7621 65.956 62.6021 66.184 63.1181L66.964 62.7581ZM67.144 66.3941L67.012 66.4301H66.184C66.556 65.6021 67 64.5941 67.336 63.7301H64.6V64.5341H66.148C65.776 65.4821 65.332 66.5021 64.972 67.2101H66.7C66.448 68.1341 66.004 69.1301 65.44 69.7901L65.464 69.8021C65.128 70.0541 64.768 70.4981 64.408 71.0021L65.008 71.8181C65.356 71.0741 65.788 70.3421 66.052 70.3421C66.328 70.3421 66.76 70.7261 67.24 71.0141C68.128 71.5301 69.184 71.6621 70.756 71.6621C72.172 71.6621 74.452 71.5901 75.34 71.5301C75.352 71.2661 75.496 70.8221 75.604 70.5821C74.272 70.7261 72.304 70.8341 70.792 70.8341C69.376 70.8341 68.284 70.7501 67.432 70.2581C67 70.0061 66.724 69.7901 66.496 69.6701C67.036 68.8181 67.456 67.7021 67.684 66.6341L67.144 66.3941ZM86.428 66.4661C86.284 66.4661 86.272 66.4061 86.272 66.1781V64.7861H85.708V66.1661C85.708 66.6821 85.792 66.8981 86.296 66.8981H86.824C86.992 66.8981 87.184 66.8981 87.268 66.8621C87.256 66.7181 87.244 66.5621 87.244 66.4181C87.136 66.4541 86.92 66.4661 86.8 66.4661H86.428ZM85.18 67.0781V64.3541H87.04V63.6461H85.18V62.9621H84.472V63.6461H82.912V64.3541H84.472V67.0781H85.18ZM83.872 64.8101H83.308V65.3021C83.308 65.7581 83.224 66.3701 82.732 66.7421C82.876 66.8141 83.116 67.0061 83.212 67.1261C83.776 66.6341 83.872 65.9381 83.872 65.3261V64.8101ZM87.232 62.5661V61.7741H82.972C82.888 61.4741 82.744 61.0901 82.612 60.7901L81.736 60.9581C81.82 61.2101 81.916 61.5101 81.988 61.7741H77.416V65.1581C77.416 66.9581 77.344 69.5141 76.492 71.3381C76.672 71.4341 77.044 71.6981 77.188 71.8661C78.124 69.9341 78.268 67.0661 78.268 65.1581V62.5661H87.232ZM81.04 67.1381V64.3541H82.576V63.6461H81.04V62.9621H80.332V63.6461H78.82V64.3541H80.332V67.1381H81.04ZM82.336 66.7541C82.468 66.7541 82.624 66.7541 82.72 66.7181L82.684 66.2981C82.576 66.3221 82.396 66.3341 82.324 66.3341H82.216C82.108 66.3341 82.096 66.2861 82.096 66.0701V64.8581H81.532V66.0581C81.532 66.5501 81.628 66.7541 82.072 66.7541H82.336ZM79.672 64.8101H79.096V65.3501C79.096 65.8541 79.024 66.5141 78.472 66.9221C78.616 67.0061 78.844 67.1861 78.952 67.3181C79.576 66.7661 79.672 66.0341 79.672 65.3741V64.8101ZM84.484 69.2021C84.748 69.5381 85.048 69.9101 85.324 70.2821L80.74 70.6181C82.216 69.9221 83.716 69.0341 85.204 67.9781L84.508 67.5101C83.98 67.9181 83.404 68.3261 82.84 68.6861L80.596 68.7821C81.328 68.3861 82.072 67.8581 82.78 67.2581L82.144 66.8741C81.364 67.6061 80.308 68.2901 79.984 68.4581C79.696 68.6381 79.432 68.7581 79.24 68.7821C79.312 68.9861 79.42 69.3461 79.444 69.5021C79.648 69.4421 79.936 69.3941 81.844 69.2861C81.064 69.7541 80.392 70.1021 80.068 70.2461C79.468 70.5461 79.012 70.7381 78.688 70.7621C78.772 70.9781 78.868 71.3741 78.904 71.5421C79.276 71.4101 79.852 71.3861 85.804 70.9301C86.02 71.2421 86.212 71.5181 86.356 71.7461L87.04 71.3501C86.608 70.7261 85.792 69.6461 85.144 68.8781L84.484 69.2021ZM96.148 62.6741C95.56 63.4181 94.72 64.0781 93.772 64.6181C93.352 64.1621 92.68 63.6341 92.056 63.2141C92.308 63.0341 92.548 62.8661 92.764 62.6741H96.148ZM96.94 61.8341L96.784 61.8701H93.676C93.964 61.5821 94.228 61.3061 94.456 61.0181L93.484 60.8141C92.716 61.7981 91.288 62.9621 89.38 63.7661C89.572 63.9101 89.848 64.1861 89.98 64.3901C90.472 64.1501 90.952 63.9101 91.384 63.6461C91.972 64.0661 92.596 64.5941 92.992 65.0141C91.72 65.6261 90.316 66.0581 88.984 66.2981C89.14 66.4901 89.332 66.8621 89.404 67.1021C92.512 66.4541 96.004 64.8461 97.516 62.1941L96.94 61.8341ZM97.96 66.8861C97.348 67.8461 96.46 68.6141 95.38 69.2141C94.936 68.7581 94.24 68.1581 93.604 67.7021C94 67.4381 94.384 67.1741 94.72 66.8861H97.96ZM98.692 66.0221L98.512 66.0701H95.62C95.92 65.7821 96.172 65.4821 96.412 65.1821L95.428 64.9661C94.552 66.1421 92.848 67.4741 90.424 68.3501C90.628 68.4941 90.88 68.8181 90.988 69.0101C91.672 68.7461 92.296 68.4461 92.872 68.1341C93.484 68.6021 94.132 69.1661 94.552 69.6221C92.896 70.3541 90.94 70.7621 88.948 70.9541C89.104 71.1701 89.248 71.5661 89.308 71.8181C93.532 71.3141 97.624 69.9221 99.292 66.3941L98.692 66.0221ZM105.016 68.6141C106.276 68.1701 107.092 67.1861 107.092 65.8901C107.092 65.0501 106.732 64.5101 106.072 64.5101C105.58 64.5101 105.16 64.8101 105.16 65.3741C105.16 65.9381 105.568 66.2261 106.06 66.2261C106.132 66.2261 106.192 66.2261 106.264 66.2141C106.204 67.0301 105.676 67.5941 104.752 67.9781L105.016 68.6141ZM121.888 62.8901H120.64V61.7741H121.888V62.8901ZM119.932 62.8901H118.696V61.7741H119.932V62.8901ZM117.976 62.8901H116.788V61.7741H117.976V62.8901ZM122.692 61.1981H116.02V63.4661H122.692V61.1981ZM123.328 64.0301H115.372V64.7021H123.328V64.0301ZM121.456 66.8261H117.232V65.8181H121.456V66.8261ZM119.428 68.1221C120.472 68.7701 121.852 69.6941 122.548 70.2341L122.992 69.6701C122.62 69.3821 122.02 68.9861 121.408 68.6021C121.888 68.3621 122.416 68.0621 122.836 67.7381L122.284 67.3901H122.332V65.2541H116.392V67.3901H118.528C117.64 67.9301 116.428 68.3861 115.396 68.6261C115.552 68.7821 115.756 69.0461 115.876 69.2501C116.368 69.1061 116.896 68.9021 117.424 68.6741V69.2981C117.424 69.7301 117.172 69.8741 116.992 69.9461C117.112 70.0901 117.232 70.4021 117.268 70.5941C117.472 70.4501 117.808 70.3421 120.1 69.7421C120.076 69.5861 120.04 69.3101 120.04 69.1181L118.192 69.5621V68.2901C118.696 68.0261 119.176 67.7141 119.548 67.3901H122.176C121.84 67.6541 121.312 67.9901 120.856 68.2541C120.508 68.0381 120.16 67.8221 119.86 67.6421L119.428 68.1221ZM114.652 62.8301C114.496 62.3141 114.22 61.5221 114.016 60.8981L113.224 61.1381C113.428 61.7621 113.692 62.5781 113.836 63.0941L114.652 62.8301ZM115.048 66.3941L114.904 66.4301H114.076C114.424 65.6021 114.808 64.5941 115.132 63.7301H112.6V64.5341H113.98C113.644 65.4821 113.248 66.5021 112.9 67.2101H114.484C114.292 68.0501 114.004 68.9861 113.68 69.6581C113.296 69.8861 112.852 70.4141 112.408 71.0381L113.02 71.8421C113.38 71.0861 113.776 70.3301 114.04 70.3301C114.316 70.3301 114.76 70.7381 115.24 71.0261C116.128 71.5541 117.172 71.6861 118.756 71.6861C120.172 71.6861 122.44 71.6141 123.34 71.5541C123.364 71.2901 123.496 70.8701 123.604 70.6301C122.272 70.7621 120.328 70.8821 118.792 70.8821C117.364 70.8821 116.284 70.7981 115.432 70.2821C115 70.0301 114.724 69.8021 114.496 69.6701C114.904 68.7821 115.24 67.6061 115.468 66.5501L115.048 66.3941ZM134.2 65.9981C134.632 65.9981 135.064 65.9741 135.268 65.9261C135.232 65.7221 135.196 65.3861 135.172 65.1461C134.944 65.2061 134.464 65.2181 134.176 65.2181H131.968C131.584 65.2181 131.488 65.0741 131.488 64.6421V63.2861H134.716V62.4941H131.488V60.8381H130.612V64.6181C130.612 65.6261 130.9 65.9981 131.956 65.9981H134.2ZM126.28 66.9701C126.928 67.3661 127.756 67.9181 128.176 68.2661L128.656 67.7741C128.224 67.4381 127.384 66.8981 126.748 66.5261L126.28 66.9701ZM126.184 65.8421H128.668V68.2661C127.708 68.7461 126.76 69.2261 126.088 69.5261C126.16 68.9981 126.184 68.4701 126.184 68.0141V65.8421ZM129.52 65.0741H125.356V68.0021C125.356 69.0221 125.284 70.2821 124.6 71.1941C124.78 71.3141 125.092 71.6261 125.212 71.8181C125.716 71.1941 125.956 70.3661 126.076 69.5741L126.388 70.2941C127.06 69.9101 127.876 69.4421 128.668 68.9741V70.8221C128.668 70.9781 128.632 71.0261 128.464 71.0261C128.308 71.0261 127.816 71.0381 127.24 71.0141C127.36 71.2301 127.48 71.5301 127.528 71.7581C128.272 71.7581 128.8 71.7461 129.1 71.6141C129.424 71.4821 129.52 71.2781 129.52 70.8221V65.0741ZM128.032 61.9781C128.284 62.3501 128.536 62.7581 128.776 63.1661L126.316 63.3341C126.904 62.7101 127.48 61.9061 127.984 61.1261L127.096 60.8261C126.592 61.7981 125.8 62.7701 125.572 63.0221C125.332 63.2741 125.128 63.4541 124.936 63.4901C125.044 63.7061 125.176 64.1501 125.224 64.3301C125.5 64.1981 125.92 64.1501 129.172 63.8861C129.328 64.1861 129.46 64.4621 129.556 64.7021L130.324 64.3541C130.024 63.6461 129.34 62.5181 128.752 61.7021L128.032 61.9781ZM132.16 70.8941C131.596 70.8941 131.488 70.8221 131.488 70.4261V68.6261H134.848V67.8221H131.488V66.3941H130.612V70.4261C130.612 71.4101 130.912 71.6861 132.076 71.6861H134.2C135.196 71.6861 135.46 71.2781 135.568 69.7181C135.328 69.6581 134.98 69.5261 134.776 69.3821C134.716 70.6661 134.632 70.8941 134.128 70.8941H132.16ZM139.792 62.1461V64.2341H137.992V62.1461H139.792ZM137.992 67.3661V65.0261H139.792V67.3661H137.992ZM137.992 68.1701H140.62V61.3421H137.152V68.7821H137.992V68.1701ZM137.404 71.8421C137.956 71.1701 138.556 70.1381 138.964 69.2501L138.124 69.0101C137.716 69.8861 137.092 70.8581 136.552 71.4581L137.404 71.8421ZM140.092 69.3581C140.248 70.1381 140.344 71.1461 140.344 71.7461L141.22 71.6141C141.208 71.0261 141.076 70.0421 140.92 69.2741L140.092 69.3581ZM146.152 62.1221C146.068 63.2501 145.972 63.7181 145.828 63.8741C145.756 63.9581 145.636 63.9821 145.456 63.9821C145.276 63.9821 144.784 63.9701 144.256 63.9221C144.388 64.1381 144.472 64.4381 144.496 64.6541C145.036 64.6901 145.564 64.6901 145.84 64.6661C146.152 64.6541 146.356 64.5821 146.536 64.3901C146.8 64.1141 146.908 63.4061 147.016 61.6781C147.028 61.5581 147.04 61.3301 147.04 61.3301H141.148V62.1221H143.14C142.9 63.2381 142.336 63.9941 140.776 64.4141C140.944 64.5701 141.172 64.8941 141.256 65.0861C143.092 64.5341 143.74 63.5741 144.016 62.1221H146.152ZM145.828 67.8101H142.336V65.9861H145.828V67.8101ZM146.704 65.2541H141.496V68.5541H146.704V65.2541ZM142.648 69.3221C142.96 70.0781 143.26 71.1101 143.38 71.7221L144.256 71.5061C144.136 70.8941 143.8 69.9101 143.476 69.1541L142.648 69.3221ZM145.084 69.2501C145.648 70.0421 146.308 71.1461 146.584 71.8061L147.436 71.4341C147.124 70.7501 146.452 69.6941 145.876 68.9141L145.084 69.2501ZM158.152 65.0861H155.548V63.9821H158.152V65.0861ZM158.152 66.8861H155.548V65.7581H158.152V66.8861ZM158.152 68.6861H155.548V67.5581H158.152V68.6861ZM154.792 63.2741V69.3941H158.932V63.2741H157.048C157.132 62.9381 157.216 62.5421 157.3 62.1701H159.352V61.4021H154.456V62.1701H156.388C156.352 62.5181 156.304 62.9261 156.244 63.2741H154.792ZM152.224 67.8701H150.988V67.2101H152.224V67.8701ZM152.224 69.1061H150.988V68.4341H152.224V69.1061ZM152.224 70.3541H150.988V69.6821H152.224V70.3541ZM153.28 63.6581V64.7141H149.848V63.6581H153.28ZM154.312 71.0021V70.3541H152.86V69.6821H154.132V69.1061H152.86V68.4341H154.108V67.8701H152.86V67.2101H154.24V66.5981H152.956C152.848 66.2861 152.632 65.8781 152.44 65.5661L151.84 65.7461C151.984 66.0101 152.128 66.3221 152.236 66.5981H151.144C151.276 66.3101 151.384 66.0101 151.48 65.6981L150.808 65.5301C150.592 66.2861 150.232 67.0421 149.8 67.6541C149.836 66.9821 149.848 66.3461 149.848 65.7821V65.4221H154.084V62.9501H149.848V62.3741C151.276 62.2421 152.86 62.0021 153.952 61.6781L153.292 61.0661C152.344 61.3781 150.568 61.6301 149.092 61.7741H149.08V65.7821C149.08 67.4261 149.044 69.7301 148.432 71.3501C148.624 71.4221 148.96 71.6021 149.104 71.7221C149.464 70.7621 149.656 69.5501 149.752 68.3861C149.836 68.4701 149.908 68.5661 149.944 68.6261C150.076 68.4821 150.184 68.3261 150.304 68.1461V71.6501H150.988V71.0021H154.312ZM155.848 69.7421C155.476 70.2461 154.732 70.8821 154.048 71.2541C154.24 71.3861 154.516 71.6381 154.636 71.8061C155.308 71.4101 156.1 70.7501 156.604 70.1501L155.848 69.7421ZM157.312 70.1501C157.864 70.6181 158.524 71.2781 158.836 71.7101L159.508 71.2541C159.184 70.8101 158.512 70.1861 157.972 69.7541L157.312 70.1501ZM164.392 67.8581H166.78V67.0661H164.392V65.7701H163.54V67.0661H161.2V67.8581H163.54V69.8741C162.496 70.0541 161.524 70.2341 160.792 70.3541L160.984 71.1941C162.556 70.8821 164.824 70.4501 166.948 70.0421L166.888 69.2621C166.06 69.4181 165.208 69.5741 164.392 69.7301V67.8581ZM160.888 62.4101H162.784C162.4 63.2621 161.92 64.0061 161.74 64.2461C161.536 64.5341 161.356 64.7381 161.164 64.7741C161.272 65.0021 161.416 65.4221 161.464 65.6141C161.752 65.4821 162.184 65.4341 165.916 65.0741C166.096 65.3501 166.24 65.6141 166.336 65.8181L167.02 65.3741C166.672 64.6901 165.88 63.6101 165.208 62.8061L164.572 63.1901C164.86 63.5501 165.172 63.9581 165.46 64.3781L162.4 64.6421C162.88 64.0061 163.372 63.2021 163.78 62.4101H167.02V61.6181H160.888V62.4101ZM168.52 61.8701H167.68V69.0821H168.52V61.8701ZM170.032 61.0301V70.4021C170.032 70.6061 169.984 70.6541 169.78 70.6661C169.576 70.6781 168.916 70.6781 168.22 70.6541C168.352 70.8941 168.508 71.3021 168.544 71.5301C169.408 71.5301 170.044 71.5061 170.416 71.3621C170.776 71.2301 170.908 70.9541 170.908 70.3901V61.0301H170.032ZM178.06 69.3461C179.716 70.0061 181.864 71.0861 182.92 71.8301L183.34 71.0621C182.248 70.3421 180.088 69.3101 178.444 68.6861L178.06 69.3461ZM178.42 66.0581V65.0501H182.26V64.2701H178.42V63.2981H182.836V62.4941H180.28C180.592 62.0741 180.952 61.5581 181.24 61.0661L180.328 60.7901C180.076 61.2941 179.656 62.0021 179.296 62.4941H176.14L176.572 62.3021C176.38 61.8701 175.96 61.2461 175.516 60.7901L174.748 61.1021C175.108 61.5221 175.48 62.0741 175.672 62.4941H173.14V63.2981H177.532V64.2701H173.8V65.0501H177.532V66.0581H172.72V66.8501H177.424C177.388 67.1741 177.34 67.4861 177.268 67.7741H172.984V68.5541H177.016C176.476 69.7901 175.3 70.5581 172.528 70.9541C172.696 71.1581 172.924 71.5301 172.996 71.7581C176.14 71.2181 177.424 70.1981 177.988 68.5541H183.16V67.7741H178.204C178.264 67.4861 178.312 67.1741 178.348 66.8501H183.352V66.0581H178.42ZM186.664 71.3861C186.844 70.7141 187.06 69.6701 187.204 68.9981L186.604 68.7821C186.472 69.4421 186.208 70.4861 186.004 71.1341L186.664 71.3861ZM188.8 71.0261C188.404 71.0261 188.332 70.9781 188.332 70.7021V68.6981H187.588V70.7021C187.588 71.4701 187.828 71.6741 188.716 71.6741H190.288C191.032 71.6741 191.248 71.3501 191.32 69.9341C191.116 69.8861 190.828 69.7781 190.672 69.6461C190.636 70.8581 190.564 71.0261 190.204 71.0261H188.8ZM190.192 69.5621C189.964 69.1301 189.496 68.3981 189.124 67.8581L188.536 68.1341C188.896 68.6861 189.34 69.4421 189.568 69.8981L190.192 69.5621ZM190.96 68.8301C191.368 69.5621 191.86 70.5821 192.1 71.1821L192.76 70.8821C192.52 70.2941 192.004 69.3221 191.584 68.5901L190.96 68.8301ZM190.048 66.9581H187.696V65.5301H190.048V66.9581ZM194.068 63.3701C193.78 64.1501 193.396 64.8821 192.916 65.5301C192.82 64.6781 192.748 63.7541 192.712 62.7821H195.34V62.0381H194.212L194.692 61.6181C194.368 61.3781 193.744 61.0181 193.276 60.7781L192.76 61.1861C193.204 61.4381 193.768 61.7981 194.104 62.0381H192.688C192.676 61.6421 192.676 61.2341 192.676 60.8261H191.8C191.812 61.2341 191.812 61.6421 191.836 62.0381H185.56V64.5701C185.56 66.4781 185.464 69.2981 184.468 71.3261C184.66 71.4101 185.02 71.6501 185.176 71.8061C186.22 69.6821 186.388 66.5861 186.388 64.5701V64.2101H191.332V63.5621H186.388V62.7821H191.86C191.92 64.0661 192.028 65.2781 192.172 66.4181C191.74 66.8381 191.284 67.2221 190.78 67.5341V64.8701H186.94V67.6181H190.636L190.552 67.6661C190.744 67.8101 191.056 68.1221 191.188 68.2781C191.584 68.0141 191.956 67.7261 192.304 67.4021C192.736 69.9821 193.42 71.7461 194.392 71.7461C195.148 71.7461 195.412 71.1821 195.544 69.3461C195.328 69.2621 195.052 69.0701 194.872 68.8781C194.812 70.2581 194.692 70.8821 194.5 70.8821C193.984 70.8821 193.42 69.1901 193.048 66.6461C193.816 65.7821 194.44 64.7261 194.872 63.5621L194.068 63.3701ZM55.7616 87.0981H57.7536V89.0181C57.7536 89.9181 57.9216 90.2541 58.7016 90.2541H59.4816C59.7096 90.2541 59.9496 90.2421 60.0696 90.1941C60.0576 89.9901 60.0216 89.6541 60.0096 89.4261C59.8656 89.4621 59.6376 89.4861 59.4816 89.4861H58.7736C58.6056 89.4861 58.5816 89.3781 58.5816 89.0421V86.2581H54.9336V87.5781C54.9336 88.4301 54.7296 89.4141 53.4456 90.1461C53.6016 90.2781 53.9016 90.6141 54.0216 90.7941C55.4496 89.9541 55.7616 88.6821 55.7616 87.6021V87.0981ZM52.2816 87.3261C52.0896 86.8941 51.7056 86.2701 51.3576 85.7781L50.6616 86.1261C50.9976 86.6301 51.3816 87.3021 51.5616 87.7341L52.2816 87.3261ZM53.9016 87.8661H49.3656V88.5981H53.9016V87.8661ZM49.8816 91.7061H53.4216V90.9981H49.8816V91.7061ZM49.8816 89.4381V90.1461H53.4096V89.4381H49.8816ZM58.4616 91.9341C58.0656 92.8461 57.4776 93.6021 56.7696 94.2261C56.0496 93.5901 55.4736 92.8221 55.0776 91.9341H58.4616ZM52.6176 95.3181H50.6496V93.3381H52.6176V95.3181ZM59.0376 91.0581L58.8816 91.0941H53.7696V91.9341H54.8136L54.2976 92.1141C54.7296 93.1341 55.3416 94.0341 56.0856 94.7661C55.2816 95.3181 54.3576 95.7261 53.4096 95.9781V92.5941H49.8696V96.6261H50.6496V96.0621H53.3856C53.5416 96.2661 53.7096 96.5781 53.7936 96.8061C54.8736 96.4821 55.8816 96.0021 56.7696 95.3421C57.6216 95.9901 58.6176 96.4701 59.7456 96.7701C59.8656 96.5181 60.1176 96.1581 60.2976 95.9661C59.2296 95.7261 58.2816 95.3181 57.4656 94.7661C58.4136 93.8901 59.1576 92.7621 59.6016 91.3101L59.0376 91.0581ZM64.5936 87.3261C64.4136 86.9061 64.0296 86.2821 63.6696 85.7901L62.9976 86.1381C63.3216 86.6301 63.7056 87.3021 63.8736 87.7341L64.5936 87.3261ZM66.5016 87.8661H61.5696V88.5981H66.5016V87.8661ZM65.9616 90.9981H62.0976V91.7061H65.9616V90.9981ZM65.2056 93.3381V95.3181H62.9736V93.3381H65.2056ZM65.9976 92.5941H62.1936V96.6261H62.9736V96.0621H65.9976V92.5941ZM62.0976 90.1461H65.9976V89.4381H62.0976V90.1461ZM72.1896 89.9661H69.7296V86.0541H68.8296V89.9661H66.4776V90.8421H68.8296V96.7941H69.7296V90.8421H72.1896V89.9661ZM77.7816 93.6141C79.0416 93.1701 79.8576 92.1861 79.8576 90.8901C79.8576 90.0501 79.4976 89.5101 78.8376 89.5101C78.3456 89.5101 77.9256 89.8101 77.9256 90.3741C77.9256 90.9381 78.3336 91.2261 78.8256 91.2261C78.8976 91.2261 78.9576 91.2261 79.0296 91.2141C78.9696 92.0301 78.4416 92.5941 77.5176 92.9781L77.7816 93.6141ZM91.7496 87.2541C91.6056 87.1101 91.4016 86.9421 91.1856 86.7741C91.4256 86.5581 91.6416 86.3061 91.8216 86.0541L91.2576 85.9101C91.1256 86.1021 90.9456 86.2941 90.7296 86.4741C90.5136 86.3181 90.2616 86.1861 90.0456 86.0661L89.6496 86.4141C89.8656 86.5341 90.0936 86.6541 90.3096 86.8101C90.0216 87.0141 89.7096 87.1941 89.3976 87.3501C89.5416 87.4341 89.7456 87.6501 89.8296 87.7461C90.1416 87.5901 90.4656 87.3741 90.7656 87.1341C90.9936 87.3021 91.2096 87.4821 91.3416 87.6381L91.7496 87.2541ZM86.5296 90.2301H94.9896V91.3101H95.8176V89.6061H94.6656C94.7376 88.6821 94.8096 87.3501 94.8456 86.2941H92.3016V86.8941H94.0296L94.0176 87.4221H92.4576V87.9741H93.9816L93.9576 88.5141H92.3856V89.0661H93.9096C93.8856 89.2581 93.8736 89.4381 93.8616 89.6061H89.9256C90.2376 89.4141 90.5736 89.2101 90.8736 88.9581C91.1376 89.1621 91.3536 89.3661 91.5216 89.5461L91.9296 89.1621C91.7736 88.9821 91.5456 88.7901 91.2936 88.5981C91.5336 88.3581 91.7736 88.1061 91.9416 87.8421L91.3896 87.6981C91.2456 87.9021 91.0536 88.1061 90.8376 88.2861C90.5976 88.1421 90.3456 87.9861 90.1176 87.8541L89.7216 88.2021C89.9496 88.3221 90.2016 88.4661 90.4176 88.6341C90.0936 88.8741 89.7096 89.1021 89.3496 89.2941C89.4576 89.3541 89.6136 89.4981 89.7096 89.6061H87.7056L87.6816 89.0661H89.2056V88.5141H87.6576L87.6216 87.9741H89.1336V87.4221H87.5976L87.5736 86.9661C88.1496 86.7741 88.8216 86.5341 89.3376 86.2341L88.8456 85.8381C88.3176 86.1021 87.3936 86.5101 86.7336 86.7261L86.7456 86.7381L86.9136 89.6061H85.7256V91.3101H86.5296V90.2301ZM88.2576 93.5541H93.2376V94.1661H88.2576V93.5541ZM88.2576 92.4381H93.2376V93.0381H88.2576V92.4381ZM88.2576 91.3461H93.2376V91.9221H88.2576V91.3461ZM93.0096 95.9301C92.4576 95.9301 92.3616 95.8821 92.3616 95.6181V94.7061H94.1136V90.8061H87.4056V94.7061H88.8216C88.4496 95.5341 87.5496 95.9181 85.2816 96.1101C85.4256 96.2781 85.6056 96.5901 85.6656 96.7941C88.2456 96.4941 89.2896 95.9181 89.7216 94.7061H91.4856V95.6301C91.4856 96.4341 91.7856 96.6381 92.9256 96.6381H94.9656C95.8656 96.6381 96.1296 96.3141 96.2136 95.0061C95.9856 94.9701 95.6496 94.8501 95.4696 94.7181C95.4096 95.7861 95.3376 95.9301 94.8696 95.9301H93.0096ZM106.498 87.8421H102.55V86.8821H106.498V87.8421ZM106.498 89.4621H102.55V88.4901H106.498V89.4621ZM107.386 86.2101H101.686V90.1461H107.386V86.2101ZM99.8016 85.8741C99.2736 86.7141 98.2056 87.7101 97.2576 88.3221C97.4136 88.5021 97.6296 88.8381 97.7256 89.0421C98.7816 88.3341 99.9456 87.2181 100.654 86.1981L99.8016 85.8741ZM100.018 88.4901C99.3096 89.7261 98.1456 90.9381 97.0656 91.7301C97.2216 91.9461 97.4616 92.4021 97.5336 92.5821C98.0016 92.2221 98.4816 91.7781 98.9376 91.2861V96.7821H99.8136V90.2781C100.174 89.7981 100.522 89.2941 100.798 88.8021L100.018 88.4901ZM101.71 94.1181C102.25 94.6461 102.898 95.3781 103.186 95.8581L103.87 95.3781C103.558 94.9101 102.898 94.2021 102.346 93.7101L101.71 94.1181ZM108.166 92.7381H106.378V91.7181H107.95V90.9501H100.954V91.7181H105.49V92.7381H100.678V93.5061H105.49V95.7861C105.49 95.9421 105.442 95.9901 105.25 96.0021C105.082 96.0141 104.482 96.0141 103.81 95.9901C103.93 96.2301 104.062 96.5541 104.098 96.8061C104.998 96.8061 105.562 96.7941 105.922 96.6621C106.27 96.5181 106.378 96.2901 106.378 95.8101V93.5061H108.166V92.7381ZM113.29 96.0261C114.43 96.0261 115.294 95.5701 115.99 94.7661L115.378 94.0701C114.814 94.6821 114.178 95.0541 113.338 95.0541C111.658 95.0541 110.602 93.6621 110.602 91.4421C110.602 89.2461 111.706 87.8781 113.374 87.8781C114.13 87.8781 114.718 88.2261 115.174 88.7181L115.774 87.9981C115.27 87.4341 114.43 86.9061 113.362 86.9061C111.13 86.9061 109.462 88.6341 109.462 91.4781C109.462 94.3341 111.106 96.0261 113.29 96.0261ZM117.618 95.8701H118.734V92.3781H120.186C122.106 92.3781 123.426 91.5141 123.426 89.6541C123.426 87.7341 122.106 87.0741 120.126 87.0741H117.618V95.8701ZM118.734 91.4781V87.9741H119.994C121.542 87.9741 122.322 88.3821 122.322 89.6541C122.322 90.9141 121.59 91.4781 120.042 91.4781H118.734ZM127.192 85.8501C126.568 87.6621 125.536 89.4381 124.432 90.6021C124.576 90.8181 124.84 91.2741 124.924 91.4781C125.272 91.0821 125.62 90.6501 125.944 90.1701V96.7821H126.772V88.8381C127.252 87.9741 127.672 87.0381 127.996 86.1021L127.192 85.8501ZM129.4 94.6821H133.564V95.6661H129.4V94.6821ZM133.564 89.6541V90.6621H129.4V89.6541H133.564ZM133.564 92.3421H129.4V91.3221H133.564V92.3421ZM129.4 92.9901H133.564V94.0221H129.4V92.9901ZM134.392 95.6661V88.9581H131.464C131.56 88.6341 131.644 88.2381 131.74 87.8421H135.1V87.0621H131.896C131.98 86.6661 132.052 86.2581 132.124 85.8981L131.176 85.8381C131.14 86.1981 131.08 86.6301 131.02 87.0621H127.96V87.8421H130.888C130.804 88.2381 130.732 88.6341 130.66 88.9581H128.596V95.6661H127.456V96.4341H135.46V95.6661H134.392ZM139.06 85.8741C138.544 86.7261 137.488 87.7101 136.552 88.3221C136.708 88.4901 136.924 88.8501 137.032 89.0421C138.076 88.3461 139.216 87.2301 139.912 86.1861L139.06 85.8741ZM139.276 88.4901C138.592 89.7261 137.452 90.9621 136.384 91.7541C136.54 91.9581 136.78 92.4261 136.864 92.6181C137.32 92.2581 137.776 91.8261 138.208 91.3341V96.7941H139.072V90.3141C139.444 89.8221 139.792 89.3181 140.068 88.8141L139.276 88.4901ZM141.676 89.3301H145.552V90.8181H141.676V89.3301ZM145.552 87.1461V88.5861H141.676V87.1461H145.552ZM146.452 91.9821C145.96 92.4501 145.132 93.0501 144.484 93.4701C144.136 92.9061 143.848 92.2821 143.632 91.5981H146.416V86.3541H140.812V95.2221C140.812 95.7141 140.548 95.9661 140.368 96.0621C140.512 96.2301 140.704 96.5901 140.776 96.7941C141.004 96.6381 141.364 96.5181 143.836 95.8461C143.8 95.6541 143.788 95.2941 143.788 95.0301L141.676 95.5461V91.5981H142.852C143.548 94.0341 144.808 95.8581 146.92 96.7101C147.052 96.4701 147.316 96.1221 147.52 95.9421C146.44 95.5581 145.576 94.9221 144.904 94.0821C145.576 93.6741 146.416 93.1221 147.052 92.6061L146.452 91.9821ZM155.644 93.7101V94.8261H152.224V93.7101H155.644ZM156.448 93.0381H151.396V96.0861H152.224V95.4981H156.448V93.0381ZM158.824 91.5741H149.188V96.7821H150.052V92.3301H157.936V95.8461C157.936 95.9901 157.888 96.0261 157.732 96.0381C157.588 96.0381 157.036 96.0501 156.52 96.0261C156.628 96.2061 156.76 96.4821 156.808 96.6861C157.564 96.6981 158.08 96.6861 158.392 96.5781C158.716 96.4581 158.824 96.2781 158.824 95.8461V91.5741ZM156.616 90.2661H151.444V89.1861H156.616V90.2661ZM150.568 88.5261V90.9261H157.528V88.5261H150.568ZM154.636 87.0861C154.504 86.7021 154.324 86.1981 154.156 85.7901L153.292 85.9941C153.412 86.3301 153.556 86.7381 153.664 87.0861H148.756V87.8541H159.208V87.0861H154.636ZM165.016 93.6141C166.276 93.1701 167.092 92.1861 167.092 90.8901C167.092 90.0501 166.732 89.5101 166.072 89.5101C165.58 89.5101 165.16 89.8101 165.16 90.3741C165.16 90.9381 165.568 91.2261 166.06 91.2261C166.132 91.2261 166.192 91.2261 166.264 91.2141C166.204 92.0301 165.676 92.5941 164.752 92.9781L165.016 93.6141ZM177.88 88.6341H174.976V87.8301H177.88V88.6341ZM177.88 90.0621H174.976V89.2701H177.88V90.0621ZM177.88 91.5261H174.976V90.6981H177.88V91.5261ZM174.1 92.6061H174.976V92.2461H182.992V91.5261H178.744V90.6981H182.152V90.0621H178.744V89.2701H182.116V88.6341H178.744V87.8301H182.596V87.1101H179.068C178.924 86.7261 178.636 86.1981 178.372 85.7781L177.556 86.0301C177.748 86.3541 177.952 86.7621 178.096 87.1101H175.432C175.696 86.7381 175.912 86.3421 176.116 85.9821L175.204 85.8141C174.688 86.8581 173.728 88.2021 172.42 89.1981C172.624 89.3181 172.912 89.5821 173.056 89.7741C173.428 89.4621 173.788 89.1381 174.1 88.8021V92.6061ZM176.02 94.4901C175.252 95.0301 173.764 95.4981 172.54 95.7261C172.72 95.8941 172.972 96.1941 173.092 96.4101C174.316 96.1221 175.864 95.4861 176.704 94.8261L176.02 94.4901ZM179.116 94.9821C180.304 95.3781 181.912 95.9661 182.716 96.3261L183.208 95.6661C182.368 95.3061 180.772 94.7661 179.608 94.4181L179.116 94.9821ZM178.408 93.1701V92.3541H177.532V93.1701H172.684V93.9021H177.532V96.7821H178.408V93.9021H183.328V93.1701H178.408ZM190.432 92.0181V88.8381H193.876V92.0181H190.432ZM186.076 92.0181V88.8381H189.508V92.0181H186.076ZM190.432 87.9621V85.8261H189.508V87.9621H185.2V93.6381H186.076V92.8941H189.508V96.7821H190.432V92.8941H193.876V93.5781H194.788V87.9621H190.432ZM58.8444 113.286C58.7484 116.61 58.6164 117.822 58.3884 118.11C58.2804 118.254 58.1724 118.278 57.9924 118.266C57.7884 118.278 57.3084 118.266 56.7924 118.218C56.9124 118.458 57.0084 118.818 57.0204 119.07C57.5844 119.106 58.1004 119.106 58.4124 119.07C58.7364 119.034 58.9644 118.938 59.1684 118.662C59.5044 118.23 59.6244 116.838 59.7564 112.854V112.434H53.1324C53.3964 111.99 53.6484 111.522 53.8644 111.03L52.9644 110.766C52.2684 112.398 51.0924 113.946 49.7724 114.918C50.0004 115.062 50.3484 115.398 50.5164 115.566C51.2484 114.966 51.9564 114.186 52.5924 113.286H58.8444ZM55.6884 115.326V117.258H52.5684V115.326H55.6884ZM54.0684 120.69C52.7964 120.69 52.5684 120.522 52.5684 119.874V118.062H56.5644V114.522H51.6924V119.874C51.6924 121.206 52.2444 121.53 54.1164 121.53H58.6404C60.2604 121.53 60.6204 121.086 60.8004 119.514C60.5484 119.466 60.1644 119.334 59.9484 119.19C59.8164 120.426 59.6484 120.69 58.6284 120.69H54.0684ZM71.1084 113.85H69.0924V113.106H71.1084V113.85ZM66.2724 113.85V113.106H68.2524V113.85H66.2724ZM63.5484 113.106H65.4564V113.85H63.5484V113.106ZM66.2724 111.93H68.2524V112.506H66.2724V111.93ZM71.9604 112.506H69.0924V111.93H72.5124V111.282H62.1684V111.93H65.4564V112.506H62.7324V114.438H71.9604V112.506ZM67.2564 119.61H70.3524C69.9564 119.922 69.4524 120.186 68.8764 120.402C68.2524 120.186 67.6764 119.934 67.1844 119.658L67.2564 119.61ZM66.9444 117.582H70.8444V118.074H66.9444V117.582ZM66.9444 116.622H70.8444V117.114H66.9444V116.622ZM71.1444 119.01L71.0004 119.046H68.0124C68.1924 118.89 68.3484 118.734 68.4924 118.566H71.6244V116.13H66.5604C66.6564 115.986 66.7524 115.854 66.8484 115.71H72.2964V115.086H67.2324C67.3044 114.942 67.3764 114.786 67.4484 114.654L66.6804 114.438C66.2964 115.29 65.6604 116.082 64.9524 116.67C65.0364 116.55 65.1204 116.442 65.1924 116.334L64.4244 116.07C63.8964 116.982 62.8164 118.038 61.8084 118.686C61.9524 118.818 62.1924 119.094 62.3004 119.262C62.6604 119.01 63.0444 118.722 63.3924 118.398V121.782H64.1844V117.63C64.4244 117.366 64.6284 117.114 64.8324 116.85C65.0124 116.982 65.3004 117.222 65.4204 117.354C65.6724 117.126 65.9364 116.862 66.1884 116.562V118.566H67.5684C67.2924 118.806 66.9564 119.046 66.5724 119.274C66.3564 119.106 66.1524 118.926 65.9844 118.746L65.3844 118.986C65.5644 119.202 65.7684 119.382 65.9844 119.574C65.6844 119.73 65.3604 119.874 65.0124 119.994C65.1684 120.102 65.4084 120.342 65.5044 120.474C65.8764 120.342 66.2364 120.174 66.5724 120.006C66.9924 120.258 67.4244 120.498 67.9044 120.702C66.9324 120.954 65.8284 121.098 64.7484 121.182C64.8804 121.35 65.0124 121.614 65.0844 121.806C66.4044 121.674 67.7244 121.458 68.8644 121.062C69.8844 121.41 71.0124 121.638 72.1524 121.782C72.2484 121.578 72.4284 121.302 72.5724 121.134C71.6364 121.05 70.6884 120.894 69.8364 120.678C70.5684 120.318 71.2044 119.874 71.6364 119.298L71.1444 119.01ZM64.1244 114.546C63.6804 115.254 62.7204 116.034 61.8804 116.526C62.0364 116.658 62.2764 116.934 62.4204 117.102C63.3084 116.538 64.3164 115.65 64.9164 114.798L64.1244 114.546ZM82.4604 112.566C81.8124 114.738 80.7324 116.442 79.3524 117.762C77.9964 116.37 77.0124 114.606 76.3524 112.566H82.4604ZM82.9764 111.642L82.8324 111.69H74.5284V112.566H75.4404C76.1844 114.87 77.2164 116.838 78.6684 118.386C77.2524 119.526 75.5964 120.33 73.8084 120.858C74.0124 121.038 74.2764 121.446 74.3724 121.674C76.1724 121.086 77.8524 120.234 79.3044 119.01C80.6364 120.222 82.2684 121.11 84.2964 121.662C84.4284 121.422 84.6804 121.05 84.8844 120.858C82.9284 120.378 81.3084 119.514 79.9884 118.374C81.6324 116.79 82.8804 114.666 83.5764 111.918L82.9764 111.642ZM89.3244 114.246C89.3004 115.41 89.1444 116.802 88.4844 118.17C88.0284 117.774 87.5484 117.402 87.0924 117.054C87.2964 116.274 87.5244 115.314 87.7164 114.342L89.3244 114.246ZM90.8604 114.15L90.8724 113.334L90.1764 113.37V112.542H89.3364V113.418L87.8724 113.502C88.0284 112.614 88.1724 111.714 88.2684 110.91L87.3924 110.862C87.3084 111.678 87.1764 112.626 87.0084 113.538C86.5644 113.55 86.1564 113.574 85.8084 113.586L85.9044 114.438L86.8524 114.39C86.6124 115.506 86.3604 116.574 86.1204 117.354C86.7324 117.822 87.4164 118.374 88.0524 118.938C87.5484 119.73 86.8404 120.51 85.8564 121.206C86.0364 121.338 86.3484 121.626 86.4804 121.818C87.4524 121.11 88.1844 120.33 88.7124 119.526C89.2644 120.042 89.7564 120.534 90.0924 120.942L90.6684 120.198C90.3084 119.778 89.7684 119.274 89.1684 118.746C89.9604 117.162 90.1404 115.542 90.1764 114.198L90.8604 114.15ZM96.7884 115.89H94.1484V114.738C94.9884 114.006 95.8404 112.998 96.4284 112.11L95.8164 111.666L95.6124 111.714H91.0044V112.542H95.0004C94.5084 113.238 93.8604 114.018 93.2484 114.522V115.89H90.4764V116.742H93.2484V120.726C93.2484 120.894 93.1764 120.954 92.9844 120.954C92.8044 120.966 92.1444 120.966 91.4364 120.942C91.5684 121.194 91.7124 121.542 91.7604 121.794C92.6964 121.806 93.2724 121.782 93.6444 121.65C94.0164 121.506 94.1484 121.254 94.1484 120.726V116.742H96.7884V115.89ZM106.52 117.666H101.312V116.838H106.52V117.666ZM101.312 120.63V119.742H106.52V120.63H101.312ZM106.52 119.118H101.312V118.278H106.52V119.118ZM108.572 115.302V114.558H102.284C102.428 114.27 102.56 113.97 102.68 113.682H107.876V112.962H102.932C103.028 112.662 103.124 112.374 103.208 112.074C104.924 111.978 106.556 111.822 107.756 111.57L107.192 110.922C105.296 111.306 101.672 111.498 98.7684 111.522C98.8524 111.714 98.9364 112.002 98.9484 112.206C99.9804 112.206 101.108 112.182 102.224 112.122C102.152 112.41 102.068 112.686 101.972 112.962H98.9364V113.682H101.708C101.6 113.97 101.456 114.27 101.312 114.558H98.0604V115.302H100.892C100.148 116.55 99.1164 117.666 97.7724 118.446C97.9404 118.602 98.2044 118.926 98.3244 119.13C99.1404 118.638 99.8484 118.038 100.46 117.366V121.818H101.312V121.35H106.52V121.818H107.396V116.13H101.42C101.6 115.866 101.756 115.578 101.912 115.302H108.572ZM114.332 118.614C115.592 118.17 116.408 117.186 116.408 115.89C116.408 115.05 116.048 114.51 115.388 114.51C114.896 114.51 114.476 114.81 114.476 115.374C114.476 115.938 114.884 116.226 115.376 116.226C115.448 116.226 115.508 116.226 115.58 116.214C115.52 117.03 114.992 117.594 114.068 117.978L114.332 118.614ZM124.604 117.918H130.04V118.758H124.604V117.918ZM130.04 113.982V114.786H124.604V113.982H130.04ZM130.04 116.622V117.342H124.604V116.622H130.04ZM130.04 116.046H124.604V115.362H130.04V116.046ZM132.608 118.758H130.928V113.37H127.472C127.52 113.142 127.568 112.89 127.616 112.614H132.308V111.846H127.748L127.904 110.922L126.956 110.814C126.932 111.114 126.896 111.486 126.848 111.846H122.372V112.614H126.74C126.716 112.89 126.668 113.142 126.62 113.37H123.74V118.758H122.036V119.514H132.608V118.758ZM125.492 119.754C124.736 120.258 123.236 120.846 122.036 121.17C122.228 121.338 122.504 121.614 122.648 121.794C123.836 121.458 125.324 120.858 126.272 120.258L125.492 119.754ZM128.432 120.294C129.764 120.738 131.12 121.314 131.936 121.77L132.656 121.146C131.78 120.714 130.316 120.138 128.984 119.718L128.432 120.294ZM137.732 116.058H135.212V113.55H137.732V116.058ZM135.212 119.73V116.85H137.732V119.73H135.212ZM136.22 110.802C136.136 111.366 135.92 112.17 135.74 112.746H134.396V121.482H135.212V120.534H138.548V112.746H136.556C136.76 112.23 136.976 111.57 137.18 110.982L136.22 110.802ZM144.416 112.71H140.828C141.032 112.146 141.2 111.57 141.344 110.982L140.492 110.778C140.108 112.422 139.46 114.078 138.656 115.134C138.848 115.254 139.232 115.494 139.388 115.638C139.808 115.074 140.18 114.342 140.516 113.538H143.564C143.408 118.314 143.228 120.138 142.832 120.558C142.712 120.714 142.58 120.738 142.34 120.738C142.064 120.738 141.344 120.738 140.564 120.666C140.732 120.918 140.84 121.278 140.864 121.542C141.536 121.578 142.22 121.602 142.64 121.554C143.048 121.518 143.324 121.41 143.588 121.074C144.068 120.486 144.224 118.638 144.416 113.166V112.71ZM142.52 118.11C142.136 117.402 141.308 116.25 140.636 115.398L139.94 115.806C140.6 116.67 141.404 117.858 141.764 118.578L142.52 118.11ZM149.096 114.45V113.01H150.5C150.188 113.514 149.828 113.994 149.456 114.45H149.096ZM150.644 118.302H147.956V117.138H150.644V118.302ZM147.956 120.282V119.022H150.644V120.282H147.956ZM151.424 111.258C151.172 111.822 150.908 112.362 150.584 112.878V112.218H149.096V110.934H148.256V112.218H146.42V113.01H148.256V114.45H145.88V115.242H148.724C147.824 116.142 146.78 116.886 145.616 117.462C145.784 117.642 146.072 118.014 146.18 118.194C146.504 118.014 146.828 117.822 147.128 117.618V121.734H147.956V121.026H150.644V121.566H151.496V116.406H148.7C149.108 116.046 149.48 115.65 149.84 115.242H152.036V114.45H150.488C151.16 113.562 151.76 112.578 152.228 111.486L151.424 111.258ZM156.2 111.474L156.056 111.51H152.54V121.794H153.416V112.362H155.648C155.264 113.322 154.7 114.594 154.184 115.614C155.444 116.658 155.816 117.558 155.816 118.314C155.828 118.746 155.732 119.106 155.468 119.25C155.312 119.334 155.108 119.382 154.904 119.394C154.64 119.418 154.28 119.406 153.884 119.37C154.04 119.622 154.136 119.994 154.148 120.246C154.52 120.27 154.94 120.27 155.264 120.234C155.564 120.198 155.852 120.114 156.068 119.958C156.512 119.682 156.692 119.13 156.68 118.398C156.68 117.546 156.356 116.61 155.096 115.494C155.672 114.39 156.332 113.022 156.836 111.894L156.2 111.474ZM166.844 113.286C166.748 116.61 166.616 117.822 166.388 118.11C166.28 118.254 166.172 118.278 165.992 118.266C165.788 118.278 165.308 118.266 164.792 118.218C164.912 118.458 165.008 118.818 165.02 119.07C165.584 119.106 166.1 119.106 166.412 119.07C166.736 119.034 166.964 118.938 167.168 118.662C167.504 118.23 167.624 116.838 167.756 112.854V112.434H161.132C161.396 111.99 161.648 111.522 161.864 111.03L160.964 110.766C160.268 112.398 159.092 113.946 157.772 114.918C158 115.062 158.348 115.398 158.516 115.566C159.248 114.966 159.956 114.186 160.592 113.286H166.844ZM163.688 115.326V117.258H160.568V115.326H163.688ZM162.068 120.69C160.796 120.69 160.568 120.522 160.568 119.874V118.062H164.564V114.522H159.692V119.874C159.692 121.206 160.244 121.53 162.116 121.53H166.64C168.26 121.53 168.62 121.086 168.8 119.514C168.548 119.466 168.164 119.334 167.948 119.19C167.816 120.426 167.648 120.69 166.628 120.69H162.068ZM179.3 111.702L179.084 111.762H170.516V112.638H178.232C177.332 113.49 176.048 114.426 174.896 114.99V120.618C174.896 120.834 174.824 120.894 174.572 120.906C174.296 120.918 173.372 120.93 172.376 120.894C172.52 121.134 172.688 121.53 172.736 121.782C173.948 121.782 174.74 121.77 175.196 121.626C175.664 121.494 175.82 121.23 175.82 120.618V115.434C177.308 114.63 178.94 113.382 179.996 112.218L179.3 111.702ZM185.528 116.322C185.528 117.33 186.356 118.146 187.352 118.146C188.36 118.146 189.176 117.33 189.176 116.322C189.176 115.314 188.36 114.498 187.352 114.498C186.356 114.498 185.528 115.314 185.528 116.322ZM186.14 116.322C186.14 115.65 186.692 115.11 187.352 115.11C188.024 115.11 188.564 115.65 188.564 116.322C188.564 116.994 188.024 117.534 187.352 117.534C186.692 117.534 186.14 116.994 186.14 116.322ZM115.681 167.882H125.305V167.114H115.681V167.882ZM133.299 169.178V161.054H132.387V163.862H129.351V164.738H132.387V169.526C131.091 170.03 129.855 170.486 128.991 170.786L129.399 171.662C130.779 171.122 132.639 170.342 134.355 169.598L134.199 168.83L133.299 169.178ZM136.767 170.438C136.311 170.438 136.227 170.33 136.227 169.73V164.726H139.575V163.85H136.227V161.066H135.327V169.718C135.327 170.966 135.627 171.314 136.659 171.314H138.267C139.419 171.314 139.635 170.462 139.731 168.002C139.479 167.942 139.119 167.762 138.879 167.57C138.807 169.862 138.735 170.438 138.195 170.438H136.767ZM147.051 162.098H149.139V164.018C149.139 164.906 149.331 165.254 150.159 165.254H151.167C151.407 165.254 151.659 165.242 151.815 165.194C151.779 164.99 151.755 164.654 151.743 164.426C151.587 164.462 151.323 164.486 151.143 164.486H150.219C150.027 164.486 149.991 164.366 149.991 164.03V161.258H146.211V162.578C146.211 163.43 145.995 164.414 144.675 165.146C144.831 165.29 145.143 165.626 145.251 165.806C146.727 164.954 147.051 163.67 147.051 162.602V162.098ZM144.867 166.91L144.747 166.094L143.631 166.418V164.078H145.119V163.238H143.631V160.838H142.755V163.238H141.123V164.078H142.755V166.658C142.083 166.85 141.471 167.018 140.979 167.138L141.243 168.002L142.755 167.558V170.654C142.755 170.822 142.695 170.882 142.527 170.882C142.383 170.882 141.867 170.894 141.291 170.87C141.399 171.11 141.531 171.47 141.567 171.698C142.383 171.698 142.887 171.674 143.187 171.53C143.499 171.398 143.631 171.158 143.631 170.654V167.282L144.867 166.91ZM149.955 166.934C149.523 167.846 148.863 168.602 148.083 169.226C147.315 168.578 146.679 167.81 146.259 166.934H149.955ZM150.579 166.058L150.411 166.094H145.047V166.934H145.515L145.395 166.982C145.875 168.05 146.535 168.974 147.351 169.73C146.379 170.33 145.263 170.75 144.111 171.002C144.279 171.194 144.471 171.566 144.555 171.818C145.815 171.494 147.027 171.014 148.071 170.306C149.007 170.99 150.147 171.494 151.431 171.806C151.551 171.554 151.791 171.182 151.995 170.99C150.795 170.738 149.715 170.318 148.815 169.754C149.847 168.89 150.675 167.762 151.155 166.322L150.579 166.058ZM156.419 170.87H157.427V165.998C157.427 165.242 157.343 164.174 157.295 163.406H157.343L158.039 165.41L159.707 169.982H160.451L162.119 165.41L162.815 163.406H162.863C162.803 164.174 162.719 165.242 162.719 165.998V170.87H163.763V162.074H162.419L160.739 166.778C160.535 167.39 160.343 168.002 160.139 168.614H160.079C159.863 168.002 159.659 167.39 159.455 166.778L157.763 162.074H156.419V170.87ZM168.689 171.026C169.577 171.026 170.273 170.726 170.849 170.354L170.453 169.634C169.973 169.958 169.457 170.15 168.821 170.15C167.585 170.15 166.733 169.262 166.661 167.87H171.053C171.077 167.714 171.101 167.486 171.101 167.246C171.101 165.386 170.165 164.186 168.509 164.186C166.997 164.186 165.569 165.506 165.569 167.618C165.569 169.766 166.961 171.026 168.689 171.026ZM166.649 167.09C166.781 165.806 167.597 165.062 168.521 165.062C169.541 165.062 170.141 165.77 170.141 167.09H166.649ZM173.858 171.026C174.146 171.026 174.338 170.99 174.494 170.93L174.338 170.09C174.218 170.114 174.17 170.114 174.11 170.114C173.942 170.114 173.798 169.982 173.798 169.646V161.318H172.706V169.574C172.706 170.498 173.042 171.026 173.858 171.026ZM178.659 171.026C180.255 171.026 181.683 169.778 181.683 167.618C181.683 165.446 180.255 164.186 178.659 164.186C177.063 164.186 175.635 165.446 175.635 167.618C175.635 169.778 177.063 171.026 178.659 171.026ZM178.659 170.114C177.531 170.114 176.775 169.118 176.775 167.618C176.775 166.118 177.531 165.098 178.659 165.098C179.787 165.098 180.555 166.118 180.555 167.618C180.555 169.118 179.787 170.114 178.659 170.114ZM185.625 171.026C186.405 171.026 187.089 170.606 187.605 170.102H187.629L187.737 170.87H188.625V161.318H187.533V163.826L187.593 164.954C187.017 164.474 186.525 164.186 185.757 164.186C184.269 164.186 182.937 165.506 182.937 167.618C182.937 169.79 183.993 171.026 185.625 171.026ZM185.865 170.114C184.713 170.114 184.065 169.178 184.065 167.606C184.065 166.118 184.893 165.11 185.949 165.11C186.489 165.11 186.981 165.302 187.533 165.794V169.214C186.993 169.814 186.465 170.114 185.865 170.114ZM190.954 173.678C192.25 173.678 192.922 172.694 193.378 171.41L195.838 164.354H194.77L193.606 167.978C193.426 168.554 193.234 169.214 193.054 169.802H192.994C192.79 169.214 192.562 168.542 192.37 167.978L191.038 164.354H189.898L192.514 170.882L192.37 171.374C192.106 172.178 191.638 172.778 190.894 172.778C190.726 172.778 190.534 172.718 190.402 172.67L190.186 173.546C190.39 173.63 190.642 173.678 190.954 173.678Z" fill="#3E3E3E"/>
<path d="M27.4358 42.5541C26.1398 43.7781 25.4738 45.5601 25.4378 47.9001L27.8138 48.2241V52.9221H22.8458V50.7081C22.8458 48.9441 22.9178 47.4861 23.0618 46.3341C23.2418 45.0021 23.7638 43.7421 24.6278 42.5541C25.0958 41.9421 25.6358 41.4201 26.2478 40.9881L27.4358 42.5541ZM34.8338 42.5541C33.5018 43.6701 32.8178 45.4521 32.7818 47.9001L35.3738 48.2241V52.9221H30.3518V50.7081C30.3518 49.6281 30.3878 48.7641 30.4598 48.1161C30.4598 47.7201 30.4778 47.3421 30.5138 46.9821C30.5498 46.4781 30.6038 46.0821 30.6758 45.7941C30.6758 45.7221 30.7118 45.5781 30.7838 45.3621C30.8558 45.1101 30.9098 44.8941 30.9458 44.7141C30.9818 44.3181 31.1078 43.9581 31.3238 43.6341C31.5398 43.2741 31.7198 42.9681 31.8638 42.7161C32.1878 42.1761 32.7638 41.6001 33.5918 40.9881L34.8338 42.5541Z" fill="#3E3E3E"/>
<path d="M209.564 190.186C210.86 188.962 211.526 187.18 211.562 184.84L209.186 184.516V179.818H214.154V182.032C214.154 183.796 214.082 185.254 213.938 186.406C213.758 187.738 213.236 188.998 212.372 190.186C211.904 190.798 211.364 191.32 210.752 191.752L209.564 190.186ZM202.166 190.186C203.498 189.07 204.182 187.288 204.218 184.84L201.626 184.516V179.818H206.648V182.032C206.648 183.112 206.612 183.976 206.54 184.624C206.54 185.02 206.522 185.398 206.486 185.758C206.45 186.262 206.396 186.658 206.324 186.946C206.324 187.018 206.288 187.162 206.216 187.378C206.144 187.63 206.09 187.846 206.054 188.026C206.018 188.422 205.892 188.782 205.676 189.106C205.46 189.466 205.28 189.772 205.136 190.024C204.812 190.564 204.236 191.14 203.408 191.752L202.166 190.186Z" fill="#3E3E3E"/>
</svg>
