<svg width="292" height="62" viewBox="0 0 292 62" fill="none" xmlns="http://www.w3.org/2000/svg">
<path d="M36.068 35.11H34.934V34.116H36.068V35.11ZM36.068 36.846H34.934V35.81H36.068V36.846ZM31.406 35.81H32.484V36.846H31.406V35.81ZM31.406 34.116H32.484V35.11H31.406V34.116ZM34.234 35.81V36.846H33.184V35.81H34.234ZM33.184 35.11V34.116H34.234V35.11H33.184ZM36.908 33.374H35.046V32.31H34.192V33.374H33.184V32.31H32.33V33.374H30.594V37.588H36.908V33.374ZM37.258 38.316H30.286V39.1H37.258V38.316ZM31.896 40.486H35.606V41.662H31.896V40.486ZM36.572 42.362V39.772H30.972V42.362H36.572ZM29.25 38.33H25.582V37.406H29.25V38.33ZM26.212 33.584H28.606V34.48H27.08V36.65H26.212V33.584ZM27.696 36.65V35.138H28.606V36.65H27.696ZM29.474 32.786H25.358V36.65H24.784V38.652H25.47V40.948C25.47 42.054 25.386 43.496 24.658 44.56C24.868 44.658 25.232 44.952 25.386 45.12C26.212 43.93 26.352 42.222 26.352 40.948V39.072H28.55V41.438C27.696 41.886 26.884 42.306 26.282 42.558L26.674 43.3C27.262 42.964 27.892 42.572 28.55 42.166V44C28.55 44.14 28.508 44.196 28.354 44.196C28.214 44.196 27.724 44.196 27.178 44.182C27.29 44.42 27.43 44.756 27.472 44.98C28.256 44.98 28.732 44.966 29.04 44.84C29.348 44.686 29.432 44.462 29.432 44.014V38.652H30.076V36.65H29.474V32.786ZM28.438 40.738C28.116 40.416 27.472 39.954 26.912 39.604L26.436 40.08C26.954 40.43 27.584 40.976 27.92 41.312L28.438 40.738ZM35.27 43.986C35.48 43.594 35.732 43.104 35.97 42.67L35.018 42.39C34.878 42.838 34.626 43.496 34.416 43.986H33.072C32.932 43.538 32.68 42.908 32.47 42.432L31.658 42.67C31.84 43.062 32.022 43.566 32.148 43.986H30.146V44.798H37.384V43.986H35.27ZM50.46 32.38H49.466V38.582C49.466 38.778 49.41 38.834 49.2 38.834C48.99 38.862 48.29 38.862 47.492 38.834C47.646 39.114 47.8 39.506 47.842 39.786C48.836 39.786 49.508 39.772 49.928 39.618C50.348 39.45 50.46 39.184 50.46 38.61V32.38ZM47.842 33.08H46.876V37.742H47.842V33.08ZM41.724 35.614V33.78H43.446V35.698H41.724V35.614ZM43.446 36.622V39.618H44.426V36.622H46.008V35.698H44.426V33.78H45.728V32.856H39.456V33.78H40.758V35.586V35.698H38.994V36.622H40.688C40.52 37.56 40.086 38.498 38.868 39.24C39.064 39.394 39.414 39.772 39.554 39.968C40.968 39.072 41.486 37.826 41.654 36.622H43.446ZM45.602 43.622V41.858H49.83V40.906H45.602V39.338H44.552V40.906H40.156V41.858H44.552V43.622H38.714V44.602H51.286V43.622H45.602ZM59.168 35.74L59.63 35.6C59.56 35.25 59.322 34.704 59.07 34.298H62.332C62.164 34.732 61.884 35.334 61.646 35.74H59.168ZM61.842 40.948H59.63V39.884H61.842V40.948ZM58.146 34.424C58.398 34.83 58.608 35.362 58.706 35.74H56.788V42.782H57.74V36.566H60.316V37.518H58.23V38.232H60.316V39.226H58.86V42.138H59.63V41.606H62.612V39.226H61.114V38.232H63.2V37.518H61.114V36.566H63.774V41.76C63.774 41.9 63.732 41.956 63.564 41.97C63.382 41.984 62.85 41.984 62.22 41.956C62.332 42.208 62.486 42.586 62.528 42.852C63.354 42.852 63.928 42.838 64.292 42.684C64.656 42.516 64.74 42.264 64.74 41.76V35.74H62.626C62.878 35.348 63.13 34.872 63.368 34.396L63.004 34.298H65.244V33.458H61.338C61.128 33.052 60.806 32.562 60.498 32.198L59.672 32.52C59.882 32.8 60.078 33.136 60.26 33.458H56.284V34.298H58.622L58.146 34.424ZM55.29 34.578C55.066 33.976 54.646 33.066 54.338 32.338L53.428 32.632C53.722 33.36 54.17 34.326 54.38 34.942L55.29 34.578ZM55.584 38.778L55.416 38.82H54.464C54.87 37.868 55.332 36.678 55.71 35.67H52.7V36.608H54.366C53.96 37.714 53.484 38.904 53.078 39.73H54.94C54.73 40.696 54.394 41.774 54.016 42.558C53.554 42.81 53.022 43.426 52.476 44.196L53.19 45.134C53.61 44.252 54.072 43.37 54.394 43.37C54.702 43.37 55.22 43.846 55.78 44.182C56.816 44.798 58.034 44.952 59.882 44.952C61.534 44.952 64.194 44.868 65.23 44.798C65.258 44.49 65.412 44 65.552 43.72C63.984 43.874 61.716 44.014 59.924 44.014C58.258 44.014 56.998 43.916 56.004 43.314C55.514 43.02 55.192 42.768 54.926 42.6C55.402 41.578 55.794 40.192 56.06 38.96L55.584 38.778ZM73.504 39.506V35.796H77.522V39.506H73.504ZM68.422 39.506V35.796H72.426V39.506H68.422ZM73.504 34.774V32.282H72.426V34.774H67.4V41.396H68.422V40.528H72.426V45.064H73.504V40.528H77.522V41.326H78.586V34.774H73.504ZM85.852 41.368C87.322 40.85 88.274 39.702 88.274 38.19C88.274 37.21 87.854 36.58 87.084 36.58C86.51 36.58 86.02 36.93 86.02 37.588C86.02 38.246 86.496 38.582 87.07 38.582C87.154 38.582 87.224 38.582 87.308 38.568C87.238 39.52 86.622 40.178 85.544 40.626L85.852 41.368ZM105.2 37H100.566V34.27H105.2V37ZM105.2 40.766H100.566V37.966H105.2V40.766ZM106.292 33.29H99.502V41.746H106.292V33.29ZM97.92 32.338C97.136 34.48 95.82 36.552 94.434 37.882C94.63 38.134 94.924 38.694 95.036 38.946C95.512 38.442 96.002 37.868 96.45 37.238V45.05H97.472V35.656C98.032 34.704 98.522 33.682 98.928 32.66L97.92 32.338ZM98.326 43.538V44.518H107.468V43.538H98.326ZM120.502 35.39H115.658C115.532 34.62 115.448 33.794 115.406 32.912H112.004V33.836H114.524C114.552 34.382 114.608 34.9 114.678 35.39H109.582V45.064H110.618V36.412H114.258C113.782 38.61 112.634 40.122 110.758 41.032C110.982 41.228 111.304 41.62 111.458 41.858C113.32 40.906 114.468 39.352 115.056 37.21C115.658 39.31 116.736 40.878 118.57 41.788C118.738 41.508 119.074 41.102 119.298 40.878C117.464 40.094 116.414 38.554 115.882 36.412H119.452V43.706C119.452 43.93 119.396 44 119.144 44.014C118.864 44.028 117.996 44.028 117.086 44C117.24 44.28 117.394 44.756 117.436 45.05C118.626 45.05 119.424 45.05 119.9 44.882C120.362 44.7 120.502 44.364 120.502 43.706V35.39ZM133.9 36.748C133.214 37.602 132.122 38.652 131.156 39.464C130.596 38.33 130.232 37.042 129.952 35.558H135.118V34.55H129.084L130.008 34.228C129.854 33.696 129.462 32.856 129.07 32.226L128.034 32.548C128.384 33.164 128.748 34.004 128.902 34.55H122.896V35.558H128.02C126.76 37.238 124.674 38.834 122.532 39.8C122.7 40.01 122.994 40.43 123.106 40.682C123.988 40.262 124.842 39.758 125.654 39.198V43.006C125.654 43.65 125.192 44.056 124.912 44.21C125.094 44.406 125.374 44.812 125.472 45.036C125.836 44.784 126.368 44.588 130.736 43.202C130.652 42.964 130.54 42.544 130.498 42.25L126.704 43.426V38.372C127.6 37.63 128.384 36.818 129.028 35.964C129.77 39.8 131.1 42.432 134.74 44.728C134.866 44.406 135.202 44.028 135.468 43.818C133.704 42.782 132.5 41.662 131.632 40.304C132.654 39.492 133.872 38.372 134.782 37.378L133.9 36.748ZM139.444 32.296C138.87 33.276 137.722 34.466 136.7 35.208C136.854 35.404 137.134 35.754 137.26 35.964C138.38 35.11 139.626 33.822 140.396 32.646L139.444 32.296ZM139.78 35.124C139.01 36.594 137.764 38.05 136.56 39.002C136.756 39.212 137.05 39.716 137.162 39.912C137.596 39.548 138.044 39.114 138.478 38.61V45.12H139.472V37.392C139.934 36.762 140.354 36.104 140.704 35.446L139.78 35.124ZM146.752 40.318C146.234 41.158 145.478 41.872 144.61 42.446C143.91 42.012 143.294 41.494 142.776 40.92C142.958 40.724 143.126 40.528 143.294 40.318H146.752ZM147.522 39.408L147.354 39.45H143.924C144.176 39.1 144.4 38.708 144.596 38.33L147.704 38.134C148.012 38.554 148.25 38.96 148.432 39.282L149.286 38.792C148.81 37.98 147.816 36.692 146.99 35.768L146.178 36.188C146.486 36.538 146.808 36.944 147.13 37.35L142.748 37.588C144.456 36.678 146.178 35.516 147.83 34.158L146.878 33.626C146.304 34.144 145.66 34.662 145.03 35.124L142.538 35.208C143.434 34.578 144.358 33.752 145.198 32.884L144.176 32.436C143.322 33.458 142.09 34.466 141.726 34.732C141.362 34.984 141.068 35.18 140.802 35.222C140.928 35.502 141.096 36.006 141.138 36.23C141.348 36.146 141.726 36.076 143.812 35.978C143.028 36.482 142.384 36.888 142.062 37.056C141.404 37.434 140.914 37.672 140.508 37.728C140.62 37.994 140.788 38.498 140.83 38.694C141.096 38.596 141.46 38.54 143.462 38.414C143.112 39.03 142.65 39.632 142.16 40.164C141.992 39.926 141.852 39.688 141.712 39.436L140.858 39.73C141.068 40.094 141.278 40.458 141.53 40.78C141.152 41.13 140.732 41.438 140.326 41.704C140.536 41.886 140.9 42.278 141.04 42.474C141.404 42.194 141.782 41.9 142.146 41.55C142.594 42.068 143.14 42.558 143.7 42.978C142.566 43.566 141.278 43.986 140.004 44.224C140.2 44.448 140.424 44.854 140.508 45.12C141.936 44.784 143.35 44.294 144.61 43.566C145.772 44.252 147.102 44.77 148.572 45.092C148.712 44.812 148.978 44.42 149.202 44.196C147.858 43.958 146.612 43.524 145.506 42.978C146.668 42.138 147.592 41.074 148.166 39.73L147.522 39.408ZM161.452 43.37H159.352V36.93H161.452V43.37ZM152.506 36.93H154.494V43.37H152.506V36.93ZM158.4 38.47H155.446V36.93H158.4V38.47ZM155.446 41.746H158.4V43.37H155.446V41.746ZM158.4 40.892H155.446V39.324H158.4V40.892ZM163.174 34.214V33.22H150.868V34.214H156.23C156.118 34.788 155.978 35.432 155.824 35.964H151.498V45.078H152.506V44.336H161.452V45.078H162.502V35.964H156.888C157.07 35.432 157.266 34.802 157.434 34.214H163.174ZM166.17 34.592H169.166C168.858 35.824 168.004 36.37 165.316 36.65C165.498 36.832 165.722 37.224 165.806 37.448C168.844 37.07 169.838 36.258 170.188 34.592H171.658V35.782C171.658 36.664 171.882 37.07 172.89 37.07H175.2C175.606 37.07 176.096 37.056 176.306 36.986C176.264 36.734 176.236 36.454 176.208 36.174C175.984 36.23 175.438 36.244 175.144 36.244H173.072C172.736 36.244 172.68 36.132 172.68 35.782V34.592H175.844V35.908H176.894V33.696H171.84C171.714 33.262 171.49 32.66 171.294 32.212L170.244 32.464C170.412 32.828 170.58 33.304 170.678 33.696H165.148V35.922H166.17V34.592ZM172.778 38.526V40.346H167.584C167.752 39.772 167.92 39.114 168.06 38.526H172.778ZM176.95 40.346H173.8V38.526H176.516V37.686H165.876V38.526H167.01C166.814 39.436 166.548 40.528 166.324 41.256H171.35C169.642 42.348 167.052 43.216 164.742 43.636C164.952 43.832 165.232 44.224 165.372 44.49C167.962 43.944 170.944 42.754 172.694 41.256H172.778V43.832C172.778 44.028 172.722 44.07 172.484 44.084C172.274 44.112 171.504 44.112 170.664 44.084C170.818 44.364 170.972 44.756 171.028 45.036C172.106 45.05 172.806 45.036 173.24 44.868C173.66 44.714 173.8 44.448 173.8 43.846V41.256H176.95V40.346ZM189.62 33.878V37.084H186.428V33.878H189.62ZM189.774 42.796C191.006 42.796 191.3 42.208 191.454 40.304C191.16 40.248 190.754 40.08 190.516 39.898C190.432 41.494 190.334 41.844 189.732 41.844H187.254C186.554 41.844 186.428 41.718 186.428 41.116V38.008H190.628V32.954H185.42V41.116C185.42 42.446 185.84 42.796 187.17 42.796H189.774ZM182.564 40.486H184.566V39.562H182.564V37.49H184.692V36.552H182.34V34.788H184.356V33.864H182.34V32.31H181.346V33.864H179.078V34.788H181.346V36.552H178.728V37.49H181.598V42.74C181.038 42.264 180.632 41.578 180.324 40.598C180.366 39.982 180.394 39.324 180.408 38.652L179.428 38.582C179.386 41.074 179.232 43.286 178.42 44.686C178.658 44.798 179.106 45.064 179.288 45.19C179.708 44.406 179.96 43.454 180.128 42.334C181.15 44.238 182.816 44.714 185.77 44.714H191.104C191.174 44.406 191.37 43.93 191.538 43.678C190.684 43.72 186.428 43.72 185.756 43.706C184.426 43.706 183.39 43.608 182.564 43.3V40.486ZM202.08 35.572C201.772 37.126 201.1 38.484 200.092 39.352C200.344 39.464 200.764 39.758 200.96 39.912C201.436 39.464 201.842 38.904 202.192 38.26C203.018 38.946 203.9 39.73 204.376 40.262L205.118 39.548C204.558 38.974 203.48 38.078 202.598 37.392C202.794 36.874 202.962 36.328 203.074 35.74L202.08 35.572ZM195.486 35.572C195.08 37.378 194.212 38.876 192.938 39.828C193.176 39.982 193.582 40.318 193.764 40.5C194.45 39.926 195.052 39.184 195.528 38.302C196.032 38.792 196.55 39.31 196.83 39.66L197.544 38.946C197.194 38.54 196.55 37.924 195.962 37.406C196.172 36.888 196.368 36.342 196.508 35.754L195.486 35.572ZM199.49 35.25H205.048V34.228H199.49V32.296H198.426V34.228H193.064V35.25H198.426V38.666C197.138 40.696 194.828 42.628 192.574 43.552C192.812 43.762 193.148 44.168 193.302 44.42C195.164 43.552 197.04 42.04 198.426 40.262V45.064H199.49V40.22C200.848 42.04 202.752 43.608 204.684 44.462C204.852 44.182 205.188 43.762 205.454 43.538C203.074 42.642 200.736 40.668 199.49 38.568V35.25ZM216.458 39.044H210.62V37.63H216.458V39.044ZM210.578 41.41C210.606 41.046 210.62 40.71 210.62 40.374V39.954H216.458V41.41H210.578ZM219.118 35.068V34.088H211.978C212.188 33.584 212.37 33.052 212.524 32.534L211.488 32.282C211.32 32.884 211.11 33.486 210.872 34.088H206.938V35.068H210.424C209.556 36.874 208.296 38.526 206.658 39.632C206.854 39.842 207.176 40.22 207.316 40.444C208.17 39.842 208.926 39.1 209.584 38.302V40.346C209.584 41.676 209.458 43.216 208.296 44.336C208.52 44.49 208.898 44.924 209.024 45.148C209.85 44.378 210.27 43.328 210.452 42.306H216.458V43.762C216.458 43.972 216.374 44.042 216.136 44.056C215.884 44.056 215.044 44.07 214.106 44.028C214.26 44.322 214.414 44.742 214.456 45.05C215.646 45.05 216.43 45.036 216.892 44.868C217.34 44.7 217.48 44.392 217.48 43.762V36.692H210.704C211.012 36.174 211.292 35.614 211.558 35.068H219.118ZM221.764 33.64V34.676H232.264V33.64H221.764ZM222.66 38.176V39.226H231.172V38.176H222.66ZM220.966 43.006V44.056H233.02V43.006H220.966ZM244.808 41.662V42.46H239.334V41.662H244.808ZM239.334 43.916V43.104H244.808V43.916H239.334ZM238.326 45.064H239.334V44.616H244.808V45.036H245.844V40.962H238.326V45.064ZM239.236 37.91C239.628 38.372 240.034 39.016 240.23 39.422L240.888 39.044C240.706 38.638 240.286 38.022 239.88 37.588L239.236 37.91ZM243.646 39.422C243.968 39.044 244.36 38.484 244.682 37.924L244.01 37.574C243.786 38.008 243.366 38.694 243.058 39.1L243.646 39.422ZM245.34 34.914H236.982V33.766H245.34V34.914ZM240.706 36.692C240.566 36.398 240.3 36.034 240.062 35.754H244.01C243.87 36.034 243.618 36.384 243.38 36.692H240.706ZM245.354 39.674H242.456V37.35H245.354V39.674ZM238.648 37.35H241.476V39.674H238.648V37.35ZM246.39 32.926H235.946V36.986C235.946 39.212 235.834 42.278 234.504 44.462C234.77 44.56 235.218 44.812 235.414 44.994C236.786 42.726 236.982 39.324 236.982 36.986V35.754H239.852L239.208 35.992C239.39 36.202 239.558 36.44 239.712 36.692H237.682V40.332H246.362V36.692H244.402C244.57 36.468 244.752 36.23 244.934 35.992L244.178 35.754H246.39V32.926ZM258.78 42.572C258.01 41.83 256.456 40.696 255.252 39.884C255.448 39.38 255.574 38.876 255.686 38.344H254.622C254.272 39.996 253.502 41.704 250.94 42.558C251.178 42.74 251.458 43.09 251.57 43.342C253.208 42.726 254.202 41.816 254.832 40.752C255.994 41.592 257.338 42.656 258.024 43.342L258.78 42.572ZM260.614 34.34H255.56C255.672 33.71 255.742 33.052 255.798 32.338H254.706C254.664 33.052 254.594 33.724 254.482 34.34H249.386V45.064H250.408V35.362H254.244C253.782 36.776 252.872 37.854 250.996 38.54C251.22 38.722 251.514 39.072 251.64 39.324C253.208 38.722 254.174 37.854 254.776 36.762C256.022 37.518 257.436 38.512 258.192 39.156L258.892 38.344C258.052 37.658 256.442 36.636 255.168 35.908C255.224 35.726 255.28 35.558 255.336 35.362H259.592V43.734C259.592 43.972 259.522 44.056 259.27 44.07C259.004 44.07 258.15 44.084 257.24 44.042C257.38 44.322 257.52 44.798 257.562 45.092C258.724 45.092 259.55 45.078 260.026 44.896C260.474 44.728 260.614 44.392 260.614 43.734V34.34ZM263.414 38.68C263.414 39.198 263.82 39.604 264.338 39.604C264.856 39.604 265.262 39.198 265.262 38.68C265.262 38.162 264.856 37.756 264.338 37.756C263.82 37.756 263.414 38.162 263.414 38.68ZM268.076 38.68C268.076 39.198 268.482 39.604 269 39.604C269.518 39.604 269.924 39.198 269.924 38.68C269.924 38.162 269.518 37.756 269 37.756C268.482 37.756 268.076 38.162 268.076 38.68ZM272.738 38.68C272.738 39.198 273.144 39.604 273.662 39.604C274.18 39.604 274.586 39.198 274.586 38.68C274.586 38.162 274.18 37.756 273.662 37.756C273.144 37.756 272.738 38.162 272.738 38.68Z" fill="#3E3E3E"/>
<path d="M5.43584 24.684C4.13984 25.908 3.47384 27.69 3.43784 30.03L5.81384 30.354V35.052H0.845844V32.838C0.845844 31.074 0.917844 29.616 1.06184 28.464C1.24184 27.132 1.76384 25.872 2.62784 24.684C3.09584 24.072 3.63584 23.55 4.24784 23.118L5.43584 24.684ZM12.8338 24.684C11.5018 25.8 10.8178 27.582 10.7818 30.03L13.3738 30.354V35.052H8.35184V32.838C8.35184 31.758 8.38784 30.894 8.45984 30.246C8.45984 29.85 8.47784 29.472 8.51384 29.112C8.54984 28.608 8.60384 28.212 8.67584 27.924C8.67584 27.852 8.71184 27.708 8.78384 27.492C8.85584 27.24 8.90984 27.024 8.94584 26.844C8.98184 26.448 9.10784 26.088 9.32384 25.764C9.53984 25.404 9.71984 25.098 9.86384 24.846C10.1878 24.306 10.7638 23.73 11.5918 23.118L12.8338 24.684Z" fill="#3E3E3E"/>
<path d="M286.564 45.316C287.86 44.092 288.526 42.31 288.562 39.97L286.186 39.646V34.948H291.154V37.162C291.154 38.926 291.082 40.384 290.938 41.536C290.758 42.868 290.236 44.128 289.372 45.316C288.904 45.928 288.364 46.45 287.752 46.882L286.564 45.316ZM279.166 45.316C280.498 44.2 281.182 42.418 281.218 39.97L278.626 39.646V34.948H283.648V37.162C283.648 38.242 283.612 39.106 283.54 39.754C283.54 40.15 283.522 40.528 283.486 40.888C283.45 41.392 283.396 41.788 283.324 42.076C283.324 42.148 283.288 42.292 283.216 42.508C283.144 42.76 283.09 42.976 283.054 43.156C283.018 43.552 282.892 43.912 282.676 44.236C282.46 44.596 282.28 44.902 282.136 45.154C281.812 45.694 281.236 46.27 280.408 46.882L279.166 45.316Z" fill="#3E3E3E"/>
<rect x="112" width="64" height="18" fill="#96C6DF"/>
<path d="M128.191 14.156C129.811 14.156 130.423 13.016 130.423 11.576V5.252H129.703V11.504C129.703 12.908 129.199 13.508 128.167 13.508C127.447 13.508 126.943 13.22 126.511 12.488L125.971 12.848C126.439 13.7 127.183 14.156 128.191 14.156ZM135.314 14.156C136.238 14.156 136.838 13.856 137.354 13.532L137.09 13.016C136.61 13.352 136.07 13.568 135.386 13.568C134.006 13.568 133.082 12.476 133.046 10.916H137.582C137.606 10.76 137.618 10.592 137.618 10.412C137.618 8.54 136.694 7.436 135.146 7.436C133.694 7.436 132.338 8.732 132.338 10.808C132.338 12.908 133.67 14.156 135.314 14.156ZM133.046 10.364C133.178 8.9 134.114 8.036 135.158 8.036C136.274 8.036 136.982 8.816 136.982 10.364H133.046ZM139.323 14H140.019V9.212C140.763 8.444 141.291 8.06 142.035 8.06C143.019 8.06 143.439 8.672 143.439 10.004V14H144.135V9.908C144.135 8.264 143.523 7.436 142.191 7.436C141.315 7.436 140.655 7.94 140.007 8.576H139.983L139.899 7.604H139.323V14ZM146.436 14H147.132V7.604H146.436V14ZM146.796 6.104C147.108 6.104 147.384 5.876 147.384 5.552C147.384 5.192 147.108 4.976 146.796 4.976C146.472 4.976 146.208 5.192 146.208 5.552C146.208 5.876 146.472 6.104 146.796 6.104ZM152.23 4.52C151.93 4.388 151.594 4.304 151.27 4.304C150.19 4.304 149.626 4.988 149.626 6.26V7.604L148.738 7.664V8.192H149.626V14H150.322V8.192H151.774V7.604H150.322V6.296C150.322 5.396 150.622 4.892 151.306 4.892C151.546 4.892 151.798 4.952 152.062 5.072L152.23 4.52ZM155.412 14.156C156.336 14.156 156.936 13.856 157.452 13.532L157.188 13.016C156.708 13.352 156.168 13.568 155.484 13.568C154.104 13.568 153.18 12.476 153.144 10.916H157.68C157.704 10.76 157.716 10.592 157.716 10.412C157.716 8.54 156.792 7.436 155.244 7.436C153.792 7.436 152.436 8.732 152.436 10.808C152.436 12.908 153.768 14.156 155.412 14.156ZM153.144 10.364C153.276 8.9 154.212 8.036 155.256 8.036C156.372 8.036 157.08 8.816 157.08 10.364H153.144ZM159.421 14H160.117V9.704C160.585 8.516 161.269 8.096 161.833 8.096C162.085 8.096 162.205 8.12 162.421 8.204L162.565 7.58C162.361 7.472 162.169 7.436 161.917 7.436C161.173 7.436 160.537 7.988 160.105 8.792H160.081L159.997 7.604H159.421V14Z" fill="white"/>
</svg>
