<svg width="118" height="87" viewBox="0 0 118 87" fill="none" xmlns="http://www.w3.org/2000/svg">
<path d="M4.71857 35.912V37.228H2.61857V35.912H4.71857ZM7.75657 37.228H5.67057V35.912H7.75657V37.228ZM5.67057 39.44V38.04H7.75657V39.44H5.67057ZM2.61857 39.44V38.04H4.71857V39.44H2.61857ZM1.66657 41.036H2.61857V40.266H7.75657V40.868H8.75057V35.086H1.66657V41.036ZM7.16857 33.238H3.10857V31.67H7.16857V33.238ZM2.15657 30.83V34.078H8.16257V30.83H2.15657ZM1.28857 29.836H8.96057V28.926H1.28857V29.836ZM10.7946 29.976H9.87057V37.676H10.7946V29.976ZM12.2926 28.562V39.72C12.2926 39.958 12.1946 40.042 11.9426 40.042C11.7186 40.056 10.9206 40.07 10.0246 40.028C10.1786 40.322 10.3326 40.784 10.3746 41.064C11.5646 41.078 12.2786 41.05 12.7126 40.868C13.1326 40.7 13.3006 40.392 13.3006 39.72V28.562H12.2926ZM22.2886 36.192C21.3366 36.304 20.3426 36.402 19.4046 36.5V36.024C20.3286 35.352 21.3366 34.442 22.0506 33.588L21.3646 33.056L21.1266 33.126H15.8766V34.022H20.3146C19.7406 34.624 19.0266 35.268 18.3966 35.688V36.598C17.1506 36.724 16.0026 36.822 15.1206 36.906L15.2326 37.9C16.1146 37.802 17.2206 37.69 18.3966 37.55V39.93C18.3966 40.098 18.3406 40.14 18.1446 40.154C17.9626 40.168 17.2906 40.168 16.6046 40.14C16.7166 40.406 16.8706 40.784 16.9266 41.064C17.8926 41.064 18.4946 41.064 18.9006 40.91C19.2926 40.742 19.4046 40.49 19.4046 39.958V37.452C20.3566 37.34 21.3506 37.228 22.3026 37.116L22.2886 36.192ZM17.7386 32.664C17.5286 32.048 17.0946 31.054 16.6746 30.312L15.8346 30.648C16.2126 31.39 16.6606 32.398 16.8426 33.042L17.7386 32.664ZM17.9346 30.354C18.2146 31.124 18.5506 32.146 18.6906 32.79L19.5866 32.468C19.4326 31.838 19.0826 30.858 18.7886 30.102L17.9346 30.354ZM20.7766 32.944C21.2526 32.23 21.8406 31.068 22.3026 30.116L21.3086 29.724C21.0006 30.606 20.4126 31.866 19.9506 32.622L20.7766 32.944ZM21.7286 28.268C20.3006 28.702 17.6546 28.996 15.4566 29.136C15.5686 29.374 15.7086 29.752 15.7366 29.99C17.9906 29.864 20.6926 29.598 22.4426 29.094L21.7286 28.268ZM24.7666 39.776C24.3046 39.776 24.2066 39.664 24.2066 38.978V28.66H23.1846V38.964C23.1846 40.322 23.4926 40.7 24.6406 40.7H26.3626C27.4826 40.7 27.7346 39.916 27.8326 37.634C27.5526 37.564 27.1606 37.368 26.9086 37.172C26.8526 39.258 26.7686 39.776 26.2926 39.776H24.7666ZM32.5366 30.158V33.252H30.5066V30.158H32.5366ZM30.5066 37.396V34.176H32.5366V37.396H30.5066ZM33.5166 29.206H29.5406V39.468H30.5066V38.348H33.5166V29.206ZM34.6646 37.06C35.3366 37.816 36.0926 38.838 36.4286 39.51L37.3386 38.95C36.9746 38.306 36.1906 37.284 35.5326 36.57L34.6646 37.06ZM41.7766 30.9V29.962H38.2766V28.282H37.2546V29.962H33.7686V30.9H37.2546V32.706H34.3846V33.63H39.0886V35.156H33.8246V36.08H39.0886V39.818C39.0886 40.028 39.0186 40.084 38.7946 40.098C38.5706 40.112 37.7866 40.112 36.9326 40.084C37.0726 40.364 37.2266 40.77 37.2686 41.064C38.4026 41.064 39.0886 41.05 39.5366 40.882C39.9566 40.728 40.1106 40.434 40.1106 39.832V36.08H41.7346V35.156H40.1106V33.63H41.3286V32.706H38.2766V30.9H41.7766ZM55.4126 30.312V29.276H43.4566V30.312H49.6446C48.2586 32.706 45.8646 35.03 43.1066 36.416C43.3166 36.654 43.6526 37.06 43.8066 37.326C45.7526 36.304 47.4606 34.862 48.8746 33.252V41.036H49.9806V31.852C50.3306 31.334 50.6666 30.83 50.9746 30.312H55.4126ZM50.2606 33.322C51.9126 34.414 53.9846 36.066 54.9786 37.13L55.8046 36.332C54.7826 35.268 52.6546 33.7 51.0306 32.65L50.2606 33.322ZM60.5366 30.158V33.252H58.5066V30.158H60.5366ZM58.5066 37.396V34.176H60.5366V37.396H58.5066ZM61.5166 29.206H57.5406V39.468H58.5066V38.348H61.5166V29.206ZM62.6646 37.06C63.3366 37.816 64.0926 38.838 64.4286 39.51L65.3386 38.95C64.9746 38.306 64.1906 37.284 63.5326 36.57L62.6646 37.06ZM69.7766 30.9V29.962H66.2766V28.282H65.2546V29.962H61.7686V30.9H65.2546V32.706H62.3846V33.63H67.0886V35.156H61.8246V36.08H67.0886V39.818C67.0886 40.028 67.0186 40.084 66.7946 40.098C66.5706 40.112 65.7866 40.112 64.9326 40.084C65.0726 40.364 65.2266 40.77 65.2686 41.064C66.4026 41.064 67.0886 41.05 67.5366 40.882C67.9566 40.728 68.1106 40.434 68.1106 39.832V36.08H69.7346V35.156H68.1106V33.63H69.3286V32.706H66.2766V30.9H69.7766ZM74.9566 32.23H72.5906V29.794H74.9566V32.23ZM71.6806 28.884V33.14H73.4866V38.81L72.5486 39.048V34.456H71.6806V39.258L70.9666 39.44L71.2326 40.42C72.6046 40.028 74.4806 39.51 76.2446 38.992L76.1186 38.11L74.4106 38.558V35.996H75.9226V35.072H74.4106V33.14H75.9086V28.884H71.6806ZM79.8846 33.196V35.674H77.8686V33.196H79.8846ZM78.9046 39.986C78.0366 39.986 77.8686 39.86 77.8686 39.272V36.556H80.7806V32.328H77.1406C77.4486 31.866 77.7426 31.362 78.0226 30.802H82.0546C82.0406 34.862 81.9986 36.29 81.8026 36.598C81.7046 36.766 81.5926 36.794 81.3966 36.794C81.1586 36.794 80.6266 36.78 80.0526 36.738C80.2066 36.99 80.3186 37.396 80.3326 37.662C80.9206 37.69 81.4806 37.704 81.8306 37.662C82.2086 37.62 82.4746 37.508 82.6846 37.2C82.9926 36.738 83.0066 35.156 83.0346 30.368V29.892H78.4146C78.5966 29.458 78.7366 28.996 78.8766 28.548L77.9526 28.31C77.5326 29.822 76.8046 31.32 75.9086 32.286C76.1186 32.454 76.4826 32.818 76.6086 33C76.7206 32.874 76.8186 32.748 76.9306 32.608V39.272C76.9306 40.546 77.3786 40.868 78.8626 40.868H82.1106C83.4266 40.868 83.7346 40.378 83.8746 38.684C83.5946 38.614 83.2166 38.46 82.9926 38.306C82.9086 39.706 82.7826 39.986 82.0686 39.986H78.9046ZM95.8026 35.24V39.23H91.9666V34.358H96.3766V29.556H95.2566V33.336H91.9666V28.296H90.8466V33.336H87.6406V29.57H86.5626V34.358H90.8466V39.23H87.0666V35.24H85.9466V40.252H95.8026V41.05H96.9226V35.24H95.8026ZM108.515 31.572C108.207 33.126 107.535 34.484 106.527 35.352C106.779 35.464 107.199 35.758 107.395 35.912C107.871 35.464 108.277 34.904 108.627 34.26C109.453 34.946 110.335 35.73 110.811 36.262L111.553 35.548C110.993 34.974 109.915 34.078 109.033 33.392C109.229 32.874 109.397 32.328 109.509 31.74L108.515 31.572ZM101.921 31.572C101.515 33.378 100.647 34.876 99.3726 35.828C99.6106 35.982 100.017 36.318 100.199 36.5C100.885 35.926 101.487 35.184 101.963 34.302C102.467 34.792 102.985 35.31 103.265 35.66L103.979 34.946C103.629 34.54 102.985 33.924 102.397 33.406C102.607 32.888 102.803 32.342 102.943 31.754L101.921 31.572ZM105.925 31.25H111.483V30.228H105.925V28.296H104.861V30.228H99.4986V31.25H104.861V34.666C103.573 36.696 101.263 38.628 99.0086 39.552C99.2466 39.762 99.5826 40.168 99.7366 40.42C101.599 39.552 103.475 38.04 104.861 36.262V41.064H105.925V36.22C107.283 38.04 109.187 39.608 111.119 40.462C111.287 40.182 111.623 39.762 111.889 39.538C109.509 38.642 107.171 36.668 105.925 34.568V31.25ZM28.5204 50.626H24.9084C24.8384 50.234 24.6704 49.632 24.5024 49.184L23.5364 49.31C23.6764 49.702 23.7884 50.22 23.8724 50.626H19.8544V51.48H28.5204V50.626ZM25.2444 51.494C24.9224 51.97 24.3344 52.67 23.8724 53.118V56.072H24.6704V53.118C25.0764 52.74 25.5804 52.25 25.9864 51.774L25.2444 51.494ZM22.7944 51.788C23.0464 52.138 23.3124 52.614 23.4104 52.95L24.0544 52.628C23.9284 52.334 23.6624 51.872 23.3964 51.536L22.7944 51.788ZM22.4024 53.328C22.3604 54.56 22.3184 55.022 22.2204 55.162C22.1504 55.246 22.0804 55.274 21.9684 55.26C21.8564 55.26 21.6184 55.26 21.3244 55.232C21.4224 55.428 21.4924 55.708 21.5204 55.932C21.8004 55.946 22.0944 55.946 22.2764 55.918C22.5424 55.904 22.7104 55.82 22.8364 55.652C23.0464 55.414 23.0884 54.728 23.1444 52.95C23.1444 52.824 23.1584 52.614 23.1584 52.614H20.0784V53.328H20.8764C20.7364 54.35 20.4144 55.12 19.7004 55.596C19.8684 55.736 20.0924 56.03 20.1624 56.184C21.0304 55.568 21.4504 54.602 21.6184 53.328H22.4024ZM19.5744 56.324L19.3924 55.386L18.3984 55.75V53.062H19.3924V52.096H18.3984V49.296H17.4884V52.096H15.9624V53.062H17.4884V56.072C16.8584 56.31 16.2984 56.52 15.8224 56.674L16.1164 57.668C16.5364 57.5 17.0124 57.332 17.4884 57.136V60.804C17.4884 60.986 17.4184 61.028 17.2504 61.028C17.1104 61.042 16.6064 61.042 16.0604 61.028C16.1864 61.308 16.3124 61.7 16.3544 61.952C17.1384 61.952 17.6424 61.924 17.9644 61.77C18.2864 61.602 18.3984 61.336 18.3984 60.804V56.786L19.5744 56.324ZM21.9824 59.04C22.0384 58.69 22.0524 58.34 22.0524 58.018V57.892H26.5604V59.04H21.9824ZM26.5604 57.052H22.0524V56.142H21.0724V58.004C21.0724 59.082 20.8624 60.538 19.4484 61.532C19.6864 61.658 20.0504 61.924 20.2184 62.106C21.0864 61.49 21.5624 60.692 21.8004 59.88H26.5604V62.092H27.5404V56.128H26.5604V57.052ZM27.7784 52.082C27.2464 52.404 26.3224 52.726 25.4824 52.936V54.63C25.4824 55.162 25.3144 55.386 25.1604 55.47C25.2864 55.638 25.4544 55.988 25.5244 56.156V56.17C25.6784 56.058 25.9584 55.918 27.3584 55.456C27.3304 55.316 27.2744 55.05 27.2464 54.868L26.1544 55.176V53.412C26.4204 53.356 26.6864 53.272 26.9524 53.188C27.1764 54.322 27.5404 55.428 28.1844 56.002C28.2964 55.82 28.5064 55.568 28.6744 55.456C28.0864 54.98 27.7224 54.014 27.5124 53.006C27.8484 52.88 28.1424 52.754 28.4224 52.614L27.7784 52.082ZM38.6144 49.982C39.4964 50.458 40.5604 51.172 41.0924 51.662L41.7364 50.948C41.1904 50.458 40.0984 49.786 39.2304 49.352L38.6144 49.982ZM40.6024 53.762C40.1684 55.176 39.5664 56.436 38.8104 57.542C38.4324 56.212 38.1804 54.546 38.0404 52.684H42.4924V51.662H37.9704C37.9284 50.906 37.9144 50.122 37.9144 49.31H36.8364C36.8504 50.108 36.8644 50.892 36.9204 51.662H31.0824V55.568C31.0824 57.374 30.9564 59.768 29.8084 61.476C30.0464 61.602 30.4944 61.966 30.6764 62.176C31.9364 60.356 32.1464 57.542 32.1464 55.582V55.47H34.6944C34.6384 57.878 34.5684 58.76 34.3724 58.97C34.2884 59.096 34.1484 59.124 33.9524 59.124C33.7144 59.124 33.1124 59.11 32.4684 59.054C32.6364 59.32 32.7484 59.712 32.7624 60.034C33.4484 60.062 34.0784 60.062 34.4284 60.034C34.8204 59.992 35.0584 59.894 35.2684 59.628C35.5624 59.264 35.6464 58.088 35.7164 54.952V54.504H32.1464V52.684H36.9764C37.1584 54.938 37.4944 56.996 37.9984 58.578C37.1024 59.628 36.0244 60.496 34.7784 61.168C35.0164 61.364 35.3804 61.784 35.5344 61.994C36.6124 61.364 37.5784 60.58 38.4184 59.67C39.0624 61.112 39.9024 61.966 40.9804 61.966C42.0444 61.966 42.4224 61.28 42.6184 58.9C42.3384 58.816 41.9604 58.578 41.7224 58.34C41.6244 60.202 41.4564 60.93 41.0644 60.93C40.3504 60.93 39.7064 60.132 39.1884 58.76C40.2244 57.43 41.0504 55.834 41.6524 54.028L40.6024 53.762ZM49.7444 49.492V60.622C49.7444 60.902 49.6324 61 49.3384 61C49.0724 61.014 48.0644 61.028 47.0424 60.986C47.2104 61.28 47.4064 61.77 47.4764 62.064C48.7784 62.078 49.6464 62.05 50.1504 61.882C50.6404 61.7 50.8504 61.392 50.8504 60.622V49.492H49.7444ZM53.0904 53.02C54.2804 55.022 55.4004 57.626 55.7364 59.278L56.8284 58.816C56.4784 57.136 55.3024 54.602 54.0704 52.642L53.0904 53.02ZM46.0904 52.74C45.7544 54.616 44.9844 57.024 43.7384 58.494C44.0184 58.606 44.4664 58.858 44.7184 59.04C45.9784 57.486 46.7904 54.98 47.2384 52.95L46.0904 52.74ZM60.9444 51.102H58.6484V51.704H64.1644V51.102H61.9244V50.584H64.4584V49.968H61.9244V49.282H60.9444V49.968H58.4104V50.584H60.9444V51.102ZM63.1704 53.93C63.1144 54.28 63.0724 54.448 62.9884 54.518C62.9184 54.602 62.8344 54.602 62.6664 54.602C62.4984 54.602 62.0644 54.602 61.5744 54.56C61.6724 54.714 61.7564 54.966 61.7704 55.12C62.2744 55.162 62.8064 55.162 63.0444 55.148C63.3524 55.148 63.5904 55.092 63.7444 54.938C63.9544 54.756 64.0524 54.392 64.1364 53.636C64.1364 53.538 64.1504 53.328 64.1504 53.328H61.0144C61.0564 53.188 61.0984 53.048 61.1404 52.894H64.4864V52.292H62.1064C62.0084 52.096 61.8824 51.886 61.7704 51.718L60.9024 51.914C60.9724 52.012 61.0424 52.152 61.1124 52.292H58.0604V52.894H60.1744C59.9084 53.818 59.3064 54.476 57.8364 54.868C58.0184 55.008 58.2704 55.344 58.3824 55.554C59.5864 55.19 60.3004 54.672 60.7204 53.93H63.1704ZM62.3164 60.314C61.2804 60.748 59.5584 61.126 58.1444 61.35C58.3404 61.546 58.6204 61.952 58.7464 62.148C60.1604 61.826 61.9664 61.28 63.1424 60.734L62.3164 60.314ZM60.9024 58.774H67.6224V59.558H60.9024V58.774ZM60.9024 57.402H67.6224V58.158H60.9024V57.402ZM60.9024 56.03H67.6224V56.786H60.9024V56.03ZM68.6444 60.202V55.386H59.9084V60.202H65.8024L65.4384 60.832C67.0904 61.224 68.7564 61.714 69.8064 62.106L70.2684 61.378C69.2044 61.028 67.5384 60.552 65.9424 60.202H68.6444ZM66.1524 51.2H68.5324C68.3504 51.872 67.9584 52.46 67.3984 52.936C66.8524 52.46 66.4184 51.914 66.0964 51.284L66.1524 51.2ZM70.4784 51.2V50.402H66.6284C66.7964 50.108 66.9364 49.828 67.0484 49.52L66.1384 49.296C65.7604 50.29 65.0884 51.242 64.3044 51.886C64.5144 52.026 64.8644 52.348 65.0044 52.516C65.2004 52.348 65.3684 52.166 65.5504 51.97C65.8724 52.516 66.2644 53.006 66.7124 53.44C66.0264 53.874 65.1584 54.182 64.1504 54.392C64.3184 54.546 64.5564 54.91 64.6264 55.106C65.7184 54.882 66.6424 54.504 67.4124 54.014C68.1964 54.588 69.1064 55.036 70.1424 55.302C70.2684 55.078 70.5064 54.728 70.7024 54.546C69.7364 54.336 68.8684 53.958 68.1264 53.482C68.8124 52.852 69.3024 52.096 69.5684 51.2H70.4784ZM82.0144 59.572C81.2444 58.83 79.6904 57.696 78.4864 56.884C78.6824 56.38 78.8084 55.876 78.9204 55.344H77.8564C77.5064 56.996 76.7364 58.704 74.1744 59.558C74.4124 59.74 74.6924 60.09 74.8044 60.342C76.4424 59.726 77.4364 58.816 78.0664 57.752C79.2284 58.592 80.5724 59.656 81.2584 60.342L82.0144 59.572ZM83.8484 51.34H78.7944C78.9064 50.71 78.9764 50.052 79.0324 49.338H77.9404C77.8984 50.052 77.8284 50.724 77.7164 51.34H72.6204V62.064H73.6424V52.362H77.4784C77.0164 53.776 76.1064 54.854 74.2304 55.54C74.4544 55.722 74.7484 56.072 74.8744 56.324C76.4424 55.722 77.4084 54.854 78.0104 53.762C79.2564 54.518 80.6704 55.512 81.4264 56.156L82.1264 55.344C81.2864 54.658 79.6764 53.636 78.4024 52.908C78.4584 52.726 78.5144 52.558 78.5704 52.362H82.8264V60.734C82.8264 60.972 82.7564 61.056 82.5044 61.07C82.2384 61.07 81.3844 61.084 80.4744 61.042C80.6144 61.322 80.7544 61.798 80.7964 62.092C81.9584 62.092 82.7844 62.078 83.2604 61.896C83.7084 61.728 83.8484 61.392 83.8484 60.734V51.34ZM85.7664 58.956L92.4724 56.324V55.302L85.7664 52.67V53.776L89.0704 54.994L91.1704 55.778V55.834L89.0704 56.618L85.7664 57.836V58.956ZM100.238 58.956V57.836L96.934 56.618L94.834 55.834V55.778L96.934 54.994L100.238 53.776V52.67L93.532 55.302V56.324L100.238 58.956Z" fill="#3E3E3E"/>
<rect x="26" width="64" height="18" fill="#96C6DF"/>
<path d="M57.376 9.416H52.324V7.94C53.668 7.268 55.288 6.188 56.332 5.168L55.912 4.856L55.768 4.892H47.872V5.456H55.156C54.232 6.248 52.864 7.112 51.736 7.628V9.416H46.66V9.98H51.736V14C51.736 14.228 51.664 14.288 51.424 14.3C51.16 14.312 50.284 14.324 49.24 14.288C49.348 14.48 49.456 14.708 49.504 14.888C50.692 14.888 51.424 14.876 51.796 14.78C52.18 14.672 52.324 14.492 52.324 14V9.98H57.376V9.416ZM66.208 6.476H66.76V5.432H69.196V4.916H66.76V4.016H66.208V4.916H64.348V5.432H66.208V6.476ZM59.128 6.98V8.9H59.668V7.484H68.32V8.9H68.872V6.98H64.444C64.3 6.656 64.072 6.212 63.856 5.876L63.292 6.032C63.472 6.308 63.676 6.668 63.796 6.98H59.128ZM67.588 8.3H60.448V8.756H67.588V8.3ZM61.276 11.528H66.7V12.62H61.276V11.528ZM61.276 10.052H66.7V11.096H61.276V10.052ZM67.264 13.064V9.608H60.724V13.064H67.264ZM61.384 6.476H61.936V5.444H63.568V4.916H61.936V4.016H61.384V4.916H58.708V5.444H61.384V6.476ZM58.732 13.94V14.456H69.28V13.94H58.732Z" fill="white"/>
<path d="M0 71H44L51 81L58 71H118" stroke="#3E3E3E"/>
</svg>
