<svg width="171" height="69" viewBox="0 0 171 69" fill="none" xmlns="http://www.w3.org/2000/svg">
<path d="M35.924 33.102V35.748H33.642V33.102H35.924ZM33.642 39.472V36.7H35.924V39.472H33.642ZM36.904 40.438V32.15H32.662V41.726H33.642V40.438H36.904ZM39.522 38.66C39.592 38.03 39.606 37.414 39.606 36.84V36.21H43.302V38.66H39.522ZM43.302 32.864V35.258H39.606V32.864H43.302ZM44.324 31.884H38.584V36.84C38.584 38.996 38.346 41.642 36.12 43.462C36.344 43.588 36.75 43.952 36.89 44.148C38.388 42.93 39.088 41.264 39.382 39.612H43.302V42.706C43.302 42.944 43.204 43.028 42.966 43.042C42.714 43.042 41.832 43.056 40.95 43.028C41.104 43.308 41.272 43.756 41.314 44.05C42.504 44.05 43.274 44.022 43.736 43.854C44.17 43.672 44.324 43.364 44.324 42.706V31.884ZM49.924 33.102V35.748H47.642V33.102H49.924ZM47.642 39.472V36.7H49.924V39.472H47.642ZM50.904 40.438V32.15H46.662V41.726H47.642V40.438H50.904ZM53.522 38.66C53.592 38.03 53.606 37.414 53.606 36.84V36.21H57.302V38.66H53.522ZM57.302 32.864V35.258H53.606V32.864H57.302ZM58.324 31.884H52.584V36.84C52.584 38.996 52.346 41.642 50.12 43.462C50.344 43.588 50.75 43.952 50.89 44.148C52.388 42.93 53.088 41.264 53.382 39.612H57.302V42.706C57.302 42.944 57.204 43.028 56.966 43.042C56.714 43.042 55.832 43.056 54.95 43.028C55.104 43.308 55.272 43.756 55.314 44.05C56.504 44.05 57.274 44.022 57.736 43.854C58.17 43.672 58.324 43.364 58.324 42.706V31.884ZM67.494 33.382H70.686C70.266 34.11 69.692 34.74 68.978 35.258C68.306 34.698 67.788 34.068 67.452 33.438L67.494 33.382ZM72.66 33.382V32.542H68.04C68.222 32.206 68.39 31.884 68.544 31.534L67.606 31.296C67.06 32.57 66.108 33.76 65.044 34.53C65.24 34.712 65.59 35.104 65.716 35.286C66.122 34.964 66.514 34.572 66.892 34.138C67.228 34.698 67.662 35.244 68.236 35.762C67.298 36.35 66.22 36.77 65.044 37.078C65.24 37.274 65.534 37.708 65.646 37.918C66.864 37.54 67.998 37.036 68.978 36.392C69.874 37.036 70.966 37.568 72.282 37.89C72.422 37.652 72.674 37.26 72.87 37.064C71.652 36.798 70.602 36.364 69.762 35.818C70.602 35.146 71.302 34.348 71.82 33.382H72.66ZM62.804 31.31C62.174 33.466 61.152 35.594 60.004 36.994C60.186 37.246 60.466 37.792 60.564 38.044C60.942 37.568 61.32 37.022 61.67 36.42V44.078H62.678V34.446C63.084 33.536 63.462 32.542 63.756 31.576L62.804 31.31ZM63.812 41.698H64.722V33.158H63.812V41.698ZM66.654 40.298C66.22 41.236 65.506 42.174 64.736 42.818C64.974 42.93 65.366 43.196 65.548 43.336C66.276 42.65 67.046 41.586 67.55 40.55L66.654 40.298ZM72.534 39.724V38.8H69.412V37.372H68.432V38.8H65.436V39.724H68.432V44.05H69.412V39.724H72.534ZM70.224 40.662C70.91 41.404 71.666 42.454 71.988 43.14L72.814 42.692C72.464 42.006 71.708 40.998 70.994 40.256L70.224 40.662ZM77.28 31.338C76.538 33.452 75.306 35.538 74.004 36.896C74.186 37.134 74.494 37.666 74.592 37.918C75.026 37.428 75.474 36.882 75.88 36.28V44.05H76.874V34.67C77.406 33.704 77.868 32.668 78.26 31.646L77.28 31.338ZM86.772 38.226H82.978V35.16H86.17V34.138H82.978V31.464H81.942V34.138H80.08C80.262 33.508 80.416 32.85 80.542 32.192L79.562 31.982C79.24 33.788 78.666 35.608 77.84 36.756C78.106 36.882 78.54 37.134 78.736 37.288C79.114 36.7 79.45 35.972 79.744 35.16H81.942V38.226H77.952V39.248H81.942V44.078H82.978V39.248H86.772V38.226ZM99.036 33.69H97.58V32.388H99.036V33.69ZM96.754 33.69H95.312V32.388H96.754V33.69ZM94.472 33.69H93.086V32.388H94.472V33.69ZM99.974 31.716H92.19V34.362H99.974V31.716ZM100.716 35.02H91.434V35.804H100.716V35.02ZM98.532 38.282H93.604V37.106H98.532V38.282ZM96.166 39.794C97.384 40.55 98.994 41.628 99.806 42.258L100.324 41.6C99.89 41.264 99.19 40.802 98.476 40.354C99.036 40.074 99.652 39.724 100.142 39.346L99.498 38.94H99.554V36.448H92.624V38.94H95.116C94.08 39.57 92.666 40.102 91.462 40.382C91.644 40.564 91.882 40.872 92.022 41.11C92.596 40.942 93.212 40.704 93.828 40.438V41.166C93.828 41.67 93.534 41.838 93.324 41.922C93.464 42.09 93.604 42.454 93.646 42.678C93.884 42.51 94.276 42.384 96.95 41.684C96.922 41.502 96.88 41.18 96.88 40.956L94.724 41.474V39.99C95.312 39.682 95.872 39.318 96.306 38.94H99.372C98.98 39.248 98.364 39.64 97.832 39.948C97.426 39.696 97.02 39.444 96.67 39.234L96.166 39.794ZM90.594 33.62C90.412 33.018 90.09 32.094 89.852 31.366L88.928 31.646C89.166 32.374 89.474 33.326 89.642 33.928L90.594 33.62ZM91.056 37.778L90.888 37.82H89.922C90.328 36.854 90.776 35.678 91.154 34.67H88.2V35.608H89.81C89.418 36.714 88.956 37.904 88.55 38.73H90.398C90.174 39.71 89.838 40.802 89.46 41.586C89.012 41.852 88.494 42.468 87.976 43.196L88.69 44.134C89.11 43.252 89.572 42.37 89.88 42.37C90.202 42.37 90.72 42.846 91.28 43.182C92.316 43.798 93.534 43.952 95.382 43.952C97.034 43.952 99.68 43.868 100.73 43.798C100.758 43.49 100.912 43 101.038 42.72C99.484 42.874 97.216 43.014 95.424 43.014C93.758 43.014 92.498 42.916 91.504 42.314C91 42.02 90.678 41.754 90.412 41.6C90.888 40.564 91.28 39.192 91.546 37.96L91.056 37.778ZM114.478 33.312V32.276H102.522V33.312H108.71C107.324 35.706 104.93 38.03 102.172 39.416C102.382 39.654 102.718 40.06 102.872 40.326C104.818 39.304 106.526 37.862 107.94 36.252V44.036H109.046V34.852C109.396 34.334 109.732 33.83 110.04 33.312H114.478ZM109.326 36.322C110.978 37.414 113.05 39.066 114.044 40.13L114.87 39.332C113.848 38.268 111.72 36.7 110.096 35.65L109.326 36.322ZM119.322 42.034V38.156H121.226V37.246H119.322V35.734H120.806V34.824H117.39C117.922 34.264 118.44 33.606 118.888 32.92C119.714 33.522 120.596 34.25 121.142 34.824L121.632 33.97C121.072 33.424 120.218 32.724 119.336 32.15C119.448 31.954 119.546 31.758 119.644 31.576L118.846 31.212C118.188 32.584 117.082 33.858 116.004 34.684C116.13 34.936 116.368 35.496 116.438 35.734C116.676 35.538 116.886 35.328 117.124 35.104V35.734H118.468V37.246H116.354V38.156H118.468V42.202C117.6 42.384 116.816 42.538 116.2 42.65L116.424 43.588C117.74 43.294 119.574 42.874 121.282 42.468L121.212 41.628L119.322 42.034ZM116.62 39.08C116.858 39.892 117.082 40.97 117.124 41.67L117.852 41.46C117.782 40.774 117.544 39.71 117.306 38.898L116.62 39.08ZM120.33 41.502C120.568 40.858 120.862 39.836 121.1 38.982L120.344 38.73C120.204 39.486 119.924 40.592 119.686 41.278L120.33 41.502ZM127.05 38.828V40.256H123.396V38.828H127.05ZM123.396 42.58V41.11H127.05V42.58H123.396ZM122.472 44.064H123.396V43.448H127.05V44.036H128.03V37.932H122.472V44.064ZM124.138 34.04H126.294V35.874H124.138V34.04ZM127.232 35.874V34.04H128.45V33.116H127.232V31.296H126.294V33.116H124.138V31.296H123.2V33.116H121.87V34.04H123.2V35.874H121.59V36.826H128.842V35.874H127.232ZM135.352 40.368C136.822 39.85 137.774 38.702 137.774 37.19C137.774 36.21 137.354 35.58 136.584 35.58C136.01 35.58 135.52 35.93 135.52 36.588C135.52 37.246 135.996 37.582 136.57 37.582C136.654 37.582 136.724 37.582 136.808 37.568C136.738 38.52 136.122 39.178 135.044 39.626L135.352 40.368ZM32.3846 57H27.7506V54.27H32.3846V57ZM32.3846 60.766H27.7506V57.966H32.3846V60.766ZM33.4766 53.29H26.6866V61.746H33.4766V53.29ZM25.1046 52.338C24.3206 54.48 23.0046 56.552 21.6186 57.882C21.8146 58.134 22.1086 58.694 22.2206 58.946C22.6966 58.442 23.1866 57.868 23.6346 57.238V65.05H24.6566V55.656C25.2166 54.704 25.7066 53.682 26.1126 52.66L25.1046 52.338ZM25.5106 63.538V64.518H34.6526V63.538H25.5106ZM46.6506 58.316C46.4266 57.966 46.0766 57.532 45.6706 57.098C46.1046 56.58 46.4546 56.062 46.7346 55.544L46.0066 55.432C45.8246 55.796 45.5446 56.202 45.2366 56.608C45.0266 56.398 44.8166 56.188 44.6066 55.992C44.9286 55.586 45.1946 55.18 45.4046 54.788L44.6906 54.662C44.5506 54.928 44.3546 55.236 44.1166 55.53C43.8786 55.32 43.6266 55.096 43.3746 54.9L42.8006 55.278C43.0946 55.502 43.3746 55.768 43.6686 56.062C43.3186 56.412 42.9126 56.776 42.4506 57.07C42.6046 57.168 42.8286 57.392 42.9266 57.532C43.3886 57.224 43.7946 56.874 44.1446 56.524C44.3546 56.734 44.5646 56.93 44.7466 57.154C44.2566 57.658 43.6686 58.162 42.9826 58.582C43.1506 58.694 43.3466 58.904 43.4446 59.072C44.1166 58.638 44.6906 58.162 45.1946 57.63C45.5306 58.05 45.8386 58.428 46.0486 58.764L46.6506 58.316ZM46.9306 59.226H42.2546V54.48H46.9306V59.226ZM47.8826 53.612H44.1866C44.3826 53.262 44.5926 52.828 44.7886 52.408L43.7526 52.198C43.6406 52.604 43.4306 53.178 43.2486 53.612H41.3306V60.094H47.8826V53.612ZM45.9786 62.46C45.7126 61.928 45.1106 60.99 44.6346 60.318L43.9486 60.64C44.4246 61.354 44.9846 62.32 45.2646 62.88L45.9786 62.46ZM40.7286 60.36C40.5886 59.674 40.2106 58.54 39.8466 57.672L39.1046 57.882C39.2586 58.246 39.3986 58.666 39.5246 59.072L37.3686 59.436C38.4606 58.12 39.5386 56.468 40.4066 54.816L39.5386 54.382C39.2586 55.026 38.8946 55.67 38.5446 56.272L37.0886 56.412C37.8026 55.348 38.5166 53.976 39.0486 52.646L38.1106 52.268C37.6206 53.766 36.7386 55.39 36.4586 55.796C36.2066 56.216 35.9686 56.51 35.7446 56.566C35.8566 56.832 36.0106 57.28 36.0666 57.49C36.2486 57.392 36.5426 57.322 38.0126 57.14C37.5086 57.938 37.0606 58.554 36.8366 58.806C36.4446 59.31 36.1226 59.674 35.8426 59.744C35.9546 59.996 36.1086 60.444 36.1506 60.654C36.4166 60.486 36.8226 60.388 39.7626 59.828C39.8466 60.122 39.9026 60.388 39.9446 60.626L40.7286 60.36ZM36.5846 61.228C36.4306 62.348 36.1786 63.594 35.8006 64.448C36.0106 64.504 36.4026 64.63 36.5566 64.728C36.8926 63.874 37.1866 62.558 37.3686 61.368L36.5846 61.228ZM37.8586 61.368C38.0266 62.306 38.1806 63.538 38.2086 64.336L38.9926 64.168C38.9366 63.356 38.7686 62.152 38.6006 61.2L37.8586 61.368ZM39.1466 61.102C39.3706 61.872 39.6366 62.866 39.7486 63.524L40.4626 63.3C40.3786 62.656 40.0986 61.676 39.8466 60.906L39.1466 61.102ZM41.1206 64.35C41.5406 63.566 41.8486 62.292 42.0586 61.368L41.3166 61.102C41.1346 61.998 40.7706 63.23 40.3646 63.986L41.1206 64.35ZM43.8366 63.944C43.3046 63.944 43.2206 63.888 43.2206 63.566V61.102H42.3246V63.58C42.3246 64.49 42.6186 64.728 43.7526 64.728H45.7686C46.6926 64.728 46.9446 64.35 47.0426 62.824C46.7906 62.754 46.4546 62.642 46.2586 62.488C46.2026 63.776 46.1186 63.944 45.6846 63.944H43.8366ZM46.6506 61.34C47.0706 62.208 47.6026 63.37 47.8406 64.112L48.6246 63.748C48.3586 63.034 47.8406 61.914 47.3926 61.032L46.6506 61.34ZM51.3546 54.592H54.3506C54.0426 55.824 53.1886 56.37 50.5006 56.65C50.6826 56.832 50.9066 57.224 50.9906 57.448C54.0286 57.07 55.0226 56.258 55.3726 54.592H56.8426V55.782C56.8426 56.664 57.0666 57.07 58.0746 57.07H60.3846C60.7906 57.07 61.2806 57.056 61.4906 56.986C61.4486 56.734 61.4206 56.454 61.3926 56.174C61.1686 56.23 60.6226 56.244 60.3286 56.244H58.2566C57.9206 56.244 57.8646 56.132 57.8646 55.782V54.592H61.0286V55.908H62.0786V53.696H57.0246C56.8986 53.262 56.6746 52.66 56.4786 52.212L55.4286 52.464C55.5966 52.828 55.7646 53.304 55.8626 53.696H50.3326V55.922H51.3546V54.592ZM57.9626 58.526V60.346H52.7686C52.9366 59.772 53.1046 59.114 53.2446 58.526H57.9626ZM62.1346 60.346H58.9846V58.526H61.7006V57.686H51.0606V58.526H52.1946C51.9986 59.436 51.7326 60.528 51.5086 61.256H56.5346C54.8266 62.348 52.2366 63.216 49.9266 63.636C50.1366 63.832 50.4166 64.224 50.5566 64.49C53.1466 63.944 56.1286 62.754 57.8786 61.256H57.9626V63.832C57.9626 64.028 57.9066 64.07 57.6686 64.084C57.4586 64.112 56.6886 64.112 55.8486 64.084C56.0026 64.364 56.1566 64.756 56.2126 65.036C57.2906 65.05 57.9906 65.036 58.4246 64.868C58.8446 64.714 58.9846 64.448 58.9846 63.846V61.256H62.1346V60.346ZM76.1626 54.312V53.276H64.2066V54.312H70.3946C69.0086 56.706 66.6146 59.03 63.8566 60.416C64.0666 60.654 64.4026 61.06 64.5566 61.326C66.5026 60.304 68.2106 58.862 69.6246 57.252V65.036H70.7306V55.852C71.0806 55.334 71.4166 54.83 71.7246 54.312H76.1626ZM71.0106 57.322C72.6626 58.414 74.7346 60.066 75.7286 61.13L76.5546 60.332C75.5326 59.268 73.4046 57.7 71.7806 56.65L71.0106 57.322ZM88.5526 59.24V63.23H84.7166V58.358H89.1266V53.556H88.0066V57.336H84.7166V52.296H83.5966V57.336H80.3906V53.57H79.3126V58.358H83.5966V63.23H79.8166V59.24H78.6966V64.252H88.5526V65.05H89.6726V59.24H88.5526ZM98.2546 62.222C100.187 62.992 102.693 64.252 103.925 65.12L104.415 64.224C103.141 63.384 100.621 62.18 98.7026 61.452L98.2546 62.222ZM98.6746 58.386V57.21H103.155V56.3H98.6746V55.166H103.827V54.228H100.845C101.209 53.738 101.629 53.136 101.965 52.562L100.901 52.24C100.607 52.828 100.117 53.654 99.6966 54.228H96.0146L96.5186 54.004C96.2946 53.5 95.8046 52.772 95.2866 52.24L94.3906 52.604C94.8106 53.094 95.2446 53.738 95.4686 54.228H92.5146V55.166H97.6386V56.3H93.2846V57.21H97.6386V58.386H92.0246V59.31H97.5126C97.4706 59.688 97.4146 60.052 97.3306 60.388H92.3326V61.298H97.0366C96.4066 62.74 95.0346 63.636 91.8006 64.098C91.9966 64.336 92.2626 64.77 92.3466 65.036C96.0146 64.406 97.5126 63.216 98.1706 61.298H104.205V60.388H98.4226C98.4926 60.052 98.5486 59.688 98.5906 59.31H104.429V58.386H98.6746ZM107.509 56.02C107.971 56.524 108.531 57.224 108.797 57.658L109.315 57.28V58.876C108.615 59.324 107.943 59.73 107.439 60.01C107.495 59.198 107.509 58.414 107.509 57.742V56.02ZM109.315 53.752V57.028C109.007 56.608 108.517 56.02 108.069 55.586L107.509 55.95V53.752H109.315ZM118.135 54.102H112.647C112.843 53.584 113.039 53.052 113.193 52.492L112.171 52.282C111.765 53.78 111.093 55.236 110.183 56.244V52.8H106.627V57.742C106.627 59.758 106.557 62.516 105.675 64.49C105.871 64.574 106.249 64.91 106.389 65.106C107.061 63.678 107.327 61.788 107.439 60.08L107.831 60.878C108.307 60.514 108.811 60.136 109.315 59.744V63.818C109.315 64.014 109.245 64.084 109.063 64.084C108.909 64.084 108.349 64.098 107.733 64.07C107.845 64.322 107.971 64.728 107.999 64.98C108.895 64.98 109.413 64.966 109.749 64.798C110.071 64.644 110.183 64.364 110.183 63.832V56.748C110.407 56.902 110.617 57.098 110.743 57.224C110.813 57.154 110.869 57.084 110.939 57V62.978H116.217V56.916H115.405V62.138H111.751V57H110.939C111.387 56.454 111.835 55.796 112.199 55.054H117.183C117.183 61.298 117.127 63.51 116.833 63.916C116.707 64.098 116.595 64.154 116.343 64.14C116.063 64.14 115.307 64.14 114.495 64.084C114.677 64.35 114.789 64.756 114.803 65.036C115.503 65.064 116.273 65.092 116.735 65.036C117.183 64.994 117.463 64.868 117.715 64.476C118.135 63.846 118.135 61.676 118.135 54.634V54.102ZM115.195 61.214C114.929 60.542 114.495 59.688 113.991 58.778C114.369 57.98 114.691 57.14 114.971 56.328L114.229 56.118C114.033 56.734 113.809 57.364 113.543 57.98C113.193 57.378 112.815 56.762 112.479 56.216L111.849 56.524C112.283 57.224 112.745 58.022 113.179 58.806C112.745 59.702 112.283 60.542 111.793 61.2C111.989 61.298 112.311 61.522 112.451 61.648C112.829 61.074 113.235 60.374 113.613 59.618C113.977 60.346 114.313 61.018 114.523 61.564L115.195 61.214ZM128.327 63.174V60.094H130.805V63.174H128.327ZM121.593 60.094H123.931V63.174H121.593V60.094ZM123.931 56.09V59.1H121.593V56.09H123.931ZM127.305 60.094V63.174H124.953V60.094H127.305ZM127.305 56.09V59.1H124.953V56.09H127.305ZM130.805 56.09V59.1H128.327V56.09H130.805ZM128.327 55.068V52.436H127.305V55.068H124.953V52.436H123.931V55.068H120.599V65.078H121.593V64.182H130.805V65.022H131.827V55.068H128.327ZM138.617 60.528C138.505 59.786 138.141 58.526 137.805 57.56L137.007 57.77C137.161 58.204 137.301 58.68 137.427 59.156L135.411 59.422C136.531 58.134 137.637 56.51 138.533 54.9L137.609 54.368C137.301 54.998 136.951 55.642 136.573 56.23L135.117 56.37C135.873 55.334 136.629 53.976 137.231 52.674L136.265 52.268C135.719 53.766 134.781 55.362 134.473 55.768C134.207 56.202 133.969 56.482 133.731 56.538C133.843 56.804 134.011 57.28 134.067 57.49C134.263 57.392 134.557 57.336 135.985 57.154C135.495 57.896 135.047 58.47 134.837 58.708C134.417 59.226 134.109 59.562 133.815 59.632C133.927 59.912 134.095 60.402 134.151 60.626C134.403 60.486 134.837 60.388 137.623 59.982C137.679 60.262 137.735 60.542 137.763 60.78L138.617 60.528ZM134.403 61.228C134.277 62.39 134.067 63.65 133.731 64.518C133.955 64.588 134.347 64.714 134.529 64.812C134.837 63.93 135.089 62.6 135.243 61.368L134.403 61.228ZM135.761 61.34C135.915 62.292 136.055 63.524 136.069 64.336L136.895 64.182C136.853 63.37 136.699 62.152 136.545 61.2L135.761 61.34ZM137.063 61.074C137.315 61.788 137.609 62.74 137.721 63.356L138.491 63.104C138.365 62.502 138.071 61.578 137.791 60.864L137.063 61.074ZM141.403 59.786L141.235 59.828H139.023V60.696H140.829C140.325 62.054 139.331 63.146 138.267 63.678C138.463 63.846 138.743 64.196 138.869 64.42C140.283 63.622 141.501 62.124 142.005 60.01L141.403 59.786ZM140.507 56.594H144.861V57.84H140.507V56.594ZM140.507 54.592H144.861V55.81H140.507V54.592ZM145.533 59.156C145.155 59.632 144.511 60.276 143.965 60.78C143.685 60.262 143.475 59.73 143.307 59.17V58.666H145.869V53.766H142.719C142.901 53.388 143.111 52.94 143.307 52.52L142.145 52.282C142.047 52.716 141.865 53.29 141.669 53.766H139.527V58.666H142.313V63.916C142.313 64.084 142.257 64.126 142.075 64.14C141.907 64.154 141.319 64.154 140.661 64.126C140.801 64.406 140.913 64.798 140.969 65.092C141.865 65.092 142.453 65.078 142.817 64.91C143.195 64.742 143.307 64.462 143.307 63.93V61.298C143.965 62.656 144.847 63.79 145.953 64.476C146.121 64.21 146.415 63.832 146.639 63.65C145.743 63.188 144.959 62.418 144.357 61.466C144.973 61.004 145.687 60.36 146.317 59.786L145.533 59.156ZM149.677 60.906H150.811C150.559 58.708 153.079 57.882 153.079 55.824C153.079 54.298 152.043 53.332 150.461 53.332C149.327 53.332 148.431 53.878 147.787 54.62L148.515 55.292C149.005 54.732 149.621 54.396 150.321 54.396C151.315 54.396 151.833 55.068 151.833 55.908C151.833 57.574 149.355 58.47 149.677 60.906ZM150.279 64.182C150.797 64.182 151.217 63.79 151.217 63.216C151.217 62.642 150.797 62.222 150.279 62.222C149.775 62.222 149.355 62.642 149.355 63.216C149.355 63.79 149.775 64.182 150.279 64.182Z" fill="#3E3E3E"/>
<rect x="51" y="1" width="64" height="18" fill="#96C6DF"/>
<path d="M71.6743 14H76.3783V13.376H72.3943V5.252H71.6743V14ZM79.579 14.156C80.467 14.156 81.115 13.664 81.739 12.944H81.775L81.835 14H82.423V7.604H81.727V12.284C81.007 13.148 80.479 13.532 79.735 13.532C78.751 13.532 78.343 12.92 78.343 11.612V7.604H77.647V11.696C77.647 13.34 78.247 14.156 79.579 14.156ZM87.2211 14.156C88.0251 14.156 88.7091 13.808 89.2611 13.328L88.9251 12.848C88.4931 13.232 87.9171 13.556 87.2571 13.556C85.9131 13.556 85.0251 12.44 85.0251 10.808C85.0251 9.176 85.9971 8.048 87.2691 8.048C87.8691 8.048 88.3371 8.324 88.7331 8.696L89.1291 8.216C88.6851 7.82 88.1091 7.436 87.2571 7.436C85.6731 7.436 84.2931 8.672 84.2931 10.808C84.2931 12.932 85.5531 14.156 87.2211 14.156ZM90.7348 16.88C91.9108 16.88 92.5588 15.848 92.9428 14.744L95.4388 7.604H94.7308L93.4228 11.516C93.2428 12.068 93.0388 12.74 92.8468 13.316H92.7868C92.5588 12.74 92.3188 12.068 92.1148 11.516L90.6268 7.604H89.8708L92.4868 14.096L92.3188 14.636C92.0068 15.56 91.4908 16.256 90.7228 16.256C90.5428 16.256 90.3388 16.208 90.2068 16.16L90.0508 16.748C90.2308 16.832 90.4828 16.88 90.7348 16.88Z" fill="white"/>
<line y1="-0.5" x2="30.5941" y2="-0.5" transform="matrix(-0.196116 0.980581 -0.848822 -0.528678 170 34)" stroke="#3E3E3E"/>
<line x1="0.469438" y1="38.8279" x2="11.4694" y2="68.8279" stroke="#3E3E3E"/>
</svg>
