<svg width="203" height="72" viewBox="0 0 203 72" fill="none" xmlns="http://www.w3.org/2000/svg">
<path d="M17.3626 42.262H25.0066V43.144H17.3626V42.262ZM17.3626 40.68H25.0066V41.562H17.3626V40.68ZM19.9806 35.626H22.2766V36.942H19.9806V35.626ZM19.0146 36.942H16.8026V35.626H19.0146V36.942ZM23.2286 35.626H25.5806V36.942H23.2286V35.626ZM27.3586 44.726H21.6746V43.9H26.0426V39.938H21.5346V39.196H26.7566V38.44H21.5346V37.74H26.6166V34.842H15.7946V37.74H20.4986V39.938H16.3546V43.9H20.6386V44.726H14.9966V45.566H20.6386V47.064H21.6746V45.566H27.3586V44.726ZM33.9386 40.722C33.6306 40.33 32.3566 38.776 31.9226 38.3V37.964H33.6306V36.984H31.9226V34.296H30.9146V36.984H28.8846V37.964H30.7886C30.3686 39.882 29.4866 42.122 28.6046 43.382C28.7866 43.634 29.0666 44.026 29.1926 44.334C29.8366 43.41 30.4386 41.996 30.9146 40.512V47.078H31.9226V39.56C32.4126 40.26 32.9866 41.114 33.2386 41.576L33.9386 40.722ZM41.2186 36.186V35.192H33.7006V36.186H37.3406C36.4306 38.664 34.9886 40.876 33.2246 42.276C33.4626 42.458 33.8686 42.878 34.0226 43.088C35.0026 42.22 35.9266 41.1 36.7106 39.826V47.036H37.7326V37.936C37.9986 37.362 38.2366 36.788 38.4466 36.186H41.2186ZM37.7466 39.084C38.7686 40.26 40.0286 41.856 40.5886 42.85L41.4426 42.206C40.8406 41.226 39.5666 39.672 38.5306 38.552L37.7466 39.084ZM45.8106 38.902V35.99H53.1326V39.406H45.8106V38.902ZM54.1966 40.428V34.968H44.7326V38.888C44.7326 41.184 44.5506 44.236 42.7026 46.392C42.9546 46.532 43.3886 46.924 43.5706 47.134C45.1386 45.286 45.6286 42.654 45.7686 40.428H49.3946C50.2626 43.676 51.9286 46 54.8126 47.05C54.9666 46.756 55.2746 46.322 55.5406 46.112C52.8526 45.272 51.2286 43.2 50.4446 40.428H54.1966ZM58.5506 40.19C59.5866 41.268 60.6646 42.766 61.1126 43.746L62.0366 43.158C61.5886 42.15 60.4686 40.708 59.4326 39.672L58.5506 40.19ZM69.4146 37.25H66.1386V34.296H65.0466V37.25H56.9546V38.272H65.0466V45.524C65.0466 45.846 64.9346 45.944 64.5986 45.958C64.2206 45.972 63.0166 45.972 61.7286 45.93C61.9106 46.252 62.1206 46.77 62.1906 47.092C63.7026 47.092 64.7526 47.064 65.3266 46.882C65.9006 46.714 66.1386 46.364 66.1386 45.51V38.272H69.4146V37.25ZM74.8886 43.452H77.1706V42.584H74.8886V41.156H77.4646V40.274H75.8966C76.2046 39.77 76.5266 39.168 76.8206 38.608L75.8966 38.272C75.6866 38.86 75.2806 39.7 74.9586 40.274H71.3466V41.156H73.9086V42.584H71.6966V43.452H73.9086V45.104C72.7606 45.258 71.7106 45.384 70.8706 45.482L71.0246 46.476C72.8166 46.224 75.4206 45.86 77.8566 45.51L77.8286 44.586C76.8486 44.726 75.8406 44.852 74.8886 44.992V43.452ZM72.0886 38.608C72.5226 39.112 72.9706 39.784 73.1526 40.246L73.9226 39.812C73.7406 39.35 73.2646 38.692 72.8306 38.23L72.0886 38.608ZM83.4846 38.034H82.1406V34.338H81.1326V38.034H77.8846V37.292H75.7846V36.718L76.3446 37.054C76.8066 36.578 77.3946 35.864 77.8986 35.22L77.0586 34.758C76.7646 35.276 76.2046 36.06 75.7846 36.564V34.296H74.9306V37.292H73.8526V34.296H73.0126V36.494C72.7746 35.99 72.2286 35.262 71.7246 34.744L71.0666 35.164C71.5706 35.724 72.1166 36.522 72.3546 37.026L73.0126 36.578V37.292H70.8706V38.188H77.8146V39.014H81.1326V45.776C81.1326 46.014 81.0346 46.084 80.7966 46.098C80.5866 46.112 79.8306 46.112 78.9906 46.084C79.1446 46.364 79.3126 46.812 79.3686 47.078C80.5026 47.078 81.1606 47.05 81.5666 46.882C81.9726 46.7 82.1406 46.42 82.1406 45.776V39.014H83.4846V38.034ZM80.3626 43.27C80.2086 42.416 79.6626 41.114 79.0746 40.106L78.2066 40.414C78.7806 41.436 79.2986 42.766 79.4386 43.62L80.3626 43.27ZM95.8326 35.304L95.5806 35.374H85.5846V36.396H94.5866C93.5366 37.39 92.0386 38.482 90.6946 39.14V45.706C90.6946 45.958 90.6106 46.028 90.3166 46.042C89.9946 46.056 88.9166 46.07 87.7546 46.028C87.9226 46.308 88.1186 46.77 88.1746 47.064C89.5886 47.064 90.5126 47.05 91.0446 46.882C91.5906 46.728 91.7726 46.42 91.7726 45.706V39.658C93.5086 38.72 95.4126 37.264 96.6446 35.906L95.8326 35.304ZM109.721 36.69H108.265V35.388H109.721V36.69ZM107.439 36.69H105.997V35.388H107.439V36.69ZM105.157 36.69H103.771V35.388H105.157V36.69ZM110.659 34.716H102.875V37.362H110.659V34.716ZM111.401 38.02H102.119V38.804H111.401V38.02ZM109.217 41.282H104.289V40.106H109.217V41.282ZM106.851 42.794C108.069 43.55 109.679 44.628 110.491 45.258L111.009 44.6C110.575 44.264 109.875 43.802 109.161 43.354C109.721 43.074 110.337 42.724 110.827 42.346L110.183 41.94H110.239V39.448H103.309V41.94H105.801C104.765 42.57 103.351 43.102 102.147 43.382C102.329 43.564 102.567 43.872 102.707 44.11C103.281 43.942 103.897 43.704 104.513 43.438V44.166C104.513 44.67 104.219 44.838 104.009 44.922C104.149 45.09 104.289 45.454 104.331 45.678C104.569 45.51 104.961 45.384 107.635 44.684C107.607 44.502 107.565 44.18 107.565 43.956L105.409 44.474V42.99C105.997 42.682 106.557 42.318 106.991 41.94H110.057C109.665 42.248 109.049 42.64 108.517 42.948C108.111 42.696 107.705 42.444 107.355 42.234L106.851 42.794ZM101.279 36.62C101.097 36.018 100.775 35.094 100.537 34.366L99.6126 34.646C99.8506 35.374 100.159 36.326 100.327 36.928L101.279 36.62ZM101.741 40.778L101.573 40.82H100.607C101.013 39.854 101.461 38.678 101.839 37.67H98.8846V38.608H100.495C100.103 39.714 99.6406 40.904 99.2346 41.73H101.083C100.859 42.71 100.523 43.802 100.145 44.586C99.6966 44.852 99.1786 45.468 98.6606 46.196L99.3746 47.134C99.7946 46.252 100.257 45.37 100.565 45.37C100.887 45.37 101.405 45.846 101.965 46.182C103.001 46.798 104.219 46.952 106.067 46.952C107.719 46.952 110.365 46.868 111.415 46.798C111.443 46.49 111.597 46 111.723 45.72C110.169 45.874 107.901 46.014 106.109 46.014C104.443 46.014 103.183 45.916 102.189 45.314C101.685 45.02 101.363 44.754 101.097 44.6C101.573 43.564 101.965 42.192 102.231 40.96L101.741 40.778ZM122.769 36.788H115.531V35.654H122.769V36.788ZM122.769 38.678H115.531V37.544H122.769V38.678ZM123.805 34.856H114.509V39.476H123.805V34.856ZM119.815 43.83H124.435V42.906H119.815V41.352H125.345V40.414H113.053V41.352H118.793V45.566C117.589 45.244 116.693 44.6 116.147 43.34C116.287 42.892 116.413 42.43 116.511 41.94L115.461 41.8C115.083 43.844 114.201 45.412 112.745 46.35C112.969 46.518 113.375 46.91 113.515 47.092C114.425 46.42 115.153 45.552 115.699 44.46C116.833 46.35 118.611 46.798 121.425 46.798H125.233C125.289 46.49 125.457 46.042 125.597 45.804C124.883 45.818 121.985 45.818 121.467 45.818C120.879 45.818 120.319 45.79 119.815 45.734V43.83ZM136.643 41.044H130.805V39.63H136.643V41.044ZM130.763 43.41C130.791 43.046 130.805 42.71 130.805 42.374V41.954H136.643V43.41H130.763ZM139.303 37.068V36.088H132.163C132.373 35.584 132.555 35.052 132.709 34.534L131.673 34.282C131.505 34.884 131.295 35.486 131.057 36.088H127.123V37.068H130.609C129.741 38.874 128.481 40.526 126.843 41.632C127.039 41.842 127.361 42.22 127.501 42.444C128.355 41.842 129.111 41.1 129.769 40.302V42.346C129.769 43.676 129.643 45.216 128.481 46.336C128.705 46.49 129.083 46.924 129.209 47.148C130.035 46.378 130.455 45.328 130.637 44.306H136.643V45.762C136.643 45.972 136.559 46.042 136.321 46.056C136.069 46.056 135.229 46.07 134.291 46.028C134.445 46.322 134.599 46.742 134.641 47.05C135.831 47.05 136.615 47.036 137.077 46.868C137.525 46.7 137.665 46.392 137.665 45.762V38.692H130.889C131.197 38.174 131.477 37.614 131.743 37.068H139.303ZM145.029 38.468C145.267 37.908 145.533 37.012 145.785 36.284L145.169 36.06C145.043 36.704 144.777 37.684 144.567 38.286L145.029 38.468ZM142.327 36.242C142.565 36.914 142.733 37.796 142.761 38.37L143.321 38.216C143.279 37.656 143.097 36.774 142.845 36.102L142.327 36.242ZM142.131 35.556H143.643V38.916H142.131V35.556ZM145.967 38.916H144.357V35.556H145.967V38.916ZM140.969 43.578C142.579 43.494 144.861 43.354 147.087 43.186L147.115 42.346C146.219 42.402 145.323 42.458 144.469 42.5V41.464H146.891V40.638H144.469V39.672H146.807V34.8H141.319V39.672H143.531V40.638H141.221V41.464H143.531V42.556C142.537 42.598 141.641 42.654 140.913 42.682L140.969 43.578ZM141.389 47.064C142.005 46.448 142.215 45.37 142.355 44.334L141.613 44.138C141.501 45.104 141.235 46.112 140.689 46.686L141.389 47.064ZM142.803 44.18C142.999 44.964 143.139 45.958 143.139 46.616L143.853 46.518C143.853 45.874 143.699 44.866 143.475 44.11L142.803 44.18ZM144.133 44.11C144.441 44.824 144.735 45.748 144.805 46.364L145.519 46.21C145.421 45.594 145.113 44.67 144.791 43.97L144.133 44.11ZM145.463 43.928C145.925 44.572 146.415 45.468 146.611 46.056L147.311 45.748C147.101 45.174 146.597 44.306 146.107 43.662L145.463 43.928ZM152.057 45.454H148.529V41.856H152.057V45.454ZM153.597 38.3V37.32H150.615V34.31H149.593V40.89H147.577V47.05H148.529V46.392H152.057V46.994H153.037V40.89H150.615V38.3H153.597ZM156.313 36.858H159.365C159.183 38.86 158.567 39.77 155.473 40.218C155.655 40.428 155.893 40.806 155.963 41.058C159.421 40.484 160.205 39.322 160.415 36.858H162.207V39.084C162.207 40.176 162.515 40.554 163.677 40.554H166.141C166.589 40.554 167.079 40.54 167.317 40.47C167.289 40.232 167.247 39.826 167.205 39.546C166.953 39.602 166.407 39.63 166.085 39.63H163.691C163.299 39.63 163.229 39.49 163.229 39.098V36.858H165.973V38.692H167.023V35.906H162.011C161.801 35.402 161.451 34.73 161.129 34.212L160.065 34.52C160.317 34.926 160.555 35.458 160.751 35.906H155.291V39.028H156.313V36.858ZM161.759 42.766H165.847V41.786H156.523V42.766H160.695V45.776H155.263V46.77H167.163V45.776H161.759V42.766ZM173.939 40.722C173.631 40.33 172.357 38.776 171.923 38.3V37.964H173.631V36.984H171.923V34.296H170.915V36.984H168.885V37.964H170.789C170.369 39.882 169.487 42.122 168.605 43.382C168.787 43.634 169.067 44.026 169.193 44.334C169.837 43.41 170.439 41.996 170.915 40.512V47.078H171.923V39.56C172.413 40.26 172.987 41.114 173.239 41.576L173.939 40.722ZM181.219 36.186V35.192H173.701V36.186H177.341C176.431 38.664 174.989 40.876 173.225 42.276C173.463 42.458 173.869 42.878 174.023 43.088C175.003 42.22 175.927 41.1 176.711 39.826V47.036H177.733V37.936C177.999 37.362 178.237 36.788 178.447 36.186H181.219ZM177.747 39.084C178.769 40.26 180.029 41.856 180.589 42.85L181.443 42.206C180.841 41.226 179.567 39.672 178.531 38.552L177.747 39.084ZM184.677 42.906H185.811C185.559 40.708 188.079 39.882 188.079 37.824C188.079 36.298 187.043 35.332 185.461 35.332C184.327 35.332 183.431 35.878 182.787 36.62L183.515 37.292C184.005 36.732 184.621 36.396 185.321 36.396C186.315 36.396 186.833 37.068 186.833 37.908C186.833 39.574 184.355 40.47 184.677 42.906ZM185.279 46.182C185.797 46.182 186.217 45.79 186.217 45.216C186.217 44.642 185.797 44.222 185.279 44.222C184.775 44.222 184.355 44.642 184.355 45.216C184.355 45.79 184.775 46.182 185.279 46.182Z" fill="#3E3E3E"/>
<rect x="77" width="64" height="18" fill="#96C6DF"/>
<path d="M106.516 6.896H103.252V5.084H106.516V6.896ZM106.516 9.248H103.252V7.412H106.516V9.248ZM99.376 7.412H102.7V9.248H99.376V7.412ZM99.376 5.084H102.7V6.896H99.376V5.084ZM107.08 4.544H98.812V9.776H107.08V4.544ZM104.548 11.924C103.984 11.384 102.88 10.664 101.944 10.184L101.56 10.544C102.496 11.036 103.6 11.804 104.152 12.332L104.548 11.924ZM98.2 14.312C98.812 13.532 99.244 12.26 99.532 11.312L99.028 11.132C98.764 12.044 98.308 13.28 97.684 14.036L98.2 14.312ZM101.932 14.072C101.2 14.072 101.068 14 101.068 13.676V11.048H100.492V13.676C100.492 14.432 100.804 14.612 101.932 14.612H104.596C105.616 14.612 105.82 14.24 105.916 12.644C105.748 12.608 105.52 12.524 105.364 12.416C105.304 13.856 105.208 14.072 104.572 14.072H101.932ZM105.976 11.18C106.696 12.104 107.428 13.376 107.716 14.192L108.268 13.94C107.968 13.136 107.212 11.888 106.492 10.964L105.976 11.18ZM113.188 11.84C112.696 11.996 112.204 12.164 111.724 12.308V8.912H113.008V8.372H111.724V5.444H113.296V4.892H109.648V5.444H111.184V8.372H109.744V8.912H111.184V12.476C110.56 12.668 109.984 12.836 109.528 12.968L109.672 13.532C110.668 13.22 112 12.788 113.272 12.38L113.188 11.84ZM115.576 12.296C115.084 13.04 114.16 13.916 113.248 14.504C113.392 14.6 113.56 14.756 113.644 14.864C114.58 14.252 115.504 13.376 116.092 12.56L115.576 12.296ZM117.796 12.596C118.624 13.268 119.548 14.204 119.968 14.84L120.448 14.492C119.992 13.868 119.056 12.944 118.228 12.296L117.796 12.596ZM115.468 9.968H118.516V11.336H115.468V9.968ZM118.516 6.308V7.628H115.468V6.308H118.516ZM115.468 8.12H118.516V9.464H115.468V8.12ZM119.08 11.336V6.308H120.232V5.78H119.08V4.004H118.516V5.78H115.468V4.004H114.916V5.78H113.668V6.308H114.916V11.336H113.428V11.864H120.448V11.336H119.08Z" fill="white"/>
<line y1="22.5" x2="17" y2="22.5" stroke="#3E3E3E"/>
<line x1="5" y1="34.5" x2="5" y2="17.5" stroke="#3E3E3E"/>
<line x1="203" y1="56" x2="186" y2="56" stroke="#3E3E3E"/>
<line x1="198" y1="44" x2="198" y2="61" stroke="#3E3E3E"/>
</svg>
